<svg width="268" height="255" viewBox="0 0 268 255" fill="none" xmlns="http://www.w3.org/2000/svg">
<path d="M34.0007 251.52H96.0007V52.52H34.0007V251.52Z" fill="#F5F5F5"/>
<path d="M65.0007 251.52H96.0007V52.52H65.0007V251.52Z" fill="#ECECEC"/>
<path d="M40.0007 52.52H62.0007V32.52H40.0007V52.52Z" fill="#F5F5F5"/>
<path d="M57.0007 52.52H62.0007V32.52H57.0007V52.52Z" fill="#ECECEC"/>
<path d="M28.0007 52.52V51.52H98.0007V52.52" fill="#E1E1E1"/>
<path d="M46.0007 72.52H51.0007V61.52H46.0007V72.52Z" fill="#FAFAFA"/>
<path d="M64.7097 76.561C64.7097 76.679 57.6917 76.774 49.0377 76.774C40.3837 76.774 33.3627 76.674 33.3627 76.561C33.3627 76.448 40.3797 76.343 49.0367 76.343C57.6937 76.343 64.7097 76.438 64.7097 76.561Z" fill="#E1E1E1"/>
<mask id="mask0_797_2740" style="mask-type:luminance" maskUnits="userSpaceOnUse" x="0" y="0" width="268" height="254">
<path d="M0.000671387 253.52H267.612V0H0.000671387V253.52Z" fill="white"/>
</mask>
<g mask="url(#mask0_797_2740)">
<path d="M77.3567 72.172H82.6637V61H77.3567V72.172Z" fill="#E1E1E1"/>
<path d="M96.3277 76.561C96.3277 76.679 89.3097 76.774 80.6557 76.774C72.0017 76.774 64.9817 76.674 64.9817 76.561C64.9817 76.448 71.9977 76.343 80.6557 76.343C89.3137 76.343 96.3277 76.438 96.3277 76.561Z" fill="#E1E1E1"/>
<path d="M77.3567 94.353H82.6637V83.181H77.3567V94.353Z" fill="#E1E1E1"/>
<path d="M96.3277 98.743C96.3277 98.861 89.3097 98.956 80.6557 98.956C72.0017 98.956 64.9817 98.856 64.9817 98.743C64.9817 98.63 71.9977 98.525 80.6557 98.525C89.3137 98.525 96.3277 98.621 96.3277 98.743Z" fill="#E1E1E1"/>
<path d="M77.3567 117.204H82.6637V106.032H77.3567V117.204Z" fill="#E1E1E1"/>
<path d="M96.3277 121.593C96.3277 121.711 89.3097 121.806 80.6557 121.806C72.0017 121.806 64.9817 121.706 64.9817 121.593C64.9817 121.48 71.9977 121.375 80.6557 121.375C89.3137 121.375 96.3277 121.47 96.3277 121.593Z" fill="#E1E1E1"/>
<path d="M77.3567 140.054H82.6637V128.882H77.3567V140.054Z" fill="#E1E1E1"/>
<path d="M96.3277 144.444C96.3277 144.562 89.3097 144.657 80.6557 144.657C72.0017 144.657 64.9817 144.557 64.9817 144.444C64.9817 144.331 71.9977 144.226 80.6557 144.226C89.3137 144.226 96.3277 144.322 96.3277 144.444Z" fill="#E1E1E1"/>
<path d="M77.3567 162.251H82.6637V151.079H77.3567V162.251Z" fill="#E1E1E1"/>
<path d="M96.3277 166.641C96.3277 166.759 89.3097 166.854 80.6557 166.854C72.0017 166.854 64.9817 166.754 64.9817 166.641C64.9817 166.528 71.9977 166.423 80.6557 166.423C89.3137 166.423 96.3277 166.519 96.3277 166.641Z" fill="#E1E1E1"/>
<path d="M77.3567 184.538H82.6637V173.366H77.3567V184.538Z" fill="#E1E1E1"/>
<path d="M77.3567 207.117H82.6637V195.945H77.3567V207.117Z" fill="#E1E1E1"/>
<path d="M96.3277 188.927C96.3277 189.045 89.3097 189.14 80.6557 189.14C72.0017 189.14 64.9817 189.04 64.9817 188.927C64.9817 188.814 71.9977 188.709 80.6557 188.709C89.3137 188.709 96.3277 188.805 96.3277 188.927Z" fill="#E1E1E1"/>
<path d="M45.7377 94.692H51.0447V83.52H45.7377V94.692Z" fill="#FAFAFA"/>
<path d="M64.7097 99.081C64.7097 99.199 57.6917 99.294 49.0377 99.294C40.3837 99.294 33.3627 99.194 33.3627 99.081C33.3627 98.968 40.3797 98.863 49.0367 98.863C57.6937 98.863 64.7097 98.959 64.7097 99.081Z" fill="#E1E1E1"/>
<path d="M45.7377 117.211H51.0447V106.039H45.7377V117.211Z" fill="#FAFAFA"/>
<path d="M64.7097 121.601C64.7097 121.719 57.6917 121.814 49.0377 121.814C40.3837 121.814 33.3627 121.714 33.3627 121.601C33.3627 121.488 40.3797 121.383 49.0367 121.383C57.6937 121.383 64.7097 121.478 64.7097 121.601Z" fill="#E1E1E1"/>
<path d="M45.7377 139.731H51.0447V128.559H45.7377V139.731Z" fill="#FAFAFA"/>
<path d="M64.7097 144.121C64.7097 144.239 57.6917 144.334 49.0377 144.334C40.3837 144.334 33.3627 144.234 33.3627 144.121C33.3627 144.008 40.3797 143.903 49.0367 143.903C57.6937 143.903 64.7097 143.999 64.7097 144.121Z" fill="#E1E1E1"/>
<path d="M45.7377 162.251H51.0447V151.079H45.7377V162.251Z" fill="#FAFAFA"/>
<path d="M64.7097 166.641C64.7097 166.759 57.6917 166.854 49.0377 166.854C40.3837 166.854 33.3627 166.754 33.3627 166.641C33.3627 166.528 40.3797 166.423 49.0367 166.423C57.6937 166.423 64.7097 166.519 64.7097 166.641Z" fill="#E1E1E1"/>
<path d="M45.7377 184.771H51.0447V173.599H45.7377V184.771Z" fill="#FAFAFA"/>
<path d="M64.7097 189.161C64.7097 189.279 57.6917 189.374 49.0377 189.374C40.3837 189.374 33.3627 189.274 33.3627 189.161C33.3627 189.048 40.3797 188.943 49.0367 188.943C57.6937 188.943 64.7097 189.039 64.7097 189.161Z" fill="#E1E1E1"/>
<path d="M45.7377 207.291H51.0447V196.119H45.7377V207.291Z" fill="#FAFAFA"/>
<path d="M78.8057 250.394H6.3537L6.0387 136.066H78.4907L78.8057 250.394Z" fill="#ECECEC"/>
<path d="M42.2646 250.394H78.4907V136.066H42.2646V250.394Z" fill="#E1E1E1"/>
<path d="M14.3116 136.065H39.8956V113.558H14.3116V136.065Z" fill="#ECECEC"/>
<path d="M33.7987 136.065H39.8987V113.558H33.7987V136.065Z" fill="#E1E1E1"/>
<path d="M0.000671387 136.066H80.6107V134.753H0.000671387V136.066Z" fill="#E1E1E1"/>
<path d="M20.3397 158.793H26.4727V145.882H20.3397V158.793Z" fill="white"/>
<path d="M42.2647 163.865C42.2647 164.001 34.1547 164.111 24.1527 164.111C14.1507 164.111 6.0387 163.996 6.0387 163.865C6.0387 163.734 14.1467 163.614 24.1517 163.614C34.1567 163.614 42.2647 163.724 42.2647 163.865Z" fill="#E1E1E1"/>
<path d="M56.8806 158.793H63.0136V145.882H56.8806V158.793Z" fill="#F5F5F5"/>
<path d="M78.8057 163.865C78.8057 164.001 70.6957 164.111 60.6937 164.111C50.6917 164.111 42.5797 163.996 42.5797 163.865C42.5797 163.734 50.6887 163.614 60.6937 163.614C70.6987 163.614 78.8057 163.724 78.8057 163.865Z" fill="#ECECEC"/>
<path d="M56.8806 184.427H63.0136V171.516H56.8806V184.427Z" fill="#F5F5F5"/>
<path d="M78.8057 189.5C78.8057 189.636 70.6957 189.747 60.6937 189.747C50.6917 189.747 42.5797 189.631 42.5797 189.5C42.5797 189.369 50.6887 189.249 60.6937 189.249C70.6987 189.249 78.8057 189.359 78.8057 189.5Z" fill="#ECECEC"/>
<path d="M56.8806 210.835H63.0136V197.924H56.8806V210.835Z" fill="#F5F5F5"/>
<path d="M78.8057 215.907C78.8057 216.043 70.6957 216.153 60.6937 216.153C50.6917 216.153 42.5797 216.038 42.5797 215.907C42.5797 215.776 50.6887 215.656 60.6937 215.656C70.6987 215.656 78.8057 215.766 78.8057 215.907Z" fill="#ECECEC"/>
<path d="M56.8806 237.243H63.0136V224.332H56.8806V237.243Z" fill="#F5F5F5"/>
<path d="M78.8057 242.315C78.8057 242.451 70.6957 242.561 60.6937 242.561C50.6917 242.561 42.5797 242.446 42.5797 242.315C42.5797 242.184 50.6887 242.064 60.6937 242.064C70.6987 242.064 78.8057 242.174 78.8057 242.315Z" fill="#ECECEC"/>
<path d="M20.3397 184.819H26.4727V171.908H20.3397V184.819Z" fill="white"/>
<path d="M42.2647 189.891C42.2647 190.027 34.1547 190.138 24.1527 190.138C14.1507 190.138 6.0387 190.022 6.0387 189.891C6.0387 189.76 14.1467 189.64 24.1517 189.64C34.1567 189.64 42.2647 189.75 42.2647 189.891Z" fill="#E1E1E1"/>
<path d="M20.3397 210.845H26.4727V197.934H20.3397V210.845Z" fill="white"/>
<path d="M42.2647 215.916C42.2647 216.052 34.1547 216.162 24.1527 216.162C14.1507 216.162 6.0387 216.048 6.0387 215.916C6.0387 215.784 14.1467 215.665 24.1517 215.665C34.1567 215.665 42.2647 215.776 42.2647 215.916Z" fill="#E1E1E1"/>
<path d="M20.3397 236.87H26.4727V223.959H20.3397V236.87Z" fill="white"/>
<path d="M42.2647 241.942C42.2647 242.078 34.1547 242.188 24.1527 242.188C14.1507 242.188 6.0387 242.073 6.0387 241.942C6.0387 241.811 14.1467 241.691 24.1517 241.691C34.1567 241.691 42.2647 241.801 42.2647 241.942Z" fill="#E1E1E1"/>
<path d="M145.465 250.486H217.343V155.827H145.465V250.486Z" fill="#ECECEC"/>
<path d="M183.641 250.486H217.341V155.827H183.641V250.486Z" fill="#E1E1E1"/>
<path d="M160.536 184.321H166.999V168.643H160.536V184.321Z" fill="#F5F5F5"/>
<path d="M160.536 245.68H166.999V230.003H160.536V245.68Z" fill="#F5F5F5"/>
<path d="M183.641 190.473C183.641 190.65 175.095 190.793 164.554 190.793C154.013 190.793 145.465 190.655 145.465 190.473C145.465 190.291 154.01 190.155 164.554 190.155C175.098 190.155 183.641 190.297 183.641 190.473Z" fill="#F5F5F5"/>
<path d="M160.536 215.233H166.999V199.556H160.536V215.233Z" fill="#F5F5F5"/>
<path d="M183.641 221.386C183.641 221.562 175.095 221.705 164.554 221.705C154.013 221.705 145.465 221.567 145.465 221.386C145.465 221.205 154.01 221.067 164.554 221.067C175.098 221.067 183.641 221.21 183.641 221.386Z" fill="#F5F5F5"/>
<path d="M190.798 184.321H197.261V168.643H190.798V184.321Z" fill="#F5F5F5"/>
<path d="M204.819 184.321H211.282V168.643H204.819V184.321Z" fill="#F5F5F5"/>
<path d="M190.798 214.07H197.261V198.392H190.798V214.07Z" fill="#F5F5F5"/>
<path d="M204.819 214.07H211.282V198.392H204.819V214.07Z" fill="#F5F5F5"/>
<path d="M190.798 243.819H197.261V228.141H190.798V243.819Z" fill="#F5F5F5"/>
<path d="M204.819 243.819H211.282V228.141H204.819V243.819Z" fill="#F5F5F5"/>
<path d="M140.061 155.945H222.747V152.532H140.061V155.945Z" fill="#E1E1E1"/>
<path d="M217.845 156.267C217.845 156.448 201.784 156.586 181.966 156.586C162.148 156.586 146.084 156.448 146.084 156.267C146.084 156.086 162.147 155.948 181.966 155.948C201.785 155.948 217.845 156.091 217.845 156.267Z" fill="#ECECEC"/>
<path d="M216.719 18.107C217.067 15.581 213.496 13.502 210.812 13.286C209.529 13.3379 208.245 13.2271 206.99 12.956C204.364 12.042 203.314 8.65399 200.756 7.57399C198.84 6.76699 196.634 7.48499 194.775 8.41899C192.916 9.35299 191.077 10.524 189.002 10.66C187.197 10.775 185.236 10.107 183.657 10.988C182.48 11.644 181.864 12.998 180.779 13.797C179.649 14.4923 178.342 14.8458 177.016 14.815C175.694 14.7826 174.379 14.9973 173.137 15.448C172.521 15.6869 171.999 16.1186 171.649 16.6786C171.299 17.2386 171.139 17.8968 171.194 18.555L216.719 18.107Z" fill="#ECECEC"/>
<path d="M267.576 47.386C268.1 43.586 262.731 40.463 258.697 40.138C256.773 39.984 254.775 40.277 252.952 39.638C249.003 38.264 247.426 33.17 243.573 31.548C240.693 30.34 237.377 31.42 234.585 32.827C231.793 34.234 229.033 35.996 225.913 36.196C223.199 36.369 220.252 35.365 217.878 36.688C216.109 37.674 215.178 39.71 213.552 40.911C211.853 41.9564 209.889 42.4884 207.896 42.443C205.91 42.3939 203.932 42.7164 202.065 43.394C200.265 44.218 198.771 46.121 199.145 48.065L267.576 47.386Z" fill="#F5F5F5"/>
<path d="M42.3987 11.21C42.6647 9.279 39.9357 7.695 37.8837 7.527C36.9036 7.56631 35.9225 7.48164 34.9637 7.275C32.9567 6.575 32.1547 3.987 30.1957 3.163C28.7337 2.546 27.0477 3.095 25.6287 3.808C24.2881 4.66678 22.7894 5.24886 21.2207 5.52C19.8407 5.608 18.3427 5.097 17.1367 5.77C16.2367 6.27 15.7657 7.306 14.9367 7.916C14.0737 8.44805 13.0751 8.71863 12.0617 8.695C11.0518 8.6702 10.0462 8.83435 9.09666 9.179C8.62652 9.36187 8.22811 9.69184 7.96084 10.1197C7.69358 10.5475 7.5718 11.0503 7.61366 11.553L42.3987 11.21Z" fill="#F5F5F5"/>
</g>
<path d="M264.001 252.02C264.001 252.164 206.465 252.28 135.507 252.28C64.5247 252.281 7.00067 252.165 7.00067 252.02C7.00067 251.875 64.5247 251.76 135.507 251.76C206.465 251.76 264.001 251.876 264.001 252.02Z" fill="#1A2E35"/>
<path d="M79.1527 250.775C74.2267 250.776 69.5019 248.821 66.0174 245.339C62.5329 241.857 60.574 237.134 60.5717 232.208L60.6137 18.561C60.6159 16.1207 61.0989 13.7047 62.0351 11.4511C62.9713 9.19753 64.3424 7.15047 66.0699 5.42689C67.7975 3.70332 69.8477 2.33701 72.1035 1.40602C74.3592 0.475033 76.7763 -0.00239116 79.2167 0.00102529L164.572 0.0510253C169.497 0.050494 174.222 2.00604 177.706 5.48774C181.19 8.96944 183.149 13.6923 183.153 18.618L183.11 232.266C183.107 234.706 182.625 237.122 181.688 239.375C180.752 241.629 179.382 243.676 177.654 245.399C175.927 247.123 173.877 248.489 171.622 249.42C169.366 250.351 166.95 250.829 164.51 250.826L79.1527 250.775Z" fill="#19201F"/>
<path d="M148.097 7.573C147.008 7.5961 145.973 8.05069 145.219 8.83681C144.466 9.62293 144.055 10.6762 144.078 11.765V14.765C144.101 15.8538 143.69 16.9071 142.936 17.6932C142.183 18.4793 141.148 18.9339 140.059 18.957L107.804 18.933C107.264 18.9211 106.732 18.8029 106.238 18.5854C105.744 18.3679 105.298 18.0552 104.925 17.6652C104.552 17.2752 104.259 16.8155 104.064 16.3124C103.868 15.8093 103.774 15.2726 103.786 14.733V11.733C103.81 10.6433 103.4 9.58872 102.646 8.80113C101.893 8.01354 100.857 7.5574 99.7677 7.533H93.9477H79.4657C77.7566 7.53077 76.0638 7.86529 74.484 8.51747C72.9041 9.16965 71.4683 10.1267 70.2585 11.3339C69.0486 12.5412 68.0885 13.9749 67.4329 15.5534C66.7773 17.1318 66.4392 18.8239 66.4377 20.533L66.3967 229.066C66.3999 232.515 67.7724 235.822 70.2124 238.259C72.6525 240.697 75.9606 242.066 79.4097 242.066L164.591 242.115C166.3 242.117 167.993 241.783 169.573 241.131C171.152 240.478 172.588 239.521 173.798 238.314C175.008 237.107 175.968 235.673 176.624 234.095C177.279 232.516 177.617 230.824 177.619 229.115L177.66 20.579C177.656 17.1307 176.283 13.825 173.843 11.3882C171.403 8.95135 168.096 7.58273 164.648 7.583L148.097 7.573Z" fill="white"/>
<path d="M165.093 7.60001C165.534 7.60344 165.975 7.63685 166.413 7.70001C168.142 7.90865 169.807 8.48305 171.298 9.38501C172.405 10.0277 173.407 10.8372 174.269 11.785C175.32 12.9207 176.159 14.235 176.748 15.666C177.424 17.3418 177.756 19.137 177.724 20.944C177.724 22.864 177.726 24.9067 177.731 27.072C177.742 44.397 177.757 69.459 177.775 100.427C177.793 131.395 177.786 168.274 177.793 209.22C177.793 214.339 177.793 219.519 177.793 224.762V228.705C177.818 230.044 177.649 231.381 177.293 232.672C176.929 233.971 176.368 235.207 175.629 236.335C174.874 237.462 173.96 238.475 172.916 239.34C170.775 241.073 168.146 242.092 165.397 242.254C162.666 242.334 159.955 242.274 157.213 242.291L140.63 242.283L106.596 242.266L89.1887 242.257L80.3967 242.252C77.3903 242.42 74.4116 241.599 71.9167 239.913C69.441 238.195 67.6218 235.687 66.7567 232.8C66.3478 231.371 66.1643 229.886 66.2127 228.4C66.2127 226.937 66.2127 225.475 66.2127 224.016C66.2127 218.181 66.2127 212.386 66.2127 206.631C66.2127 195.122 66.2157 183.792 66.2217 172.64C66.2297 150.355 66.2367 128.86 66.2447 108.384C66.2527 87.908 66.2697 68.45 66.2787 50.239C66.284 41.1343 66.289 32.351 66.2937 23.889C66.2937 22.833 66.2937 21.782 66.2937 20.736C66.3017 20.212 66.3387 19.682 66.3667 19.159C66.4587 18.642 66.4987 18.115 66.6337 17.61C67.1039 15.5841 68.043 13.6968 69.3757 12.1C70.6951 10.5532 72.3455 9.32284 74.2047 8.50001C76.0315 7.71716 78.007 7.34179 79.9937 7.40001L91.3447 7.41601L96.8057 7.42201H99.4807C100.39 7.37545 101.29 7.6276 102.043 8.14001C102.779 8.65311 103.336 9.38354 103.636 10.229C103.884 11.0619 103.974 11.934 103.901 12.8C103.901 13.2233 103.901 13.645 103.901 14.065C103.887 14.4771 103.9 14.8897 103.941 15.3C104.042 16.1056 104.38 16.8629 104.913 17.476C105.431 18.0845 106.127 18.5159 106.903 18.71C107.287 18.8004 107.681 18.839 108.076 18.825H109.276L113.976 18.831L131.146 18.856L138.716 18.868C139.316 18.858 139.922 18.896 140.49 18.846C141.056 18.7804 141.6 18.5891 142.083 18.286C142.546 17.9932 142.946 17.6106 143.26 17.1608C143.573 16.7111 143.793 16.2032 143.908 15.667C143.999 15.1459 144.032 14.6164 144.008 14.088C144.008 13.562 144.008 13.0437 144.008 12.533C143.987 12.0263 144.01 11.5188 144.077 11.016C144.161 10.5277 144.327 10.057 144.568 9.62401C145.029 8.79093 145.765 8.14403 146.651 7.79401C147.485 7.52967 148.365 7.43614 149.237 7.51901L157.684 7.54101L162.878 7.56201C164.048 7.56801 164.648 7.58101 164.648 7.58101C164.648 7.58101 164.048 7.59301 162.878 7.59901L157.684 7.61501L149.237 7.62801C148.38 7.54783 147.515 7.64032 146.695 7.90001C145.837 8.24569 145.126 8.87836 144.683 9.69001C144.451 10.1114 144.292 10.5688 144.213 11.043C144.149 11.5403 144.128 12.0422 144.151 12.543C144.151 13.0537 144.151 13.572 144.151 14.098C144.176 14.6364 144.143 15.176 144.051 15.707C143.933 16.2626 143.706 16.7892 143.382 17.2557C143.059 17.7223 142.645 18.1195 142.166 18.424C141.664 18.7403 141.098 18.9405 140.509 19.01C139.909 19.063 139.323 19.025 138.718 19.037H131.148H113.978H108.078C107.666 19.052 107.254 19.0116 106.853 18.917C106.035 18.7123 105.301 18.258 104.753 17.617C104.191 16.9716 103.834 16.1744 103.725 15.326C103.682 14.9044 103.667 14.4805 103.681 14.057C103.681 13.637 103.681 13.2153 103.681 12.792C103.751 11.9534 103.665 11.109 103.427 10.302C103.14 9.50389 102.61 8.81546 101.913 8.33301C101.198 7.84926 100.344 7.61384 99.4827 7.66301H79.9937C78.0443 7.60462 76.1056 7.97181 74.3127 8.73901C72.4915 9.54839 70.8757 10.7569 69.5847 12.275C68.2843 13.84 67.3691 15.6881 66.9127 17.671C66.7807 18.171 66.7427 18.682 66.6527 19.187C66.6217 19.7 66.5847 20.214 66.5777 20.736C66.5777 21.7813 66.5777 22.8323 66.5777 23.889C66.5777 32.3417 66.5793 41.1253 66.5827 50.24C66.5827 68.45 66.5827 87.908 66.5877 108.384C66.5927 128.86 66.5877 150.355 66.5877 172.641C66.5877 183.783 66.5877 195.113 66.5877 206.631C66.5877 212.385 66.5877 218.18 66.5877 224.016C66.5877 225.475 66.5877 226.937 66.5877 228.4C66.5378 229.85 66.715 231.299 67.1127 232.694C67.9537 235.503 69.7233 237.942 72.1317 239.614C74.5651 241.257 77.4711 242.056 80.4027 241.887L89.1937 241.892L106.601 241.903L140.635 241.925L157.213 241.937C159.946 241.922 162.688 241.981 165.375 241.904C168.05 241.747 170.61 240.756 172.694 239.07C173.711 238.227 174.6 237.242 175.336 236.145C176.056 235.047 176.602 233.844 176.957 232.579C177.305 231.319 177.469 230.014 177.444 228.707C177.444 227.388 177.444 226.074 177.444 224.764C177.444 219.522 177.446 214.341 177.45 209.222C177.474 168.276 177.494 131.399 177.511 100.429C177.528 69.459 177.567 44.399 177.584 27.074C177.587 24.9093 177.59 22.8667 177.594 20.946C177.632 19.1543 177.309 17.3732 176.644 15.709C176.064 14.2869 175.236 12.9794 174.198 11.848C173.346 10.9022 172.354 10.0927 171.257 9.44801C169.78 8.54397 168.129 7.96036 166.413 7.73501C165.976 7.66698 165.535 7.6269 165.093 7.61501C164.793 7.59701 164.648 7.58301 164.648 7.58301C164.648 7.58301 164.797 7.58301 165.093 7.60001Z" fill="#1A2E35"/>
<path d="M125.798 49.845C125.798 49.636 125.79 49.355 125.784 49C125.776 48.249 125.766 47.184 125.753 45.847C125.739 43.147 125.719 39.347 125.697 34.874L125.811 34.989L115.499 34.996C115.47 35.023 115.734 34.762 115.622 34.875V35.945C115.622 36.3003 115.622 36.654 115.622 37.006C115.622 37.7093 115.622 38.4047 115.622 39.092C115.622 40.464 115.622 41.798 115.622 43.084C115.609 45.654 115.603 48.033 115.598 50.145L115.498 50.045L122.981 50.098L125.064 50.123L125.615 50.134C125.681 50.1333 125.748 50.137 125.815 50.145C125.757 50.1536 125.698 50.1573 125.64 50.156L125.108 50.167L123.045 50.19L115.498 50.245H115.398V50.145C115.392 48.033 115.386 45.654 115.379 43.083C115.379 41.797 115.379 40.463 115.379 39.091C115.379 38.4043 115.379 37.709 115.379 37.005V34.879C115.261 34.985 115.524 34.719 115.499 34.745L125.811 34.758H125.926V34.872C125.903 39.372 125.883 43.2 125.87 45.92C125.857 47.246 125.846 48.302 125.839 49.047C125.833 49.393 125.828 49.665 125.825 49.869C125.826 49.9602 125.822 50.0514 125.812 50.142C125.802 50.0433 125.797 49.9442 125.798 49.845Z" fill="white"/>
<path d="M123.902 34.872V34.985H123.788L122.424 34.996L122.299 34.871V34.588C122.299 34.495 122.299 34.403 122.299 34.31C122.299 34.13 122.299 33.953 122.304 33.78C122.311 33.4527 122.318 33.1393 122.324 32.84V32.74H122.424C122.88 32.7321 123.337 32.7656 123.788 32.84C123.336 32.9033 122.88 32.9367 122.424 32.94L122.524 32.84C122.53 33.138 122.536 33.4503 122.542 33.777C122.542 33.95 122.542 34.127 122.542 34.307C122.542 34.399 122.542 34.491 122.542 34.585V34.864C122.661 34.983 122.396 34.72 122.424 34.747L123.788 34.758L123.671 34.872C123.67 34.193 123.709 33.5145 123.788 32.84C123.876 33.5136 123.914 34.1928 123.902 34.872Z" fill="white"/>
<path d="M129.419 50.233H128.674L125.81 50.217H125.737V50.147C125.706 46.707 125.686 41.147 125.686 34.872V34.747H125.85H129.665H129.786V34.872C129.764 39.254 129.745 43.098 129.73 45.872C129.715 47.218 129.703 48.304 129.695 49.082C129.688 49.436 129.683 49.719 129.678 49.935C129.68 50.0303 129.675 50.1256 129.663 50.22C129.651 50.1151 129.646 50.0096 129.647 49.904C129.647 49.681 129.638 49.39 129.631 49.024C129.623 48.24 129.611 47.143 129.596 45.785C129.586 43.033 129.565 39.22 129.542 34.872L129.664 34.994L125.85 34.996H125.811L125.936 34.872C125.936 41.147 125.916 46.707 125.886 50.147L125.813 50.073L128.631 50.173L129.392 50.207C129.483 50.2085 129.574 50.2155 129.665 50.228C129.583 50.2369 129.501 50.2386 129.419 50.233Z" fill="white"/>
<mask id="mask1_797_2740" style="mask-type:luminance" maskUnits="userSpaceOnUse" x="0" y="0" width="268" height="254">
<path d="M0.000671387 253.52H267.612V0H0.000671387V253.52Z" fill="white"/>
</mask>
<g mask="url(#mask1_797_2740)">
<path d="M117.142 38.387H118.742V36.787H117.142V38.387Z" fill="white"/>
<path d="M119.855 38.387H121.455V36.787H119.855V38.387Z" fill="white"/>
<path d="M122.568 38.387H124.168V36.787H122.568V38.387Z" fill="white"/>
<path d="M117.142 41.131H118.742V39.531H117.142V41.131Z" fill="white"/>
<path d="M119.855 41.131H121.455V39.531H119.855V41.131Z" fill="white"/>
<path d="M122.568 41.131H124.168V39.531H122.568V41.131Z" fill="white"/>
<path d="M117.142 43.876H118.742V42.276H117.142V43.876Z" fill="white"/>
<path d="M119.855 43.876H121.455V42.276H119.855V43.876Z" fill="white"/>
<path d="M122.568 43.876H124.168V42.276H122.568V43.876Z" fill="white"/>
<path d="M117.142 46.621H118.742V45.021H117.142V46.621Z" fill="white"/>
<path d="M161.001 93.52H86.0007C80.4779 93.52 76.0007 97.9971 76.0007 103.52C76.0007 109.043 80.4779 113.52 86.0007 113.52H161.001C166.524 113.52 171.001 109.043 171.001 103.52C171.001 97.9971 166.524 93.52 161.001 93.52Z" fill="#CCCCCC"/>
<path d="M161.001 126.52H86.0007C80.4779 126.52 76.0007 130.997 76.0007 136.52C76.0007 142.043 80.4779 146.52 86.0007 146.52H161.001C166.524 146.52 171.001 142.043 171.001 136.52C171.001 130.997 166.524 126.52 161.001 126.52Z" fill="#005FC3"/>
<path d="M159.501 156.52H88.5007C87.6723 156.52 87.0007 157.192 87.0007 158.02C87.0007 158.848 87.6723 159.52 88.5007 159.52H159.501C160.329 159.52 161.001 158.848 161.001 158.02C161.001 157.192 160.329 156.52 159.501 156.52Z" fill="#FFE275"/>
<path d="M145.501 166.52H99.5007C98.6723 166.52 98.0007 167.192 98.0007 168.02C98.0007 168.848 98.6723 169.52 99.5007 169.52H145.501C146.329 169.52 147.001 168.848 147.001 168.02C147.001 167.192 146.329 166.52 145.501 166.52Z" fill="#FFE275"/>
<path d="M119.855 46.621H121.455V45.021H119.855V46.621Z" fill="white"/>
<path d="M122.568 46.621H124.168V45.021H122.568V46.621Z" fill="white"/>
<path d="M126.804 38.387H128.404V36.787H126.804V38.387Z" fill="white"/>
<path d="M126.804 41.131H128.404V39.531H126.804V41.131Z" fill="white"/>
<path d="M126.804 43.876H128.404V42.276H126.804V43.876Z" fill="white"/>
<path d="M126.804 46.621H128.404V45.021H126.804V46.621Z" fill="white"/>
<path d="M120.04 50.142H121.607V47.671H120.04V50.142Z" fill="white"/>
<path d="M133.086 50.147C133.086 50.216 128.124 50.272 122.003 50.272C115.882 50.272 110.92 50.211 110.92 50.147C110.92 50.083 115.881 50.018 122.003 50.018C128.125 50.018 133.086 50.073 133.086 50.147Z" fill="white"/>
</g>
<path d="M198.184 101.288L172.934 101.788L168.852 101.429C168.852 101.429 159.613 101.167 158.728 101.029C157.706 100.869 157.383 101.325 157.347 101.706C157.299 102.296 157.957 102.831 158.83 102.996C159.13 103.053 163.93 103.757 163.93 103.757C163.435 103.966 162.955 104.21 162.494 104.486C161.488 105.058 160.718 106.646 160.509 108.366C160.3 110.086 160.39 110.587 161.052 110.696C161.179 110.712 161.307 110.698 161.429 110.658C161.55 110.617 161.66 110.549 161.752 110.46C162.087 110.112 162.311 109.672 162.397 109.196C162.958 105.92 164.259 106.133 164.259 106.133L164.828 106.119C164.828 106.119 163.347 107.663 163.647 109.068C163.69 109.275 163.773 109.472 163.892 109.648C163.835 110.021 163.877 110.402 164.014 110.754C164.15 111.106 164.376 111.416 164.669 111.654C164.962 111.892 165.312 112.049 165.684 112.11C166.056 112.171 166.438 112.134 166.792 112.002C167.135 111.873 167.479 111.59 167.461 111.223C167.434 111.032 167.361 110.851 167.247 110.696C167.191 110.609 167.143 110.518 167.104 110.423L168.618 110.344C168.618 110.344 172.01 109.984 173.503 109.994L197.224 110.779C200.602 111.135 204.258 110.422 204.553 107.029C204.873 103.338 201.874 101.091 198.185 101.291" fill="#FFBF9D"/>
<path d="M172.482 102.524C172.478 102.788 172.392 103.045 172.236 103.258C172.079 103.471 171.859 103.629 171.608 103.711C171.122 103.911 170.582 103.945 170.082 104.111C168.589 104.612 167.662 106.237 166.145 106.665C165.934 106.724 165.655 106.731 165.552 106.537C165.449 106.343 165.587 106.144 165.712 105.982L168.905 101.847" fill="#FFBF9D"/>
<path d="M168.906 101.847C168.757 101.966 168.626 102.105 168.515 102.259C168.278 102.537 167.944 102.947 167.535 103.447L166.113 105.239L165.705 105.759C165.507 105.945 165.39 106.201 165.378 106.472C165.392 106.559 165.433 106.639 165.493 106.703C165.554 106.767 165.633 106.811 165.719 106.83C165.86 106.861 166.006 106.857 166.146 106.819C166.393 106.75 166.633 106.653 166.859 106.53C167.64 106.009 168.384 105.433 169.085 104.808C169.396 104.566 169.742 104.373 170.111 104.234C170.457 104.112 170.811 104.057 171.129 103.971C171.394 103.928 171.647 103.828 171.869 103.676C172.091 103.525 172.277 103.327 172.415 103.096C172.468 103.012 172.501 102.916 172.512 102.817C172.523 102.718 172.511 102.618 172.478 102.524C172.453 102.705 172.396 102.879 172.31 103.04C172.166 103.24 171.982 103.407 171.77 103.532C171.558 103.657 171.322 103.737 171.078 103.766C170.767 103.836 170.41 103.879 170.03 103.999C169.632 104.136 169.258 104.334 168.921 104.586C168.221 105.19 167.487 105.751 166.721 106.267C166.516 106.377 166.301 106.466 166.078 106.53C165.868 106.586 165.671 106.543 165.669 106.43C165.647 106.303 165.793 106.112 165.932 105.937L166.332 105.411L167.702 103.579C168.088 103.056 168.402 102.629 168.602 102.33C168.725 102.184 168.827 102.021 168.906 101.847Z" fill="#FF9A6C"/>
<path d="M164.828 106.119C164.494 106.1 164.16 106.158 163.854 106.291C163.537 106.454 163.28 106.713 163.122 107.032C162.927 107.432 162.797 107.86 162.735 108.301C162.672 108.757 162.563 109.206 162.41 109.64C162.277 110.002 162.05 110.322 161.754 110.569C161.65 110.652 161.528 110.71 161.398 110.738C161.268 110.766 161.133 110.763 161.004 110.73C160.91 110.71 160.823 110.664 160.754 110.598C160.762 110.581 160.854 110.627 161.019 110.656C161.135 110.673 161.253 110.665 161.365 110.631C161.478 110.597 161.581 110.539 161.669 110.461C161.931 110.217 162.129 109.912 162.246 109.573C162.384 109.147 162.485 108.709 162.546 108.265C162.611 107.805 162.753 107.358 162.966 106.945C163.149 106.599 163.443 106.325 163.801 106.167C164.038 106.065 164.297 106.024 164.554 106.047C164.735 106.067 164.827 106.109 164.824 106.119" fill="#FF9A6C"/>
<path d="M158.494 102.926C158.815 102.942 159.134 102.987 159.448 103.06L161.736 103.44L164.03 103.787C164.35 103.814 164.668 103.87 164.979 103.955C164.657 103.98 164.334 103.968 164.015 103.92C163.422 103.871 162.604 103.773 161.707 103.63C160.81 103.487 160.002 103.329 159.422 103.194C159.103 103.14 158.792 103.05 158.494 102.926Z" fill="#FF9A6C"/>
<path d="M165.741 107.37C165.752 107.379 165.686 107.47 165.586 107.632C165.51 107.736 165.457 107.856 165.432 107.982C165.406 108.108 165.408 108.238 165.437 108.364C165.464 108.443 165.512 108.513 165.575 108.567C165.638 108.622 165.715 108.659 165.797 108.675C166.002 108.718 166.212 108.735 166.422 108.726C166.686 108.711 166.946 108.793 167.154 108.957C167.257 109.059 167.335 109.183 167.381 109.32C167.427 109.457 167.441 109.604 167.42 109.747C167.398 109.888 167.347 110.022 167.271 110.142C167.195 110.263 167.096 110.366 166.979 110.447C166.769 110.601 166.518 110.689 166.258 110.699C165.844 110.689 165.433 110.619 165.04 110.49C164.77 110.412 164.515 110.288 164.286 110.124C164.129 109.999 164.075 109.897 164.086 109.893C164.097 109.889 164.17 109.963 164.331 110.062C164.565 110.196 164.816 110.297 165.078 110.362C165.461 110.468 165.858 110.523 166.256 110.524C166.484 110.517 166.703 110.435 166.88 110.29C167.056 110.145 167.18 109.946 167.232 109.724C167.249 109.611 167.24 109.496 167.205 109.387C167.17 109.278 167.111 109.179 167.032 109.097C166.857 108.962 166.641 108.895 166.421 108.906C166.196 108.91 165.972 108.885 165.755 108.83C165.651 108.804 165.555 108.751 165.478 108.677C165.4 108.603 165.343 108.511 165.312 108.408C165.281 108.264 165.285 108.115 165.322 107.973C165.36 107.831 165.43 107.7 165.528 107.59C165.651 107.435 165.728 107.363 165.741 107.37Z" fill="#FF9A6C"/>
<path d="M166.849 110.345C166.849 110.336 166.955 110.325 167.115 110.414C167.227 110.481 167.322 110.573 167.392 110.683C167.463 110.793 167.507 110.917 167.521 111.047C167.534 111.242 167.495 111.436 167.41 111.611C167.325 111.787 167.196 111.937 167.035 112.047C166.643 112.306 166.165 112.404 165.703 112.32C165.244 112.251 164.819 112.039 164.488 111.715C164.221 111.449 164.03 111.116 163.934 110.752C163.868 110.51 163.849 110.258 163.876 110.009C163.898 109.834 163.933 109.745 163.944 109.745C163.938 110.072 163.979 110.398 164.064 110.713C164.17 111.045 164.358 111.346 164.61 111.587C164.92 111.878 165.311 112.068 165.731 112.133C166.145 112.208 166.573 112.127 166.931 111.905C167.071 111.813 167.186 111.688 167.265 111.54C167.344 111.393 167.385 111.228 167.384 111.06C167.377 110.947 167.345 110.836 167.292 110.736C167.239 110.635 167.165 110.547 167.075 110.478C166.943 110.38 166.845 110.363 166.849 110.345Z" fill="#FF9A6C"/>
<path d="M170.561 107.534C170.54 107.377 170.567 107.218 170.638 107.077C170.783 106.699 171.05 106.38 171.396 106.171L171.418 106.339C171.206 106.284 170.999 106.215 170.796 106.134C170.071 105.88 169.431 105.43 168.948 104.834C169.546 105.276 170.189 105.652 170.867 105.957C171.073 106.039 171.276 106.108 171.467 106.163L171.677 106.225L171.488 106.334C171.168 106.521 170.91 106.796 170.744 107.127C170.619 107.375 170.586 107.542 170.561 107.538" fill="#FF9A6C"/>
<path d="M162.396 106.358C162.426 106.317 162.74 106.558 162.855 107.005C162.97 107.452 162.816 107.816 162.77 107.794C162.724 107.772 162.776 107.448 162.67 107.058C162.564 106.668 162.357 106.401 162.396 106.358Z" fill="#FF9A6C"/>
<path d="M217.242 85.3C216.851 85.851 199.593 99.551 197.462 100.129C195.331 100.707 175.599 101 175.599 101C175.599 101 174.057 113.162 174.562 113.988C176.435 117.026 198.962 125.052 209.716 114.177L217.242 86.6" fill="#005FC3"/>
<path d="M195.583 107.555C195.446 107.215 195.373 106.853 195.37 106.487C195.222 104.723 195.561 102.952 196.351 101.368C196.489 101.029 196.69 100.719 196.944 100.455C196.47 101.576 196.091 102.735 195.811 103.919C195.634 105.123 195.558 106.339 195.583 107.555Z" fill="#1A2E35"/>
<path d="M197.456 108.029C197.319 107.657 197.237 107.266 197.212 106.87C197.085 105.927 197.013 104.977 196.995 104.025C196.974 103.073 197.007 102.121 197.095 101.173C197.104 100.776 197.171 100.383 197.294 100.005C197.384 100.015 197.254 101.805 197.303 104.019C197.352 106.233 197.546 108.019 197.457 108.03" fill="#1A2E35"/>
<path d="M217.368 87.484L217.824 84.57L214.155 87.813L212.329 94.16L217.368 87.484Z" fill="#1A2E35"/>
<path d="M221.329 81.557L218.747 83.01L210.458 96.965L210.491 104.272C209.38 107.233 208.683 110.333 208.42 113.484C208.298 117.584 208.42 132.605 208.42 132.605L197.947 202.218L206.897 205.118L224.617 124.057V80.457L221.329 81.557Z" fill="#E0934A"/>
<path d="M206.897 205.118L199.815 202.824L209.951 127.305C209.951 127.305 208.251 116.236 209.951 111.388C211.651 106.54 214.239 99.41 214.239 99.41L211.282 112.93C211.515 124.692 211.07 136.459 209.951 148.17H212.663L206.897 205.118Z" fill="black"/>
<path d="M215.289 88.834C215.232 88.9644 215.163 89.089 215.082 89.206C214.94 89.446 214.705 89.783 214.441 90.241C213.685 91.5261 213.02 92.8627 212.452 94.241C211.62 96.2908 210.951 98.403 210.452 100.558C209.85 103.203 209.405 105.88 209.118 108.577C208.795 111.447 208.6 114.193 208.508 116.694C208.416 119.195 208.431 121.449 208.444 123.344C208.452 125.212 208.458 126.734 208.464 127.834C208.457 128.339 208.452 128.745 208.448 129.055C208.453 129.197 208.444 129.34 208.421 129.48C208.394 129.339 208.381 129.196 208.382 129.052C208.375 128.743 208.361 128.334 208.344 127.834C208.315 126.734 208.275 125.214 208.226 123.346C208.182 121.451 208.152 119.192 208.225 116.684C208.298 114.176 208.488 111.421 208.812 108.543C209.099 105.834 209.554 103.146 210.174 100.494C210.689 98.3278 211.383 96.2082 212.25 94.157C212.839 92.7771 213.537 91.4462 214.338 90.177C214.618 89.727 214.87 89.4 215.029 89.17C215.104 89.0499 215.191 88.9374 215.289 88.834Z" fill="#1A2E35"/>
<path d="M241.684 61.059C242.345 59.4996 243.508 58.2056 244.989 57.382C245.729 56.983 246.554 56.7696 247.395 56.7602C248.236 56.7507 249.066 56.9456 249.815 57.328C250.553 57.7347 251.143 58.3641 251.503 59.1264C251.862 59.8887 251.971 60.7449 251.815 61.573C253.089 62.2529 254.058 63.3914 254.525 64.7582C254.992 66.125 254.923 67.6182 254.332 68.936C253.646 70.205 252.502 71.1649 251.134 71.6202C249.765 72.0756 248.274 71.9922 246.965 71.387C248.341 73.207 247.165 76.187 245.01 76.926C243.904 77.22 242.73 77.1268 241.685 76.6621C240.639 76.1973 239.784 75.3889 239.261 74.371C238.772 73.3351 238.525 72.2019 238.537 71.0566C238.55 69.9113 238.822 68.7838 239.334 67.759" fill="#1A2E35"/>
<path d="M240.718 62.219C240.875 61.8319 241.129 61.4922 241.457 61.2333C241.785 60.9744 242.174 60.805 242.587 60.742C243.001 60.6937 243.421 60.78 243.783 60.9881C244.144 61.1963 244.43 61.5153 244.597 61.898C244.741 62.2893 244.733 62.7208 244.572 63.1058C244.411 63.4908 244.111 63.8007 243.731 63.973C244.198 64.1962 244.58 64.5668 244.816 65.0279C245.053 65.489 245.131 66.0149 245.04 66.525C244.925 67.0295 244.647 67.4822 244.25 67.8133C243.852 68.1443 243.357 68.3354 242.84 68.357C243.073 68.7872 243.156 69.283 243.075 69.7657C242.994 70.2485 242.755 70.6903 242.394 71.021C242.016 71.3327 241.545 71.5083 241.056 71.5195C240.567 71.5308 240.088 71.377 239.697 71.083C239.13 70.5865 238.781 69.8867 238.726 69.135C238.675 68.3904 238.722 67.6423 238.866 66.91C239.036 65.7933 239.206 64.6763 239.376 63.559C239.418 63.0632 239.561 62.5814 239.797 62.143C239.917 61.9267 240.099 61.7512 240.319 61.6388C240.539 61.5264 240.788 61.4823 241.034 61.512" fill="#DA2C2C"/>
<path d="M213.712 53.056C213.359 52.3097 213.255 51.4701 213.415 50.6603C213.574 49.8505 213.989 49.113 214.598 48.556C215.853 47.47 217.487 46.9244 219.143 47.038C220.78 47.1587 222.394 47.4949 223.943 48.038C224.532 47.2679 225.324 46.6769 226.23 46.3311C227.136 45.9852 228.121 45.8983 229.073 46.0799C230.026 46.2614 230.909 46.7044 231.625 47.3593C232.34 48.0141 232.859 48.855 233.124 49.788C233.688 49.5648 234.302 49.5 234.901 49.6006C235.499 49.7013 236.059 49.9636 236.519 50.3591C236.979 50.7547 237.322 51.2685 237.511 51.8449C237.701 52.4214 237.729 53.0387 237.593 53.63L230.645 57.13L224.495 72.174C223.426 73.2905 222.001 73.9979 220.466 74.1736C218.931 74.3493 217.383 73.9822 216.09 73.136C214.847 72.2139 213.964 70.8879 213.592 69.3855C213.22 67.8832 213.383 66.2983 214.053 64.903C213.556 64.5629 213.119 64.1437 212.759 63.662C212.074 63.3674 211.455 62.9397 210.937 62.4037C210.42 61.8678 210.013 61.2342 209.743 60.54C209.506 59.7881 209.422 58.9968 209.493 58.2119C209.565 57.427 209.793 56.6642 210.162 55.9679C210.531 55.2716 211.035 54.6556 211.645 54.1557C212.254 53.6558 212.957 53.282 213.712 53.056Z" fill="#1A2E35"/>
<path d="M222.274 81.663C222.434 79.323 222.548 77.719 222.546 77.737C222.546 77.737 218.041 76.614 217.566 70.566C217.488 66.6055 217.776 62.6463 218.428 58.739C218.936 55.173 221.65 50.965 225.18 51.625L236.08 55.325C237.153 55.525 237.457 56.472 237.35 57.561L237.4 58.078L235.527 75.144L234.79 82.756C234.615 84.3919 233.805 85.894 232.535 86.9394C231.265 87.9849 229.635 88.4904 227.996 88.3472C226.357 88.2041 224.839 87.4238 223.769 86.1739C222.699 84.9241 222.162 83.3045 222.274 81.663Z" fill="#FFBF9D"/>
<path d="M219.559 63.446C219.541 63.6452 219.602 63.8434 219.728 63.9986C219.854 64.1537 220.036 64.2536 220.235 64.277C220.332 64.293 220.431 64.2893 220.526 64.2662C220.622 64.243 220.712 64.2009 220.791 64.1423C220.87 64.0837 220.936 64.0099 220.986 63.9251C221.036 63.8404 221.068 63.7465 221.081 63.649C221.099 63.4499 221.038 63.2515 220.913 63.0962C220.787 62.9408 220.605 62.8407 220.407 62.817C220.31 62.801 220.21 62.8047 220.114 62.8279C220.019 62.8511 219.929 62.8932 219.85 62.9519C219.77 63.0106 219.704 63.0846 219.654 63.1694C219.604 63.2543 219.572 63.3484 219.559 63.446Z" fill="#1A2E35"/>
<path d="M219.425 61.962C219.515 62.068 220.124 61.686 220.946 61.753C221.768 61.82 222.338 62.281 222.435 62.187C222.482 62.145 222.399 61.958 222.152 61.745C221.816 61.4695 221.403 61.305 220.97 61.274C220.542 61.2395 220.115 61.3425 219.75 61.568C219.481 61.74 219.382 61.913 219.425 61.962Z" fill="#1A2E35"/>
<path d="M227.022 64.046C227.004 64.2451 227.065 64.4433 227.191 64.5985C227.317 64.7537 227.498 64.8536 227.697 64.877C227.794 64.8931 227.893 64.8896 227.989 64.8665C228.084 64.8434 228.174 64.8013 228.253 64.7427C228.333 64.6841 228.399 64.6102 228.449 64.5254C228.499 64.4406 228.531 64.3466 228.544 64.249C228.562 64.0497 228.501 63.8513 228.375 63.6959C228.249 63.5405 228.067 63.4404 227.869 63.417C227.772 63.401 227.672 63.4047 227.577 63.4279C227.481 63.4511 227.391 63.4933 227.312 63.552C227.233 63.6107 227.166 63.6846 227.117 63.7695C227.067 63.8544 227.034 63.9484 227.022 64.046Z" fill="#1A2E35"/>
<path d="M227.285 62.428C227.376 62.534 227.986 62.151 228.807 62.219C229.628 62.287 230.199 62.746 230.296 62.652C230.343 62.611 230.262 62.423 230.013 62.211C229.677 61.9355 229.264 61.771 228.831 61.74C228.403 61.7058 227.976 61.8087 227.611 62.034C227.343 62.205 227.243 62.379 227.285 62.428Z" fill="#1A2E35"/>
<path d="M223.884 68.027C223.461 67.8567 223.018 67.7401 222.567 67.68C222.359 67.641 222.167 67.58 222.14 67.437C222.14 67.2176 222.208 67.0037 222.334 66.824L223.081 65.271C223.762 63.9581 224.337 62.5927 224.801 61.188C224.014 62.4425 223.329 63.758 222.753 65.122L222.034 66.688C221.882 66.9316 221.82 67.2207 221.86 67.505C221.884 67.5815 221.926 67.6514 221.982 67.7095C222.037 67.7675 222.105 67.8121 222.181 67.84C222.295 67.8805 222.413 67.9064 222.534 67.917C222.978 68.0111 223.433 68.0481 223.887 68.027" fill="#1A2E35"/>
<path d="M222.546 77.736C225.347 78.0018 228.168 77.4824 230.691 76.236C230.691 76.236 228.346 80.292 222.429 79.261L222.546 77.736Z" fill="#FF9A6C"/>
<path d="M227.452 60.191C227.54 60.415 228.362 60.303 229.33 60.413C230.3 60.504 231.082 60.783 231.209 60.58C231.266 60.48 231.129 60.273 230.809 60.057C230.387 59.788 229.907 59.6234 229.409 59.577C228.915 59.5215 228.416 59.5843 227.952 59.76C227.598 59.906 227.421 60.084 227.452 60.191Z" fill="#1A2E35"/>
<path d="M219.579 60.347C219.736 60.547 220.421 60.407 221.227 60.461C222.035 60.492 222.705 60.705 222.877 60.521C222.953 60.432 222.859 60.236 222.576 60.035C222.182 59.7798 221.727 59.6357 221.259 59.618C220.795 59.5865 220.332 59.6819 219.919 59.894C219.619 60.064 219.511 60.25 219.579 60.347Z" fill="#1A2E35"/>
<path d="M233.058 51.7832C233.015 52.3827 232.841 52.9654 232.547 53.4898C232.254 54.0143 231.848 54.4676 231.359 54.8175C230.871 55.1674 230.311 55.4053 229.72 55.5143C229.129 55.6233 228.521 55.6008 227.94 55.4482C227.04 55.2112 226.08 54.6732 225.255 55.0982C224.387 55.5452 224.255 56.7982 223.473 57.3782C222.353 58.2112 220.749 57.2252 219.385 57.5182C218.373 57.9052 217.497 58.5808 216.866 59.4612C216.119 60.2382 215.033 60.9482 214.027 60.5612C214.128 59.6334 214.336 58.7204 214.647 57.8402C214.962 56.9538 215.573 56.2035 216.378 55.7162C216.847 55.5172 217.307 55.2946 217.754 55.0492C218.662 54.4232 218.954 53.2352 219.554 52.3092C219.947 51.7153 220.477 51.2239 221.098 50.8757C221.719 50.5276 222.415 50.3326 223.127 50.3072C224.308 50.2772 225.488 50.7232 226.653 50.5222C227.517 50.3742 228.297 49.8812 229.165 49.7842C230.855 49.5952 232.312 50.9132 233.428 52.2012" fill="#1A2E35"/>
<path d="M227.544 53.75C228.308 53.594 229.872 53.226 230.323 52.607C230.778 51.94 231.401 51.4052 232.129 51.0571C232.858 50.709 233.665 50.5599 234.47 50.625C235.277 50.7524 236.021 51.1376 236.591 51.723C237.161 52.3085 237.527 53.0627 237.633 53.873C238.605 53.9835 239.529 54.3545 240.308 54.9468C241.087 55.5391 241.691 56.3307 242.058 57.238C242.435 58.1896 242.576 59.2184 242.468 60.2364C242.361 61.2544 242.008 62.2311 241.441 63.083C241.168 63.5323 240.928 64.0001 240.721 64.483C241.144 64.89 241.527 65.3363 241.866 65.816C243.446 68.389 240.24 69.866 240.24 69.866C240.466 71.703 238.779 71.912 237.695 72.046C236.653 72.175 236.383 75.152 235.527 75.146L235.237 66.094C235.117 66.1578 234.986 66.1992 234.851 66.216C232.815 66.516 232.851 62.576 233.384 61.489C232.676 60.8114 232.056 60.0474 231.539 59.215C230.994 57.9116 230.784 56.4923 230.929 55.087C230.204 55.073 227.209 53.818 227.544 53.75Z" fill="#1A2E35"/>
<path d="M234.992 66.605C235.024 66.3113 235.13 66.0304 235.3 65.789C235.47 65.5476 235.699 65.3534 235.965 65.2248C236.231 65.0962 236.526 65.0373 236.821 65.0538C237.116 65.0703 237.402 65.1616 237.652 65.319C238.014 65.6083 238.285 65.9965 238.432 66.4367C238.579 66.8768 238.595 67.35 238.478 67.799C238.052 71.386 234.546 70.22 234.552 70.116C234.552 70.051 234.804 68.088 234.992 66.606" fill="#FFBF9D"/>
<path d="M235.801 68.887C235.818 68.877 235.858 68.938 235.958 68.999C236.098 69.0797 236.264 69.103 236.422 69.064C236.67 68.9443 236.882 68.7609 237.036 68.5325C237.19 68.3041 237.281 68.0389 237.299 67.764C237.346 67.4571 237.324 67.1436 237.236 66.846C237.215 66.73 237.167 66.6207 237.096 66.5274C237.024 66.434 236.931 66.3594 236.824 66.31C236.754 66.2827 236.677 66.2805 236.606 66.3039C236.535 66.3273 236.474 66.3747 236.435 66.438C236.376 66.533 236.389 66.607 236.37 66.611C236.351 66.615 236.301 66.541 236.347 66.397C236.377 66.3106 236.436 66.2372 236.514 66.189C236.621 66.1265 236.748 66.1086 236.869 66.139C237.012 66.1856 237.142 66.2683 237.244 66.3791C237.347 66.4899 237.419 66.6252 237.455 66.772C237.571 67.1007 237.606 67.453 237.555 67.798C237.535 68.1194 237.42 68.4278 237.225 68.6842C237.03 68.9406 236.764 69.1337 236.46 69.239C236.36 69.2556 236.258 69.2495 236.162 69.2213C236.065 69.1931 235.976 69.1434 235.901 69.076C235.801 68.976 235.792 68.892 235.801 68.887Z" fill="#FF9A6C"/>
<path d="M215.782 64.146C215.8 64.117 215.437 63.946 214.926 63.459C214.212 62.7618 213.715 61.872 213.498 60.898C213.34 60.2351 213.319 59.5471 213.437 58.876C213.572 58.1082 213.912 57.3911 214.421 56.8C215.014 56.134 215.773 55.6356 216.619 55.3548C217.466 55.074 218.372 55.0206 219.246 55.2C219.415 55.231 219.575 55.293 219.737 55.337C219.899 55.381 220.044 55.464 220.191 55.524L220.42 55.617L220.393 55.378C220.345 54.9595 220.448 54.5376 220.683 54.188C220.917 53.845 221.224 53.5582 221.583 53.348C222.275 52.9471 223.078 52.7815 223.872 52.876C225.401 53.023 226.749 53.541 227.957 53.525C228.909 53.5641 229.842 53.246 230.573 52.633C230.759 52.4584 230.914 52.2531 231.031 52.026C231.072 51.9472 231.102 51.8631 231.12 51.776C230.956 52.0661 230.748 52.3284 230.502 52.553C229.774 53.1073 228.871 53.3816 227.958 53.326C227.325 53.293 226.697 53.1958 226.084 53.036C225.364 52.8469 224.632 52.7066 223.894 52.616C223.483 52.5739 223.069 52.586 222.662 52.652C222.233 52.7309 221.821 52.8835 221.445 53.103C221.047 53.332 220.705 53.6474 220.445 54.026C220.172 54.4316 220.052 54.9212 220.108 55.407L220.308 55.261C220.151 55.196 219.991 55.123 219.824 55.061C219.657 54.999 219.48 54.948 219.3 54.915C218.378 54.7258 217.422 54.7844 216.53 55.0848C215.638 55.3852 214.842 55.9166 214.222 56.625C213.689 57.2547 213.337 58.0176 213.204 58.832C213.091 59.536 213.125 60.2558 213.304 60.946C213.546 61.9472 214.086 62.8515 214.852 63.54C215.057 63.7256 215.282 63.887 215.524 64.021C215.604 64.0741 215.691 64.1161 215.782 64.146Z" fill="#375A64"/>
<path d="M214.922 51.853C215.248 51.6229 215.607 51.4448 215.988 51.325C216.425 51.206 216.883 51.1889 217.328 51.275C217.902 51.3746 218.428 51.6619 218.822 52.092L218.978 52.266L219.031 52.04C219.227 51.3414 219.605 50.7075 220.127 50.2035C220.649 49.6995 221.296 49.3435 222.001 49.172C223.118 48.9842 224.267 49.1624 225.275 49.68C226.129 50.0946 227.023 50.4212 227.943 50.655C228.576 50.8064 229.236 50.7991 229.866 50.634C230.034 50.5856 230.197 50.5185 230.351 50.434C230.451 50.372 230.505 50.334 230.5 50.328C230.488 50.304 230.27 50.428 229.838 50.528C229.223 50.6454 228.59 50.6221 227.986 50.46C227.086 50.201 226.213 49.8596 225.376 49.44C224.861 49.2053 224.324 49.0218 223.773 48.892C223.168 48.7539 222.54 48.7539 221.935 48.892C221.18 49.0744 220.489 49.4583 219.936 50.0027C219.383 50.5471 218.987 51.2315 218.793 51.983L219.002 51.93C218.568 51.4684 217.99 51.1677 217.363 51.077C216.888 51.0014 216.403 51.0408 215.947 51.192C215.656 51.2868 215.385 51.4331 215.147 51.624C214.988 51.763 214.917 51.849 214.925 51.857" fill="#375A64"/>
<path d="M224.398 69.772C224.511 69.6427 224.652 69.54 224.81 69.4709C224.968 69.4018 225.139 69.368 225.311 69.372C225.505 69.3893 225.693 69.4469 225.863 69.5411C226.034 69.6352 226.183 69.764 226.301 69.919L226.317 69.937C226.328 69.951 226.343 69.963 226.353 69.978L226.338 69.972C226.43 70.0835 226.484 70.2221 226.492 70.367C226.485 70.5285 226.438 70.6859 226.357 70.8254C226.275 70.9648 226.16 71.0821 226.023 71.167C225.81 71.3122 225.558 71.3879 225.301 71.3838C225.043 71.3797 224.793 71.2959 224.586 71.144C224.388 70.9804 224.259 70.7486 224.225 70.4946C224.19 70.2405 224.252 69.9827 224.398 69.772Z" fill="#FF4F5B"/>
<path d="M226.525 69.097C226.478 69.085 226.406 69.274 226.225 69.522C226 69.843 225.687 70.0926 225.325 70.241C224.957 70.3757 224.558 70.4021 224.176 70.317C223.879 70.254 223.7 70.162 223.67 70.203C223.64 70.244 223.788 70.403 224.108 70.535C224.535 70.7041 225.01 70.7066 225.44 70.542C225.868 70.3749 226.217 70.0539 226.421 69.642C226.57 69.324 226.563 69.105 226.525 69.097Z" fill="#1A2E35"/>
<path d="M240.317 59.206C240.375 59.1733 240.428 59.1333 240.476 59.087C240.618 58.9627 240.751 58.829 240.876 58.687C241.349 58.1646 241.682 57.5314 241.846 56.846C241.954 56.367 241.954 55.87 241.846 55.391C241.724 54.8362 241.446 54.3276 241.046 53.925C240.823 53.7026 240.557 53.527 240.265 53.4084C239.973 53.2897 239.661 53.2304 239.346 53.234C239.004 53.2269 238.665 53.2994 238.356 53.4457C238.047 53.592 237.777 53.8081 237.566 54.077L237.731 54.164C237.731 54.152 237.74 54.139 237.743 54.125C238.205 52.9066 238.17 51.5551 237.643 50.363C237.423 49.8817 237.089 49.4615 236.67 49.1391C236.25 48.8166 235.758 48.6017 235.237 48.513C234.884 48.4685 234.527 48.4954 234.185 48.5919C233.843 48.6885 233.525 48.8528 233.248 49.075C233.102 49.1968 232.974 49.3377 232.866 49.494C232.824 49.5485 232.791 49.6084 232.766 49.672C232.92 49.4724 233.097 49.2915 233.294 49.133C233.847 48.7243 234.539 48.5494 235.22 48.646C235.715 48.7392 236.181 48.9511 236.577 49.2635C236.973 49.576 237.287 49.9796 237.493 50.44C237.987 51.5926 238.013 52.8924 237.566 54.064C237.566 54.077 237.557 54.09 237.554 54.102L237.372 54.658L237.72 54.194C237.914 53.9499 238.161 53.7536 238.443 53.6205C238.724 53.4873 239.033 53.4207 239.345 53.426C239.637 53.4212 239.927 53.4744 240.198 53.5828C240.469 53.6911 240.716 53.8523 240.924 54.057C241.305 54.4343 241.571 54.9117 241.693 55.434C241.802 55.8903 241.811 56.3652 241.717 56.825C241.568 57.4943 241.261 58.1182 240.822 58.645C240.515 59.022 240.304 59.197 240.317 59.21" fill="#1A2E35"/>
<path d="M246.253 70.969C246.284 70.9866 246.318 71.0007 246.353 71.011L246.644 71.117C246.901 71.207 247.28 71.339 247.774 71.492C248.374 71.6806 248.985 71.8342 249.603 71.952C250.426 72.1128 251.268 72.1519 252.103 72.068C253.124 71.9664 254.099 71.595 254.93 70.992C255.398 70.6309 255.791 70.1803 256.084 69.6663C256.377 69.1523 256.565 68.5853 256.637 67.998C256.799 66.7007 256.593 65.384 256.043 64.198C255.764 63.5638 255.351 62.998 254.832 62.54C254.284 62.0641 253.585 61.7998 252.86 61.795C252.338 61.7861 251.829 61.9519 251.413 62.266L251.539 62.405C251.991 61.907 252.316 61.3064 252.485 60.655C252.64 60.0251 252.666 59.3705 252.564 58.73C252.472 58.1261 252.253 57.5486 251.921 57.0357C251.589 56.5229 251.152 56.0863 250.639 55.755C249.707 55.1701 248.611 54.9038 247.516 54.996C246.567 55.0697 245.661 55.4198 244.91 56.003C244.3 56.486 243.798 57.0913 243.437 57.78C243.168 58.2954 242.977 58.8477 242.87 59.419C242.8 59.7784 242.766 60.1439 242.77 60.51C242.777 60.626 242.783 60.72 242.788 60.794C242.788 60.8277 242.792 60.8612 242.8 60.894C242.795 60.4033 242.84 59.9135 242.935 59.432C243.054 58.8708 243.253 58.3297 243.526 57.825C243.889 57.1573 244.387 56.5717 244.987 56.105C245.722 55.5457 246.605 55.2131 247.527 55.148C248.588 55.0656 249.647 55.3287 250.547 55.898C251.037 56.2181 251.455 56.6386 251.771 57.1317C252.088 57.6249 252.296 58.1795 252.383 58.759C252.48 59.3744 252.453 60.0031 252.304 60.608C252.143 61.2285 251.834 61.8008 251.404 62.276L251.53 62.415C251.912 62.1259 252.38 61.9729 252.86 61.98C253.54 61.9848 254.197 62.2331 254.711 62.68C255.209 63.1229 255.604 63.6689 255.87 64.28C256.407 65.4322 256.611 66.7117 256.46 67.974C256.393 68.5402 256.215 69.0875 255.935 69.5843C255.656 70.0811 255.28 70.5174 254.831 70.868C254.025 71.4598 253.077 71.828 252.083 71.935C251.261 72.025 250.432 71.9957 249.619 71.848C249.002 71.7384 248.393 71.5958 247.792 71.421L246.653 71.08L246.353 70.992C246.32 70.98 246.287 70.9719 246.253 70.968" fill="#1A2E35"/>
<path d="M240.801 76.697C240.932 76.8018 241.074 76.8913 241.226 76.964C241.624 77.1874 242.04 77.379 242.469 77.537C243.109 77.7817 243.79 77.9009 244.476 77.888C245.33 77.8693 246.15 77.5507 246.793 76.988C247.118 76.684 247.365 76.3069 247.516 75.888C247.652 75.5025 247.721 75.0968 247.722 74.688C247.714 74.0002 247.572 73.3206 247.302 72.688C247.127 72.2641 246.927 71.8516 246.701 71.453C246.628 71.302 246.54 71.1589 246.439 71.026C246.491 71.1852 246.558 71.3392 246.639 71.486C246.774 71.778 246.981 72.196 247.179 72.733C247.423 73.3534 247.548 74.0142 247.549 74.681C247.555 75.083 247.48 75.4822 247.328 75.8543C247.176 76.2265 246.95 76.5639 246.664 76.846C246.052 77.3801 245.275 77.6864 244.464 77.713C243.799 77.7335 243.136 77.6318 242.509 77.413C241.433 77.037 240.818 76.66 240.801 76.697Z" fill="#1A2E35"/>
<path d="M238.886 79.024C238.722 78.9954 238.566 78.933 238.428 78.841C238.25 78.7035 238.112 78.5225 238.025 78.3155C237.939 78.1086 237.907 77.8827 237.934 77.66C237.943 77.5102 237.985 77.3642 238.056 77.2318C238.127 77.0995 238.225 76.9839 238.345 76.893C238.476 76.7914 238.637 76.7363 238.803 76.7363C238.969 76.7363 239.13 76.7914 239.262 76.893C239.326 76.953 239.377 77.025 239.413 77.105C239.449 77.185 239.468 77.2714 239.471 77.359C239.472 77.4473 239.45 77.5343 239.407 77.6111C239.363 77.6878 239.299 77.7513 239.223 77.795C239.049 77.8856 238.851 77.9159 238.659 77.881C238.453 77.8477 238.257 77.7725 238.082 77.66C237.748 77.4239 237.474 77.1132 237.282 76.7526C237.09 76.392 236.985 75.9915 236.975 75.583C236.963 74.9028 237.091 74.2275 237.352 73.599C237.49 73.1614 237.698 72.7491 237.968 72.378C238.022 72.317 238.088 72.2682 238.162 72.2349C238.237 72.2017 238.317 72.1846 238.399 72.185C238.359 72.1636 238.314 72.1549 238.269 72.16C238.136 72.1725 238.011 72.2308 237.917 72.325C237.77 72.4687 237.65 72.6382 237.565 72.825C237.458 73.034 237.342 73.275 237.228 73.549C236.941 74.1909 236.794 74.8868 236.799 75.59C236.815 76.0106 236.917 76.4234 237.099 76.803C237.292 77.2177 237.597 77.5697 237.981 77.819C238.171 77.9583 238.395 78.0444 238.63 78.0683C238.865 78.0922 239.102 78.0531 239.317 77.955C239.421 77.8939 239.507 77.8061 239.566 77.7006C239.624 77.595 239.654 77.4757 239.651 77.355C239.648 77.2427 239.622 77.1322 239.576 77.03C239.529 76.9278 239.462 76.8359 239.38 76.76C239.3 76.6905 239.207 76.6375 239.106 76.6042C239.006 76.5709 238.899 76.5579 238.794 76.566C238.599 76.5802 238.412 76.6495 238.255 76.766C238.119 76.8714 238.008 77.0051 237.929 77.1578C237.851 77.3104 237.806 77.4784 237.799 77.65C237.776 77.892 237.818 78.1358 237.921 78.3559C238.024 78.5761 238.184 78.7647 238.385 78.902C238.494 78.9734 238.619 79.0177 238.75 79.031C238.794 79.0395 238.84 79.0367 238.884 79.023" fill="#1A2E35"/>
<path d="M251.248 71.2352C251.3 71.2523 251.354 71.2614 251.409 71.2622C251.566 71.2668 251.723 71.2449 251.874 71.1972C252.15 71.1008 252.401 70.9417 252.606 70.7323C252.811 70.5229 252.965 70.2689 253.056 69.9902C253.165 69.5672 253.161 69.123 253.045 68.7019C252.929 68.2808 252.704 67.8975 252.394 67.5902C251.939 67.1173 251.367 66.7751 250.735 66.5992C250.103 66.4233 249.436 66.4202 248.803 66.5902L248.917 66.7132C249.068 66.2453 249.097 65.7467 249.003 65.2642C248.908 64.7818 248.692 64.3313 248.376 63.9552C248.104 63.63 247.757 63.3768 247.364 63.2182C247.025 63.0874 246.665 63.0223 246.303 63.0262C245.78 63.029 245.269 63.1795 244.828 63.4602C244.71 63.5339 244.601 63.6204 244.503 63.7182C244.432 63.7852 244.403 63.8262 244.403 63.8262C244.403 63.8262 244.556 63.6972 244.863 63.5202C245.302 63.2728 245.799 63.1465 246.303 63.1542C246.646 63.16 246.985 63.2295 247.303 63.3592C247.669 63.5139 247.992 63.7559 248.243 64.0642C248.535 64.4188 248.733 64.8409 248.82 65.292C248.906 65.743 248.878 66.2086 248.739 66.6462L248.681 66.8142L248.852 66.7682C249.453 66.6089 250.086 66.612 250.686 66.7772C251.285 66.9423 251.831 67.2636 252.266 67.7082C252.56 67.9931 252.775 68.3492 252.891 68.7418C253.007 69.1344 253.019 69.5503 252.927 69.9492C252.846 70.213 252.708 70.4556 252.522 70.6592C252.336 70.8628 252.106 71.0223 251.851 71.1262C251.657 71.1903 251.455 71.2263 251.251 71.2332" fill="#375A64"/>
<path d="M251.68 60.168C251.606 60.1214 251.524 60.0895 251.438 60.074C251.201 60.0157 250.956 60.0005 250.715 60.029C250.344 60.07 249.989 60.1963 249.676 60.398C249.271 60.6515 248.956 61.0258 248.776 61.468L248.929 61.44C248.632 61.1182 248.232 60.9114 247.798 60.856C247.171 60.7741 246.536 60.9207 246.009 61.269C245.591 61.5516 245.23 61.9085 244.942 62.322C244.746 62.5941 244.569 62.8795 244.413 63.176C244.346 63.2816 244.294 63.396 244.259 63.516C244.289 63.534 244.538 63.07 245.046 62.407C245.339 62.0187 245.696 61.6835 246.103 61.416C246.598 61.1004 247.188 60.9687 247.771 61.044C248.161 61.0931 248.521 61.2758 248.792 61.561L248.892 61.669L248.946 61.533C249.109 61.124 249.395 60.7751 249.763 60.533C250.053 60.3339 250.383 60.2011 250.731 60.144C251.046 60.1064 251.366 60.1145 251.68 60.168Z" fill="#375A64"/>
<path d="M235.44 78.206L222.068 80.106L221.468 84.348C221.468 84.348 214.831 95.999 214.239 99.406C213.647 102.813 210.69 111.272 211.282 117.649C211.874 124.026 209.951 148.17 209.951 148.17H213.351L226.512 116.018L235.44 78.206Z" fill="#F1F1F1"/>
<path d="M244.671 233.403L248.028 245.578C248.028 245.578 236.616 252.19 237.018 254.501L260.989 249.719L256.536 230.535L244.671 233.403Z" fill="#DA2C2C"/>
<path d="M255.134 242.788C255.379 242.804 255.61 242.909 255.783 243.084C255.955 243.26 256.057 243.492 256.069 243.738C256.063 243.984 255.963 244.219 255.79 244.394C255.617 244.569 255.383 244.67 255.137 244.678C254.876 244.662 254.63 244.549 254.447 244.361C254.265 244.174 254.158 243.925 254.149 243.664C254.182 243.408 254.313 243.175 254.515 243.014C254.716 242.853 254.972 242.775 255.229 242.798" fill="white"/>
<path d="M260.99 249.719L260.541 247.785L237.555 253.211C237.336 253.388 237.164 253.617 237.055 253.876C236.947 254.136 236.904 254.419 236.932 254.699L260.99 249.719Z" fill="white"/>
<path d="M247.611 245.548C247.642 245.664 248.236 245.578 248.896 245.815C249.562 246.036 249.976 246.47 250.072 246.399C250.172 246.35 249.836 245.699 249.031 245.422C248.226 245.145 247.563 245.447 247.611 245.548Z" fill="#1A2E35"/>
<path d="M245.365 247.18C245.365 247.299 245.915 247.38 246.426 247.78C246.949 248.163 247.175 248.672 247.289 248.639C247.402 248.631 247.321 247.93 246.676 247.447C246.031 246.964 245.342 247.066 245.365 247.18Z" fill="#1A2E35"/>
<path d="M244.664 250.509C244.775 250.509 244.799 249.888 244.349 249.321C243.899 248.754 243.293 248.631 243.264 248.74C243.221 248.851 243.655 249.11 244.017 249.58C244.379 250.05 244.539 250.524 244.658 250.509" fill="#1A2E35"/>
<path d="M247.156 242.689C247.23 242.783 247.724 242.495 248.391 242.383C249.058 242.271 249.618 242.356 249.655 242.242C249.692 242.128 249.102 241.83 248.318 241.973C247.534 242.116 247.077 242.61 247.156 242.689Z" fill="#1A2E35"/>
<path d="M245.339 235.81L245.939 237.983L257.597 235.083L257.139 233.11L245.339 235.81Z" fill="black"/>
<path d="M246.523 240.22C246.938 240.233 247.349 240.133 247.712 239.93C248.123 239.751 248.51 239.522 248.866 239.249C249.078 239.088 249.278 238.911 249.466 238.722C249.581 238.615 249.68 238.492 249.758 238.355C249.814 238.254 249.835 238.137 249.818 238.022C249.801 237.908 249.746 237.802 249.663 237.722C249.586 237.655 249.494 237.607 249.394 237.582C249.295 237.557 249.192 237.555 249.092 237.578C248.94 237.613 248.795 237.669 248.66 237.746C248.42 237.869 248.193 238.013 247.98 238.177C247.621 238.455 247.309 238.788 247.054 239.163C246.784 239.485 246.62 239.882 246.584 240.3C246.645 240.325 246.827 239.9 247.284 239.341C247.554 239.017 247.864 238.73 248.208 238.486C248.408 238.344 248.62 238.219 248.841 238.111C249.077 237.985 249.291 237.932 249.382 238.029C249.416 238.066 249.422 238.082 249.388 238.168C249.329 238.267 249.256 238.357 249.172 238.436C249.001 238.617 248.82 238.787 248.629 238.947C248.303 239.218 247.953 239.457 247.583 239.663C247.217 239.823 246.862 240.01 246.523 240.22Z" fill="#1A2E35"/>
<path d="M246.714 240.351C246.86 239.957 246.876 239.526 246.759 239.122C246.675 238.675 246.515 238.246 246.287 237.853C246.149 237.62 245.987 237.402 245.806 237.202C245.705 237.06 245.569 236.947 245.411 236.873C245.253 236.799 245.079 236.768 244.906 236.781C244.8 236.808 244.704 236.865 244.63 236.944C244.555 237.024 244.505 237.124 244.486 237.231C244.457 237.385 244.451 237.542 244.467 237.698C244.49 237.973 244.554 238.242 244.658 238.498C244.828 238.931 245.103 239.315 245.459 239.615C246.07 240.122 246.588 240.145 246.588 240.104C246.613 240.036 246.155 239.904 245.659 239.404C245.371 239.109 245.151 238.755 245.015 238.367C244.935 238.143 244.887 237.91 244.873 237.673C244.85 237.409 244.896 237.182 244.997 237.186C245.115 237.156 245.359 237.298 245.506 237.473C245.672 237.652 245.823 237.845 245.955 238.05C246.179 238.404 246.352 238.788 246.469 239.19C246.669 239.882 246.647 240.347 246.715 240.35" fill="#1A2E35"/>
<path d="M209.646 232.666L208.157 245.209C208.157 245.209 195.099 246.998 194.599 249.29L218.592 253.966L221.711 234.515L209.646 232.666Z" fill="#DA2C2C"/>
<path d="M215.788 245.324C216.009 245.431 216.183 245.617 216.277 245.845C216.37 246.073 216.376 246.327 216.294 246.559C216.196 246.784 216.015 246.963 215.788 247.059C215.562 247.155 215.308 247.16 215.078 247.073C214.843 246.958 214.659 246.761 214.561 246.519C214.464 246.277 214.459 246.007 214.548 245.762C214.674 245.538 214.883 245.372 215.129 245.298C215.376 245.225 215.641 245.25 215.87 245.368" fill="white"/>
<path d="M218.592 253.963L218.906 252.003L195.583 248.299C195.313 248.38 195.068 248.526 194.869 248.726C194.67 248.925 194.524 249.171 194.445 249.441L218.592 253.963Z" fill="white"/>
<path d="M207.786 245.024C207.772 245.142 208.353 245.288 208.874 245.758C209.395 246.228 209.627 246.774 209.743 246.744C209.855 246.738 209.789 246.003 209.143 245.444C208.497 244.885 207.777 244.912 207.786 245.024Z" fill="#1A2E35"/>
<path d="M205.087 245.679C205.045 245.79 205.524 246.07 205.847 246.633C206.187 247.186 206.204 247.742 206.322 247.756C206.43 247.792 206.622 247.112 206.204 246.42C205.786 245.728 205.109 245.567 205.087 245.679Z" fill="#1A2E35"/>
<path d="M203.18 248.495C203.28 248.536 203.539 247.971 203.337 247.276C203.135 246.581 202.623 246.238 202.557 246.329C202.477 246.415 202.78 246.815 202.937 247.393C203.094 247.971 203.065 248.465 203.18 248.495Z" fill="#1A2E35"/>
<path d="M208.439 242.204C208.474 242.319 209.039 242.24 209.7 242.389C210.361 242.538 210.846 242.83 210.923 242.739C211.005 242.664 210.567 242.147 209.787 241.983C209.007 241.819 208.398 242.102 208.439 242.204Z" fill="#1A2E35"/>
<path d="M209.355 235.15L209.087 237.385L220.971 239.129L221.297 237.129L209.355 235.15Z" fill="black"/>
<path d="M208.788 239.678C209.167 239.848 209.586 239.911 209.999 239.861C210.447 239.851 210.892 239.786 211.324 239.668C211.58 239.599 211.831 239.511 212.076 239.407C212.224 239.353 212.363 239.276 212.488 239.179C212.578 239.106 212.641 239.006 212.668 238.894C212.695 238.781 212.684 238.663 212.637 238.558C212.591 238.467 212.524 238.387 212.441 238.327C212.359 238.266 212.264 238.225 212.163 238.208C212.01 238.182 211.854 238.179 211.7 238.199C211.432 238.222 211.167 238.269 210.908 238.341C210.471 238.462 210.056 238.651 209.679 238.901C209.038 239.334 208.779 239.745 208.815 239.774C208.862 239.821 209.193 239.494 209.83 239.154C210.2 238.957 210.594 238.808 211.002 238.712C211.241 238.657 211.485 238.622 211.73 238.606C211.996 238.579 212.214 238.606 212.262 238.735C212.279 238.782 212.279 238.8 212.214 238.867C212.122 238.936 212.021 238.992 211.914 239.034C211.686 239.136 211.452 239.225 211.214 239.3C210.81 239.427 210.396 239.517 209.976 239.567C209.578 239.576 209.181 239.613 208.788 239.678Z" fill="#1A2E35"/>
<path d="M208.916 239.872C208.955 239.897 209.255 239.51 209.416 238.75C209.506 238.305 209.52 237.847 209.457 237.397C209.419 237.13 209.354 236.867 209.264 236.613C209.224 236.443 209.14 236.286 209.022 236.158C208.903 236.029 208.753 235.934 208.587 235.88C208.479 235.866 208.369 235.883 208.271 235.928C208.172 235.974 208.088 236.047 208.03 236.139C207.946 236.271 207.881 236.415 207.837 236.565C207.753 236.829 207.71 237.105 207.709 237.382C207.705 237.846 207.815 238.304 208.031 238.715C208.406 239.415 208.876 239.634 208.892 239.596C208.672 239.273 208.472 238.937 208.292 238.591C208.137 238.211 208.067 237.801 208.086 237.391C208.096 237.153 208.14 236.917 208.217 236.691C208.301 236.442 208.429 236.25 208.521 236.291C208.641 236.308 208.815 236.533 208.882 236.754C208.969 236.981 209.036 237.215 209.082 237.454C209.156 237.865 209.172 238.285 209.129 238.7C209.052 239.416 208.857 239.84 208.919 239.867" fill="#1A2E35"/>
<path d="M227.76 195.529C227.76 195.976 222.272 238.996 222.272 238.996L206.334 235.958L212.75 191.558L227.76 195.529Z" fill="#19201F"/>
<path d="M247.19 190.929C247.339 191.351 258.424 234.78 258.424 234.78L243.264 238.286L230.272 191.558L247.19 190.929Z" fill="#19201F"/>
<path d="M232.902 79.578L236.024 78.511L241.473 85.979L242.938 109.967L239.174 122.323C239.174 122.323 249.785 145.835 249.956 151.671C250.127 157.507 254.897 211.846 254.897 211.846L205.802 215.858L214.872 126.958C214.872 126.958 216.072 105.158 217.44 101.9C218.808 98.642 232.902 79.578 232.902 79.578Z" fill="#E0934A"/>
<path d="M237.12 156.831C237.12 156.841 237.058 156.874 236.927 156.931C236.733 157.004 236.532 157.058 236.327 157.091C235.563 157.19 234.788 157.076 234.085 156.763C233.045 156.284 232.165 155.515 231.551 154.549C230.813 153.384 230.229 152.129 229.811 150.815C229.009 148.449 228.584 145.971 228.551 143.473C228.544 142.719 228.578 141.965 228.651 141.214C228.665 140.937 228.707 140.662 228.778 140.394C228.8 140.669 228.797 140.946 228.769 141.221C228.755 141.753 228.734 142.521 228.769 143.467C228.866 145.934 229.315 148.375 230.104 150.715C230.514 152.005 231.08 153.241 231.789 154.394C232.366 155.326 233.192 156.078 234.175 156.565C234.841 156.883 235.578 157.024 236.315 156.973C236.835 156.921 237.115 156.807 237.12 156.835" fill="#1A2E35"/>
<path d="M254.896 211.846C254.896 211.846 254.814 211.861 254.653 211.88L253.937 211.952L251.166 212.204L240.855 213.088L205.813 216.008L205.633 216.023L205.651 215.843C206.044 211.982 206.451 207.978 206.868 203.88C208.608 187.01 210.182 171.739 211.323 160.672C211.906 155.154 212.379 150.688 212.707 147.583L213.099 144.026C213.146 143.629 213.182 143.321 213.208 143.102C213.233 142.893 213.256 142.788 213.256 142.788C213.256 142.788 213.256 142.896 213.239 143.105C213.222 143.314 213.194 143.635 213.16 144.033C213.082 144.86 212.97 146.058 212.826 147.596C212.52 150.702 212.081 155.174 211.538 160.696C210.421 171.764 208.879 187.038 207.175 203.911C206.756 208.011 206.347 212.011 205.952 215.873L205.789 215.708L240.839 212.897L251.157 212.097L253.931 211.897L254.65 211.852C254.811 211.843 254.896 211.846 254.896 211.846Z" fill="#1A2E35"/>
<path d="M238.82 82.342C238.781 82.3782 238.738 82.4091 238.691 82.434L238.299 82.678L236.785 83.6C236.129 84 235.325 84.493 234.408 85.086C233.953 85.386 233.46 85.703 232.979 86.086C232.869 86.1659 232.772 86.2608 232.689 86.368C232.667 86.495 232.652 86.68 232.634 86.837C232.596 87.164 232.554 87.499 232.503 87.837C232.284 89.3302 231.981 90.8099 231.596 92.269C231.178 93.9569 230.561 95.5894 229.759 97.132C228.859 98.789 227.272 99.985 225.802 101.276C225.033 101.906 224.363 102.648 223.814 103.476C223.265 104.329 223.035 105.349 223.166 106.355C223.352 107.367 223.639 108.358 224.022 109.313C224.364 110.279 224.564 111.289 224.616 112.313C224.667 114.246 224.327 116.17 223.616 117.968C222.994 119.588 222.219 121.145 221.301 122.617C220.456 124.005 219.622 125.265 218.865 126.417C217.345 128.717 216.135 130.588 215.351 131.917C214.954 132.577 214.663 133.097 214.466 133.452C214.374 133.616 214.301 133.752 214.24 133.852C214.217 133.901 214.188 133.946 214.154 133.987C214.167 133.936 214.187 133.888 214.213 133.842C214.266 133.732 214.331 133.595 214.413 133.425C214.593 133.06 214.87 132.525 215.249 131.856C216.003 130.508 217.188 128.615 218.685 126.3C219.43 125.14 220.253 123.875 221.085 122.487C221.985 121.024 222.745 119.478 223.354 117.871C224.044 116.107 224.373 114.223 224.321 112.33C224.269 111.335 224.073 110.352 223.739 109.413C223.347 108.439 223.055 107.427 222.867 106.394C222.726 105.319 222.969 104.229 223.554 103.316C224.119 102.461 224.81 101.697 225.603 101.048C227.094 99.748 228.647 98.582 229.512 96.991C230.311 95.4717 230.929 93.8641 231.354 92.201C231.746 90.7526 232.06 89.2837 232.292 87.801C232.346 87.462 232.392 87.13 232.433 86.801C232.455 86.633 232.464 86.492 232.498 86.307C232.587 86.1518 232.711 86.0196 232.861 85.921C233.361 85.538 233.861 85.228 234.319 84.934C235.247 84.353 236.061 83.877 236.727 83.49L238.269 82.625L238.676 82.408C238.72 82.3796 238.769 82.3574 238.82 82.342Z" fill="#1A2E35"/>
<path d="M238.091 121.721C237.585 121.747 237.079 121.691 236.591 121.555C235.394 121.286 234.249 120.823 233.202 120.183C232.153 119.543 231.217 118.736 230.43 117.793C230.084 117.419 229.801 116.991 229.591 116.527C230.666 117.845 231.938 118.989 233.362 119.92C234.836 120.759 236.431 121.367 238.091 121.721Z" fill="#1A2E35"/>
<path d="M239.055 122.759C238.689 122.916 238.3 123.016 237.904 123.053C236.96 123.209 236.005 123.283 235.049 123.274C234.092 123.268 233.137 123.179 232.196 123.008C231.8 122.965 231.413 122.86 231.049 122.697C231.067 122.604 232.838 122.955 235.049 122.966C237.26 122.977 239.037 122.666 239.049 122.76" fill="#1A2E35"/>
<path d="M257.449 116.059C257.308 112.384 250.324 97.8658 250.324 97.8658C250.324 97.8658 247.088 90.6478 246.324 89.1878C244.669 86.0118 240.036 85.6798 238.367 86.6408L239.661 104.561L243.495 117.614L236.024 131.749L245.324 140.936C257.724 139.381 257.587 119.736 257.446 116.059" fill="#005FC3"/>
<path d="M254.412 118.052C253.835 118.075 253.258 117.991 252.712 117.804C251.68 117.547 250.34 116.943 248.799 116.577C248.08 116.4 247.337 116.345 246.601 116.414C246.002 116.48 245.424 116.668 244.901 116.966C244.428 117.264 244.014 117.646 243.68 118.093C243.712 117.938 243.78 117.792 243.88 117.669C244.119 117.315 244.429 117.014 244.79 116.784C245.327 116.44 245.933 116.217 246.565 116.132C247.334 116.043 248.113 116.091 248.865 116.276C250.458 116.656 251.78 117.29 252.78 117.594C253.774 117.923 254.42 118.003 254.415 118.051" fill="#1A2E35"/>
<path d="M250.064 112.491C249.618 112.615 249.161 112.696 248.7 112.735C247.609 112.864 246.551 113.19 245.578 113.697C244.629 114.237 243.927 115.124 243.621 116.171C243.532 116.615 243.505 117.069 243.54 117.521C243.523 117.526 243.462 117.404 243.407 117.162C243.337 116.819 243.337 116.464 243.407 116.121C243.537 115.557 243.784 115.026 244.132 114.563C244.479 114.1 244.919 113.714 245.424 113.43C246.43 112.899 247.537 112.588 248.673 112.519C249.133 112.449 249.601 112.44 250.064 112.491Z" fill="#1A2E35"/>
<path d="M246.493 141.087C246.258 141.024 246.03 140.935 245.815 140.822C245.209 140.551 244.621 140.244 244.053 139.903C243.204 139.402 242.391 138.845 241.618 138.234C240.675 137.48 239.79 136.657 238.968 135.773C238.156 134.878 237.411 133.925 236.739 132.921C236.195 132.098 235.708 131.239 235.28 130.35C234.987 129.754 234.731 129.141 234.512 128.514C234.416 128.289 234.345 128.054 234.301 127.814C234.355 127.793 234.701 128.771 235.472 130.252C235.922 131.117 236.423 131.955 236.972 132.761C237.648 133.743 238.389 134.678 239.191 135.561C240.002 136.433 240.871 137.251 241.791 138.009C242.547 138.621 243.339 139.189 244.162 139.709C245.57 140.597 246.514 141.027 246.489 141.08" fill="#1A2E35"/>
<path d="M243.495 117.614C243.198 117.002 242.952 116.366 242.759 115.714C242.347 114.529 241.811 112.881 241.277 111.035C240.743 109.189 240.313 107.509 240.035 106.281C239.854 105.626 239.728 104.957 239.661 104.281C239.9 104.917 240.095 105.568 240.245 106.23C240.577 107.44 241.039 109.111 241.572 110.949L242.965 115.649C243.188 116.29 243.365 116.947 243.494 117.614" fill="#1A2E35"/>
<path d="M236.022 131.748C235.949 131.713 237.561 128.513 239.622 124.613C241.683 120.713 243.422 117.574 243.495 117.613C243.568 117.652 241.959 120.849 239.895 124.753C237.831 128.657 236.1 131.788 236.022 131.748Z" fill="#1A2E35"/>
<path d="M231.056 204.875C230.972 204.867 231.423 199.158 232.065 192.123C232.707 185.088 233.295 179.391 233.38 179.399C233.465 179.407 233.013 185.115 232.372 192.151C231.731 199.187 231.146 204.883 231.056 204.875Z" fill="#1A2E35"/>
<path d="M236.57 207.201C236.043 205.385 235.616 203.542 235.289 201.68C234.861 199.84 234.534 197.977 234.31 196.101C234.836 197.916 235.264 199.757 235.591 201.618C236.018 203.46 236.344 205.324 236.57 207.201Z" fill="#1A2E35"/>
<path d="M231.921 192.424C231.921 192.51 226.732 192.378 220.339 192.129C213.946 191.88 208.769 191.612 208.769 191.527C208.769 191.442 213.957 191.574 220.352 191.821C226.747 192.068 231.925 192.339 231.921 192.421" fill="#FAFAFA"/>
<path d="M253.365 194.922C253.365 195.007 248.589 194.955 242.704 194.806C236.819 194.657 232.05 194.466 232.05 194.381C232.05 194.296 236.825 194.347 242.712 194.497C248.599 194.647 253.367 194.84 253.365 194.922Z" fill="#FAFAFA"/>
<path d="M232.414 186.198C232.414 186.283 227.197 186.11 220.771 185.811C214.345 185.512 209.142 185.204 209.142 185.12C209.142 185.036 214.357 185.208 220.785 185.507C227.213 185.806 232.417 186.117 232.413 186.207" fill="#FAFAFA"/>
<path d="M252.872 188.946C252.872 189.032 248.288 188.954 242.641 188.774C236.994 188.594 232.419 188.378 232.419 188.293C232.419 188.208 237.002 188.285 242.651 188.465C248.3 188.645 252.875 188.858 252.872 188.946Z" fill="#FAFAFA"/>
<path d="M40.0486 222.49C40.2129 221.788 40.5279 221.131 40.9719 220.563C41.4159 219.996 41.9782 219.531 42.6196 219.203C44.0561 218.737 45.6155 218.828 46.9876 219.459C48.3443 220.09 49.7842 220.523 51.2636 220.746C52.0071 220.841 52.7613 220.693 53.414 220.325C54.0668 219.956 54.5832 219.387 54.8866 218.702C55.3066 217.36 54.4986 215.928 53.4866 214.953C52.4097 213.935 51.0983 213.2 49.6687 212.811C48.2391 212.422 46.7356 212.391 45.2916 212.723C43.8543 213.084 42.5282 213.794 41.4308 214.79C40.3335 215.786 39.4988 217.037 39.0006 218.433" fill="#FF4F5B"/>
<path d="M40.0486 222.49C40.2129 221.788 40.5279 221.131 40.9719 220.563C41.4159 219.996 41.9782 219.531 42.6196 219.203C44.0561 218.737 45.6155 218.828 46.9876 219.459C48.3443 220.09 49.7842 220.523 51.2636 220.746C52.0071 220.841 52.7613 220.693 53.414 220.325C54.0668 219.956 54.5832 219.387 54.8866 218.702C55.3066 217.36 54.4986 215.928 53.4866 214.953C52.4097 213.935 51.0983 213.2 49.6687 212.811C48.2391 212.422 46.7356 212.391 45.2916 212.723C43.8543 213.084 42.5282 213.794 41.4308 214.79C40.3335 215.786 39.4988 217.037 39.0006 218.433" fill="#CCCCCC"/>
<path d="M27.7594 228.742C25.5554 226.65 25.6654 223.007 26.7644 220.174C27.9984 217.364 30.1878 215.082 32.9444 213.732C35.5614 212.359 38.4553 211.596 41.4091 211.5C44.363 211.405 47.3002 211.979 50.0004 213.18C48.6788 213.237 47.3912 213.617 46.2503 214.287C45.1094 214.956 44.1498 215.895 43.4554 217.021C42.2474 219.021 41.9794 221.459 40.9814 223.576C39.8464 225.957 37.8525 227.819 35.4004 228.79C32.939 229.739 30.2097 229.722 27.7604 228.742" fill="#18573A"/>
<path d="M27.3327 216.49C24.9057 213.553 24.5827 208.839 24.9407 205.007C25.2987 201.175 26.1637 197.319 25.5747 193.518C25.2257 191.266 24.3747 189.118 24.0857 186.854C23.7967 184.59 24.2057 182.035 25.9147 180.576C27.8787 178.898 30.9707 179.295 33.0147 180.869C35.0587 182.443 36.2397 184.919 37.1007 187.39C39.0007 192.808 39.7007 198.817 38.1377 204.348C36.5747 209.879 32.9177 214.821 27.5427 216.49" fill="#18573A"/>
<path d="M25.0107 240.49C24.9978 240.377 24.9944 240.263 25.0007 240.15C25.0007 239.928 25.0007 239.599 25.0187 239.177C25.0507 238.332 25.1327 237.111 25.3187 235.61C25.5411 233.853 25.8616 232.109 26.2787 230.388C26.7969 228.274 27.5999 226.239 28.6657 224.341C29.7353 222.444 31.0462 220.695 32.5657 219.135C33.8029 217.858 35.1738 216.719 36.6547 215.735C37.2787 215.304 37.8827 214.977 38.4017 214.674C38.9377 214.399 39.4007 214.17 39.7827 213.99L40.6827 213.613C40.7851 213.563 40.8914 213.522 41.0007 213.49C40.9049 213.55 40.8046 213.603 40.7007 213.647L39.8197 214.059C39.4457 214.253 38.9877 214.492 38.4627 214.78C37.9507 215.091 37.3557 215.425 36.7407 215.861C33.4876 218.079 30.788 221.015 28.8507 224.443C27.0288 227.926 25.8807 231.722 25.4667 235.631C25.2597 237.124 25.1557 238.34 25.1007 239.182C25.0767 239.589 25.0577 239.912 25.0437 240.152C25.0417 240.265 25.0307 240.378 25.0107 240.49Z" fill="#1A2E35"/>
<path d="M4.17265 204.49C-0.399345 207.246 -0.380345 209.754 0.381655 212.121C1.14365 214.488 3.94765 216.133 6.27165 215.246C7.5492 214.638 8.61965 213.668 9.34965 212.456C10.0743 211.248 10.9918 210.167 12.0657 209.256C12.6119 208.81 13.2806 208.541 13.9832 208.484C14.6859 208.426 15.3894 208.584 16.0007 208.935" fill="#FF4F5B"/>
<path d="M4.17265 204.49C-0.399345 207.246 -0.380345 209.754 0.381655 212.121C1.14365 214.488 3.94765 216.133 6.27165 215.246C7.5492 214.638 8.61965 213.668 9.34965 212.456C10.0743 211.248 10.9918 210.167 12.0657 209.256C12.6119 208.81 13.2806 208.541 13.9832 208.484C14.6859 208.426 15.3894 208.584 16.0007 208.935" fill="#CCCCCC"/>
<path d="M1.00067 208.452C2.17667 206.863 5.08267 206.403 6.91867 207.195C8.68968 208.114 10.1977 209.468 11.3007 211.13C12.3953 212.787 13.7615 214.247 15.3417 215.449C17.0087 216.541 19.3367 216.937 20.9977 215.836C21.524 215.455 21.9663 214.97 22.2968 214.41C22.6273 213.851 22.839 213.229 22.9187 212.584C23.0653 211.3 22.9758 210.001 22.6547 208.749C22.4052 206.855 21.5019 205.107 20.1007 203.807C18.4167 202.501 16.0817 202.44 13.9337 202.508C11.4653 202.49 9.00941 202.86 6.65567 203.603C4.21829 204.434 2.19362 206.17 1.00067 208.452Z" fill="#18573A"/>
<path d="M21.9867 236.49C21.9779 236.457 21.9738 236.424 21.9747 236.39C21.9747 236.312 21.9647 236.217 21.9587 236.099C21.9487 235.827 21.9353 235.454 21.9187 234.979C21.8897 233.99 21.8477 232.586 21.7967 230.86C21.7457 229.134 21.6667 227.051 21.5377 224.755C21.4087 222.459 21.2297 219.935 20.8707 217.309C20.7188 216.029 20.4613 214.764 20.1007 213.527C19.7294 212.382 19.252 211.274 18.6747 210.218C18.1545 209.255 17.5522 208.339 16.8747 207.48C16.2768 206.732 15.6204 206.034 14.9117 205.39C13.8686 204.457 12.6957 203.681 11.4297 203.085C11.2007 202.984 11.0007 202.89 10.8267 202.815L10.3717 202.644L10.0937 202.535C10.0608 202.524 10.0295 202.509 10.0007 202.49C10.035 202.494 10.0686 202.502 10.1007 202.515L10.3857 202.606L10.8497 202.759C11.0317 202.824 11.2327 202.918 11.4647 203.014C12.7544 203.587 13.9499 204.351 15.0107 205.282C15.7331 205.925 16.402 206.626 17.0107 207.377C17.701 208.24 18.3144 209.161 18.8437 210.131C19.4311 211.195 19.9166 212.312 20.2937 213.468C20.6607 214.715 20.9227 215.991 21.0767 217.282C21.4367 219.919 21.6067 222.447 21.7287 224.746C21.8507 227.045 21.9057 229.117 21.9437 230.857C21.9817 232.597 21.9937 234.005 21.9987 234.978C21.9987 235.452 21.9987 235.827 21.9987 236.099C21.9987 236.217 21.9987 236.313 21.9937 236.391C21.9959 236.425 21.9933 236.458 21.9857 236.491" fill="#1A2E35"/>
<path d="M23.7527 238.49C23.5488 237.854 23.3921 237.203 23.2837 236.544C22.9849 234.738 22.9177 232.9 23.0837 231.077C23.3462 228.382 23.895 225.723 24.7207 223.145C25.6007 220.23 26.7957 217.112 27.8207 213.761C28.325 212.131 28.7363 210.473 29.0527 208.796C29.3363 207.228 29.5392 205.647 29.6607 204.058C29.8561 201.363 29.9018 198.658 29.7977 195.958C29.7187 193.65 29.6007 191.784 29.5297 190.49C29.4947 189.86 29.4667 189.362 29.4477 189.009C29.4397 188.848 29.4347 188.72 29.4297 188.622C29.4256 188.578 29.4259 188.534 29.4307 188.49C29.4411 188.533 29.4474 188.577 29.4497 188.621C29.4587 188.721 29.4707 188.846 29.4857 189.006L29.6007 190.49C29.6957 191.779 29.8327 193.643 29.9247 195.953C30.0471 198.66 30.0137 201.372 29.8247 204.075C29.7075 205.671 29.5073 207.26 29.2247 208.835C28.9125 210.52 28.5038 212.185 28.0007 213.823C26.9767 217.185 25.7777 220.299 24.8907 223.203C24.0611 225.767 23.5017 228.41 23.2217 231.09C23.0442 232.902 23.0895 234.729 23.3567 236.53C23.4617 237.165 23.5567 237.656 23.6427 237.983L23.7297 238.359C23.7416 238.402 23.7493 238.446 23.7527 238.49Z" fill="#1A2E35"/>
<path d="M35.0007 240.49H13.4917L13.0007 236.49H35.0007V240.49Z" fill="#DA2C2C"/>
<path d="M16.0007 240.49L18.7067 252.49H30.4687L33.0007 240.49H16.0007Z" fill="#DA2C2C"/>
<path d="M35.0007 240.519C35.0007 240.576 30.3007 240.608 24.5007 240.596C18.7007 240.584 14.0007 240.517 14.0007 240.461C14.0007 240.405 18.7007 240.372 24.5007 240.388C30.3007 240.404 35.0007 240.463 35.0007 240.519Z" fill="#375A64"/>
<path d="M35.0007 240.49C35.0007 240.546 30.3007 240.59 24.5007 240.59C18.7007 240.59 14.0007 240.546 14.0007 240.49C14.0007 240.434 18.7007 240.39 24.5007 240.39C30.3007 240.39 35.0007 240.434 35.0007 240.49Z" fill="#1A2E35"/>
<path d="M135.001 29.52H114.001C110.687 29.52 108.001 32.2063 108.001 35.52V56.52C108.001 59.8337 110.687 62.52 114.001 62.52H135.001C138.314 62.52 141.001 59.8337 141.001 56.52V35.52C141.001 32.2063 138.314 29.52 135.001 29.52Z" fill="#005FC3"/>
<path d="M132.335 54.52H117.668C117.491 54.52 117.322 54.4499 117.196 54.325C117.071 54.2001 117.001 54.0307 117.001 53.854V47.187C117.001 47.0102 117.071 46.8407 117.196 46.7156C117.321 46.5906 117.491 46.5203 117.668 46.52H118.335V53.187H119.667V44.52C119.667 44.3432 119.737 44.1737 119.862 44.0486C119.987 43.9236 120.157 43.8533 120.334 43.853H127.001C127.178 43.853 127.347 43.9233 127.472 44.0484C127.597 44.1734 127.668 44.3431 127.668 44.52V53.187H131.668V41.683L126.335 40.083V42.52H125.001V39.187C125.001 39.083 125.025 38.9804 125.071 38.8874C125.118 38.7945 125.186 38.7137 125.269 38.6516C125.352 38.5895 125.449 38.5477 125.552 38.5298C125.654 38.5118 125.759 38.518 125.859 38.548L132.526 40.548C132.663 40.5887 132.784 40.673 132.87 40.7882C132.955 40.9035 133.001 41.0434 133.001 41.187V53.854C133 54.0305 132.93 54.1998 132.805 54.3246C132.681 54.4495 132.511 54.5197 132.335 54.52ZM122.335 51.186V52.52H125.001V51.187L122.335 51.186ZM122.335 48.52V49.853H125.001V48.52H122.335ZM122.335 45.853V47.187H125.001V45.853H122.335Z" fill="white"/>
<path d="M130.334 43.853H129.001V51.853H130.334V43.853Z" fill="white"/>
<path d="M91.0007 107.52C93.2099 107.52 95.0007 105.729 95.0007 103.52C95.0007 101.311 93.2099 99.52 91.0007 99.52C88.7916 99.52 87.0007 101.311 87.0007 103.52C87.0007 105.729 88.7916 107.52 91.0007 107.52Z" fill="white"/>
<path d="M104.001 107.52C106.21 107.52 108.001 105.729 108.001 103.52C108.001 101.311 106.21 99.52 104.001 99.52C101.792 99.52 100.001 101.311 100.001 103.52C100.001 105.729 101.792 107.52 104.001 107.52Z" fill="white"/>
<path d="M117.001 107.52C119.21 107.52 121.001 105.729 121.001 103.52C121.001 101.311 119.21 99.52 117.001 99.52C114.792 99.52 113.001 101.311 113.001 103.52C113.001 105.729 114.792 107.52 117.001 107.52Z" fill="white"/>
<path d="M130.001 107.52C132.21 107.52 134.001 105.729 134.001 103.52C134.001 101.311 132.21 99.52 130.001 99.52C127.792 99.52 126.001 101.311 126.001 103.52C126.001 105.729 127.792 107.52 130.001 107.52Z" fill="white"/>
<path d="M143.001 107.52C145.21 107.52 147.001 105.729 147.001 103.52C147.001 101.311 145.21 99.52 143.001 99.52C140.792 99.52 139.001 101.311 139.001 103.52C139.001 105.729 140.792 107.52 143.001 107.52Z" fill="white"/>
<path d="M117.283 140.52H113.651V133.518H114.471V139.778H117.283V140.52ZM120.34 140.637C119.601 140.637 119.01 140.404 118.568 139.939C118.128 139.47 117.908 138.85 117.908 138.079C117.908 137.239 118.138 136.583 118.597 136.111C119.056 135.639 119.676 135.403 120.457 135.403C121.203 135.403 121.784 135.632 122.2 136.091C122.62 136.55 122.83 137.187 122.83 138C122.83 138.798 122.604 139.438 122.152 139.919C121.702 140.398 121.099 140.637 120.34 140.637ZM120.399 136.077C119.884 136.077 119.477 136.252 119.178 136.604C118.878 136.952 118.729 137.434 118.729 138.049C118.729 138.642 118.88 139.109 119.183 139.451C119.486 139.792 119.891 139.963 120.399 139.963C120.916 139.963 121.313 139.796 121.59 139.46C121.87 139.125 122.01 138.648 122.01 138.03C122.01 137.405 121.87 136.923 121.59 136.584C121.313 136.246 120.916 136.077 120.399 136.077ZM128.377 140.12C128.377 141.956 127.498 142.874 125.74 142.874C125.122 142.874 124.582 142.756 124.119 142.522V141.721C124.683 142.034 125.22 142.19 125.731 142.19C126.961 142.19 127.576 141.536 127.576 140.227V139.68H127.557C127.176 140.318 126.603 140.637 125.838 140.637C125.216 140.637 124.715 140.416 124.334 139.973C123.957 139.527 123.768 138.93 123.768 138.181C123.768 137.332 123.971 136.656 124.378 136.155C124.788 135.653 125.348 135.403 126.058 135.403C126.732 135.403 127.231 135.673 127.557 136.213H127.576V135.52H128.377V140.12ZM127.576 138.259V137.522C127.576 137.125 127.441 136.785 127.171 136.501C126.904 136.218 126.571 136.077 126.17 136.077C125.675 136.077 125.288 136.257 125.008 136.619C124.728 136.977 124.588 137.48 124.588 138.127C124.588 138.684 124.722 139.13 124.989 139.465C125.259 139.797 125.615 139.963 126.058 139.963C126.507 139.963 126.872 139.804 127.152 139.485C127.435 139.166 127.576 138.757 127.576 138.259ZM130.408 134.25C130.265 134.25 130.143 134.202 130.042 134.104C129.941 134.006 129.891 133.883 129.891 133.733C129.891 133.583 129.941 133.459 130.042 133.362C130.143 133.261 130.265 133.21 130.408 133.21C130.555 133.21 130.679 133.261 130.78 133.362C130.884 133.459 130.936 133.583 130.936 133.733C130.936 133.876 130.884 133.998 130.78 134.099C130.679 134.2 130.555 134.25 130.408 134.25ZM130.799 140.52H129.998V135.52H130.799V140.52ZM136.571 140.52H135.77V137.668C135.77 136.607 135.382 136.077 134.608 136.077C134.207 136.077 133.875 136.228 133.612 136.531C133.351 136.83 133.221 137.209 133.221 137.668V140.52H132.42V135.52H133.221V136.35H133.24C133.618 135.719 134.165 135.403 134.881 135.403C135.428 135.403 135.846 135.58 136.136 135.935C136.426 136.287 136.571 136.796 136.571 137.463V140.52Z" fill="white"/>
</svg>
