<svg width="338" height="301" viewBox="0 0 338 301" fill="none" xmlns="http://www.w3.org/2000/svg">
<path d="M171.014 301C263.071 301 337.697 296.278 337.697 290.453C337.697 284.628 263.071 279.906 171.014 279.906C78.9582 279.906 4.33185 284.628 4.33185 290.453C4.33185 296.278 78.9582 301 171.014 301Z" fill="#CAE6FE"/>
<path d="M308.609 99.6775C308.609 100.582 308.24 101.403 307.645 101.998C307.058 102.593 306.229 102.962 305.332 102.962H235.088C233.288 102.962 231.804 101.486 231.804 99.6775C231.804 98.7735 232.173 97.9523 232.768 97.3572C233.356 96.7545 234.184 96.3929 235.081 96.3929H238.403C239.714 93.3492 242.743 91.2172 246.268 91.2172C248.641 91.2172 250.789 92.1815 252.34 93.741C254.412 90.2303 258.224 87.8723 262.594 87.8723C263.792 87.8723 264.952 88.0531 266.044 88.3846C268.327 84.0904 272.847 81.1598 278.053 81.1598C284.306 81.1598 289.564 85.3786 291.154 91.1268C292.307 90.5543 293.602 90.2228 294.989 90.2228C298.891 90.2228 302.176 92.8294 303.215 96.3929H305.332C307.133 96.3929 308.617 97.8695 308.617 99.6775H308.609Z" fill="#CAE6FE"/>
<path d="M66.2135 42.4367C66.2135 43.2126 65.8971 43.9208 65.3773 44.4331C64.865 44.9529 64.1568 45.2693 63.3808 45.2693H2.83266C1.28073 45.2693 0 43.9961 0 42.4367C0 41.6607 0.316415 40.9525 0.836239 40.4402C1.34853 39.9204 2.05669 39.604 2.83266 39.604H5.69546C6.82551 36.9748 9.4397 35.1441 12.4758 35.1441C14.5174 35.1441 16.3707 35.9803 17.7117 37.3213C19.4972 34.2928 22.7818 32.2662 26.5562 32.2662C27.5883 32.2662 28.5903 32.4244 29.532 32.7107C31.4983 29.0041 35.3932 26.4803 39.8833 26.4803C45.2774 26.4803 49.8051 30.1191 51.1763 35.0763C52.1707 34.579 53.2932 34.2928 54.476 34.2928C57.836 34.2928 60.6762 36.5378 61.5652 39.6115H63.3884C64.9403 39.6115 66.221 40.8847 66.221 42.4442L66.2135 42.4367Z" fill="#CAE6FE"/>
<path d="M178.887 27.2563C178.887 28.0474 178.563 28.7631 178.043 29.2829C177.523 29.8027 176.808 30.1266 176.024 30.1266H114.67C113.095 30.1266 111.8 28.8384 111.8 27.2563C111.8 26.4653 112.124 25.7496 112.643 25.2298C113.163 24.7099 113.879 24.386 114.662 24.386H117.563C118.708 21.7266 121.352 19.8658 124.434 19.8658C126.505 19.8658 128.381 20.7096 129.737 22.0731C131.545 19.0069 134.875 16.9502 138.695 16.9502C139.742 16.9502 140.752 17.1085 141.708 17.3947C143.705 13.643 147.652 11.0815 152.203 11.0815C157.665 11.0815 162.26 14.773 163.646 19.7904C164.656 19.2857 165.786 18.9994 166.991 18.9994C170.397 18.9994 173.274 21.2746 174.179 24.386H176.024C177.599 24.386 178.895 25.6742 178.895 27.2563H178.887Z" fill="#CAE6FE"/>
<path d="M311.352 79.7962C313.634 79.7962 315.495 81.657 315.495 83.9397C315.495 86.2224 313.634 88.0832 311.352 88.0832C309.069 88.0832 307.208 86.2224 307.208 83.9397C307.208 81.657 309.069 79.7962 311.352 79.7962ZM311.352 81.0995C309.785 81.0995 308.512 82.3727 308.512 83.9397C308.512 85.5067 309.785 86.7799 311.352 86.7799C312.919 86.7799 314.192 85.5067 314.192 83.9397C314.192 82.3727 312.919 81.0995 311.352 81.0995Z" fill="#FFC900"/>
<path d="M307.14 58.7396C309.423 58.7396 311.284 60.6004 311.284 62.8831C311.284 65.1658 309.423 67.0266 307.14 67.0266C304.858 67.0266 302.997 65.1658 302.997 62.8831C302.997 60.6004 304.858 58.7396 307.14 58.7396ZM307.14 60.0429C305.573 60.0429 304.3 61.3161 304.3 62.8831C304.3 64.4501 305.573 65.7233 307.14 65.7233C308.707 65.7233 309.981 64.4501 309.981 62.8831C309.981 61.3161 308.707 60.0429 307.14 60.0429Z" fill="#61B3FF"/>
<path d="M294.537 52.9085C294.537 53.2701 294.83 53.5564 295.185 53.5564H298.047C298.409 53.5564 298.695 53.2626 298.695 52.9085C298.695 52.5544 298.401 52.2606 298.047 52.2606H295.185C294.823 52.2606 294.537 52.5544 294.537 52.9085Z" fill="#FFC900"/>
<path d="M289.519 52.9085C289.519 53.2701 289.813 53.5564 290.167 53.5564H293.03C293.392 53.5564 293.678 53.2626 293.678 52.9085C293.678 52.5544 293.384 52.2606 293.03 52.2606H290.167C289.806 52.2606 289.519 52.5544 289.519 52.9085Z" fill="#FFC900"/>
<path d="M293.459 48.8855V51.462C293.459 51.8236 293.753 52.1099 294.107 52.1099C294.461 52.1099 294.755 51.8161 294.755 51.462V48.8855C294.755 48.5239 294.461 48.2376 294.107 48.2376C293.753 48.2376 293.459 48.5314 293.459 48.8855Z" fill="#FFC900"/>
<path d="M293.459 54.355V56.9315C293.459 57.2931 293.753 57.5794 294.107 57.5794C294.461 57.5794 294.755 57.2856 294.755 56.9315V54.355C294.755 53.9934 294.461 53.7071 294.107 53.7071C293.753 53.7071 293.459 54.0009 293.459 54.355Z" fill="#FFC900"/>
<path d="M299.207 75.0349C299.207 75.3965 299.501 75.6828 299.855 75.6828H302.718C303.08 75.6828 303.366 75.389 303.366 75.0349C303.366 74.6808 303.072 74.387 302.718 74.387H299.855C299.494 74.387 299.207 74.6808 299.207 75.0349Z" fill="#007CE6"/>
<path d="M294.198 75.0349C294.198 75.3965 294.491 75.6828 294.846 75.6828H297.708C298.07 75.6828 298.356 75.389 298.356 75.0349C298.356 74.6808 298.062 74.387 297.708 74.387H294.846C294.484 74.387 294.198 74.6808 294.198 75.0349Z" fill="#007CE6"/>
<path d="M298.138 71.0119V73.5884C298.138 73.95 298.432 74.2363 298.786 74.2363C299.14 74.2363 299.433 73.9425 299.433 73.5884V71.0119C299.433 70.6503 299.14 70.364 298.786 70.364C298.432 70.364 298.138 70.6578 298.138 71.0119Z" fill="#007CE6"/>
<path d="M298.138 76.4814V79.0579C298.138 79.4195 298.432 79.7058 298.786 79.7058C299.14 79.7058 299.433 79.412 299.433 79.0579V76.4814C299.433 76.1197 299.14 75.8335 298.786 75.8335C298.432 75.8335 298.138 76.1273 298.138 76.4814Z" fill="#007CE6"/>
<path d="M33.1105 99.8659C33.1105 102.149 31.2497 104.009 28.967 104.009C26.6842 104.009 24.8234 102.149 24.8234 99.8659C24.8234 97.5832 26.6842 95.7224 28.967 95.7224C31.2497 95.7224 33.1105 97.5832 33.1105 99.8659ZM31.8071 99.8659C31.8071 98.2989 30.534 97.0257 28.967 97.0257C27.3999 97.0257 26.1268 98.2989 26.1268 99.8659C26.1268 101.433 27.3999 102.706 28.967 102.706C30.534 102.706 31.8071 101.433 31.8071 99.8659Z" fill="#009EF3"/>
<path d="M50.0235 94.2759C50.0235 96.5586 48.1627 98.4194 45.88 98.4194C43.5973 98.4194 41.7365 96.5586 41.7365 94.2759C41.7365 91.9932 43.5973 90.1324 45.88 90.1324C48.1627 90.1324 50.0235 91.9932 50.0235 94.2759ZM48.7202 94.2759C48.7202 92.7089 47.447 91.4357 45.88 91.4357C44.313 91.4357 43.0398 92.7089 43.0398 94.2759C43.0398 95.8429 44.313 97.1161 45.88 97.1161C47.447 97.1161 48.7202 95.8429 48.7202 94.2759Z" fill="#FFC900"/>
<path d="M50.551 76.4889C50.1894 76.4889 49.9031 76.7827 49.9031 77.1368V79.9996C49.9031 80.3612 50.1969 80.6475 50.551 80.6475C50.9051 80.6475 51.1989 80.3537 51.1989 79.9996V77.1368C51.1989 76.7752 50.9051 76.4889 50.551 76.4889Z" fill="#007CE6"/>
<path d="M50.551 71.4714C50.1894 71.4714 49.9031 71.7652 49.9031 72.1193V74.9821C49.9031 75.3437 50.1969 75.63 50.551 75.63C50.9051 75.63 51.1989 75.3362 51.1989 74.9821V72.1193C51.1989 71.7577 50.9051 71.4714 50.551 71.4714Z" fill="#007CE6"/>
<path d="M54.5739 75.4191H51.9974C51.6358 75.4191 51.3495 75.7129 51.3495 76.067C51.3495 76.421 51.6433 76.7149 51.9974 76.7149H54.5739C54.9355 76.7149 55.2218 76.421 55.2218 76.067C55.2218 75.7129 54.928 75.4191 54.5739 75.4191Z" fill="#007CE6"/>
<path d="M49.1044 75.4191H46.5279C46.1663 75.4191 45.88 75.7129 45.88 76.067C45.88 76.421 46.1738 76.7149 46.5279 76.7149H49.1044C49.466 76.7149 49.7523 76.421 49.7523 76.067C49.7523 75.7129 49.4585 75.4191 49.1044 75.4191Z" fill="#007CE6"/>
<path d="M32.9899 81.0844C32.6283 81.0844 32.342 81.3782 32.342 81.7323V84.5951C32.342 84.9567 32.6359 85.243 32.9899 85.243C33.344 85.243 33.6378 84.9492 33.6378 84.5951V81.7323C33.6378 81.3707 33.344 81.0844 32.9899 81.0844Z" fill="#FFC900"/>
<path d="M32.9899 76.067C32.6283 76.067 32.342 76.3608 32.342 76.7149V79.5777C32.342 79.9393 32.6359 80.2255 32.9899 80.2255C33.344 80.2255 33.6378 79.9317 33.6378 79.5777V76.7149C33.6378 76.3532 33.344 76.067 32.9899 76.067Z" fill="#FFC900"/>
<path d="M37.0128 80.007H34.4363C34.0747 80.007 33.7884 80.3009 33.7884 80.6549C33.7884 81.009 34.0822 81.3028 34.4363 81.3028H37.0128C37.3745 81.3028 37.6607 81.009 37.6607 80.6549C37.6607 80.3009 37.3669 80.007 37.0128 80.007Z" fill="#FFC900"/>
<path d="M31.5434 80.007H28.9669C28.6053 80.007 28.319 80.3009 28.319 80.6549C28.319 81.009 28.6128 81.3028 28.9669 81.3028H31.5434C31.905 81.3028 32.1913 81.009 32.1913 80.6549C32.1913 80.3009 31.8975 80.007 31.5434 80.007Z" fill="#FFC900"/>
<path d="M46.3396 121.661V135.493C46.3396 136.382 45.6239 137.09 44.7424 137.09H30.9031C30.2928 137.09 29.773 136.758 29.4943 136.261C29.4641 136.208 29.4415 136.148 29.4265 136.095C29.3963 136.012 29.3737 135.93 29.3436 135.847C29.3436 135.839 29.3436 135.832 29.3436 135.817C29.3436 135.802 29.3436 135.786 29.3436 135.779C29.3285 135.689 29.3134 135.591 29.3134 135.493V121.661C29.3134 120.832 29.9387 120.154 30.7373 120.071C30.79 120.071 30.8503 120.071 30.9031 120.071H44.7424C44.9082 120.071 45.0664 120.094 45.2095 120.139C45.8574 120.342 46.332 120.945 46.332 121.668L46.3396 121.661Z" fill="#FFC900"/>
<path d="M38.8361 133.27V134.649L37.0732 134.634V133.315C35.8452 133.233 34.6398 132.886 33.894 132.419L34.8583 130.287C35.6719 130.777 36.7643 131.101 37.7211 131.108C38.5573 131.108 38.8511 130.942 38.8587 130.648C38.8662 129.556 34.0522 130.4 34.0748 127.153C34.0899 125.752 35.1144 124.576 37.1561 124.305V122.949L38.9189 122.964V124.298C39.8305 124.396 40.7195 124.637 41.4277 125.036L40.5311 127.153C39.6798 126.708 38.8737 126.49 38.1128 126.49C37.254 126.49 36.9828 126.731 36.9753 127.025C36.9677 128.072 41.7817 127.236 41.7591 130.445C41.7516 131.786 40.7722 132.946 38.8436 133.27H38.8361Z" fill="#FEFDFF"/>
<path d="M319.887 217.768V231.622C319.887 232.511 319.172 233.22 318.29 233.22H304.436C303.826 233.22 303.306 232.888 303.027 232.391C302.997 232.338 302.974 232.278 302.959 232.225C302.929 232.142 302.907 232.059 302.876 231.976C302.876 231.969 302.876 231.961 302.876 231.946C302.876 231.931 302.876 231.916 302.876 231.909C302.861 231.818 302.846 231.72 302.846 231.622V217.768C302.846 216.939 303.479 216.261 304.278 216.178C304.33 216.178 304.391 216.178 304.451 216.178H318.305C318.471 216.178 318.629 216.201 318.772 216.246C319.42 216.45 319.895 217.052 319.895 217.775L319.887 217.768Z" fill="#FFC900"/>
<path d="M311.533 219.629C308.587 219.629 306.191 222.024 306.191 224.97C306.191 227.916 308.587 230.312 311.533 230.312C314.478 230.312 316.874 227.916 316.874 224.97C316.874 222.024 314.478 219.629 311.533 219.629ZM311.751 226.944V225.076H314.162C314.147 225.739 314.049 226.364 313.876 226.944H311.743H311.751ZM313.265 229.076C313.657 228.579 313.966 228.006 314.192 227.373H315.819C315.134 228.594 313.981 229.453 312.625 229.762C312.851 229.558 313.069 229.325 313.265 229.076ZM313.732 227.373C313.529 227.901 313.265 228.375 312.934 228.797C312.422 229.453 311.909 229.784 311.751 229.882V227.381H313.732V227.373ZM311.751 222.341V220.066C311.811 220.066 311.879 220.066 311.939 220.081C312.203 220.307 313.047 221.083 313.612 222.348H311.743L311.751 222.341ZM314.086 222.341C313.898 221.881 313.65 221.437 313.363 221.03C313.152 220.729 312.926 220.45 312.685 220.194C313.913 220.495 314.99 221.264 315.676 222.341H314.079H314.086ZM311.751 224.639V222.77H313.793C314.011 223.373 314.139 224.006 314.162 224.639H311.751ZM314.591 224.639C314.569 224.006 314.456 223.373 314.245 222.77H315.925C316.218 223.358 316.392 223.983 316.437 224.639H314.591ZM316.445 225.068C316.429 225.716 316.294 226.349 316.03 226.936H314.328C314.493 226.349 314.584 225.723 314.591 225.068H316.445ZM308.79 226.936H307.035C306.771 226.341 306.636 225.716 306.621 225.068H308.519C308.534 225.723 308.625 226.356 308.783 226.936H308.79ZM309.498 222.333C309.664 221.964 309.868 221.61 310.094 221.279C310.546 220.631 310.99 220.224 311.178 220.066C311.224 220.066 311.269 220.066 311.314 220.066V222.341H309.498V222.333ZM311.314 222.763V224.631H308.956C308.979 223.991 309.107 223.365 309.325 222.763H311.314ZM307.381 222.333C308.082 221.241 309.182 220.457 310.433 220.171C310.184 220.427 309.95 220.714 309.74 221.015C309.453 221.429 309.212 221.866 309.016 222.326H307.374L307.381 222.333ZM311.314 225.061V226.929H309.235C309.061 226.349 308.964 225.723 308.948 225.061H311.314ZM306.628 224.631C306.673 223.976 306.847 223.35 307.14 222.763H308.866C308.662 223.373 308.542 223.998 308.519 224.631H306.628ZM308.926 227.358C309.152 227.991 309.461 228.564 309.853 229.061C310.056 229.317 310.274 229.551 310.508 229.762C309.137 229.468 307.939 228.586 307.246 227.358H308.926ZM311.314 227.358V229.829C310.99 229.626 309.973 228.895 309.378 227.358H311.314Z" fill="#FEFDFF"/>
<path d="M209.029 77.4607L210.943 78.0936L211.96 78.4251L214.83 79.3743C214.83 79.3743 257.584 44.7872 246.63 24.1901C243.255 17.8468 233.062 18.2385 227.344 39.4458C222.04 59.1012 209.037 77.4683 209.037 77.4683L209.029 77.4607Z" fill="#ABD3F2"/>
<path d="M210.943 78.0936L211.96 78.425C220.548 69.3846 227.178 58.6943 231.359 51.0175C236.324 41.9018 239.006 34.9331 239.029 34.8653C239.126 34.6167 238.998 34.338 238.75 34.24C238.501 34.1421 238.222 34.2702 238.125 34.5188C238.094 34.5866 235.435 41.5025 230.5 50.573C226.297 58.2875 219.614 69.0607 210.943 78.0936Z" fill="#90C3EF"/>
<path d="M97.5536 259.821L95.6701 259.941L94.6682 260.009L91.8355 260.19C91.8355 260.19 61.1659 218.717 75.962 202.595C80.5199 197.63 89.6809 200.388 89.8767 220.992C90.0575 240.09 97.5385 259.828 97.5385 259.828L97.5536 259.821Z" fill="#ABD3F2"/>
<path d="M95.6701 259.941L94.6681 260.009C89.0028 249.778 85.4996 238.508 83.5107 230.553C81.1527 221.105 80.3616 214.152 80.3541 214.084C80.324 213.835 80.5048 213.609 80.7534 213.587C81.002 213.557 81.228 213.737 81.2506 213.986C81.2582 214.054 82.0417 220.962 84.3922 230.357C86.3886 238.35 89.9219 249.711 95.6625 259.949L95.6701 259.941Z" fill="#90C3EF"/>
<path d="M107.023 266.066L104.824 267.686L103.656 268.545L100.349 270.978C100.349 270.978 30.5717 244.377 36.0185 213.157C37.6985 203.544 51.0256 199.755 67.3511 224.714C82.4862 247.85 107.023 266.066 107.023 266.066Z" fill="#CAE6FE"/>
<path d="M104.824 267.686L103.656 268.545C88.7542 260.499 75.6908 249.5 67.0572 241.348C56.8039 231.675 50.4078 223.81 50.3476 223.735C50.1215 223.456 50.1592 223.042 50.4455 222.816C50.7242 222.589 51.1386 222.627 51.3646 222.913C51.4249 222.996 57.7833 230.801 67.9764 240.414C76.6552 248.603 89.8316 259.685 104.831 267.686H104.824Z" fill="#ABD3F2"/>
<path d="M199.108 84.1129L201.209 86.1244L202.324 87.1942L205.489 90.2152C205.489 90.2152 282.905 71.6372 281.42 37.8938C280.961 27.5049 267.393 21.6663 246.713 45.8193C227.54 68.2093 199.108 84.1129 199.108 84.1129Z" fill="#CAE6FE"/>
<path d="M201.217 86.1245L202.332 87.1942C219.192 80.7228 234.508 70.8838 244.754 63.4556C256.921 54.6337 264.756 47.1979 264.839 47.1226C265.118 46.8589 265.133 46.4144 264.862 46.1357C264.598 45.8569 264.153 45.8419 263.875 46.1131C263.799 46.1884 256.009 53.5714 243.918 62.3406C233.619 69.8065 218.175 79.7208 201.225 86.132L201.217 86.1245Z" fill="#ABD3F2"/>
<path d="M60.5708 61.5345C63.4411 69.927 71.9165 69.3093 72.0144 76.2177C72.1124 83.1185 76.6627 88.1736 82.5616 86.6669C88.468 85.1601 92.7245 83.7212 95.7229 90.4638C98.7213 97.214 107.521 100.288 110.73 94.7279C111.529 93.3493 112.395 91.85 113.239 90.381C113.472 89.9817 113.698 89.5824 113.924 89.1831C113.977 89.0927 114.03 89.0023 114.082 88.9119C117.48 82.998 115.966 75.4116 110.444 71.4187C108.206 69.799 105.577 68.9477 102.676 69.9346C93.5833 73.0159 96.5215 63.6214 90.8787 59.9299C84.3772 55.6733 79.1714 61.0072 74.6889 57.3383C68.451 52.238 57.708 53.142 60.5783 61.5345H60.5708Z" fill="#ABD3F2"/>
<path d="M71.6981 64.7514L113.239 90.3734C113.472 89.9742 113.698 89.5749 113.924 89.1756L72.4213 63.5761C72.0974 63.3727 71.6755 63.4782 71.4721 63.8022C71.2762 64.1261 71.3741 64.548 71.6981 64.7514Z" fill="#90C3EF"/>
<path d="M66.9518 14.6675C65.6861 25.5688 75.4724 29.4034 71.909 37.1706C68.3455 44.9303 70.7262 53.0064 78.1167 54.468C85.5148 55.9295 91.0445 56.6 90.7884 65.7308C90.5397 74.8616 98.7289 82.9905 105.276 78.5004C106.903 77.3854 108.666 76.1725 110.391 74.9746C110.866 74.6507 111.333 74.3267 111.792 74.0028C111.898 73.9274 112.011 73.8596 112.116 73.7843C119.062 68.9929 121.42 59.7114 117.382 52.3058C115.747 49.3074 113.261 46.9493 109.494 46.5049C97.6967 45.0961 105.984 36.1762 101.652 29.0418C96.6646 20.8226 88.0009 23.9942 84.9498 17.5077C80.7008 8.48238 68.2175 3.7663 66.9518 14.6675Z" fill="#CAE6FE"/>
<path d="M77.6647 24.2052L110.391 74.9822C110.866 74.6582 111.333 74.3343 111.792 74.0103L79.0961 23.2861C78.8399 22.8868 78.3126 22.7738 77.9208 23.0299C77.5216 23.2861 77.4085 23.8134 77.6647 24.2052Z" fill="#ABD3F2"/>
<path d="M245.244 199.883C236.814 202.64 237.311 211.123 230.41 211.131C223.509 211.138 218.394 215.613 219.818 221.542C221.249 227.464 222.628 231.743 215.84 234.651C209.052 237.559 205.858 246.313 211.372 249.598C212.743 250.419 214.228 251.3 215.689 252.159C216.088 252.393 216.488 252.634 216.872 252.86C216.962 252.913 217.053 252.965 217.143 253.018C223.012 256.491 230.613 255.082 234.682 249.613C236.331 247.398 237.213 244.776 236.271 241.861C233.31 232.73 242.66 235.788 246.434 230.198C250.773 223.757 245.515 218.476 249.244 214.039C254.427 207.869 253.666 197.111 245.244 199.875V199.883Z" fill="#ABD3F2"/>
<path d="M241.869 210.973L215.689 252.159C216.088 252.393 216.488 252.634 216.872 252.86L243.029 211.711C243.232 211.387 243.142 210.965 242.818 210.762C242.494 210.558 242.072 210.649 241.869 210.973Z" fill="#90C3EF"/>
<path d="M277.284 217.467C266.398 216.058 262.436 225.791 254.721 222.115C247.007 218.446 238.908 220.714 237.341 228.089C235.774 235.465 235.036 240.987 225.905 240.61C216.774 240.233 208.54 248.317 212.947 254.924C214.039 256.566 215.23 258.344 216.397 260.092C216.714 260.567 217.038 261.041 217.347 261.508C217.422 261.614 217.49 261.727 217.565 261.832C222.266 268.839 231.51 271.325 238.976 267.385C241.997 265.788 244.385 263.339 244.882 259.572C246.449 247.79 255.256 256.205 262.451 251.963C270.738 247.081 267.679 238.38 274.203 235.419C283.281 231.291 288.171 218.875 277.284 217.467Z" fill="#CAE6FE"/>
<path d="M267.611 228.044L216.405 260.085C216.721 260.559 217.045 261.034 217.354 261.501L268.515 229.49C268.915 229.242 269.035 228.714 268.787 228.315C268.538 227.916 268.011 227.795 267.611 228.044Z" fill="#ABD3F2"/>
<path d="M104.711 175.474C94.0656 163.202 75.1108 139.018 69.2722 129.3C61.6481 116.606 58.3032 106.285 59.3428 98.6153C59.4106 98.1106 59.8777 97.749 60.39 97.8168C60.9023 97.8846 61.2564 98.3517 61.1886 98.864C59.373 112.274 70.2817 131.869 105.645 173.794L104.718 175.474H104.711Z" fill="#ABD3F2"/>
<path d="M63.4186 117.419C63.4186 117.419 57.2184 122.098 49.421 110.873C49.421 110.873 60.94 106.405 63.4186 117.419Z" fill="#CAE6FE"/>
<path d="M67.1326 123.416C67.1326 123.416 62.1152 117.487 72.8884 109.08C72.8884 109.08 77.9886 120.335 67.1326 123.416Z" fill="#CAE6FE"/>
<path d="M60.3148 104.559C60.3148 104.559 53.6098 100.642 60.9627 89.1229C60.9627 89.1229 69.5209 98.0352 60.3148 104.559Z" fill="#CAE6FE"/>
<path d="M74.2445 135.704C74.2445 135.704 69.988 142.198 58.8607 134.28C58.8607 134.28 68.1949 126.181 74.2445 135.704Z" fill="#CAE6FE"/>
<path d="M78.9606 141.241C78.9606 141.241 72.9939 136.269 82.1548 126.121C82.1548 126.121 89.1235 136.321 78.9606 141.241Z" fill="#CAE6FE"/>
<path d="M84.6636 149.453C84.6636 149.453 80.5351 156.029 69.2572 148.315C69.2572 148.315 78.4332 140.043 84.6636 149.453Z" fill="#CAE6FE"/>
<path d="M177.29 64.7062C182.812 49.4279 188.462 36.7261 194.098 26.8947C201.466 14.0498 208.849 6.10175 216.058 3.26908C216.533 3.08074 217.075 3.31429 217.264 3.79644C217.452 4.27106 217.219 4.81349 216.736 5.00183C204.148 9.95145 190.64 32.1607 177.637 69.2792L177.29 64.7137V64.7062Z" fill="#ABD3F2"/>
<path d="M201.624 15.9935C201.624 15.9935 194.52 12.8595 200.524 0.579559C200.524 0.579559 210.039 8.46732 201.624 15.9935Z" fill="#CAE6FE"/>
<path d="M198.204 22.1635C198.204 22.1635 200.938 14.8935 213.527 20.2048C213.527 20.2048 206.182 30.1417 198.204 22.1635Z" fill="#CAE6FE"/>
<path d="M211.342 7.01332C211.342 7.01332 211.5 -0.753903 225.136 0.0597339C225.136 0.0597339 221.528 11.8801 211.342 7.01332Z" fill="#CAE6FE"/>
<path d="M190.933 34.3606C190.933 34.3606 183.189 33.8106 184.681 20.2274C184.681 20.2274 196.297 24.4312 190.933 34.3606Z" fill="#CAE6FE"/>
<path d="M188.402 41.171C188.402 41.171 189.841 33.5394 203.161 36.5905C203.161 36.5905 197.646 47.65 188.402 41.171Z" fill="#CAE6FE"/>
<path d="M184.003 50.1512C184.003 50.1512 176.25 49.7519 177.486 36.1461C177.486 36.1461 189.186 40.1238 184.003 50.1512Z" fill="#CAE6FE"/>
<path d="M228.527 59.3799V278.919C228.527 285.805 222.952 291.38 216.066 291.38H106.737C103.279 291.38 100.153 289.971 97.8927 287.703C95.6552 285.451 94.2766 282.347 94.2766 278.926V59.3799C94.2766 52.4941 99.8515 46.9192 106.737 46.9192H216.066C218.1 46.9192 220.021 47.4089 221.716 48.2753C225.762 50.332 228.527 54.5358 228.527 59.3799Z" fill="#2A365C"/>
<path d="M228.527 59.3799V278.919C228.527 285.805 222.952 291.379 216.066 291.379H106.737C103.279 291.379 100.153 289.971 97.8928 287.703L221.716 48.2677C225.762 50.3244 228.527 54.5282 228.527 59.3724V59.3799Z" fill="#16162F"/>
<path d="M92.4835 86.4107H94.2841V115.415H92.4835C90.9617 115.415 89.7262 114.18 89.7262 112.658V89.1681C89.7262 87.6463 90.9617 86.4107 92.4835 86.4107Z" fill="#16162F"/>
<path d="M230.003 107.821H228.527V84.2033H230.003C231.246 84.2033 232.256 85.2128 232.256 86.4559V105.561C232.256 106.804 231.246 107.814 230.003 107.814V107.821Z" fill="#16162F"/>
<path d="M92.4835 119.348H94.2841V148.353H92.4835C90.9617 148.353 89.7262 147.117 89.7262 145.595V122.105C89.7262 120.584 90.9617 119.348 92.4835 119.348Z" fill="#16162F"/>
<path d="M222.311 58.8375V279.461C222.311 282.61 219.757 285.164 216.608 285.164H106.195C103.844 285.164 101.833 283.748 100.959 281.721C100.658 281.028 100.492 280.267 100.492 279.461V58.8375C100.492 55.6884 103.046 53.1345 106.195 53.1345H216.608C217.437 53.1345 218.228 53.3153 218.944 53.6317C220.925 54.5207 222.311 56.5171 222.311 58.8375Z" fill="#FEFDFF"/>
<path d="M211.049 221.829H143.841C142.62 221.829 141.626 220.842 141.626 219.614C141.626 218.393 142.613 217.399 143.841 217.399H211.049C212.269 217.399 213.263 218.386 213.263 219.614C213.263 220.834 212.277 221.829 211.049 221.829Z" fill="#CAE6FE"/>
<path d="M211.049 231.411H143.841C142.62 231.411 141.626 230.425 141.626 229.197C141.626 227.976 142.613 226.982 143.841 226.982H211.049C212.269 226.982 213.263 227.969 213.263 229.197C213.263 230.417 212.277 231.411 211.049 231.411Z" fill="#CAE6FE"/>
<path d="M211.049 240.994H143.841C142.62 240.994 141.626 240.007 141.626 238.779C141.626 237.559 142.613 236.564 143.841 236.564H211.049C212.269 236.564 213.263 237.551 213.263 238.779C213.263 240 212.277 240.994 211.049 240.994Z" fill="#CAE6FE"/>
<path d="M135.637 217.414H112.071V240.979H135.637V217.414Z" fill="#CAE6FE"/>
<path d="M150.862 81.8303H114.279C113.058 81.8303 112.064 82.8172 112.064 84.0452C112.064 85.2656 113.051 86.2601 114.279 86.2601H150.862C152.082 86.2601 153.077 85.2732 153.077 84.0452C153.077 82.8247 152.09 81.8303 150.862 81.8303Z" fill="#CAE6FE"/>
<path d="M150.862 91.4055H114.279C113.058 91.4055 112.064 92.3925 112.064 93.6205C112.064 94.8409 113.051 95.8354 114.279 95.8354H150.862C152.082 95.8354 153.077 94.8484 153.077 93.6205C153.077 92.4 152.09 91.4055 150.862 91.4055Z" fill="#CAE6FE"/>
<path d="M150.862 100.988H114.279C113.058 100.988 112.064 101.975 112.064 103.203C112.064 104.424 113.051 105.418 114.279 105.418H150.862C152.082 105.418 153.077 104.431 153.077 103.203C153.077 101.983 152.09 100.988 150.862 100.988Z" fill="#CAE6FE"/>
<path d="M210.981 81.8303H174.397C173.177 81.8303 172.182 82.8172 172.182 84.0452C172.182 85.2656 173.169 86.2601 174.397 86.2601H210.981C212.201 86.2601 213.196 85.2732 213.196 84.0452C213.196 82.8247 212.209 81.8303 210.981 81.8303Z" fill="#CAE6FE"/>
<path d="M210.981 91.4055H174.405C173.182 91.4055 172.19 92.3955 172.19 93.6167C172.19 94.8379 173.182 95.8278 174.405 95.8278H210.981C212.204 95.8278 213.196 94.8379 213.196 93.6167C213.196 92.3955 212.204 91.4055 210.981 91.4055Z" fill="#CAE6FE"/>
<path d="M210.981 100.988H174.397C173.177 100.988 172.182 101.975 172.182 103.203C172.182 104.424 173.169 105.418 174.397 105.418H210.981C212.201 105.418 213.196 104.431 213.196 103.203C213.196 101.983 212.209 100.988 210.981 100.988Z" fill="#CAE6FE"/>
<path d="M189.826 251.88H133.633C130.067 251.88 127.176 254.771 127.176 258.337V266.767C127.176 270.333 130.067 273.223 133.633 273.223H189.826C193.392 273.223 196.283 270.333 196.283 266.767V258.337C196.283 254.771 193.392 251.88 189.826 251.88Z" fill="#2A365C"/>
<path d="M145.025 265.365V269.885H142.873V258.317H146.401C147.19 258.317 147.865 258.4 148.425 258.565C148.99 258.725 149.452 258.952 149.809 259.245C150.172 259.538 150.436 259.89 150.601 260.301C150.772 260.706 150.857 261.154 150.857 261.645C150.857 262.034 150.798 262.402 150.681 262.749C150.569 263.096 150.404 263.41 150.185 263.693C149.972 263.976 149.705 264.224 149.385 264.437C149.07 264.65 148.71 264.821 148.305 264.949C148.577 265.104 148.812 265.325 149.009 265.613L151.905 269.885H149.969C149.782 269.885 149.622 269.848 149.489 269.773C149.361 269.698 149.252 269.592 149.161 269.453L146.729 265.749C146.638 265.61 146.537 265.512 146.425 265.453C146.318 265.394 146.158 265.365 145.945 265.365H145.025ZM145.025 263.821H146.369C146.774 263.821 147.126 263.77 147.425 263.669C147.729 263.568 147.977 263.429 148.169 263.253C148.366 263.072 148.513 262.858 148.609 262.613C148.705 262.368 148.753 262.098 148.753 261.805C148.753 261.218 148.558 260.768 148.169 260.453C147.785 260.138 147.196 259.981 146.401 259.981H145.025V263.821ZM160.581 258.317V260.029H155.453V263.237H159.493V264.893H155.453V268.165H160.581V269.885H153.285V258.317H160.581ZM163.57 258.317C163.666 258.317 163.746 258.322 163.81 258.333C163.874 258.338 163.93 258.354 163.978 258.381C164.031 258.402 164.082 258.437 164.13 258.485C164.178 258.528 164.231 258.586 164.29 258.661L170.362 266.397C170.34 266.21 170.324 266.029 170.314 265.853C170.308 265.672 170.306 265.504 170.306 265.349V258.317H172.202V269.885H171.09C170.919 269.885 170.778 269.858 170.666 269.805C170.554 269.752 170.444 269.656 170.338 269.517L164.29 261.813C164.306 261.984 164.316 262.154 164.322 262.325C164.332 262.49 164.338 262.642 164.338 262.781V269.885H162.442V258.317H163.57ZM182.687 258.317V260.085H179.207V269.885H177.055V260.085H173.559V258.317H182.687Z" fill="#16162F"/>
<path d="M144.272 263.612V268.132H142.12V256.564H145.648C146.437 256.564 147.112 256.646 147.672 256.812C148.237 256.972 148.698 257.198 149.056 257.492C149.418 257.785 149.682 258.137 149.848 258.548C150.018 258.953 150.104 259.401 150.104 259.892C150.104 260.281 150.045 260.649 149.928 260.996C149.816 261.342 149.65 261.657 149.432 261.94C149.218 262.222 148.952 262.47 148.632 262.684C148.317 262.897 147.957 263.068 147.552 263.196C147.824 263.35 148.058 263.572 148.256 263.86L151.152 268.132H149.216C149.029 268.132 148.869 268.094 148.736 268.02C148.608 267.945 148.498 267.838 148.408 267.7L145.976 263.996C145.885 263.857 145.784 263.758 145.672 263.7C145.565 263.641 145.405 263.612 145.192 263.612H144.272ZM144.272 262.068H145.616C146.021 262.068 146.373 262.017 146.672 261.916C146.976 261.814 147.224 261.676 147.416 261.5C147.613 261.318 147.76 261.105 147.856 260.86C147.952 260.614 148 260.345 148 260.052C148 259.465 147.805 259.014 147.416 258.7C147.032 258.385 146.442 258.228 145.648 258.228H144.272V262.068ZM159.828 256.564V258.276H154.7V261.484H158.74V263.14H154.7V266.412H159.828V268.132H152.532V256.564H159.828ZM162.816 256.564C162.912 256.564 162.992 256.569 163.056 256.58C163.12 256.585 163.176 256.601 163.224 256.628C163.278 256.649 163.328 256.684 163.376 256.732C163.424 256.774 163.478 256.833 163.536 256.908L169.608 264.644C169.587 264.457 169.571 264.276 169.56 264.1C169.555 263.918 169.552 263.75 169.552 263.596V256.564H171.448V268.132H170.336C170.166 268.132 170.024 268.105 169.912 268.052C169.8 267.998 169.691 267.902 169.584 267.764L163.536 260.06C163.552 260.23 163.563 260.401 163.568 260.572C163.579 260.737 163.584 260.889 163.584 261.028V268.132H161.688V256.564H162.816ZM181.934 256.564V258.332H178.454V268.132H176.302V258.332H172.806V256.564H181.934Z" fill="#FEFDFF"/>
<path d="M118.573 54.8672L124.615 64.0583C126.302 66.6198 129.157 68.1642 132.231 68.1642H190.587C193.653 68.1642 196.516 66.6198 198.204 64.0583L204.246 54.8672C204.246 53.918 203.47 53.1345 202.513 53.1345H120.313C119.364 53.1345 118.58 53.918 118.58 54.8672H118.573Z" fill="#2A365C"/>
<path d="M181.23 61.5119H131.222C130.205 61.5119 129.376 60.6832 129.376 59.6662C129.376 58.6491 130.205 57.8204 131.222 57.8204H181.23C182.247 57.8204 183.076 58.6491 183.076 59.6662C183.076 60.6832 182.247 61.5119 181.23 61.5119Z" fill="#445279"/>
<path d="M192.885 59.5381C192.885 60.7661 191.89 61.753 190.67 61.753C189.45 61.753 188.455 60.7586 188.455 59.5381C188.455 58.3177 189.45 57.3232 190.67 57.3232C191.89 57.3232 192.885 58.3177 192.885 59.5381Z" fill="#445279"/>
<path d="M214.288 150.673H109.11V198.459H214.288V150.673Z" fill="#009EF3"/>
<path d="M214.288 150.673H109.11V154.47H214.288V150.673Z" fill="#007CE6"/>
<path d="M214.295 147.833H109.11L117.299 128.441H206.106L214.295 147.833Z" fill="#445279"/>
<path d="M217.625 147.697H104.439V150.673H217.625V147.697Z" fill="#2A365C"/>
<path d="M183.852 198.459H139.554V161.393L162.298 149.031L183.852 160.181V198.459Z" fill="#009EF3"/>
<path d="M140.744 164.769H137.023V198.459H140.744V164.769Z" fill="#007CE6"/>
<path d="M186.429 164.769H182.707V198.459H186.429V164.769Z" fill="#007CE6"/>
<path d="M169.274 173.515H154.124V198.527H169.274V173.515Z" fill="#2A365C"/>
<path d="M167.76 175.037H155.653V198.519H167.76V175.037Z" fill="#445279"/>
<path d="M166.977 187.49C166.977 188.191 166.404 188.763 165.703 188.763C165.003 188.763 164.43 188.191 164.43 187.49C164.43 186.789 165.003 186.217 165.703 186.217C166.404 186.217 166.977 186.789 166.977 187.49Z" fill="#2A365C"/>
<path d="M151.216 171.647H172.182V172.385C172.182 173.01 171.678 173.515 171.052 173.515H152.346C151.721 173.515 151.216 173.01 151.216 172.385V171.647Z" fill="#2A365C"/>
<path d="M161.04 176.762H157.303V184.364H161.04V176.762Z" fill="#CAE6FE"/>
<path d="M161.033 177.063V179.309L157.303 183.045V180.793L161.033 177.063Z" fill="#FEFDFF"/>
<path opacity="0.2" d="M161.04 176.762H157.303V177.839H161.04V176.762Z" fill="black"/>
<path d="M166.306 176.762H162.569V184.364H166.306V176.762Z" fill="#CAE6FE"/>
<path d="M166.306 177.063V179.309L162.569 183.045V180.793L166.306 177.063Z" fill="#FEFDFF"/>
<path opacity="0.2" d="M166.306 176.762H162.569V177.839H166.306V176.762Z" fill="black"/>
<path d="M106.895 143.667H215.177C216.533 143.667 217.625 144.767 217.625 146.115V147.72H104.439V146.115C104.439 144.759 105.539 143.667 106.888 143.667H106.895Z" fill="#2A365C"/>
<path d="M195.032 164.806L188.96 164.791L182.654 164.769L161.703 150.643L140.752 164.769L134.439 164.791L128.374 164.806L161.703 142.341L195.032 164.806Z" fill="#445279"/>
<path d="M188.96 164.791L182.654 164.769L161.703 150.643L140.752 164.769L134.439 164.791L161.703 146.409L188.96 164.791Z" fill="#2A365C"/>
<path d="M128.54 171.263H119.605V187.935H128.54V171.263Z" fill="#CAE6FE"/>
<path d="M128.54 171.263H125.391L119.635 177.026V181.734L128.54 172.822V171.263Z" fill="#FEFDFF"/>
<path d="M128.54 178.314L119.635 187.226V187.935H121.27L128.54 180.665V178.314Z" fill="#FEFDFF"/>
<path d="M118.385 170.042V189.155H128.54V170.042H118.385ZM119.605 171.263H127.297V178.97H119.605V171.263ZM119.605 187.935V180.228H127.297V187.935H119.605Z" fill="#445279"/>
<path opacity="0.2" d="M128.547 170.148H118.392V172.114H128.547V170.148Z" fill="black"/>
<path d="M116.418 168.498H130.506V169.108C130.506 169.62 130.084 170.042 129.572 170.042H117.352C116.84 170.042 116.418 169.62 116.418 169.108V168.498Z" fill="#2A365C"/>
<path d="M128.54 189.155H118.385V191.114H128.54V189.155Z" fill="#007CE6"/>
<path d="M207.154 171.263H198.219V187.935H207.154V171.263Z" fill="#CAE6FE"/>
<path d="M207.146 171.263H204.005L198.241 177.026V181.734L207.146 172.822V171.263Z" fill="#FEFDFF"/>
<path d="M207.146 178.314L198.241 187.226V187.935H199.884L207.146 180.665V178.314Z" fill="#FEFDFF"/>
<path d="M196.998 170.042V189.155H207.154V170.042H196.998ZM198.219 171.263H205.911V178.97H198.219V171.263ZM198.219 187.935V180.228H205.911V187.935H198.219Z" fill="#445279"/>
<path opacity="0.2" d="M207.154 170.148H196.998V172.114H207.154V170.148Z" fill="black"/>
<path d="M195.032 168.498H209.12V169.108C209.12 169.62 208.698 170.042 208.186 170.042H195.966C195.454 170.042 195.032 169.62 195.032 169.108V168.498Z" fill="#2A365C"/>
<path d="M207.154 189.155H196.998V191.114H207.154V189.155Z" fill="#007CE6"/>
<path d="M203.831 130.535H120.14C119.844 130.535 119.605 130.775 119.605 131.07V131.763C119.605 132.059 119.844 132.298 120.14 132.298H203.831C204.127 132.298 204.366 132.059 204.366 131.763V131.07C204.366 130.775 204.127 130.535 203.831 130.535Z" fill="#2A365C"/>
<path d="M204.961 135.169H118.377C118.081 135.169 117.842 135.408 117.842 135.704V136.397C117.842 136.692 118.081 136.932 118.377 136.932H204.961C205.257 136.932 205.496 136.692 205.496 136.397V135.704C205.496 135.408 205.257 135.169 204.961 135.169Z" fill="#2A365C"/>
<path d="M208.585 139.802H115.732C115.437 139.802 115.198 140.041 115.198 140.337V141.03C115.198 141.325 115.437 141.565 115.732 141.565H208.585C208.88 141.565 209.12 141.325 209.12 141.03V140.337C209.12 140.041 208.88 139.802 208.585 139.802Z" fill="#2A365C"/>
<path d="M135.207 122.324H123.462V135.576H135.207V122.324Z" fill="#009EF3"/>
<path d="M135.207 122.324H123.462V125.729H135.207V122.324Z" fill="#007CE6"/>
<path d="M137.663 117.841V119.416C137.663 119.642 137.633 119.868 137.588 120.086C137.286 121.367 136.134 122.331 134.755 122.331H123.922C122.543 122.331 121.39 121.375 121.089 120.086C121.036 119.875 121.014 119.649 121.014 119.416V117.841H137.663Z" fill="#445279"/>
<path d="M137.588 120.079C137.286 121.359 136.134 122.324 134.755 122.324H123.922C122.543 122.324 121.39 121.367 121.089 120.079H137.58H137.588Z" fill="#2A365C"/>
<path d="M216.239 198.459H107.031C106.536 198.459 106.135 198.861 106.135 199.356V200.523C106.135 201.019 106.536 201.42 107.031 201.42H216.239C216.734 201.42 217.136 201.019 217.136 200.523V199.356C217.136 198.861 216.734 198.459 216.239 198.459Z" fill="#445279"/>
<path d="M219.019 201.375H104.259C103.764 201.375 103.362 201.776 103.362 202.271V203.439C103.362 203.934 103.764 204.335 104.259 204.335H219.019C219.514 204.335 219.916 203.934 219.916 203.439V202.271C219.916 201.776 219.514 201.375 219.019 201.375Z" fill="#2A365C"/>
<path d="M140.752 164.806V169.311L161.989 155.638L182.707 169.311L182.654 164.806L161.703 150.681L140.752 164.806Z" fill="#007CE6"/>
<path opacity="0.3" d="M222.352 59.2016V279.825C222.352 282.974 219.799 285.528 216.649 285.528H106.236C103.885 285.528 101.874 284.112 101 282.085L218.985 53.9958C220.966 54.8848 222.352 56.8812 222.352 59.2016Z" fill="#FEFDFF"/>
<path d="M30.7448 251.067L39.8982 254.133C41.0584 254.517 42.309 253.892 42.6932 252.739L50.4529 229.551L53.6622 219.96L40.3201 215.493L38.4216 221.173L29.3511 248.272C28.9593 249.424 29.5846 250.683 30.7448 251.067Z" fill="#61B3FF"/>
<path d="M38.4218 221.166C41.0811 224.119 45.0966 227.592 50.4606 229.543L53.6699 219.953L40.3278 215.485L38.4293 221.166H38.4218Z" fill="#009EF3"/>
<path d="M39.4613 253.982L38.5724 256.649L27.076 291.003C26.3075 293.293 23.8365 294.529 21.5463 293.76C19.2635 292.992 18.028 290.521 18.7889 288.23L29.2005 257.116L31.1743 251.202L39.4613 253.975V253.982Z" fill="#2A365C"/>
<path d="M39.4614 253.982L38.5724 256.649L29.2005 257.124L31.1744 251.21L39.4614 253.982Z" fill="#16162F"/>
<path d="M20.8381 171.15C13.7941 191.845 24.8611 214.325 45.5561 221.369C66.2511 228.413 88.7316 217.346 95.7756 196.651C102.82 175.956 91.7526 153.468 71.0576 146.432C50.3626 139.388 27.8821 150.455 20.8381 171.15ZM26.5863 173.108C32.5379 155.615 51.6132 146.228 69.1064 152.18C86.5996 158.131 95.9865 177.207 90.0349 194.7C84.0833 212.193 65.008 221.58 47.5149 215.628C30.0217 209.677 20.6347 190.601 26.5863 173.108Z" fill="#445279"/>
<path opacity="0.5" d="M24.8838 186.255C26.1795 204.682 42.2263 218.627 60.6612 217.331C62.2433 217.218 63.7877 217 65.3019 216.676C69.2119 215.847 72.8507 214.333 76.1128 212.283C79.5104 210.144 82.4862 207.417 84.9046 204.26C88.7091 199.295 91.15 193.261 91.6999 186.752C91.8431 185.049 91.8581 183.309 91.7376 181.546C90.4418 163.111 74.3951 149.174 55.9602 150.47C54.1973 150.59 52.4796 150.854 50.8071 151.231C44.4412 152.692 38.806 155.947 34.4214 160.414C31.6339 163.254 29.3512 166.584 27.7089 170.246C26.1343 173.756 25.155 177.576 24.8762 181.561C24.7708 183.098 24.7708 184.665 24.8762 186.247L24.8838 186.255Z" fill="#FEFDFF"/>
<path opacity="0.5" d="M34.4213 160.422L84.897 204.26C88.7015 199.295 91.1424 193.261 91.6923 186.752L50.7995 151.231C44.4336 152.692 38.7984 155.947 34.4138 160.414L34.4213 160.422Z" fill="#FEFDFF"/>
<path opacity="0.5" d="M24.8762 181.569L65.2944 216.676C69.2044 215.847 72.8431 214.333 76.1052 212.283L27.7089 170.246C26.1343 173.756 25.155 177.576 24.8762 181.561V181.569Z" fill="#FEFDFF"/>
<path d="M248.627 274.549L248.205 282.151L254.375 282.286L255.128 274.301L248.627 274.549Z" fill="#FBA691"/>
<path d="M250.653 281.081C250.653 281.081 253.825 280.358 254.699 280.41C255.565 280.463 261.14 287.191 263.091 287.65C266.617 288.479 266.414 294.031 264.244 294.227C257.953 294.785 247.353 291.741 247.353 291.741C247.353 291.741 246.638 284.584 247.15 282.362C247.662 280.139 248.89 281.676 250.661 281.088L250.653 281.081Z" fill="#009EF3"/>
<path d="M255.603 287.356C255.49 287.379 255.369 287.356 255.271 287.281C255.075 287.138 255.038 286.867 255.173 286.678C255.218 286.611 256.341 285.089 257.682 284.592C259.46 283.929 260.665 285.029 260.718 285.074C260.891 285.24 260.906 285.511 260.741 285.684C260.575 285.857 260.304 285.872 260.13 285.707C260.1 285.676 259.257 284.931 257.991 285.405C256.899 285.812 255.897 287.176 255.881 287.191C255.814 287.281 255.716 287.341 255.61 287.364L255.603 287.356Z" fill="#FEFDFF"/>
<path d="M254.458 286C254.345 286.023 254.224 286 254.126 285.925C253.93 285.782 253.893 285.511 254.028 285.322C254.073 285.255 255.196 283.733 256.537 283.236C258.315 282.573 259.52 283.672 259.573 283.718C259.746 283.883 259.761 284.155 259.596 284.328C259.43 284.501 259.159 284.516 258.985 284.351C258.955 284.32 258.111 283.575 256.846 284.049C255.753 284.456 254.751 285.82 254.736 285.835C254.669 285.925 254.571 285.985 254.465 286.008L254.458 286Z" fill="#FEFDFF"/>
<path d="M257.237 288.539C257.124 288.562 257.004 288.539 256.906 288.464C256.71 288.321 256.672 288.05 256.808 287.861C256.853 287.793 257.976 286.272 259.317 285.774C261.095 285.111 262.3 286.211 262.353 286.257C262.526 286.422 262.541 286.693 262.375 286.867C262.21 287.04 261.938 287.055 261.765 286.889C261.735 286.859 260.891 286.113 259.626 286.588C258.533 286.995 257.531 288.358 257.516 288.373C257.448 288.464 257.35 288.524 257.245 288.547L257.237 288.539Z" fill="#FEFDFF"/>
<path d="M271.31 181.908C271.31 181.908 271.182 183.693 270.949 186.654C270.889 187.437 270.821 188.304 270.745 189.245C269.947 199.182 268.402 217.15 266.715 229.897C264.349 247.767 256.898 277.133 256.898 277.133L249.207 276.87L248.446 276.839L246.623 276.779C246.623 276.779 247.903 258.201 249.538 242.072C250.615 231.434 251.256 206.264 251.565 190.368C251.723 182.171 251.798 176.438 251.798 176.438L271.31 181.908Z" fill="#2A365C"/>
<path d="M271.31 181.908C271.31 181.908 271.182 183.693 270.949 186.654C270.889 187.437 270.821 188.304 270.745 189.245C267.197 189.908 257.441 190.368 251.565 190.368C251.723 182.171 251.798 176.438 251.798 176.438L271.31 181.908Z" fill="#16162F"/>
<path d="M255.942 186.526C255.942 187.136 255.226 245.047 249.207 276.87L248.446 276.839C254.473 245.115 255.181 187.121 255.188 186.518H255.942V186.526Z" fill="#16162F"/>
<path d="M296.872 276.011L296.616 282.866L290.348 282.535L290.205 275.25L296.872 276.011Z" fill="#FBA691"/>
<path d="M295.019 282.55C295.019 282.55 296.382 280.772 297.445 280.862C298.507 280.953 306.621 287.598 309.423 288.185C312.226 288.765 311.653 290.829 311.118 291.877C310.591 292.924 288.698 291.146 288.698 291.146C288.698 291.146 288.193 284.614 288.939 282.633C289.685 280.651 292.811 282.994 295.019 282.558V282.55Z" fill="#009EF3"/>
<path d="M299.486 287.168C299.388 287.198 299.275 287.183 299.177 287.13C298.989 287.017 298.929 286.776 299.034 286.588C299.072 286.528 299.953 285.044 301.114 284.479C302.666 283.725 303.848 284.614 303.901 284.652C304.074 284.787 304.104 285.029 303.976 285.202C303.841 285.375 303.6 285.405 303.426 285.277C303.396 285.255 302.568 284.652 301.468 285.187C300.518 285.646 299.727 286.972 299.72 286.987C299.667 287.078 299.584 287.138 299.486 287.168Z" fill="#FEFDFF"/>
<path d="M298.326 286.046C298.228 286.076 298.115 286.061 298.017 286.008C297.829 285.895 297.769 285.654 297.874 285.466C297.912 285.405 298.793 283.921 299.953 283.356C301.505 282.603 302.688 283.492 302.741 283.529C302.914 283.665 302.944 283.906 302.816 284.079C302.681 284.253 302.44 284.283 302.266 284.155C302.236 284.132 301.407 283.529 300.307 284.064C299.358 284.524 298.567 285.85 298.56 285.865C298.507 285.955 298.424 286.015 298.326 286.046Z" fill="#FEFDFF"/>
<path d="M301.061 288.095C300.963 288.125 300.85 288.11 300.752 288.057C300.564 287.944 300.503 287.703 300.609 287.515C300.646 287.454 301.528 285.97 302.688 285.405C304.24 284.652 305.423 285.541 305.476 285.578C305.649 285.714 305.679 285.955 305.551 286.128C305.415 286.302 305.174 286.332 305.001 286.204C304.971 286.181 304.142 285.578 303.042 286.113C302.093 286.573 301.302 287.899 301.294 287.914C301.242 288.004 301.159 288.065 301.061 288.095Z" fill="#FEFDFF"/>
<path d="M298.01 277.796L291.636 277.322L290.875 277.269L289.331 277.156C289.331 277.156 285.413 239.894 284.2 229.972C283.138 221.354 278.196 201.977 274.994 189.923C274.083 186.503 273.314 183.67 272.81 181.84C272.425 180.401 272.192 179.58 272.192 179.58L293.497 177.515C293.497 177.515 293.557 177.983 293.655 178.826C293.866 180.552 294.258 183.851 294.74 188.002C296.074 199.303 298.093 216.886 298.876 225.836C300.888 248.882 298.017 277.789 298.017 277.789L298.01 277.796Z" fill="#2A365C"/>
<path d="M294.733 188.01L274.987 189.923C274.075 186.503 273.307 183.67 272.802 181.84L293.648 178.834C293.859 180.559 294.25 183.859 294.733 188.01Z" fill="#16162F"/>
<path d="M291.636 277.322L290.875 277.269C290.506 265.75 289.376 236.971 287.063 224.774C284.163 209.398 277.488 187.008 277.42 186.782L278.143 186.563C278.211 186.789 284.894 209.217 287.802 224.631C290.122 236.903 291.267 265.818 291.629 277.314L291.636 277.322Z" fill="#16162F"/>
<path d="M292.284 124.298C292.706 127.085 293.135 129.752 293.512 131.989C294.115 135.598 294.574 138.077 294.574 138.077L297.844 147.449C298.966 150.65 302.681 152.089 305.671 150.477C305.724 150.454 305.777 150.432 305.83 150.394C306.922 149.558 307.788 147.923 308.595 144.089C308.617 143.757 311.518 129.458 311.54 124.313L304.918 123.68C304.632 123.062 303.215 130.415 302.899 129.737C302.696 129.3 302.492 128.848 302.281 128.388C301.927 127.627 301.566 126.844 301.196 126.045C300.669 124.908 300.127 123.74 299.577 122.557C295.531 113.848 291.214 104.627 291.214 104.627C289.813 105.411 290.973 115.415 292.292 124.29L292.284 124.298Z" fill="#FBA691"/>
<path d="M292.284 124.298C292.698 127.085 293.135 129.752 293.512 131.989C297.362 130.543 299.818 127.929 301.189 126.053C300.662 124.915 300.119 123.748 299.569 122.565L292.292 124.29L292.284 124.298Z" fill="#FD857D"/>
<path d="M301.076 141.06C301.076 141.06 301.121 141.06 301.144 141.06C301.347 141.045 301.52 140.887 301.535 140.676C301.98 135.673 302.522 131.967 302.891 129.744C302.688 129.307 302.477 128.855 302.274 128.396C301.92 130.362 301.241 134.536 300.699 140.6C300.676 140.834 300.85 141.037 301.083 141.06H301.076Z" fill="#FD857D"/>
<path d="M303.803 122.037C303.803 122.037 302.997 123.122 301.543 124.35C299.788 125.842 296.51 127.74 293.165 127.974C289.956 117.917 288.954 105.222 289.918 101.87C291.576 103.678 299.991 113.743 303.795 122.045L303.803 122.037Z" fill="#61B3FF"/>
<path d="M301.543 122.211L301.648 122.271L302.537 122.783L302.748 122.407L310.493 122.196C311.148 122.181 311.683 121.676 311.743 121.02L313.167 104.831C313.167 104.748 313.175 104.672 313.167 104.597L313.461 104.137L312.527 103.603L312.489 103.58L312.467 103.565C312.278 103.474 312.067 103.422 311.849 103.429L303.637 103.655C302.982 103.67 302.447 104.175 302.394 104.831L300.97 121.02C300.925 121.51 301.166 121.962 301.543 122.211Z" fill="#2A365C"/>
<path d="M303.23 122.957L311.442 122.731C312.098 122.715 312.632 122.211 312.693 121.555L314.117 105.365C314.184 104.597 313.567 103.942 312.798 103.964L304.587 104.19C303.931 104.205 303.396 104.71 303.336 105.365L301.912 121.555C301.844 122.324 302.462 122.979 303.23 122.957Z" fill="#445279"/>
<path d="M313.491 112.455C314.252 112.545 313.619 113.66 314.124 115.227C314.749 117.178 311.51 125.194 311.51 125.194C308.368 126.625 304.587 124.117 304.587 124.117C304.587 124.117 303.773 118.007 304.534 115.25C304.534 115.25 304.978 112.786 305.114 111.332C305.242 109.893 305.882 108.243 306.342 108.537C306.794 108.831 306.907 110.006 306.922 110.895C306.93 111.784 307.11 113.494 307.11 113.494C307.11 113.494 307.359 111.385 307.397 110.225C307.434 109.064 307.344 107.219 308.052 106.857C308.941 106.405 309.197 108.876 309.31 109.773C309.423 110.669 309.069 113.457 309.069 113.457C309.069 113.457 309.679 110.33 309.521 109.403C309.37 108.477 309.175 106.669 309.22 105.9C309.265 105.132 310.252 105.26 310.546 106.202C310.84 107.143 311.179 109.042 311.261 109.675C311.367 110.488 311.163 113.185 311.163 113.185C311.163 113.185 311.548 110.112 311.525 109.306C311.502 108.65 311.299 107.347 311.533 106.586C311.766 105.825 312.678 105.682 312.972 107.678C313.265 109.675 313.311 109.908 313.258 110.503C313.16 111.558 312.979 112.726 313.1 113.155C313.16 113.374 313.409 113.374 313.409 113.374L313.491 112.455Z" fill="#FBA691"/>
<path d="M296.94 179.165C281.074 184.22 264.937 185.185 248.536 182.088C248.22 177.621 247.391 162.968 246.766 147.524C246.743 147.012 246.72 146.499 246.705 145.987C246.69 145.573 246.675 145.166 246.66 144.751C246.645 144.458 246.637 144.156 246.622 143.855C246.622 143.719 246.615 143.584 246.607 143.448C246.592 143.041 246.577 142.635 246.562 142.235C246.547 141.896 246.532 141.565 246.517 141.226C246.517 141.181 246.517 141.135 246.517 141.083C246.517 141.037 246.517 141 246.517 140.955C246.502 140.6 246.494 140.246 246.479 139.892C246.479 139.824 246.479 139.757 246.472 139.689C246.457 139.267 246.442 138.838 246.427 138.416C246.411 138.122 246.404 137.836 246.396 137.549C246.396 137.436 246.396 137.316 246.381 137.203C246.366 136.879 246.359 136.547 246.351 136.231C246.351 136.133 246.351 136.035 246.344 135.937C246.336 135.643 246.329 135.342 246.321 135.041C246.321 134.913 246.321 134.784 246.314 134.664C246.298 134.242 246.283 133.82 246.276 133.398C246.261 132.984 246.246 132.585 246.238 132.178C246.231 131.907 246.216 131.643 246.208 131.372C246.193 130.792 246.178 130.211 246.163 129.639C245.824 116.41 245.862 105.554 246.811 104.07C249.011 100.627 259.671 95.082 262.888 92.5205L262.918 93.0479C262.918 93.0479 265.185 95.6997 267.543 95.3532C269.683 95.0443 271.182 92.4527 271.431 91.9856C273.179 93.0629 277.149 94.7354 281.014 96.5435C284.878 98.344 288.63 100.273 289.934 101.847C291.049 103.211 292.292 113.788 293.429 126.784V126.829C293.452 127.07 293.474 127.311 293.497 127.552V127.59C293.512 127.778 293.527 127.966 293.55 128.155C293.557 128.275 293.565 128.388 293.58 128.509C293.602 128.773 293.625 129.044 293.648 129.315C293.678 129.714 293.715 130.121 293.753 130.528C293.783 130.942 293.813 131.364 293.859 131.786C293.866 131.914 293.881 132.035 293.889 132.163C293.911 132.457 293.934 132.758 293.964 133.052C293.972 133.15 293.979 133.248 293.987 133.346C294.009 133.669 294.039 133.993 294.062 134.317L294.092 134.664C294.115 134.95 294.137 135.236 294.16 135.53C294.19 135.952 294.228 136.374 294.258 136.796C294.258 136.864 294.265 136.932 294.273 136.999C294.296 137.346 294.326 137.7 294.356 138.054C294.356 138.099 294.356 138.137 294.363 138.175C294.363 138.22 294.371 138.265 294.371 138.31C294.401 138.649 294.424 138.981 294.446 139.32C294.476 139.719 294.506 140.126 294.537 140.533C294.544 140.668 294.559 140.804 294.567 140.939C294.589 141.241 294.612 141.535 294.635 141.828C294.665 142.235 294.695 142.65 294.725 143.064C294.763 143.576 294.8 144.089 294.838 144.601C295.93 159.97 296.751 174.63 296.962 179.143L296.94 179.165Z" fill="#61B3FF"/>
<path d="M293.866 132.178L246.306 135.048C246.306 134.92 246.306 134.792 246.299 134.671C246.283 134.25 246.268 133.828 246.261 133.406C246.246 132.991 246.231 132.592 246.223 132.185C246.216 131.914 246.201 131.65 246.193 131.379L293.557 128.516C293.58 128.78 293.602 129.051 293.625 129.323C293.655 129.722 293.693 130.129 293.731 130.535C293.761 130.95 293.791 131.372 293.836 131.794C293.844 131.922 293.859 132.042 293.866 132.17V132.178Z" fill="#009EF3"/>
<path d="M294.348 138.34L246.525 141.233C246.525 141.188 246.525 141.143 246.525 141.09C246.525 141.045 246.525 141.007 246.525 140.962C246.51 140.608 246.502 140.254 246.487 139.9C246.487 139.832 246.487 139.764 246.479 139.696C246.464 139.275 246.449 138.845 246.434 138.423C246.419 138.129 246.412 137.843 246.404 137.557L294.085 134.679C294.107 134.965 294.13 135.252 294.153 135.545C294.183 135.967 294.22 136.389 294.25 136.811C294.25 136.879 294.258 136.947 294.265 137.014C294.288 137.361 294.318 137.715 294.348 138.069C294.348 138.114 294.348 138.152 294.356 138.19C294.356 138.235 294.363 138.28 294.363 138.325L294.348 138.34Z" fill="#009EF3"/>
<path d="M294.815 144.623L246.773 147.524C246.751 147.012 246.728 146.499 246.713 145.987C246.698 145.573 246.683 145.166 246.668 144.752C246.653 144.458 246.645 144.156 246.63 143.855L294.552 140.962C294.574 141.263 294.597 141.557 294.62 141.851C294.65 142.258 294.68 142.672 294.71 143.087C294.748 143.599 294.785 144.111 294.823 144.623H294.815Z" fill="#009EF3"/>
<path d="M288.148 120.35C289.647 122.143 291.93 126.264 292.955 128.177C293.098 128.441 293.211 128.66 293.301 128.825C293.414 129.044 293.482 129.172 293.489 129.179C293.52 129.247 293.572 129.292 293.633 129.33C293.603 128.946 293.565 128.554 293.535 128.17C293.52 127.982 293.505 127.786 293.482 127.605V127.575C293.271 127.183 293.022 126.731 292.744 126.226C291.583 124.132 289.926 121.314 288.721 119.868C288.585 119.71 288.352 119.687 288.193 119.823C288.035 119.958 288.013 120.192 288.148 120.35Z" fill="#009EF3"/>
<path d="M256.341 107.671C256.341 107.671 256.348 107.671 256.356 107.671C262.759 107.076 267.551 104.107 270.444 101.719C273.578 99.1351 275.175 96.7167 275.235 96.6188C275.348 96.4455 275.303 96.212 275.13 96.099C274.957 95.986 274.723 96.0312 274.61 96.2044C274.55 96.3024 268.169 105.817 256.288 106.917C256.085 106.94 255.934 107.121 255.949 107.324C255.964 107.528 256.145 107.678 256.348 107.663L256.341 107.671Z" fill="#009EF3"/>
<path d="M284.027 171.082C284.223 171.067 284.381 170.908 284.381 170.713C284.381 170.509 284.216 170.336 284.005 170.336C273.435 170.283 266.828 165.326 263.151 161.175C259.151 156.662 257.637 152.104 257.629 152.059C257.561 151.863 257.35 151.758 257.155 151.818C256.959 151.878 256.853 152.089 256.913 152.293C256.974 152.481 258.48 157.031 262.571 161.657C266.353 165.929 273.141 171.036 284.005 171.089C284.012 171.089 284.02 171.089 284.027 171.089V171.082Z" fill="#009EF3"/>
<path d="M275.1 164.806C275.265 164.799 275.409 164.678 275.446 164.505C275.491 164.301 275.356 164.106 275.152 164.06C265.856 162.139 263.626 154.606 263.603 154.53C263.551 154.334 263.34 154.214 263.144 154.274C262.948 154.327 262.827 154.538 262.888 154.734C262.91 154.816 263.475 156.783 265.253 159.02C266.888 161.077 269.909 163.744 275.009 164.799C275.039 164.799 275.077 164.806 275.107 164.799L275.1 164.806Z" fill="#009EF3"/>
<path d="M250.774 121.374C249.5 123.333 247.73 127.703 246.939 129.722C246.833 130.001 246.743 130.234 246.675 130.407C246.585 130.641 246.54 130.769 246.532 130.784C246.479 130.927 246.344 131.018 246.201 131.025C246.193 130.837 246.186 130.641 246.178 130.453C246.065 130.453 245.96 130.468 245.854 130.468C245.899 130.355 246.005 130.076 246.155 129.684C246.344 129.194 246.607 128.524 246.924 127.756C247.828 125.533 249.124 122.542 250.148 120.96C250.261 120.787 250.495 120.734 250.668 120.847C250.841 120.96 250.887 121.194 250.781 121.367L250.774 121.374Z" fill="#009EF3"/>
<path d="M254.352 69.4524C254.352 69.4524 253.29 64.7514 254.344 63.0639C255.399 61.3763 257.305 61.753 259.204 59.7716C261.102 57.7903 267.325 59.1991 269.969 58.5512C271.423 58.1971 273.005 58.295 274.429 57.9184C276.463 57.3759 277.691 59.3573 277.322 61.4065C277.081 62.7098 276.554 64.6761 274.731 65.2938C274.731 65.2938 256.733 63.1241 254.352 69.4524Z" fill="#2A365C"/>
<path d="M254.179 73.2645C254.593 80.1427 259.113 84.6177 265.984 84.2034C272.862 83.789 277.345 78.4024 276.93 71.5317C276.516 64.6535 272.131 59.6963 265.253 60.1107C257.011 60.6079 253.764 66.3937 254.179 73.2645Z" fill="#2A365C"/>
<path d="M255.896 76.1348C255.896 76.1348 253.832 73.7014 252.536 75.8937C251.241 78.086 253.629 84.1808 257.011 82.4556L255.889 76.1348H255.896Z" fill="#FD857D"/>
<path d="M256.145 80.5797C256.017 80.5872 255.896 80.5118 255.851 80.3838C255.196 78.4928 253.162 77.8374 253.139 77.8299C252.981 77.7847 252.898 77.6189 252.943 77.4607C252.988 77.3025 253.154 77.2196 253.312 77.2648C253.41 77.295 255.648 78.0107 256.409 80.1879C256.461 80.3386 256.379 80.5119 256.228 80.5646C256.205 80.5721 256.175 80.5797 256.153 80.5797H256.145Z" fill="#F05B56"/>
<path d="M254.073 79.7359C254.02 79.7359 253.96 79.7283 253.915 79.6982C253.772 79.6153 253.727 79.4421 253.802 79.2989C253.817 79.2763 254.133 78.7188 254.849 78.3422C254.992 78.2668 255.173 78.3195 255.248 78.4702C255.324 78.6134 255.271 78.7942 255.12 78.8695C254.563 79.1558 254.314 79.5852 254.314 79.5927C254.262 79.6831 254.171 79.7359 254.073 79.7434V79.7359Z" fill="#F05B56"/>
<path d="M275.582 74.9444C275.582 74.9444 277.337 72.285 278.889 74.3041C280.433 76.3231 278.806 82.6664 275.235 81.3556L275.582 74.9444Z" fill="#FD857D"/>
<path d="M275.876 79.3893C276.004 79.3817 276.117 79.2913 276.147 79.1557C276.569 77.2045 278.512 76.308 278.535 76.2929C278.686 76.2251 278.746 76.0519 278.686 75.9012C278.618 75.7505 278.445 75.6902 278.294 75.7505C278.204 75.7882 276.064 76.7751 275.574 79.0201C275.537 79.1783 275.642 79.3365 275.8 79.3667C275.83 79.3667 275.853 79.3742 275.883 79.3667L275.876 79.3893Z" fill="#F05B56"/>
<path d="M277.827 78.2969C277.88 78.2969 277.932 78.2743 277.985 78.2442C278.113 78.1462 278.143 77.9654 278.045 77.8298C278.03 77.8072 277.646 77.2949 276.885 77.0086C276.735 76.9484 276.561 77.0312 276.509 77.1819C276.448 77.3326 276.531 77.5059 276.682 77.5586C277.269 77.7771 277.571 78.1764 277.571 78.1764C277.631 78.2592 277.729 78.3044 277.827 78.2969Z" fill="#F05B56"/>
<path d="M271.145 86.9004L271.521 93.0855C271.521 93.0855 269.864 96.3476 267.385 96.7092C264.907 97.0784 262.511 94.2834 262.511 94.2834L262.127 87.8798L271.145 86.9004Z" fill="#FBA691"/>
<path d="M271.145 86.9004L271.31 89.6427C269.751 91.6014 266.805 92.2418 262.368 91.8575L262.127 87.8722L271.145 86.8929V86.9004Z" fill="#FD857D"/>
<path d="M254.879 76.0821C254.925 76.4361 254.977 76.7977 255.038 77.1669C255.188 78.086 255.369 79.0202 255.595 79.9544C255.603 79.9845 255.61 80.0222 255.618 80.0448C256.725 84.5574 258.865 88.927 262.971 90.1248C272.282 92.8294 275.07 84.8136 276.094 80.1804C276.207 79.6681 276.305 79.0955 276.381 78.4853C276.381 78.4627 276.38 78.4326 276.388 78.41C276.471 77.7244 276.539 77.0012 276.591 76.2553C276.629 75.7054 276.652 75.1403 276.674 74.5828C276.727 73.2117 276.727 71.8406 276.712 70.6277C276.674 67.8477 274.866 65.3993 272.207 64.5631C268.38 63.3501 262.632 62.5591 257.441 65.9342C255.52 67.1772 254.405 69.3394 254.495 71.6296C254.548 72.8953 254.661 74.4397 254.879 76.0971V76.0821Z" fill="#FBA691"/>
<path d="M262.149 76.2478C262.187 76.9107 261.878 77.4607 261.464 77.4908C261.042 77.5134 260.673 77.0011 260.635 76.3382C260.597 75.6752 260.906 75.1252 261.321 75.0951C261.743 75.0725 262.112 75.5848 262.149 76.2478Z" fill="#2A365C"/>
<path d="M271.476 75.6827C271.514 76.3457 271.205 76.8957 270.791 76.9258C270.369 76.9484 270 76.4361 269.962 75.7731C269.924 75.1102 270.233 74.5602 270.647 74.5301C271.069 74.5075 271.438 75.0198 271.476 75.6827Z" fill="#2A365C"/>
<path d="M272.538 71.5392C272.538 71.5392 270.082 70.7331 268.282 71.6447L268.53 72.6617C268.53 72.6617 271.227 72.27 272.629 72.7371C272.727 72.3378 272.719 71.931 272.538 71.5392Z" fill="#2A365C"/>
<path d="M258.322 72.3981C258.322 72.3981 260.665 71.3057 262.556 71.9912L262.436 73.0309C262.436 73.0309 259.708 72.9631 258.383 73.6034C258.239 73.2192 258.194 72.8199 258.322 72.3981Z" fill="#2A365C"/>
<path d="M266.376 81.0693C265.886 81.1597 265.366 81.0618 265.291 81.0392C265.133 81.009 265.027 80.8508 265.065 80.6926C265.095 80.5344 265.253 80.4289 265.411 80.4666C265.69 80.5269 266.353 80.5721 266.594 80.3611C266.639 80.3235 266.7 80.2481 266.685 80.0673C266.602 79.0352 265.705 75.6978 265.69 75.6677C265.645 75.5094 265.743 75.3512 265.901 75.306C266.059 75.2608 266.218 75.3588 266.263 75.517C266.3 75.6526 267.189 78.9448 267.272 80.0296C267.302 80.4365 267.129 80.6851 266.978 80.8132C266.813 80.9563 266.602 81.0392 266.376 81.0768V81.0693Z" fill="#FD857D"/>
<path d="M262.466 83.0733C262.782 84.2636 263.709 86.4409 266.398 86.2827C269.095 86.1169 269.728 84.0451 269.901 82.6288L262.466 83.0808V83.0733Z" fill="#FEFDFF"/>
<path d="M276.659 74.9294L275.326 75.0122C275.394 73.6637 274.806 72.0816 274.339 71.0269C273.284 68.6387 275.152 67.4484 273.51 66.3184C271.868 65.1883 268.003 65.9492 265.283 66.0245C262.549 66.0999 258.172 66.4012 257.117 66.7176C256.062 67.0265 256.755 68.7593 257.23 70.1078C257.704 71.4563 256.1 73.0761 255.896 74.5075C255.836 74.9218 255.896 75.5245 255.994 76.1724L254.887 76.2402C254.653 74.5225 254.533 72.9103 254.48 71.607C254.39 69.3243 255.505 67.1621 257.426 65.9115C262.624 62.5365 268.365 63.3275 272.192 64.5404C274.844 65.3766 276.659 67.8251 276.697 70.605C276.712 71.9234 276.704 73.4301 276.644 74.9218L276.659 74.9294Z" fill="#2A365C"/>
<path d="M267.25 76.406C267.137 74.4773 268.606 72.8124 270.542 72.6919C272.471 72.5789 274.135 74.0479 274.256 75.9841C274.369 77.9127 272.9 79.5776 270.964 79.6982C269.035 79.8112 267.37 78.3421 267.25 76.406ZM267.792 76.3758C267.89 78.0031 269.299 79.2537 270.926 79.1558C272.553 79.0578 273.804 77.649 273.706 76.0217C273.608 74.3945 272.199 73.1439 270.572 73.2418C268.945 73.3398 267.694 74.7486 267.792 76.3758Z" fill="#FEFDFF"/>
<path d="M257.682 76.9861C257.569 75.0574 259.038 73.3925 260.974 73.2719C262.903 73.1589 264.568 74.628 264.688 76.5642C264.801 78.4928 263.332 80.1577 261.396 80.2783C259.467 80.3913 257.802 78.9222 257.682 76.9861ZM258.224 76.9559C258.322 78.5832 259.731 79.8338 261.358 79.7358C262.986 79.6379 264.236 78.2291 264.138 76.6018C264.04 74.9746 262.632 73.724 261.004 73.8219C259.377 73.9198 258.126 75.3286 258.224 76.9559Z" fill="#FEFDFF"/>
<path d="M273.593 74.8917C273.661 74.8917 273.729 74.854 273.781 74.8013C273.781 74.8013 275.296 73.1439 277.413 73.5055C277.563 73.5281 277.699 73.4302 277.729 73.2795C277.752 73.1288 277.654 72.9857 277.503 72.9631C275.085 72.5487 273.442 74.3568 273.375 74.4321C273.277 74.5452 273.284 74.7184 273.397 74.8164C273.457 74.8691 273.525 74.8917 273.593 74.8842V74.8917Z" fill="#FEFDFF"/>
<path d="M258.134 75.8259C258.224 75.8259 258.307 75.7732 258.352 75.6903C258.428 75.5622 258.383 75.3889 258.247 75.3211C258.141 75.2609 255.565 73.8144 253.478 74.289C253.327 74.3192 253.237 74.4698 253.275 74.613C253.312 74.7561 253.456 74.8541 253.599 74.8164C255.475 74.387 257.953 75.7807 257.976 75.7958C258.021 75.8259 258.074 75.8334 258.126 75.8334L258.134 75.8259Z" fill="#FEFDFF"/>
<path d="M264.44 75.7882C264.44 75.7882 265.042 74.8616 265.894 74.8088C266.737 74.7561 267.378 75.5999 267.385 75.6074L267.822 75.2835C267.792 75.2383 267.001 74.1986 265.863 74.2664C264.726 74.3342 264.01 75.4492 263.98 75.4944L264.44 75.7882Z" fill="#FEFDFF"/>
<path d="M249.538 175.579L246.442 179.806C246.442 179.806 244.649 178.683 242.215 176.732L242.2 176.717C238.494 173.756 233.303 168.882 230.651 163.149C227.336 155.984 228.308 150.183 228.308 150.183C228.745 145.934 231.593 137.301 233.86 130.89C234.689 128.562 235.442 126.535 235.97 125.111L242.893 126.701L245.854 128.524L244.716 131.53L237.077 151.795C237.748 157.74 240.761 163.586 243.662 167.985C246.66 172.551 249.538 175.579 249.538 175.579Z" fill="#FBA691"/>
<path d="M249.538 175.579L246.442 179.806C246.442 179.806 244.649 178.683 242.215 176.732L242.2 176.717C241.665 173.523 241.989 169.01 243.662 167.985C246.66 172.551 249.538 175.579 249.538 175.579Z" fill="#FD857D"/>
<path d="M247.888 170.705C248.513 170.743 251.836 170.908 251.474 169.771C251.075 168.52 247.82 167.051 247.82 167.051C247.82 167.051 247.798 166.991 247.835 166.901L247.798 166.629L247.655 163.932C247.022 163.932 246.449 164.06 246.133 164.158C244.701 164.603 244.897 167.872 244.897 167.872C244.897 167.872 243.097 168.513 243.164 169.839C243.232 171.157 244.679 171.353 244.679 171.353C244.679 171.353 242.697 172.34 243.157 173.462C243.624 174.585 245.123 174.916 245.123 174.916C245.123 174.916 243.421 176.039 244.016 176.83C244.611 177.621 245.997 178.02 245.997 178.02C245.997 178.02 244.814 179.625 246.02 180.499C247.225 181.373 248.996 181.184 250.141 180.785C251.278 180.386 251.082 178.939 248.837 177.885C248.837 177.885 250.819 178.08 251.806 176.431C252.634 175.052 250.525 174.464 248.732 174.223C250.141 174.321 252.582 174.276 252.996 172.935C253.546 171.172 248.656 170.75 247.896 170.697L247.888 170.705Z" fill="#FBA691"/>
<path d="M245.854 128.524L244.716 131.53C242.419 131.673 238.305 131.741 233.86 130.89C234.689 128.562 235.442 126.535 235.97 125.111L242.893 126.701L245.854 128.524Z" fill="#FD857D"/>
<path d="M246.811 104.085C246.811 104.085 238.381 112.538 232.233 127.288C237.055 128.848 241.62 129.948 245.862 130.475C246.419 129.496 248.634 123.19 250.299 118.64L246.818 104.085H246.811Z" fill="#61B3FF"/>
</svg>
