<svg width="104" height="104" viewBox="0 0 104 104" fill="none" xmlns="http://www.w3.org/2000/svg">
<circle cx="52" cy="52" r="52" fill="#F2F2F2"/>
<path d="M36.4545 69C35.5045 69 34.6913 68.6671 34.0148 68.0013C33.3383 67.3354 33 66.535 33 65.6V45.2C33 44.265 33.3383 43.4646 34.0148 42.7987C34.6913 42.1329 35.5045 41.8 36.4545 41.8H41.8955L45.0909 38.4H55.4545V41.8H46.6023L43.45 45.2H36.4545V65.6H64.0909V50.3H67.5455V65.6C67.5455 66.535 67.2072 67.3354 66.5307 68.0013C65.8542 68.6671 65.0409 69 64.0909 69H36.4545ZM64.0909 45.2V41.8H60.6364V38.4H64.0909V35H67.5455V38.4H71V41.8H67.5455V45.2H64.0909ZM50.2727 63.05C52.4318 63.05 54.267 62.3062 55.7784 60.8188C57.2898 59.3313 58.0455 57.525 58.0455 55.4C58.0455 53.275 57.2898 51.4688 55.7784 49.9812C54.267 48.4938 52.4318 47.75 50.2727 47.75C48.1136 47.75 46.2784 48.4938 44.767 49.9812C43.2557 51.4688 42.5 53.275 42.5 55.4C42.5 57.525 43.2557 59.3313 44.767 60.8188C46.2784 62.3062 48.1136 63.05 50.2727 63.05ZM50.2727 59.65C49.0636 59.65 48.0417 59.2392 47.2068 58.4175C46.372 57.5958 45.9545 56.59 45.9545 55.4C45.9545 54.21 46.372 53.2042 47.2068 52.3825C48.0417 51.5608 49.0636 51.15 50.2727 51.15C51.4818 51.15 52.5038 51.5608 53.3386 52.3825C54.1735 53.2042 54.5909 54.21 54.5909 55.4C54.5909 56.59 54.1735 57.5958 53.3386 58.4175C52.5038 59.2392 51.4818 59.65 50.2727 59.65Z" fill="#ADADAD"/>
</svg>
