<svg width="123" height="41" viewBox="0 0 123 41" fill="none" xmlns="http://www.w3.org/2000/svg">
<mask id="mask0_1768_15498" style="mask-type:luminance" maskUnits="userSpaceOnUse" x="0" y="0" width="123" height="41">
<path d="M123 0H0V41H123V0Z" fill="white"/>
</mask>
<g mask="url(#mask0_1768_15498)">
<path d="M102.591 41.0003H20.2089C14.8399 40.9732 9.69998 38.8015 5.91296 34.9599C2.12594 31.1184 0 25.9196 0 20.5003C0 15.081 2.12594 9.88213 5.91296 6.04057C9.69998 2.199 14.8399 0.0272733 20.2089 0.000254804H102.591C105.267 -0.01321 107.919 0.507098 110.395 1.53129C112.87 2.55547 115.121 4.06336 117.018 5.9683C118.915 7.87323 120.42 10.1377 121.447 12.6315C122.474 15.1254 123.003 17.7995 123.003 20.5003C123.003 23.201 122.474 25.8751 121.447 28.369C120.42 30.8628 118.915 33.1273 117.018 35.0322C115.121 36.9372 112.87 38.445 110.395 39.4692C107.919 40.4934 105.267 41.0137 102.591 41.0003ZM20.2089 2.23469C15.4094 2.23469 10.8065 4.15912 7.41279 7.58463C4.01905 11.0101 2.11246 15.6561 2.11246 20.5005C2.11246 25.3449 4.01905 29.9909 7.41279 33.4164C10.8065 36.8419 15.4094 38.7663 20.2089 38.7663H102.591C107.391 38.7663 111.993 36.8419 115.387 33.4164C118.781 29.9909 120.688 25.3449 120.688 20.5005C120.688 15.6561 118.781 11.0101 115.387 7.58463C111.993 4.15912 107.391 2.23469 102.591 2.23469H20.2089Z" fill="white"/>
<path d="M102.759 25.0144L102.76 25.0124C103.02 24.1984 103.167 23.3531 103.199 22.5002H105.866C105.821 23.6134 105.596 24.7128 105.201 25.7552L105.201 25.7555C104.779 26.8682 104.138 27.8825 103.316 28.7364L103.316 28.7365C102.5 29.584 101.52 30.2512 100.437 30.6965C97.9957 31.6326 95.2995 31.6325 92.8586 30.6963C91.7685 30.2512 90.7807 29.5838 89.957 28.7356C89.1354 27.8818 88.4944 26.8679 88.073 25.7555L88.0729 25.7552C87.6775 24.7128 87.4529 23.6134 87.4072 22.5002H90.0564C90.0882 23.3531 90.2356 24.1984 90.4954 25.0124L90.4954 25.0124L90.4973 25.0183C90.7804 25.8688 91.2267 26.6549 91.8109 27.3319L91.8159 27.3376L91.821 27.3432C92.4071 27.982 93.1261 28.4825 93.9266 28.8089L93.9266 28.809L93.9365 28.8127C95.6845 29.4825 97.6153 29.4825 99.3633 28.8127L99.3634 28.8129L99.3749 28.8082C100.169 28.481 100.881 27.9795 101.459 27.3406L101.464 27.3349L101.469 27.3291C102.046 26.6505 102.484 25.8638 102.759 25.0144Z" fill="white" stroke="white"/>
<path d="M96.7164 31.9C95.3259 31.9154 93.9457 31.6581 92.6524 31.1423C91.4582 30.6576 90.3771 29.9272 89.478 28.9975C88.5848 28.0678 87.8876 26.965 87.4283 25.7557C86.9398 24.4686 86.6936 23.1008 86.7024 21.7225V21.4432H90.9057V21.7225C90.8899 22.6616 91.0276 23.597 91.3131 24.4909C91.5629 25.245 91.9574 25.9419 92.4742 26.5419C92.983 27.0939 93.6056 27.5263 94.2982 27.8087C95.8627 28.4075 97.5902 28.4075 99.1547 27.8087C99.8435 27.5256 100.461 27.0914 100.963 26.5373C101.471 25.9387 101.857 25.2446 102.098 24.495C102.384 23.5994 102.521 22.6626 102.506 21.722V21.4432H106.732V21.7225C106.741 23.1008 106.494 24.4686 106.006 25.7557C105.547 26.9666 104.849 28.0705 103.954 29.0001C103.065 29.9264 101.994 30.6554 100.811 31.1402C99.5072 31.6588 98.1163 31.9168 96.7154 31.9M87.2577 22.0017C87.2809 23.2163 87.5131 24.4175 87.9438 25.5518C88.3777 26.6918 89.035 27.7317 89.8763 28.6092C90.7226 29.4826 91.7395 30.1689 92.8624 30.6246C94.0893 31.1115 95.3981 31.3537 96.7164 31.3379C98.0444 31.3547 99.363 31.111 100.599 30.6205C101.712 30.165 102.719 29.4815 103.557 28.6133C104.4 27.7356 105.058 26.6943 105.491 25.5524C105.922 24.418 106.154 23.2168 106.178 22.0022H103.056C103.049 22.9093 102.903 23.8099 102.624 24.6723C102.358 25.4932 101.935 26.2531 101.378 26.9088C100.821 27.5271 100.134 28.0119 99.3668 28.3274C97.6663 28.9799 95.7877 28.9799 94.0872 28.3274C93.3178 28.0132 92.6268 27.531 92.0638 26.9154C91.4952 26.2611 91.0616 25.4989 90.7885 24.6734C90.5094 23.8103 90.3631 22.9091 90.3549 22.0012L87.2577 22.0017Z" fill="white"/>
<path d="M104.623 20.3528C104.051 20.3535 103.501 20.13 103.089 19.7296L96.5261 13.3641L90.2499 19.698C89.8349 20.1169 89.2719 20.3523 88.6849 20.3523C88.0979 20.3523 87.535 20.1169 87.1199 19.698C86.7049 19.279 86.4717 18.7108 86.4717 18.1183C86.4717 17.5258 86.7049 16.9576 87.1199 16.5387L94.9318 8.65368C95.3414 8.24079 95.8949 8.00626 96.4738 8.00036C97.0526 7.99445 97.6107 8.21764 98.0285 8.62209L106.156 16.5071C106.475 16.816 106.694 17.2138 106.787 17.6496C106.879 18.0854 106.841 18.5391 106.676 18.9525C106.511 19.3659 106.227 19.7201 105.861 19.9695C105.495 20.2189 105.064 20.3522 104.622 20.3522" fill="white"/>
</g>
</svg>
