<svg width="30" height="30" viewBox="0 0 30 30" fill="none" xmlns="http://www.w3.org/2000/svg">
<rect x="1" y="1" width="28" height="28" rx="13.9595" fill="#005FC3" stroke="white" stroke-width="2"/>
<path d="M15.5522 24.9515C14.3915 24.9643 13.2393 24.7495 12.1597 24.3189C11.1627 23.9144 10.2602 23.3046 9.50965 22.5285C8.76402 21.7523 8.18196 20.8317 7.7986 19.8222C7.39078 18.7477 7.18525 17.6059 7.19257 16.4553V16.2222H10.7015V16.4553C10.6884 17.2393 10.8033 18.0201 11.0416 18.7664C11.2501 19.3958 11.5795 19.9776 12.0109 20.4786C12.4356 20.9393 12.9554 21.3003 13.5336 21.5361C14.8396 22.0359 16.2817 22.0359 17.5878 21.5361C18.1628 21.2998 18.6785 20.9372 19.0974 20.4747C19.5215 19.975 19.8436 19.3956 20.0452 18.7698C20.2833 18.0221 20.3981 17.2401 20.3853 16.4549V16.2222H23.9132V16.4553C23.9205 17.6059 23.715 18.7477 23.3072 19.8222C22.9243 20.8331 22.3414 21.7546 21.594 22.5306C20.8521 23.3039 19.9584 23.9125 18.9701 24.3172C17.882 24.7501 16.7218 24.9655 15.5522 24.9515Z" fill="white"/>
<path d="M22.1529 15.3119C21.6753 15.3125 21.2162 15.126 20.8721 14.7916L15.3934 9.47774L10.1541 14.7653C9.80758 15.115 9.33764 15.3115 8.84762 15.3115C8.3576 15.3115 7.88765 15.115 7.54115 14.7653C7.19466 14.4155 7 13.9412 7 13.4466C7 12.952 7.19466 12.4776 7.54115 12.1279L14.0625 5.54549C14.4044 5.20081 14.8665 5.00503 15.3497 5.0001C15.833 4.99517 16.2989 5.18148 16.6476 5.51912L23.4328 12.1015C23.6985 12.3594 23.8817 12.6915 23.959 13.0553C24.0362 13.4191 24.0039 13.7979 23.8662 14.143C23.7285 14.4881 23.4917 14.7837 23.1863 14.992C22.8808 15.2002 22.5206 15.3114 22.152 15.3114" fill="white"/>
</svg>
