<svg width="44" height="44" viewBox="0 0 44 44" fill="none" xmlns="http://www.w3.org/2000/svg">
<rect width="44" height="44" rx="22" fill="#005FC3"/>
<path d="M21.5522 31.9515C20.3915 31.9644 19.2393 31.7495 18.1597 31.319C17.1627 30.9144 16.2602 30.3046 15.5096 29.5285C14.764 28.7524 14.182 27.8317 13.7986 26.8222C13.3908 25.7478 13.1853 24.6059 13.1926 23.4553V23.2222H16.7015V23.4553C16.6884 24.2393 16.8033 25.0201 17.0416 25.7664C17.2501 26.3959 17.5795 26.9777 18.0109 27.4786C18.4356 27.9394 18.9554 28.3004 19.5336 28.5361C20.8396 29.0359 22.2817 29.0359 23.5878 28.5361C24.1628 28.2998 24.6785 27.9372 25.0974 27.4748C25.5215 26.975 25.8436 26.3956 26.0452 25.7698C26.2833 25.0221 26.3981 24.2401 26.3853 23.4549V23.2222H29.9132V23.4553C29.9205 24.6059 29.715 25.7478 29.3072 26.8222C28.9243 27.8331 28.3414 28.7546 27.594 29.5306C26.8521 30.304 25.9584 30.9125 24.9701 31.3172C23.882 31.7501 22.7218 31.9656 21.5522 31.9515Z" fill="white"/>
<path d="M28.1529 22.3119C27.6753 22.3125 27.2162 22.126 26.8721 21.7916L21.3934 16.4777L16.1541 21.7653C15.8076 22.115 15.3376 22.3115 14.8476 22.3115C14.3576 22.3115 13.8876 22.115 13.5412 21.7653C13.1947 21.4155 13 20.9412 13 20.4466C13 19.952 13.1947 19.4776 13.5412 19.1279L20.0625 12.5455C20.4044 12.2008 20.8665 12.005 21.3497 12.0001C21.833 11.9952 22.2989 12.1815 22.6476 12.5191L29.4328 19.1015C29.6985 19.3594 29.8817 19.6915 29.959 20.0553C30.0362 20.4191 30.0039 20.7979 29.8662 21.143C29.7285 21.4881 29.4917 21.7837 29.1863 21.992C28.8808 22.2002 28.5206 22.3114 28.152 22.3114" fill="white"/>
</svg>
