<svg width="123" height="41" viewBox="0 0 123 41" fill="none" xmlns="http://www.w3.org/2000/svg">
<mask id="mask0_1768_15483" style="mask-type:luminance" maskUnits="userSpaceOnUse" x="0" y="0" width="123" height="41">
<path d="M123 0H0V41H123V0Z" fill="white"/>
</mask>
<g mask="url(#mask0_1768_15483)">
<path d="M102.591 39.8833H20.2082C15.1152 39.8833 10.2307 37.8411 6.62941 34.2061C3.02808 30.5711 1.00488 25.6409 1.00488 20.5002C1.00488 15.3595 3.02808 10.4294 6.62941 6.79435C10.2307 3.15932 15.1152 1.11719 20.2082 1.11719H102.591C107.684 1.11719 112.568 3.15932 116.17 6.79435C119.771 10.4294 121.794 15.3595 121.794 20.5002C121.794 25.6409 119.771 30.5711 116.17 34.2061C112.568 37.8411 107.684 39.8833 102.591 39.8833Z" fill="#005FC3"/>
<path d="M102.591 41.0003H20.2089C14.8399 40.9732 9.69998 38.8015 5.91296 34.9599C2.12594 31.1184 0 25.9196 0 20.5003C0 15.081 2.12594 9.88213 5.91296 6.04057C9.69998 2.199 14.8399 0.0272733 20.2089 0.000254804H102.591C105.267 -0.01321 107.919 0.507098 110.395 1.53129C112.87 2.55547 115.121 4.06336 117.018 5.9683C118.915 7.87323 120.42 10.1377 121.447 12.6315C122.474 15.1254 123.003 17.7995 123.003 20.5003C123.003 23.201 122.474 25.8751 121.447 28.369C120.42 30.8628 118.915 33.1273 117.018 35.0322C115.121 36.9372 112.87 38.445 110.395 39.4692C107.919 40.4934 105.267 41.0137 102.591 41.0003ZM20.2089 2.23469C15.4094 2.23469 10.8065 4.15912 7.41279 7.58463C4.01905 11.0101 2.11246 15.6561 2.11246 20.5005C2.11246 25.3449 4.01905 29.9909 7.41279 33.4164C10.8065 36.8419 15.4094 38.7663 20.2089 38.7663H102.591C107.391 38.7663 111.993 36.8419 115.387 33.4164C118.781 29.9909 120.688 25.3449 120.688 20.5005C120.688 15.6561 118.781 11.0101 115.387 7.58463C111.993 4.15912 107.391 2.23469 102.591 2.23469H20.2089Z" fill="white"/>
<path d="M102.759 25.0144L102.76 25.0124C103.02 24.1984 103.167 23.3531 103.199 22.5002H105.866C105.821 23.6134 105.596 24.7128 105.201 25.7552L105.201 25.7555C104.779 26.8682 104.138 27.8825 103.316 28.7364L103.316 28.7365C102.5 29.584 101.52 30.2512 100.437 30.6965C97.9957 31.6326 95.2995 31.6325 92.8586 30.6963C91.7685 30.2512 90.7807 29.5838 89.957 28.7356C89.1354 27.8818 88.4944 26.8679 88.073 25.7555L88.0729 25.7552C87.6775 24.7128 87.4529 23.6134 87.4072 22.5002H90.0564C90.0882 23.3531 90.2356 24.1984 90.4954 25.0124L90.4954 25.0124L90.4973 25.0183C90.7804 25.8688 91.2267 26.6549 91.8109 27.3319L91.8159 27.3376L91.821 27.3432C92.4071 27.982 93.1261 28.4825 93.9266 28.8089L93.9266 28.809L93.9365 28.8127C95.6845 29.4825 97.6153 29.4825 99.3633 28.8127L99.3634 28.8129L99.3749 28.8082C100.169 28.481 100.881 27.9795 101.459 27.3406L101.464 27.3349L101.469 27.3291C102.046 26.6505 102.484 25.8638 102.759 25.0144Z" fill="white" stroke="white"/>
<path d="M96.7164 31.9C95.3259 31.9154 93.9457 31.6581 92.6524 31.1423C91.4582 30.6576 90.3771 29.9272 89.478 28.9975C88.5848 28.0678 87.8876 26.965 87.4283 25.7557C86.9398 24.4686 86.6936 23.1008 86.7024 21.7225V21.4432H90.9057V21.7225C90.8899 22.6616 91.0276 23.597 91.3131 24.4909C91.5629 25.245 91.9574 25.9419 92.4742 26.5419C92.983 27.0939 93.6056 27.5263 94.2982 27.8087C95.8627 28.4075 97.5902 28.4075 99.1547 27.8087C99.8435 27.5256 100.461 27.0914 100.963 26.5373C101.471 25.9387 101.857 25.2446 102.098 24.495C102.384 23.5994 102.521 22.6626 102.506 21.722V21.4432H106.732V21.7225C106.741 23.1008 106.494 24.4686 106.006 25.7557C105.547 26.9666 104.849 28.0705 103.954 29.0001C103.065 29.9264 101.994 30.6554 100.811 31.1402C99.5072 31.6588 98.1163 31.9168 96.7154 31.9M87.2577 22.0017C87.2809 23.2163 87.5131 24.4175 87.9438 25.5518C88.3777 26.6918 89.035 27.7317 89.8763 28.6092C90.7226 29.4826 91.7395 30.1689 92.8624 30.6246C94.0893 31.1115 95.3981 31.3537 96.7164 31.3379C98.0444 31.3547 99.363 31.111 100.599 30.6205C101.712 30.165 102.719 29.4815 103.557 28.6133C104.4 27.7356 105.058 26.6943 105.491 25.5524C105.922 24.418 106.154 23.2168 106.178 22.0022H103.056C103.049 22.9093 102.903 23.8099 102.624 24.6723C102.358 25.4932 101.935 26.2531 101.378 26.9088C100.821 27.5271 100.134 28.0119 99.3668 28.3274C97.6663 28.9799 95.7877 28.9799 94.0872 28.3274C93.3178 28.0132 92.6268 27.531 92.0638 26.9154C91.4952 26.2611 91.0616 25.4989 90.7885 24.6734C90.5094 23.8103 90.3631 22.9091 90.3549 22.0012L87.2577 22.0017Z" fill="white"/>
<path d="M104.623 20.3528C104.051 20.3535 103.501 20.13 103.089 19.7296L96.5261 13.3641L90.2499 19.698C89.8349 20.1169 89.2719 20.3523 88.6849 20.3523C88.0979 20.3523 87.535 20.1169 87.1199 19.698C86.7049 19.279 86.4717 18.7108 86.4717 18.1183C86.4717 17.5258 86.7049 16.9576 87.1199 16.5387L94.9318 8.65368C95.3414 8.24079 95.8949 8.00626 96.4738 8.00036C97.0526 7.99445 97.6107 8.21764 98.0285 8.62209L106.156 16.5071C106.475 16.816 106.694 17.2138 106.787 17.6496C106.879 18.0854 106.841 18.5391 106.676 18.9525C106.511 19.3659 106.227 19.7201 105.861 19.9695C105.495 20.2189 105.064 20.3522 104.622 20.3522" fill="white"/>
<path d="M22.447 18.1005C22.7993 16.6787 23.5385 15.3846 24.581 14.3644C25.5352 13.5278 26.7667 13.085 28.0301 13.1241C28.5477 13.1468 29.0632 13.2057 29.5728 13.3004L29.8803 13.3514L29.1367 18.6957C28.408 18.3896 27.6258 18.2345 26.8366 18.2396C25.3379 18.2396 24.2599 18.6269 23.6026 19.4014C22.9453 20.1759 22.6173 21.4694 22.6187 23.2817V30.8233H17.6899V13.7019H22.551L22.447 18.1005Z" fill="white"/>
<path d="M48.6812 23.4942H35.935C36.0412 24.5462 36.5134 25.5263 37.2678 26.2601C38.0627 26.9066 39.0665 27.2333 40.0858 27.1773C40.8921 27.1991 41.6912 27.0195 42.4121 26.6545C43.0874 26.2817 43.6513 25.7329 44.0447 25.0652L48.0229 27.0718C47.2128 28.4621 46.0567 29.6145 44.6692 30.4146C43.2236 31.1744 41.6101 31.5504 39.9808 31.5071C37.2382 31.5071 35.0652 30.6804 33.4618 29.027C31.8584 27.3737 31.0573 25.1509 31.0583 22.3589C31.0159 21.1393 31.2169 19.9235 31.6493 18.7838C32.0818 17.6442 32.7368 16.6039 33.5754 15.7249C34.4119 14.8645 35.4166 14.1892 36.5255 13.7418C37.6345 13.2944 38.8236 13.0847 40.0171 13.1261C42.7157 13.1261 44.849 13.9378 46.417 15.5613C47.985 17.1848 48.7687 19.399 48.768 22.204C48.768 22.3538 48.7615 22.5214 48.7504 22.6998C48.7392 22.8781 48.717 23.1446 48.6817 23.4952M43.805 20.4923C43.7377 19.5549 43.3208 18.6781 42.6383 18.0388C41.8929 17.4512 40.9615 17.1566 40.0171 17.2097C39.0632 17.1606 38.1229 17.4544 37.3632 18.0388C36.6567 18.6723 36.2047 19.5452 36.0925 20.4923H43.805Z" fill="white"/>
<path d="M52.417 30.8232V13.7019H57.2427V16.3899C58.0139 15.3726 58.9894 14.5312 60.1052 13.921C61.1578 13.3834 62.3236 13.1105 63.5033 13.1256C64.6437 13.0897 65.777 13.3199 66.815 13.7982C67.7113 14.2493 68.4507 14.9645 68.9353 15.8492C69.1979 16.3562 69.3817 16.9011 69.48 17.4645C69.6107 18.3976 69.6654 19.3398 69.6436 20.2819V30.8232H64.7139V22.3589C64.7139 20.2527 64.4719 18.8623 63.9879 18.1876C63.5039 17.5129 62.6738 17.1756 61.4975 17.1756C60.8476 17.1689 60.205 17.3149 59.6205 17.6021C59.0544 17.8839 58.5645 18.3003 58.1929 18.8154C57.8889 19.234 57.6685 19.7084 57.5441 20.2121C57.3878 20.9988 57.3218 21.801 57.3473 22.603V30.8232H52.417Z" fill="white"/>
<path d="M74.9156 30.8258V17.594H72.5474V13.7014H74.9156V8.01062H79.8453V13.7014H82.214V17.5935H79.8453V30.8258H74.9156Z" fill="white"/>
</g>
</svg>
