<svg width="18" height="18" viewBox="0 0 18 18" fill="none" xmlns="http://www.w3.org/2000/svg">
<path d="M0 17.1707V1.70912C0 1.24887 0.154167 0.864583 0.4625 0.55625C0.770833 0.247917 1.15513 0.09375 1.61538 0.09375H16.3846C16.8449 0.09375 17.2292 0.247917 17.5375 0.55625C17.8458 0.864583 18 1.24887 18 1.70912V12.4784C18 12.9386 17.8458 13.3229 17.5375 13.6313C17.2292 13.9396 16.8449 14.0938 16.3846 14.0938H3.07693L0 17.1707ZM2.65 13.0938H16.3846C16.5385 13.0938 16.6795 13.0296 16.8077 12.9015C16.9359 12.7732 17 12.6322 17 12.4784V1.70912C17 1.55529 16.9359 1.41427 16.8077 1.28605C16.6795 1.15785 16.5385 1.09375 16.3846 1.09375H1.61538C1.46154 1.09375 1.32052 1.15785 1.1923 1.28605C1.0641 1.41427 1 1.55529 1 1.70912V14.738L2.65 13.0938Z" fill="black"/>
</svg>
