<svg width="165" height="166" viewBox="0 0 165 166" fill="none" xmlns="http://www.w3.org/2000/svg">
<mask id="mask0_936_7412" style="mask-type:alpha" maskUnits="userSpaceOnUse" x="0" y="0" width="158" height="157">
<rect x="0.5" y="0.5" width="157" height="156" rx="9.5" fill="white" stroke="#EFEFEF"/>
</mask>
<g mask="url(#mask0_936_7412)">
<g clip-path="url(#clip0_936_7412)">
<path opacity="0.08" d="M131.285 175.49L69.2963 166.577L50.5552 156.049L141.786 113.949L131.285 175.49Z" fill="black"/>
<path d="M187.697 144.993L170.202 153.718L164.437 152.274L152.923 158.031V162.38L131.25 173.221V130.691L187.697 102.462V144.993Z" fill="#DEB490"/>
<path d="M131.25 173.221L86.9614 151.073V108.542L131.25 130.691V173.221Z" fill="#B58053"/>
<path d="M131.25 131.076L86.9614 108.937L143.418 80.7084L187.697 102.848L131.25 131.076Z" fill="#F2E7E1"/>
<path d="M128.488 132.099L86.1543 111.017V108.668L128.488 129.749V132.099Z" fill="#BFAEA2"/>
<path d="M86.1543 108.686L128.488 129.758L130.837 128.583L88.4947 107.511L86.1543 108.686Z" fill="#E6DDD7"/>
<path d="M128.488 132.099L130.837 133.201L133.016 132.099V129.758L130.837 130.736L128.488 129.758V132.099Z" fill="#BFAEA2"/>
<path d="M130.837 128.583L133.16 129.659L130.873 130.753L128.488 129.758L130.837 128.583Z" fill="#E6DDD7"/>
<path d="M133.016 132.081L188.504 104.471V102.131L133.016 129.731V132.081Z" fill="#BFAEA2"/>
<path d="M188.504 102.149L133.016 129.74L130.667 128.565L186.164 100.974L188.504 102.149Z" fill="#E6DDD7"/>
<path d="M181.339 103.368L141.454 83.5061V81.1567L183.707 102.193L181.339 103.368Z" fill="#A8998F"/>
<path d="M141.454 81.1747L183.787 102.247L186.164 100.974L143.794 80L141.454 81.1747Z" fill="#E6DDD7"/>
<path d="M93.2024 109.851L143.803 84.6718L143.785 82.3404L90.8889 108.668L93.2024 109.851Z" fill="#BFAEA2"/>
<path d="M146.162 81.1747L90.6738 108.766L88.3245 107.601L143.812 80L146.162 81.1747Z" fill="#E6DDD7"/>
<path d="M170.202 130.368L164.437 128.915L144.924 137.658L148.152 141.406L170.202 130.368Z" fill="#C9CFD4"/>
<path d="M164.437 152.274L149.668 159.654V131.605L164.437 124.216V152.274Z" fill="#69504C"/>
<path d="M163.576 152.705L150.529 159.233V132.036L163.576 125.508V152.705Z" fill="#DBECFF"/>
<path d="M164.437 137.38L149.668 144.769V143.908L164.437 136.519V137.38Z" fill="#9DA9B3"/>
<path d="M157.218 155.915V140.743L158.079 140.312V155.485L157.218 155.915Z" fill="#69504C"/>
<path d="M152.923 161.152V132.125L149.668 134.708V161.806L152.923 161.152Z" fill="#DEB490"/>
<path d="M136.881 165.016V140.043L147.776 134.591V159.573L136.881 165.016Z" fill="#69504C"/>
<path d="M147.094 159.233L137.553 164.003V140.375L147.094 135.605V159.233Z" fill="#DBECFF"/>
<path d="M142.701 161.43L141.947 161.806V138.178L142.701 137.802V161.43Z" fill="#69504C"/>
<path d="M150.233 160.793L147.776 159.556V134.609L150.233 135.838V160.793Z" fill="#B39074"/>
<path d="M139.652 137.802H135.625V167.393H139.652V137.802Z" fill="#DEB490"/>
<path d="M150.233 135.838L135.625 143.146V137.802L147.776 134.609L150.233 135.838Z" fill="#DEB490"/>
<path d="M128.936 174.378L84.6121 152.31V151.082L128.936 173.159V174.378Z" fill="#BFAEA2"/>
<path d="M84.6121 151.1L128.936 173.168L131.285 171.993L86.9614 149.925L84.6121 151.1Z" fill="#E6DDD7"/>
<path d="M103.506 153.18V128.207L92.6106 122.755V147.728L103.506 153.18Z" fill="#69504C"/>
<path d="M93.292 147.396L102.833 152.167V128.539L93.292 123.768V147.396Z" fill="#DBECFF"/>
<path d="M97.677 149.593L98.4392 149.97V126.342L97.677 125.965V149.593Z" fill="#69504C"/>
<path d="M90.1536 148.948L92.6105 147.719V122.773L90.1536 124.001V148.948Z" fill="#946943"/>
<path d="M100.735 155.556H104.761V125.965H100.735V155.556Z" fill="#B58053"/>
<path d="M90.1536 148.948L100.726 154.265V151.79L92.6105 147.719L90.1536 148.948Z" fill="#E0C7B2"/>
<path d="M90.1536 124.001L104.761 131.309V125.965L92.6105 122.773L90.1536 124.001Z" fill="#AEB3B8"/>
<path d="M115.88 159.34V134.367L104.985 128.915V153.897L115.88 159.34Z" fill="#69504C"/>
<path d="M105.658 153.557L115.199 158.327V134.699L105.658 129.929V153.557Z" fill="#DBECFF"/>
<path d="M110.052 155.754L110.805 156.13V132.511L110.052 132.125V155.754Z" fill="#69504C"/>
<path d="M102.528 155.117L104.985 153.888V128.933L102.528 130.162V155.117Z" fill="#946943"/>
<path d="M113.1 161.717H117.126V132.125H113.1V161.717Z" fill="#B58053"/>
<path d="M102.528 155.117L113.1 160.425V157.95L104.985 153.888L102.528 155.117Z" fill="#E0C7B2"/>
<path d="M102.528 130.162L117.126 137.47V132.125L104.985 128.933L102.528 130.162Z" fill="#AEB3B8"/>
<path d="M128.246 165.51V140.528L117.351 135.076V160.058L128.246 165.51Z" fill="#69504C"/>
<path d="M118.023 159.717L127.573 164.487V140.868L118.023 136.089V159.717Z" fill="#DBECFF"/>
<path d="M122.417 161.914L123.179 162.299V138.671L122.417 138.286V161.914Z" fill="#69504C"/>
<path d="M114.894 161.277L117.351 160.049V135.094L114.894 136.322V161.277Z" fill="#946943"/>
<path d="M125.475 167.886H129.501V138.295H125.475V167.886Z" fill="#B58053"/>
<path d="M114.894 136.322L129.492 143.639V138.286L117.351 135.094L114.894 136.322Z" fill="#B58053"/>
<path opacity="0.15" d="M187.697 104.875V107.466L131.25 135.784V132.995L187.697 104.875Z" fill="black"/>
<path opacity="0.15" d="M131.25 135.784L86.9614 114.308V111.412L130.837 133.201L131.25 132.995V135.784Z" fill="black"/>
<path opacity="0.19" d="M187.697 128.799L184.505 139.362L182.048 142.142L173.933 148.679L170.202 152.651V153.87L154.214 161.797L152.923 161.152L132.424 172.63L133.608 170.737L134.657 138.286L187.697 120.657V128.799Z" fill="black"/>
<path d="M135.025 142.733C135.025 142.993 134.81 143.316 134.549 143.451C134.289 143.585 134.074 143.478 134.074 143.209C134.074 142.94 134.289 142.626 134.549 142.491C134.81 142.357 135.025 142.464 135.025 142.733Z" fill="#4E7494"/>
<path d="M135.132 142.796C135.132 143.056 134.917 143.379 134.657 143.514C134.397 143.648 134.182 143.54 134.182 143.271C134.182 143.002 134.397 142.689 134.657 142.554C134.917 142.42 135.132 142.527 135.132 142.796Z" fill="#6698C2"/>
<path d="M134.836 142.913C134.836 143.047 134.729 143.2 134.603 143.271C134.469 143.334 134.37 143.28 134.37 143.155C134.37 143.029 134.478 142.868 134.603 142.796C134.738 142.733 134.836 142.787 134.836 142.913Z" fill="#4E7494"/>
<path d="M134.433 143.289L141.373 146.849L141.723 146.356L134.783 142.787L134.433 143.289Z" fill="#4E7494"/>
<path d="M141.777 146.482C141.777 146.616 141.669 146.769 141.544 146.84C141.409 146.903 141.311 146.849 141.311 146.724C141.311 146.598 141.418 146.437 141.544 146.365C141.678 146.302 141.777 146.356 141.777 146.482Z" fill="#82B1D9"/>
<path d="M145.839 147.737C145.839 149.1 144.763 150.732 143.436 151.396C142.109 152.059 141.033 151.494 141.033 150.14C141.033 148.786 142.109 147.145 143.436 146.482C144.763 145.818 145.839 146.383 145.839 147.737Z" fill="#542313"/>
<path d="M150.645 145.334C150.645 146.697 149.569 148.329 148.242 148.992C146.915 149.656 145.839 149.091 145.839 147.737C145.839 146.383 146.915 144.742 148.242 144.078C149.569 143.415 150.645 143.98 150.645 145.334Z" fill="#542313"/>
<path d="M155.443 142.931C155.443 144.294 154.367 145.926 153.04 146.589C151.713 147.253 150.636 146.688 150.636 145.334C150.636 143.98 151.713 142.339 153.04 141.675C154.367 141.012 155.443 141.577 155.443 142.931Z" fill="#542313"/>
<path d="M160.249 140.528C160.249 141.882 159.173 143.523 157.846 144.186C156.519 144.85 155.443 144.285 155.443 142.931C155.443 141.577 156.519 139.936 157.846 139.272C159.173 138.609 160.249 139.173 160.249 140.528Z" fill="#542313"/>
<path d="M193.867 123.876L141.418 150.445L141.015 150.221V146.751L133.124 137.873V137.416L193.867 123.876Z" fill="#542313"/>
<path d="M194.27 124.1L141.418 150.445V146.526L194.27 120.181V124.1Z" fill="#6B2D17"/>
<path d="M141.418 146.526L133.124 137.416L185.949 111.08L194.27 120.181L141.418 146.526Z" fill="#7D351C"/>
<path d="M146.225 147.737C146.225 149.1 145.149 150.732 143.821 151.396C142.494 152.059 141.418 151.494 141.418 150.14C141.418 148.786 142.494 147.145 143.821 146.482C145.149 145.818 146.225 146.383 146.225 147.737Z" fill="#6B2D17"/>
<path d="M151.022 145.334C151.022 146.697 149.946 148.329 148.619 148.992C147.292 149.656 146.216 149.091 146.216 147.737C146.216 146.383 147.292 144.742 148.619 144.078C149.946 143.415 151.022 143.98 151.022 145.334Z" fill="#6B2D17"/>
<path d="M155.828 142.931C155.828 144.294 154.752 145.926 153.425 146.589C152.098 147.253 151.022 146.688 151.022 145.334C151.022 143.98 152.098 142.339 153.425 141.675C154.752 141.012 155.828 141.577 155.828 142.931Z" fill="#6B2D17"/>
<path d="M160.634 140.528C160.634 141.882 159.558 143.523 158.231 144.186C156.904 144.85 155.828 144.285 155.828 142.931C155.828 141.577 156.904 139.936 158.231 139.272C159.558 138.609 160.634 139.173 160.634 140.528Z" fill="#6B2D17"/>
<path opacity="0.19" d="M129.017 138.429L125.466 157.152L119.53 161.134L114.894 161.277L94.9152 153.888L86.9614 149.925V134.125L129.017 138.429Z" fill="black"/>
<path d="M128.012 143.146C128.012 143.406 128.228 143.729 128.488 143.863C128.748 143.998 128.963 143.89 128.963 143.621C128.963 143.352 128.748 143.038 128.488 142.904C128.228 142.769 128.012 142.877 128.012 143.146Z" fill="#4E7494"/>
<path d="M127.905 143.2C127.905 143.46 128.12 143.783 128.38 143.917C128.64 144.052 128.855 143.944 128.855 143.675C128.855 143.406 128.64 143.092 128.38 142.958C128.12 142.823 127.905 142.931 127.905 143.2Z" fill="#6698C2"/>
<path d="M128.201 143.325C128.201 143.46 128.308 143.612 128.434 143.684C128.568 143.747 128.667 143.693 128.667 143.567C128.667 143.442 128.559 143.28 128.434 143.209C128.299 143.146 128.201 143.2 128.201 143.325Z" fill="#4E7494"/>
<path d="M128.604 143.693L121.664 147.253L121.314 146.76L128.254 143.2L128.604 143.693Z" fill="#4E7494"/>
<path d="M121.26 146.885C121.26 147.02 121.368 147.172 121.493 147.244C121.628 147.307 121.727 147.253 121.727 147.127C121.727 147.002 121.619 146.84 121.493 146.769C121.359 146.706 121.26 146.76 121.26 146.885Z" fill="#82B1D9"/>
<path d="M83.4463 131.085C83.4463 132.448 84.5223 134.08 85.8495 134.744C87.1766 135.407 88.2526 134.842 88.2526 133.488C88.2526 132.134 87.1766 130.493 85.8495 129.83C84.5223 129.166 83.4463 129.731 83.4463 131.085Z" fill="#542313"/>
<path d="M117.198 148.15C117.198 149.504 118.274 151.145 119.601 151.808C120.929 152.472 122.005 151.907 122.005 150.553C122.005 149.199 120.929 147.558 119.601 146.894C118.274 146.231 117.198 146.795 117.198 148.15Z" fill="#542313"/>
<path d="M112.392 145.746C112.392 147.109 113.468 148.741 114.795 149.405C116.122 150.068 117.198 149.504 117.198 148.149C117.198 146.795 116.122 145.154 114.795 144.491C113.468 143.827 112.392 144.392 112.392 145.746Z" fill="#542313"/>
<path d="M107.594 143.343C107.594 144.697 108.671 146.338 109.998 147.002C111.325 147.665 112.401 147.1 112.401 145.746C112.401 144.392 111.325 142.751 109.998 142.088C108.671 141.424 107.594 141.989 107.594 143.343Z" fill="#542313"/>
<path d="M102.788 140.94C102.788 142.303 103.864 143.935 105.191 144.599C106.518 145.262 107.594 144.697 107.594 143.343C107.594 141.989 106.518 140.348 105.191 139.685C103.864 139.021 102.788 139.586 102.788 140.94Z" fill="#542313"/>
<path d="M97.9817 138.537C97.9817 139.9 99.0577 141.532 100.385 142.195C101.712 142.859 102.788 142.294 102.788 140.94C102.788 139.586 101.712 137.945 100.385 137.281C99.0577 136.618 97.9817 137.183 97.9817 138.537Z" fill="#542313"/>
<path d="M93.1755 136.134C93.1755 137.497 94.2516 139.129 95.5787 139.792C96.9058 140.456 97.9819 139.891 97.9819 138.537C97.9819 137.183 96.9058 135.542 95.5787 134.878C94.2516 134.215 93.1755 134.78 93.1755 136.134Z" fill="#542313"/>
<path d="M88.3691 133.731C88.3691 135.093 89.4452 136.726 90.7723 137.389C92.0994 138.053 93.1755 137.488 93.1755 136.134C93.1755 134.78 92.0994 133.139 90.7723 132.475C89.4452 131.812 88.3691 132.376 88.3691 133.731Z" fill="#542313"/>
<path d="M83.5808 131.516L121.619 150.849L122.023 150.624V147.163L129.913 138.286V137.828L83.5808 131.516Z" fill="#542313"/>
<path d="M83.249 131.776L121.619 150.849V146.93L83.1863 127.812L83.249 131.776Z" fill="#6B2D17"/>
<path d="M121.619 146.93L129.914 137.828L91.4987 118.711L83.1863 127.812L121.619 146.93Z" fill="#7D351C"/>
<path d="M116.813 148.149C116.813 149.503 117.889 151.144 119.216 151.808C120.543 152.472 121.619 151.907 121.619 150.553C121.619 149.199 120.543 147.558 119.216 146.894C117.889 146.231 116.813 146.795 116.813 148.149Z" fill="#6B2D17"/>
<path d="M112.015 145.746C112.015 147.109 113.091 148.741 114.419 149.405C115.746 150.068 116.822 149.504 116.822 148.149C116.822 146.795 115.746 145.154 114.419 144.491C113.091 143.827 112.015 144.392 112.015 145.746Z" fill="#6B2D17"/>
<path d="M107.209 143.343C107.209 144.697 108.285 146.338 109.612 147.002C110.939 147.665 112.015 147.1 112.015 145.746C112.015 144.392 110.939 142.751 109.612 142.088C108.285 141.424 107.209 141.989 107.209 143.343Z" fill="#6B2D17"/>
<path d="M102.403 140.94C102.403 142.303 103.479 143.935 104.806 144.599C106.133 145.262 107.209 144.697 107.209 143.343C107.209 141.989 106.133 140.348 104.806 139.685C103.479 139.021 102.403 139.586 102.403 140.94Z" fill="#6B2D17"/>
<path d="M97.5962 138.537C97.5962 139.9 98.6722 141.532 99.9994 142.195C101.326 142.859 102.403 142.294 102.403 140.94C102.403 139.586 101.326 137.945 99.9994 137.281C98.6722 136.618 97.5962 137.183 97.5962 138.537Z" fill="#6B2D17"/>
<path d="M92.79 136.134C92.79 137.497 93.8661 139.129 95.1932 139.792C96.5203 140.456 97.5964 139.891 97.5964 138.537C97.5964 137.183 96.5203 135.542 95.1932 134.878C93.8661 134.215 92.79 134.78 92.79 136.134Z" fill="#6B2D17"/>
<path d="M87.9927 133.73C87.9927 135.093 89.0687 136.725 90.3958 137.389C91.723 138.053 92.799 137.488 92.799 136.134C92.799 134.78 91.723 133.139 90.3958 132.475C89.0687 131.812 87.9927 132.376 87.9927 133.73Z" fill="#6B2D17"/>
<path d="M83.249 131.516C83.249 132.87 84.2623 134.152 85.5894 134.815C86.9165 135.479 87.9926 134.914 87.9926 133.56C87.9926 132.206 86.9165 130.565 85.5894 129.902C84.2623 129.238 83.249 130.162 83.249 131.525V131.516Z" fill="#6B2D17"/>
<path opacity="0.07" d="M109.155 113.86L96.2603 109.887L109.155 103.234V113.86Z" fill="black"/>
<path d="M109.155 113.86L101.022 109.797V107.296L109.155 111.367V113.86Z" fill="#A8998F"/>
<path d="M117.288 109.797L109.155 113.86V111.367L117.288 107.296V109.797Z" fill="#BFAEA2"/>
<path d="M109.155 111.367L101.022 107.296L109.155 103.234L117.288 107.296L109.155 111.367Z" fill="#E6DDD7"/>
<path opacity="0.07" d="M147.632 97.674L120.686 111.358L134.478 118.253L140.216 115.339L148.099 119.285C148.206 119.347 148.421 119.401 148.726 119.41C149.094 119.428 149.488 119.383 149.775 119.311C149.919 119.276 150.035 119.231 150.098 119.177C150.197 119.105 150.179 119.034 150.071 118.971L141.499 114.685L153.174 108.757L161.146 112.739C161.253 112.801 161.468 112.855 161.773 112.864C162.141 112.882 162.535 112.837 162.822 112.766C162.966 112.73 163.082 112.685 163.145 112.631C163.244 112.559 163.226 112.488 163.118 112.425L154.465 108.094L161.441 104.552L147.65 97.6561L147.632 97.674Z" fill="black"/>
<path d="M148.87 120.154V105.251H149.731V120.648C149.507 120.692 149.247 120.648 149.067 120.522C148.924 120.423 148.852 120.289 148.87 120.154Z" fill="#A2A3A2"/>
<path d="M150.242 105.251V120.19C150.242 120.307 150.179 120.432 150.045 120.522C149.955 120.585 149.847 120.621 149.731 120.648V105.251H150.242Z" fill="#898A89"/>
<path d="M142.718 114.891L140.055 113.599V98.9294L142.718 100.221V114.891Z" fill="#B58053"/>
<path d="M171.601 100.221L142.719 114.891V100.221L171.601 85.5506V100.221Z" fill="#DEB490"/>
<path d="M143.893 100.938L170.436 87.4606V99.5033L143.893 112.981V100.938Z" fill="#FAF6F3"/>
<path d="M142.718 100.221L140.055 98.9294L168.938 84.2593L171.601 85.5506L142.718 100.221Z" fill="#F5C69E"/>
<path d="M169.476 87.9448V98.9294L143.893 112.048V112.981L170.436 99.5033V87.4606L169.476 87.9448Z" fill="#C7A383"/>
</g>
</g>
<defs>
<clipPath id="clip0_936_7412">
<rect width="143.715" height="95.49" fill="white" transform="translate(50.5552 80)"/>
</clipPath>
</defs>
</svg>
