<svg width="21" height="19" viewBox="0 0 21 19" fill="none" xmlns="http://www.w3.org/2000/svg">
<path d="M20 6.63017C20.0033 8.08345 19.4401 9.48149 18.4287 10.5308C16.1097 12.9212 13.8601 15.4136 11.4556 17.7162C10.9036 18.2357 10.0287 18.2168 9.50141 17.6737L2.57108 10.5317C0.476306 8.37269 0.476306 4.88764 2.57108 2.72955C3.06617 2.21293 3.66163 1.80164 4.32137 1.52062C4.98111 1.2396 5.69138 1.09469 6.40913 1.09469C7.12687 1.09469 7.83714 1.2396 8.49688 1.52062C9.15662 1.80164 9.75208 2.21293 10.2472 2.72955L10.4999 2.98833L10.7516 2.72955C11.2477 2.21416 11.8434 1.80362 12.5029 1.52254C13.1623 1.24146 13.8721 1.09561 14.5897 1.09375C16.0337 1.09375 17.4141 1.68309 18.4277 2.72955C19.4395 3.7787 20.003 5.17675 20 6.63017V6.63017Z" stroke="#252B5C" stroke-width="1.67" stroke-linejoin="round"/>
</svg>
