<svg width="12" height="11" viewBox="0 0 12 11" fill="none" xmlns="http://www.w3.org/2000/svg">
<path d="M6 10.6692L5.49487 10.2128C4.40683 9.21881 3.50683 8.36796 2.79487 7.66027C2.0829 6.95257 1.52093 6.32842 1.10897 5.78782C0.697 5.24722 0.409183 4.75812 0.245517 4.32052C0.081839 3.88291 0 3.44273 0 3C0 2.15213 0.288033 1.44017 0.8641 0.8641C1.44017 0.288034 2.15213 0 3 0C3.58632 0 4.13632 0.15 4.65 0.45C5.16368 0.75 5.61368 1.18632 6 1.75897C6.38632 1.18632 6.83632 0.75 7.35 0.45C7.86368 0.15 8.41368 0 9 0C9.84787 0 10.5598 0.288034 11.1359 0.8641C11.712 1.44017 12 2.15213 12 3C12 3.44273 11.9182 3.88291 11.7545 4.32052C11.5908 4.75812 11.303 5.24722 10.891 5.78782C10.4791 6.32842 9.91924 6.95257 9.21155 7.66027C8.50385 8.36796 7.60171 9.21881 6.50513 10.2128L6 10.6692Z" fill="#9C9C9C"/>
</svg>
