<svg width="113" height="109" viewBox="0 0 113 109" fill="none" xmlns="http://www.w3.org/2000/svg">
<mask id="mask0_936_6650" style="mask-type:alpha" maskUnits="userSpaceOnUse" x="0" y="0" width="106" height="107">
<rect x="0.5" y="1.33557" width="105" height="104.329" rx="9.5" fill="white" stroke="#EFEFEF"/>
</mask>
<g mask="url(#mask0_936_6650)">
<path d="M62.0331 54.2892L57.7014 58.5179L62.0331 54.2892Z" fill="#FFF1C8"/>
<path d="M62.0331 54.2892L57.7014 58.5179L62.0331 54.2892Z" fill="#FFF1C8"/>
<path d="M114.422 105.089H103.831V105.205H61.7137V105.089H27.5452C26.5249 105.089 25.697 105.896 25.697 106.892C25.697 107.887 26.5249 108.695 27.5452 108.695H114.422C115.442 108.695 116.27 107.887 116.27 106.892C116.27 105.896 115.442 105.089 114.422 105.089Z" fill="#DE813F"/>
<path d="M35.2781 99.1467L35.6862 99.5475V99.5449L35.2781 99.1467Z" fill="#F6E0CA"/>
<path d="M58.209 77.743L36.1655 77.7276V78.4658H37.4785H58.209V77.743Z" fill="#EED9B6"/>
<path d="M42.9504 81.4085H53.6228V92.9682L53.6307 92.9759L53.6808 93.0376C53.7282 93.0968 53.7757 93.156 53.8179 93.2177C53.839 93.2486 53.8601 93.282 53.8811 93.3129C53.9154 93.3669 53.9523 93.4209 53.984 93.4775C54.0051 93.5135 54.0235 93.5495 54.042 93.5855C54.071 93.6396 54.0973 93.6961 54.1237 93.7527C54.1422 93.7913 54.158 93.8299 54.1738 93.8711C54.1975 93.9276 54.2186 93.9868 54.2397 94.0434C54.2529 94.0846 54.2661 94.1231 54.2792 94.1643C54.2977 94.226 54.3135 94.2878 54.3293 94.3495C54.3372 94.3881 54.3478 94.4292 54.3557 94.4678C54.3689 94.5373 54.3794 94.6067 54.3873 94.6787C54.3926 94.7148 54.3979 94.7482 54.4005 94.7842C54.4111 94.8897 54.4163 94.9977 54.4163 95.1083C54.4163 96.9526 52.8819 98.4497 50.9916 98.4497H49.7472V99.7487H58.2049V98.4291C58.1285 98.4214 58.052 98.4059 57.9756 98.3931C57.9492 98.3879 57.9202 98.3854 57.8938 98.3802C57.7857 98.3596 57.6803 98.3313 57.5775 98.3005L57.5036 98.2748C57.4272 98.249 57.3481 98.2233 57.2743 98.1924C57.2374 98.177 57.2031 98.159 57.1662 98.1436C57.1055 98.1153 57.0423 98.0896 56.9843 98.0587C56.9447 98.0381 56.9078 98.015 56.8709 97.9944C56.8155 97.9635 56.7628 97.9326 56.7101 97.8992C56.6732 97.8735 56.6362 97.8478 56.5993 97.822C56.5492 97.7886 56.5018 97.7526 56.4543 97.7166C56.4174 97.6883 56.3831 97.6574 56.3489 97.6291C56.304 97.5905 56.2592 97.552 56.217 97.5108C56.1828 97.4799 56.1511 97.4465 56.1169 97.4131C56.0773 97.3719 56.0351 97.3282 55.9982 97.2844C55.9666 97.2484 55.9376 97.215 55.9086 97.179C55.8717 97.1327 55.8374 97.0864 55.8031 97.0401C55.7768 97.0015 55.7478 96.9655 55.724 96.9269C55.6924 96.878 55.6608 96.8291 55.6318 96.7777C55.608 96.7365 55.5843 96.698 55.5632 96.6568C55.5342 96.6054 55.5105 96.5513 55.4841 96.4973C55.4657 96.4562 55.4446 96.415 55.4261 96.3713C55.4024 96.3147 55.3813 96.2581 55.3628 96.1989C55.347 96.1578 55.3312 96.1141 55.318 96.0729C55.2996 96.0112 55.2837 95.9494 55.2679 95.8851C55.2574 95.844 55.2468 95.8028 55.2389 95.7617C55.2257 95.6922 55.2152 95.6202 55.2046 95.5482C55.1994 95.5122 55.1941 95.4761 55.1888 95.4401C55.1783 95.3321 55.1704 95.2215 55.1704 95.1109C55.1704 95.0003 55.1756 94.8897 55.1888 94.7816C55.1915 94.7456 55.1994 94.7096 55.2046 94.6736C55.2152 94.6016 55.2231 94.5296 55.2389 94.4601C55.2468 94.4189 55.26 94.3778 55.2679 94.3366C55.2837 94.2749 55.2996 94.2106 55.318 94.1489C55.3312 94.1051 55.347 94.064 55.3628 94.0228C55.3839 93.9662 55.4024 93.9071 55.4261 93.8505C55.4446 93.8093 55.463 93.7682 55.4841 93.7244C55.5105 93.6704 55.5342 93.6164 55.5632 93.565C55.5843 93.5238 55.608 93.4852 55.6318 93.4441C55.6608 93.3926 55.6924 93.3437 55.724 93.2949C55.7504 93.2563 55.7768 93.2177 55.8031 93.1817C55.8374 93.1354 55.8717 93.0891 55.9086 93.0428C55.9376 93.0068 55.9666 92.9708 55.9982 92.9348C56.0378 92.891 56.0773 92.8499 56.1169 92.8061C56.1485 92.7727 56.1828 92.7393 56.217 92.7084C56.2592 92.6672 56.304 92.6287 56.3489 92.5901C56.3831 92.5592 56.4174 92.5309 56.4543 92.5026C56.5018 92.4666 56.5519 92.4306 56.5993 92.3972C56.6362 92.3714 56.6732 92.3457 56.7101 92.32C56.7628 92.2865 56.8155 92.2557 56.8709 92.2248C56.9078 92.2042 56.9447 92.1811 56.9843 92.1605C57.0449 92.1296 57.1055 92.1013 57.1662 92.0756C57.2031 92.0602 57.2374 92.0422 57.2743 92.0267C57.3481 91.9959 57.4272 91.9702 57.5036 91.9444L57.5775 91.9187C57.6803 91.8878 57.7857 91.8621 57.8938 91.839C57.9202 91.8338 57.9492 91.8313 57.9756 91.8261C58.052 91.8133 58.1258 91.7978 58.2023 91.7901V78.4684H37.4797V91.7695H42.9504V81.411V81.4085Z" fill="#F7E9D3"/>
<path d="M51.8137 91.862L51.8822 91.8826C51.9798 91.9083 52.0747 91.9366 52.167 91.97C52.2012 91.9829 52.2381 91.9932 52.2724 92.0086C52.3963 92.0575 52.515 92.1115 52.631 92.1732H52.6362V88.0731H51.811V91.862H51.8137Z" fill="#8A807B"/>
<path d="M51.8134 83.0367V87.2681H52.6413V82.2316H48.8738V83.0367H51.8134Z" fill="#8A807B"/>
<path d="M48.0488 82.2316H44.2839V83.0367H48.0488V82.2316Z" fill="#8A807B"/>
<path d="M51.8134 88.0731H48.8738V91.7668H50.9935C51.1253 91.7668 51.2545 91.7745 51.381 91.79C51.4206 91.7951 51.4628 91.8028 51.5023 91.808C51.5893 91.8208 51.6737 91.8337 51.7581 91.8543L51.8134 91.8646V88.0756V88.0731Z" fill="#C2B9AA"/>
<path d="M48.0488 88.0731H44.2839V91.7668H48.0488V88.0731Z" fill="#C2B9AA"/>
<path d="M51.8134 83.0366H48.8738V87.2679H51.8134V83.0366Z" fill="#C2B9AA"/>
<path d="M48.0488 83.0366H44.2839V87.2679H48.0488V83.0366Z" fill="#C2B9AA"/>
<path d="M43.3006 81.4084H42.95V91.7669H43.3006V81.4084Z" fill="#CBAE8F"/>
<path d="M58.2092 76.4055L60.6954 65.0825H48.1801L34.2781 76.4313H58.2092V76.4055Z" fill="#483327"/>
<path d="M60.7803 64.6913V64.4109H48.8688C48.4891 64.4109 48.1807 64.7119 48.1807 65.0823H60.6933L60.7777 64.6913H60.7803Z" fill="#33221D"/>
<path d="M59.3587 75.7573H60.7798V74.3786V74.2371V72.4211V72.2796V70.461V70.3221V68.5036V68.3621V66.5461V66.4046V65.0825H60.6954L58.2092 76.4055V76.4313H59.3587V75.7573Z" fill="#38251F"/>
<path d="M60.7803 64.6913L60.696 65.0818H60.7803V64.6913Z" fill="#291A16"/>
<path d="M58.2094 77.7276H37.0413L58.2094 77.743V77.7276Z" fill="#B49E82"/>
<path d="M58.2092 77.7276V76.4312H34.2781V77.7276H37.0411H58.2092Z" fill="#35251F"/>
<path d="M59.3587 76.4312H58.2092V77.7276H59.3587V76.4312Z" fill="#291B18"/>
<path d="M60.7798 78.4222H59.3587V77.7431H58.2092V78.4659H60.7798V78.4222Z" fill="#BEA283"/>
<path d="M58.5966 98.447C58.4727 98.447 58.3488 98.4393 58.2275 98.4264H58.2117V99.746H59.3401V98.447H58.5992H58.5966Z" fill="#CBAE8F"/>
<path d="M59.5728 98.8939L60.0283 98.4469H59.5728V98.8939Z" fill="#CBAE8F"/>
<path d="M60.3083 98.4469L59.5728 99.1671V99.7485H60.7803V98.4469H60.3083Z" fill="#CBAE8F"/>
<path d="M58.5966 91.767H60.7822V78.4659H58.2117V91.7876H58.2275C58.3488 91.7747 58.4727 91.767 58.5966 91.767Z" fill="#CBAE8F"/>
<path d="M59.3587 77.7276H58.2092V77.7404H59.3587V77.7276Z" fill="#73583B"/>
<path d="M64.5553 92.0188C64.6133 92.042 64.6687 92.0677 64.7241 92.0934C64.7689 92.114 64.8163 92.1346 64.8611 92.1577C64.9165 92.186 64.9692 92.2195 65.022 92.2503C65.0642 92.2761 65.1063 92.2992 65.1485 92.3249C65.2013 92.361 65.2513 92.397 65.3041 92.4355C65.341 92.4638 65.3805 92.4896 65.4174 92.5179C65.4702 92.559 65.5176 92.6027 65.5677 92.649C65.602 92.6773 65.6363 92.7056 65.6653 92.7365C65.718 92.7879 65.7655 92.8394 65.8129 92.8934C65.8393 92.9217 65.8656 92.9474 65.8894 92.9757C65.9526 93.0503 66.0106 93.1275 66.066 93.2072L66.0897 93.2381C66.153 93.3281 66.211 93.4207 66.2637 93.5185C66.2796 93.5493 66.2927 93.5802 66.3086 93.6111C66.3428 93.6779 66.3797 93.7474 66.4087 93.8168V93.8246H67.3131V92.006H64.5237L64.5527 92.0188H64.5553Z" fill="#F7E9D3"/>
<path d="M60.8401 90.046V91.7643H63.2524C63.3843 91.7643 63.5135 91.772 63.6426 91.7874C63.6848 91.7926 63.7244 91.8003 63.7639 91.8055C63.8509 91.8183 63.9379 91.8337 64.0223 91.8518L64.0803 91.862H67.3152V90.8743C67.3152 90.7457 67.3258 90.6196 67.3416 90.4936C67.3469 90.4576 67.3521 90.4216 67.3574 90.3856C67.3732 90.2904 67.3943 90.1978 67.418 90.1052L67.4312 90.0435H60.8401V90.046Z" fill="#F7E9D3"/>
<path d="M95.3765 66.4044H101.169V65.0823V64.5858H95.3765V66.4044Z" fill="#F7E9D3"/>
<path d="M66.4984 94.051C66.5116 94.0896 66.5248 94.1282 66.5353 94.1693C66.5538 94.231 66.5696 94.2928 66.5854 94.3571C66.5933 94.3957 66.6039 94.4343 66.6118 94.4728C66.625 94.5423 66.6355 94.6117 66.6434 94.6838C66.6487 94.7172 66.654 94.7506 66.6566 94.7867C66.6672 94.8921 66.6724 95.0001 66.6724 95.1082C66.6724 95.2239 66.6672 95.3371 66.654 95.4503C66.6487 95.4915 66.6408 95.5326 66.6355 95.5738C66.625 95.6432 66.6171 95.7152 66.6013 95.7821H67.3105V93.9635H66.4668C66.4773 93.9918 66.4853 94.0201 66.4958 94.0484L66.4984 94.051Z" fill="#F7E9D3"/>
<path d="M101.169 59.5365H101.105L101.095 59.5263H99.5525L99.513 59.4877H64.8066L64.7565 59.5365H60.7808V60.5294H101.169V59.5365Z" fill="#F7E9D3"/>
<path d="M101.167 74.3784H60.8428V75.7571H101.167V74.3784Z" fill="#F7E9D3"/>
<path d="M84.7045 68.5034H77.8682V70.322H84.7045V68.5034Z" fill="#F7E9D3"/>
<path d="M67.194 66.4044V64.5858H60.8428V65.0823V66.4044H67.194Z" fill="#F7E9D3"/>
<path d="M84.7045 66.5461H77.8682V68.3647H84.7045V66.5461Z" fill="#F7E9D3"/>
<path d="M101.166 68.5034H95.3765V70.322H101.166V68.5034Z" fill="#F7E9D3"/>
<path d="M84.7045 70.461H77.8682V72.2796H84.7045V70.461Z" fill="#F7E9D3"/>
<path d="M101.166 66.5461H95.3765V68.3647H101.166V66.5461Z" fill="#F7E9D3"/>
<path d="M67.1966 66.5461H60.8428V68.3647H67.1966V66.5461Z" fill="#F7E9D3"/>
<path d="M62.8781 98.8939V98.4469H62.4226L62.8781 98.8939Z" fill="#F7E9D3"/>
<path d="M95.3751 73.7123H95.0271H84.7054V72.4211H77.8664V73.7123H77.5157H67.194V72.4211H60.8428V74.2371H101.167V72.4211H95.3751V73.7123Z" fill="#F7E9D3"/>
<path d="M84.7045 62.6284H77.8682V64.447H84.7045V62.6284Z" fill="#F7E9D3"/>
<path d="M84.7045 64.5858H77.8682V66.4044H84.7045V64.5858Z" fill="#F7E9D3"/>
<path d="M67.1966 68.5034H60.8428V70.322H67.1966V68.5034Z" fill="#F7E9D3"/>
<path d="M67.1966 70.461H60.8428V72.2796H67.1966V70.461Z" fill="#F7E9D3"/>
<path d="M73.5383 92.006V93.8246H75.0885V93.8168C75.1228 93.7474 75.1571 93.6805 75.1913 93.6111C75.2072 93.5802 75.2203 93.5493 75.2362 93.5185C75.2889 93.4233 75.3469 93.3281 75.4102 93.2381L75.4365 93.2021C75.4919 93.1249 75.5499 93.0477 75.6105 92.9757C75.6343 92.9474 75.6633 92.9217 75.687 92.8934C75.7345 92.8394 75.7845 92.7854 75.8346 92.7365C75.8663 92.7056 75.9005 92.6773 75.9322 92.649C75.9823 92.6053 76.0297 92.559 76.0825 92.5179C76.1194 92.4896 76.1589 92.4613 76.1958 92.4355C76.2459 92.397 76.2987 92.361 76.3514 92.3249C76.3909 92.2992 76.4357 92.2761 76.4779 92.2503C76.5307 92.2195 76.5834 92.186 76.6388 92.1577C76.6836 92.1346 76.731 92.114 76.7759 92.0934C76.8312 92.0677 76.8866 92.042 76.9446 92.0188L76.9736 92.006H73.5356H73.5383Z" fill="#F7E9D3"/>
<path d="M71.7407 88.1271C71.8066 88.1579 71.8699 88.1862 71.9332 88.2197C71.9701 88.2403 72.0044 88.2608 72.0386 88.2814C72.094 88.3123 72.1467 88.3457 72.1995 88.3817C72.2364 88.4049 72.2706 88.4332 72.3049 88.4589C72.3524 88.4949 72.3998 88.5309 72.4473 88.5695C72.4816 88.5978 72.5132 88.6287 72.5475 88.6595C72.5897 88.6981 72.6318 88.7393 72.674 88.7804C72.7057 88.8139 72.7373 88.8473 72.7663 88.8807C72.8058 88.9245 72.8428 88.9682 72.877 89.0119C72.906 89.0479 72.9324 89.084 72.9588 89.12C72.993 89.1663 73.0247 89.2151 73.0563 89.2614C73.08 89.3 73.1064 89.3386 73.1275 89.3772C73.1565 89.4286 73.1829 89.4801 73.2119 89.5315C73.233 89.5701 73.2514 89.6113 73.2725 89.6524C73.2962 89.7064 73.32 89.763 73.341 89.8196C73.3516 89.8505 73.3674 89.8788 73.378 89.9096H84.7068V88.0911H71.6616C71.688 88.1039 71.7144 88.1168 71.7407 88.1296V88.1271Z" fill="#F7E9D3"/>
<path d="M71.7323 88.1243C71.7323 88.1243 71.7375 88.1243 71.7401 88.1268C71.714 88.1141 71.6878 88.0988 71.6616 88.0886C71.6852 88.0988 71.7087 88.1115 71.7323 88.1243Z" fill="#F7E9D3"/>
<path d="M73.3772 89.9072C73.3667 89.8764 73.3535 89.8481 73.3403 89.8173C73.3403 89.8173 73.3403 89.8173 73.3403 89.8199C73.3509 89.8481 73.364 89.8764 73.3746 89.9072H73.3772Z" fill="#F7E9D3"/>
<path d="M71.7348 88.1249C71.7348 88.1249 71.7376 88.1249 71.7405 88.1249C71.7376 88.1249 71.7348 88.1249 71.7319 88.1221C71.7319 88.1221 71.7319 88.1221 71.7348 88.1221V88.1249Z" fill="#F7E9D3"/>
<path d="M73.4221 90.0461L73.4353 90.1079C73.459 90.2005 73.4801 90.2931 73.4959 90.3882C73.5012 90.4243 73.5091 90.4577 73.5117 90.4937C73.5275 90.6198 73.5381 90.7458 73.5381 90.8744V91.8622H77.4216L77.4796 91.8519C77.5639 91.8339 77.651 91.8184 77.738 91.8056C77.7775 91.8004 77.817 91.7927 77.8592 91.7876C77.9884 91.7721 78.1176 91.7644 78.2494 91.7644H84.7035V90.0461H73.4194H73.4221Z" fill="#F7E9D3"/>
<path d="M60.8401 88.0887V89.9073H67.4761C67.4866 89.8764 67.4998 89.8481 67.513 89.8172C67.5341 89.7607 67.5551 89.7041 67.5815 89.6501C67.6 89.6089 67.6211 89.5703 67.6395 89.5292C67.6659 89.4777 67.6922 89.4263 67.7239 89.3748C67.7476 89.3362 67.7713 89.2977 67.7951 89.2591C67.8267 89.2102 67.8583 89.1639 67.8926 89.115C67.919 89.079 67.948 89.043 67.9743 89.007C68.0113 88.9633 68.0482 88.9195 68.0877 88.8758C68.1167 88.8424 68.1483 88.8089 68.18 88.7755C68.2195 88.7343 68.2644 88.6932 68.3065 88.6546C68.3382 88.6237 68.3724 88.5954 68.4067 88.5671C68.4515 88.5286 68.5016 88.4925 68.5491 88.4565C68.5834 88.4308 68.6176 88.4051 68.6546 88.3794C68.7073 88.3433 68.76 88.3125 68.8154 88.279C68.8496 88.2585 68.8839 88.2353 68.9208 88.2173C68.9841 88.1839 69.0474 88.153 69.1133 88.1247C69.1397 88.1118 69.166 88.0964 69.1924 88.0861H60.8401V88.0887Z" fill="#F7E9D3"/>
<path d="M60.8401 87.9471H69.6063L69.6722 87.9343C69.7592 87.9137 69.8489 87.8957 69.9385 87.8828C69.9754 87.8777 70.0123 87.87 70.0492 87.8674C70.1731 87.852 70.2997 87.8417 70.4262 87.8417C70.5528 87.8417 70.6793 87.852 70.8033 87.8674C70.8402 87.8725 70.8771 87.8777 70.914 87.8828C71.0036 87.8957 71.0933 87.9137 71.1803 87.9343L71.2462 87.9471H84.7027V86.1285H60.8401V87.9471Z" fill="#F7E9D3"/>
<path d="M101.166 70.461H95.3765V72.2796H101.166V70.461Z" fill="#F7E9D3"/>
<path d="M83.5327 98.4469H83.0771L83.5327 98.8939V98.4469Z" fill="#F7E9D3"/>
<path d="M100.274 98.4469H99.8159L100.274 98.8939V98.4469Z" fill="#F7E9D3"/>
<path d="M88.8893 98.4469H88.4312V98.8939L88.8893 98.4469Z" fill="#F7E9D3"/>
<path d="M80.6828 98.4469H80.2246V98.8939L80.6828 98.4469Z" fill="#F7E9D3"/>
<path d="M73.5383 95.9236V97.7422H76.1431L76.1036 97.7113C76.0746 97.6882 76.0456 97.6624 76.0166 97.6393C75.9665 97.5981 75.9191 97.557 75.8742 97.5132C75.8452 97.4849 75.8162 97.4592 75.7899 97.4309C75.745 97.3846 75.7029 97.3383 75.6607 97.292C75.6343 97.2637 75.6106 97.2354 75.5842 97.2046C75.5394 97.1505 75.4999 97.0965 75.4577 97.0399C75.4392 97.0142 75.4181 96.9885 75.3997 96.9628C75.3417 96.8805 75.2889 96.793 75.2388 96.7056V96.7004C75.1888 96.6129 75.1439 96.5255 75.1044 96.4355C75.0912 96.4046 75.0807 96.3737 75.0675 96.3429C75.0411 96.2786 75.0174 96.2142 74.9937 96.1474C74.9805 96.1114 74.9699 96.0728 74.9594 96.0368C74.9488 96.0008 74.9357 95.9673 74.9277 95.9287H73.5383V95.9236Z" fill="#F7E9D3"/>
<path d="M73.5383 93.9635V95.7821H74.8961C74.8803 95.7101 74.8724 95.6329 74.8618 95.5583C74.8566 95.5223 74.8486 95.4863 74.8434 95.4503C74.8328 95.3371 74.8249 95.2239 74.8249 95.1082C74.8249 95.0001 74.8302 94.8921 74.8407 94.7867C74.8434 94.7506 74.8513 94.7172 74.8539 94.6838C74.8645 94.6117 74.8724 94.5423 74.8882 94.4728C74.8961 94.4343 74.9066 94.3957 74.9146 94.3545C74.9304 94.2928 74.9462 94.2285 74.9647 94.1667C74.9752 94.1282 74.9884 94.087 75.0042 94.0484C75.0147 94.0201 75.0227 93.9918 75.0306 93.9635H73.5383Z" fill="#F7E9D3"/>
<path d="M97.4209 98.4469H96.9653V98.8939L97.4209 98.4469Z" fill="#F7E9D3"/>
<path d="M91.7399 98.4469H91.2817L91.7399 98.8939V98.4469Z" fill="#F7E9D3"/>
<path d="M96.9653 99.7485H100.274V99.1671L99.5359 98.4469H97.7035L96.9653 99.1671V99.7485Z" fill="#F7E9D3"/>
<path d="M101.166 82.2136H95.3765V84.0322H101.166V82.2136Z" fill="#F7E9D3"/>
<path d="M101.166 84.1712H95.3765V85.9898H101.166V84.1712Z" fill="#F7E9D3"/>
<path d="M95.3765 64.4445H101.169V64.411V62.6284H95.3765V64.4445Z" fill="#F7E9D3"/>
<path d="M101.166 88.0886H95.3765V89.9071H101.166V88.0886Z" fill="#F7E9D3"/>
<path d="M80.2246 99.7485H83.5334V99.1671L82.7952 98.4469H80.9628L80.2246 99.1671V99.7485Z" fill="#F7E9D3"/>
<path d="M101.166 86.131H95.3765V87.9496H101.166V86.131Z" fill="#F7E9D3"/>
<path d="M101.166 90.0461H95.3765V91.7644H101.166V90.0461Z" fill="#F7E9D3"/>
<path d="M60.8401 82.0719H84.7053V81.0713H95.027H95.3751V82.0719H101.167V80.2534H60.8401V82.0719Z" fill="#F7E9D3"/>
<path d="M60.844 64.4445H67.1953V62.6284H60.7808V64.411H60.844V64.4445Z" fill="#F7E9D3"/>
<path d="M73.5383 97.8812V99.6252H74.6193V99.7461H79.9897V98.4471H78.2497C78.1442 98.4471 78.0388 98.442 77.9333 98.4317C77.9017 98.4291 77.8727 98.424 77.841 98.4214C77.7646 98.4137 77.6881 98.4008 77.6143 98.388C77.5853 98.3828 77.5563 98.3777 77.5273 98.3725C77.4271 98.352 77.3296 98.3288 77.232 98.2979L77.2215 98.2928C77.1292 98.2645 77.0395 98.2311 76.9499 98.195C76.9235 98.1848 76.8945 98.1719 76.8682 98.159C76.7996 98.1307 76.7337 98.0973 76.6678 98.0639L76.5913 98.0253C76.507 97.979 76.4226 97.9301 76.3409 97.8787H73.5383V97.8812Z" fill="#F7E9D3"/>
<path d="M101.168 98.4469H100.509V99.7459H101.168V98.4469Z" fill="#F7E9D3"/>
<path d="M67.1953 61.1826H77.517H77.8676V62.4868H84.7066V61.1826H95.0284H95.3764V62.4868H101.169V60.6682H60.7808V62.4868H67.1953V61.1826Z" fill="#F7E9D3"/>
<path d="M84.7027 82.2136H60.8401V84.0322H84.7027V82.2136Z" fill="#F7E9D3"/>
<path d="M101.162 79.222H60.8401V80.1146H101.167V78.422H101.162V79.222Z" fill="#F7E9D3"/>
<path d="M67.3156 99.6252V97.8812H65.1617C65.0931 97.9249 65.0246 97.966 64.9534 98.0046C64.9402 98.0123 64.927 98.0201 64.9138 98.0252L64.8374 98.0638C64.7715 98.0972 64.7056 98.1281 64.637 98.159C64.6106 98.1718 64.5816 98.1821 64.5553 98.195C64.4656 98.231 64.376 98.2644 64.2837 98.2927H64.2732C64.1756 98.3262 64.0781 98.3493 63.9779 98.3699C63.9489 98.375 63.9199 98.3802 63.8909 98.3853C63.8171 98.3982 63.7406 98.411 63.6642 98.4188C63.6325 98.4213 63.6035 98.4265 63.5719 98.4291C63.4691 98.4393 63.3636 98.4445 63.2555 98.4445H63.1184V99.7435H65.8999V99.6226H67.3183L67.3156 99.6252Z" fill="#F7E9D3"/>
<path d="M62.1425 98.4469H60.8401V99.7485H62.8781V99.1671L62.1425 98.4469Z" fill="#F7E9D3"/>
<path d="M88.1978 98.4469H83.7686V99.7459H88.1978V98.4469Z" fill="#F7E9D3"/>
<path d="M84.7027 84.1712H60.8401V85.9898H84.7027V84.1712Z" fill="#F7E9D3"/>
<path d="M88.4312 99.7485H91.7399V99.1671L91.0017 98.4469H89.1694L88.4312 99.1671V99.7485Z" fill="#F7E9D3"/>
<path d="M96.7313 98.4469H91.9751V99.7459H96.7313V98.4469Z" fill="#F7E9D3"/>
<path d="M66.5407 96.0291C66.5302 96.0652 66.5196 96.1037 66.5064 96.1398C66.4853 96.2066 66.459 96.2709 66.4326 96.3352C66.4194 96.3661 66.4089 96.397 66.3957 96.4278C66.3562 96.5179 66.3113 96.6079 66.2639 96.6954V96.7005C66.2111 96.788 66.1584 96.8754 66.1004 96.9577C66.082 96.9835 66.0609 97.0092 66.0424 97.0349C66.0029 97.0915 65.9607 97.1455 65.9159 97.1995C65.8921 97.2278 65.8658 97.2587 65.8394 97.287C65.7972 97.3333 65.755 97.3822 65.7102 97.4259C65.6812 97.4542 65.6549 97.4825 65.6259 97.5082C65.5784 97.5519 65.5309 97.5931 65.4835 97.6342C65.4545 97.66 65.4255 97.6831 65.3965 97.7063L65.3569 97.7397H67.3132V95.9211H66.5723C66.5618 95.9571 66.5513 95.9931 66.5407 96.0266V96.0291Z" fill="#F7E9D3"/>
<path d="M60.797 78.422H60.7808V78.4668H60.797V78.422Z" fill="#F7E9D3"/>
<path d="M60.8414 84.1712H60.7808V85.9898H60.8414V84.1712Z" fill="#F7E9D3"/>
<path d="M60.8414 86.131H60.7808V87.9496H60.8414V86.131Z" fill="#F7E9D3"/>
<path d="M60.8414 88.0886H60.7808V89.9071H60.8414V88.0886Z" fill="#F7E9D3"/>
<path d="M60.8414 90.0461H60.7808V91.7644H60.8414V90.0461Z" fill="#F7E9D3"/>
<path d="M60.8414 82.2136H60.7808V84.0322H60.8414V82.2136Z" fill="#F7E9D3"/>
<path d="M60.8414 80.2534H60.7808V82.0719H60.8414V80.2534Z" fill="#F7E9D3"/>
<path d="M60.8414 98.4469H60.7808V99.7459H60.8414V98.4469Z" fill="#F7E9D3"/>
<path d="M60.7966 78.4659H60.7808V80.1147H60.8414V79.2221H60.7966V78.4659Z" fill="#F7E9D3"/>
<path d="M60.8414 66.5461H60.7808V68.3647H60.8414V66.5461Z" fill="#F7E9D3"/>
<path d="M60.8414 72.4211H60.7808V74.2396H60.8414V72.4211Z" fill="#F7E9D3"/>
<path d="M60.8414 74.3784H60.7808V75.7571H60.8414V74.3784Z" fill="#F7E9D3"/>
<path d="M60.8414 65.0825H60.7808V66.402H60.8414V65.0825Z" fill="#F7E9D3"/>
<path d="M60.8414 68.5034H60.7808V70.322H60.8414V68.5034Z" fill="#F7E9D3"/>
<path d="M60.8414 70.461H60.7808V72.2796H60.8414V70.461Z" fill="#F7E9D3"/>
<path d="M60.844 65.0816V64.5858H60.7808V64.6911V65.0816H60.844Z" fill="#F7E9D3"/>
<path d="M60.841 64.4109H60.7808V64.4441H60.841V64.4109Z" fill="#F7E9D3"/>
<path d="M60.3091 98.4469H60.0296L59.5735 98.8945V98.4469H59.3389V99.7485H59.5735V99.1671L60.3091 98.4469Z" fill="#7D5633"/>
<path d="M62.8784 98.4469V98.8945L62.4223 98.4469H62.1428L62.8784 99.1671V99.7485H63.1157V98.4469H62.8784Z" fill="#7D5633"/>
<path d="M80.2242 99.7485V99.1671L80.9624 98.4469H80.6829L80.2242 98.8945V98.4469H79.9895V99.7485H80.2242Z" fill="#7D5633"/>
<path d="M83.5334 99.7485H83.768V98.4469H83.5334V98.8945L83.0773 98.4469H82.7952L83.5334 99.1671V99.7485Z" fill="#7D5633"/>
<path d="M88.4317 99.7485V99.1671L89.1699 98.4469H88.8904L88.4317 98.8945V98.4469H88.197V99.7485H88.4317Z" fill="#7D5633"/>
<path d="M91.7399 99.7485H91.9746V98.4469H91.7399V98.8945L91.2812 98.4469H91.0017L91.7399 99.1671V99.7485Z" fill="#7D5633"/>
<path d="M96.9658 99.7485V99.1671L97.7041 98.4469H97.422L96.9658 98.8945V98.4469H96.7312V99.7485H96.9658Z" fill="#7D5633"/>
<path d="M100.274 99.7485H100.509V98.4469H100.274V98.8945L99.8156 98.4469H99.5361L100.274 99.1671V99.7485Z" fill="#7D5633"/>
<path d="M65.8871 58.4329L64.8062 59.4875H99.5125L98.4315 58.4329H65.8871Z" fill="#F7E9D3"/>
<path d="M82.6816 43.0638H81.6376L80.032 44.6303H84.2872L82.6816 43.0638Z" fill="#F7E9D3"/>
<path d="M89.681 49.8956H74.6373L73.0317 51.4621H91.2866L89.681 49.8956Z" fill="#F7E9D3"/>
<path d="M91.4315 51.6011H72.8866L71.281 53.1702H93.0371L91.4315 51.6011Z" fill="#F7E9D3"/>
<path d="M93.1827 53.3091H71.1366L69.531 54.8756H94.7883L93.1827 53.3091Z" fill="#F7E9D3"/>
<path d="M67.6351 56.7252L66.0295 58.2917H98.2866L96.681 56.7252H67.6351Z" fill="#F7E9D3"/>
<path d="M84.4295 44.7718H79.8869L78.2812 46.3383H86.0377L84.4295 44.7718Z" fill="#F7E9D3"/>
<path d="M94.9305 55.0172H69.3859L67.7803 56.5837H96.5388L94.9305 55.0172Z" fill="#F7E9D3"/>
<path d="M87.9302 48.1878H76.3878L74.7795 49.7543H89.5358L87.9302 48.1878Z" fill="#F7E9D3"/>
<path d="M86.1797 46.4796H78.1359L76.5303 48.0461H87.7853L86.1797 46.4796Z" fill="#F7E9D3"/>
<path d="M82.1588 42.5545L81.7817 42.9249H82.5358L82.1588 42.5545Z" fill="#F7E9D3"/>
<path d="M66.0296 58.2916L65.8872 58.4331H98.4316L98.2866 58.2916H66.0296Z" fill="#F0D9B5"/>
<path d="M96.5378 56.5836H67.7793L67.6343 56.7251H96.6801L96.5378 56.5836Z" fill="#F0D9B5"/>
<path d="M94.7883 54.8756H69.531L69.386 55.0171H94.9306L94.7883 54.8756Z" fill="#F0D9B5"/>
<path d="M93.0378 53.1703H71.2817L71.1367 53.3092H93.1828L93.0378 53.1703Z" fill="#F0D9B5"/>
<path d="M91.2863 51.4623H73.0315L72.8865 51.6012H91.4313L91.2863 51.4623Z" fill="#F0D9B5"/>
<path d="M89.5361 49.7543H74.7798L74.6375 49.8957H89.6811L89.5361 49.7543Z" fill="#F0D9B5"/>
<path d="M87.7856 48.0463H76.5306L76.3882 48.1877H87.9306L87.7856 48.0463Z" fill="#F0D9B5"/>
<path d="M86.0377 46.3383H78.2812L78.1362 46.4797H86.1801L86.0377 46.3383Z" fill="#F0D9B5"/>
<path d="M84.2872 44.6302H80.032L79.887 44.7717H84.4296L84.2872 44.6302Z" fill="#F0D9B5"/>
<path d="M82.5367 42.9249H81.7827L81.6377 43.0638H82.6817L82.5367 42.9249Z" fill="#F0D9B5"/>
<path d="M99.5127 59.4877L99.5522 59.5263H101.095L101.058 59.4877H99.5127Z" fill="#CBAE8F"/>
<path d="M60.7563 59.5377H60.7811V59.5135L60.7563 59.5377Z" fill="#C6AB8D"/>
<path d="M60.7811 59.5135L60.7563 59.5377L60.7811 59.5135Z" fill="#C6AB8D"/>
<path d="M64.8066 59.4877H60.8071L60.7808 59.5134V59.5365H64.7565L64.8066 59.4877Z" fill="#CBAE8F"/>
<path d="M60.7808 59.5147L60.8085 59.4877L60.7808 59.5147Z" fill="#CBAE8F"/>
<path d="M82.3281 41.2168L80.9308 39.8535L79.5334 41.2168H82.3281Z" fill="#CBAE8F"/>
<path d="M76.3883 48.1878H72.3888L70.7832 49.7543H74.7801L76.3883 48.1878Z" fill="#CBAE8F"/>
<path d="M99.9766 58.4329H98.4316L99.5126 59.4875H101.058L99.9766 58.4329Z" fill="#CBAE8F"/>
<path d="M81.6368 43.0638H77.64L76.3929 44.2779L76.0317 44.6303H80.0312L81.6368 43.0638Z" fill="#CBAE8F"/>
<path d="M84.2875 44.6303H85.8298L84.2242 43.0638H82.6819L84.2875 44.6303Z" fill="#CBAE8F"/>
<path d="M89.5363 49.7543H91.0812L90.3457 49.0366L89.4756 48.1878H87.9307L89.5363 49.7543Z" fill="#CBAE8F"/>
<path d="M93.0377 53.1702H94.5801L93.0377 51.6629L92.9745 51.6011H91.4321L93.0377 53.1702Z" fill="#CBAE8F"/>
<path d="M89.6804 49.8956L91.286 51.4621H92.831L92.5252 51.1637L91.2227 49.8956H89.6804Z" fill="#CBAE8F"/>
<path d="M77.7834 42.9248H81.783L82.16 42.5544L82.537 42.9248H84.0793L82.7664 41.6413L82.4737 41.3558H79.389L77.7834 42.9248Z" fill="#CBAE8F"/>
<path d="M72.8866 51.6011H68.8871L67.2815 53.1702H71.281L72.8866 51.6011Z" fill="#CBAE8F"/>
<path d="M86.0374 46.3383H87.5798L85.9742 44.7718H84.4292L86.0374 46.3383Z" fill="#CBAE8F"/>
<path d="M96.6809 56.7252L98.2865 58.2917H99.8315L98.2259 56.7252H96.6809Z" fill="#CBAE8F"/>
<path d="M94.7252 53.3091H93.1829L94.7885 54.8756H96.3308L94.7252 53.3091Z" fill="#CBAE8F"/>
<path d="M94.9302 55.0172L96.5384 56.5837H98.0807L97.3346 55.8583L96.4751 55.0172H94.9302Z" fill="#CBAE8F"/>
<path d="M79.8871 44.7718H75.8903L74.2847 46.3383H78.2815L79.8871 44.7718Z" fill="#CBAE8F"/>
<path d="M87.7855 48.0461H89.3305L87.8251 46.5773L87.7249 46.4796H86.1799L87.7855 48.0461Z" fill="#CBAE8F"/>
<path d="M69.3862 55.0172H65.3893L65.0466 55.3515L63.7837 56.5837H67.7806L69.3862 55.0172Z" fill="#CBAE8F"/>
<path d="M74.6383 49.8956H70.6388L69.3759 51.1277L69.0332 51.4621H73.0327L74.6383 49.8956Z" fill="#CBAE8F"/>
<path d="M71.1369 53.3091H67.14L65.5317 54.8756H69.5312L71.1369 53.3091Z" fill="#CBAE8F"/>
<path d="M61.8878 58.4329L60.8095 59.485L60.8069 59.4875H64.8064L65.8873 58.4329H61.8878Z" fill="#CBAE8F"/>
<path d="M76.5308 48.0461L78.1364 46.4796H74.1395L72.5339 48.0461H76.5308Z" fill="#CBAE8F"/>
<path d="M67.6345 56.7252H63.6376L62.032 58.2917H66.0288L67.6345 56.7252Z" fill="#CBAE8F"/>
<path d="M72.3888 48.1878L70.7832 49.7543L72.3888 48.1878Z" fill="#CBAE8F"/>
<path d="M74.1395 46.4796L72.5339 48.0461L74.1395 46.4796Z" fill="#CBAE8F"/>
<path d="M98.2866 58.2916L98.4316 58.4331H99.9766L99.8316 58.2916H98.2866Z" fill="#BFA283"/>
<path d="M62.0329 58.2916L61.8879 58.4331H65.8874L66.0298 58.2916H62.0329Z" fill="#BFA283"/>
<path d="M96.5388 56.5836L96.6812 56.7251H98.2261L98.0811 56.5836H96.5388Z" fill="#BFA283"/>
<path d="M67.7796 56.5836H63.7827L63.6377 56.7251H67.6346L67.7796 56.5836Z" fill="#BFA283"/>
<path d="M96.3311 54.8756H94.7888L94.9312 55.0171H96.4761L96.3311 54.8756Z" fill="#BFA283"/>
<path d="M69.5303 54.8756H65.5308L65.3884 55.0171H69.3853L69.5303 54.8756Z" fill="#BFA283"/>
<path d="M94.7244 53.3092L94.619 53.2063L94.5794 53.1703H93.0371L93.1821 53.3092H94.7244Z" fill="#BFA283"/>
<path d="M71.2823 53.1703H67.2827L67.1404 53.3092H71.1373L71.2823 53.1703Z" fill="#BFA283"/>
<path d="M73.0317 51.4623H69.0322L68.8872 51.6012H72.8867L73.0317 51.4623Z" fill="#BFA283"/>
<path d="M91.4314 51.6012H92.9737L92.8313 51.4623H91.2864L91.4314 51.6012Z" fill="#BFA283"/>
<path d="M74.7798 49.7543H70.7829L70.6379 49.8957H74.6374L74.7798 49.7543Z" fill="#BFA283"/>
<path d="M91.224 49.8957L91.0816 49.7543H89.5366L89.6816 49.8957H91.224Z" fill="#BFA283"/>
<path d="M87.9307 48.1877H89.4756L89.3306 48.0463H87.7856L87.9307 48.1877Z" fill="#BFA283"/>
<path d="M72.5337 48.0463L72.3887 48.1877H76.3882L76.5305 48.0463H72.5337Z" fill="#BFA283"/>
<path d="M86.1809 46.4797H87.7259L87.6574 46.4129L87.5809 46.3383H86.0386L86.1809 46.4797Z" fill="#BFA283"/>
<path d="M78.2805 46.3383H74.2837L74.1387 46.4797H78.1355L78.2805 46.3383Z" fill="#BFA283"/>
<path d="M80.0313 44.6302H76.0318L75.8894 44.7717H79.8863L80.0313 44.6302Z" fill="#BFA283"/>
<path d="M84.4292 44.7717H85.9742L85.8292 44.6302H84.2869L84.4292 44.7717Z" fill="#BFA283"/>
<path d="M77.7835 42.9249L77.7018 43.0047L77.6543 43.051L77.6411 43.0638H81.638L81.783 42.9249H77.7835Z" fill="#BFA283"/>
<path d="M77.7198 42.9866L77.7014 43.0046L77.783 42.9249L77.7198 42.9866Z" fill="#BFA283"/>
<path d="M77.701 43.0055L77.7204 42.9866L77.701 43.0055L77.6843 43.0218L77.701 43.0055Z" fill="#BFA283"/>
<path d="M77.6858 43.0202L77.6538 43.0514L77.7018 43.0046L77.6858 43.0202Z" fill="#BFA283"/>
<path d="M82.6811 43.0638H84.2235L84.0785 42.9249H82.5361L82.6811 43.0638Z" fill="#BFA283"/>
<path d="M79.3882 41.3558H82.4728L82.3278 41.2169H79.5332L79.3882 41.3558Z" fill="#BFA283"/>
<path d="M101.169 60.5294H60.7808V60.6708H101.169V60.5294Z" fill="#ECD4B1"/>
<path d="M67.1953 62.4869H60.7808V62.6284H67.1953V62.4869Z" fill="#ECD4B1"/>
<path d="M101.166 62.4869H95.3765V62.6284H101.166V62.4869Z" fill="#ECD4B1"/>
<path d="M84.7045 62.4869H77.8682V62.6284H84.7045V62.4869Z" fill="#ECD4B1"/>
<path d="M101.166 64.4445H95.3765V64.586H101.166V64.4445Z" fill="#ECD4B1"/>
<path d="M67.1966 64.4445H60.8428V64.586H67.1966V64.4445Z" fill="#ECD4B1"/>
<path d="M84.7045 64.4445H77.8682V64.586H84.7045V64.4445Z" fill="#ECD4B1"/>
<path d="M60.8413 64.4445H60.7808V64.5858H60.8413V64.4445Z" fill="#ECD4B1"/>
<path d="M101.166 66.4045H95.3765V66.546H101.166V66.4045Z" fill="#ECD4B1"/>
<path d="M84.7045 66.4045H77.8682V66.546H84.7045V66.4045Z" fill="#ECD4B1"/>
<path d="M67.1966 66.4045H60.8428V66.546H67.1966V66.4045Z" fill="#ECD4B1"/>
<path d="M60.8413 66.4045H60.7808V66.5458H60.8413V66.4045Z" fill="#ECD4B1"/>
<path d="M101.166 68.3621H95.3765V68.5036H101.166V68.3621Z" fill="#ECD4B1"/>
<path d="M67.1966 68.3621H60.8428V68.5036H67.1966V68.3621Z" fill="#ECD4B1"/>
<path d="M84.7045 68.3621H77.8682V68.5036H84.7045V68.3621Z" fill="#ECD4B1"/>
<path d="M60.8413 68.3621H60.7808V68.5034H60.8413V68.3621Z" fill="#ECD4B1"/>
<path d="M67.1966 70.3219H60.8428V70.4634H67.1966V70.3219Z" fill="#ECD4B1"/>
<path d="M101.166 70.3219H95.3765V70.4634H101.166V70.3219Z" fill="#ECD4B1"/>
<path d="M84.7045 70.3219H77.8682V70.4634H84.7045V70.3219Z" fill="#ECD4B1"/>
<path d="M60.8413 70.3219H60.7808V70.4632H60.8413V70.3219Z" fill="#ECD4B1"/>
<path d="M101.166 72.2795H95.3765V72.421H101.166V72.2795Z" fill="#ECD4B1"/>
<path d="M67.1966 72.2795H60.8428V72.421H67.1966V72.2795Z" fill="#ECD4B1"/>
<path d="M84.7045 72.2795H77.8682V72.421H84.7045V72.2795Z" fill="#ECD4B1"/>
<path d="M60.8413 72.2795H60.7808V72.4208H60.8413V72.2795Z" fill="#ECD4B1"/>
<path d="M101.167 74.2371H60.8428V74.3785H101.167V74.2371Z" fill="#ECD4B1"/>
<path d="M60.8413 74.2371H60.7808V74.3784H60.8413V74.2371Z" fill="#ECD4B1"/>
<path d="M101.165 80.1145H60.8401V80.256H101.165V80.1145Z" fill="#ECD4B1"/>
<path d="M60.8413 80.1145H60.7808V80.2558H60.8413V80.1145Z" fill="#ECD4B1"/>
<path d="M101.166 82.0721H95.3765V82.2136H101.166V82.0721Z" fill="#ECD4B1"/>
<path d="M84.7027 82.0721H60.8401V82.2136H84.7027V82.0721Z" fill="#ECD4B1"/>
<path d="M60.8413 82.0721H60.7808V82.2134H60.8413V82.0721Z" fill="#ECD4B1"/>
<path d="M101.166 84.0323H95.3765V84.1738H101.166V84.0323Z" fill="#ECD4B1"/>
<path d="M84.7027 84.0323H60.8401V84.1738H84.7027V84.0323Z" fill="#ECD4B1"/>
<path d="M60.8413 84.0323H60.7808V84.1736H60.8413V84.0323Z" fill="#ECD4B1"/>
<path d="M84.7027 85.9897H60.8401V86.1312H84.7027V85.9897Z" fill="#ECD4B1"/>
<path d="M101.166 85.9897H95.3765V86.1312H101.166V85.9897Z" fill="#ECD4B1"/>
<path d="M60.8413 85.9897H60.7808V86.131H60.8413V85.9897Z" fill="#ECD4B1"/>
<path d="M71.2871 87.9627C71.411 87.9987 71.5323 88.0373 71.6509 88.0862H71.6588L84.704 88.0887V87.9473H71.2476L71.2871 87.9601V87.9627Z" fill="#ECD4B1"/>
<path d="M60.8401 87.9473V88.0887H69.2029C69.3216 88.0373 69.4428 87.9961 69.5668 87.9627L69.6063 87.9498H60.8401V87.9473Z" fill="#ECD4B1"/>
<path d="M101.166 87.9473H95.3765V88.0887H101.166V87.9473Z" fill="#ECD4B1"/>
<path d="M60.8413 87.9473H60.7808V88.0886H60.8413V87.9473Z" fill="#ECD4B1"/>
<path d="M73.393 89.9587L73.4036 89.9922L73.422 90.0462H84.7061V89.9073H73.3772L73.393 89.9587Z" fill="#ECD4B1"/>
<path d="M60.8401 89.9073V90.0462H67.4339L67.4497 89.9922L67.4629 89.9587L67.4787 89.9073H60.8401Z" fill="#ECD4B1"/>
<path d="M101.166 89.9073H95.3765V90.0488H101.166V89.9073Z" fill="#ECD4B1"/>
<path d="M60.8413 89.9073H60.7808V90.0486H60.8413V89.9073Z" fill="#ECD4B1"/>
<path d="M64.1465 91.8852C64.2546 91.9135 64.3627 91.947 64.4655 91.9856L64.5288 92.0061H67.3182V91.8647H64.0833L64.1465 91.8852Z" fill="#ECD4B1"/>
<path d="M73.5383 91.8647V92.0061H76.9763L77.0395 91.9856C77.145 91.947 77.2505 91.9135 77.3586 91.8852L77.4218 91.8647H73.5383Z" fill="#ECD4B1"/>
<path d="M75.0332 93.9637C75.0517 93.9174 75.0701 93.8685 75.0886 93.8222H73.5383V93.9637H75.0306H75.0332Z" fill="#ECD4B1"/>
<path d="M66.4728 93.9637H67.3165V93.8222H66.4148C66.4359 93.8685 66.4543 93.9148 66.4702 93.9637H66.4728Z" fill="#ECD4B1"/>
<path d="M66.575 95.9237H67.3158V95.7823H66.6066C66.596 95.8286 66.5855 95.8774 66.575 95.9237Z" fill="#ECD4B1"/>
<path d="M74.9304 95.9237C74.9199 95.8826 74.9093 95.8414 74.9014 95.8003C74.9014 95.7951 74.9014 95.7874 74.8988 95.7823H73.541V95.9237H74.9304Z" fill="#ECD4B1"/>
<path d="M76.1431 97.7398H73.5383V97.8813H76.3409H76.3382L76.3198 97.8659C76.3172 97.8659 76.3145 97.8607 76.3119 97.8607C76.2539 97.8222 76.1985 97.7836 76.1431 97.7398Z" fill="#ECD4B1"/>
<path d="M65.3594 97.7397C65.304 97.7808 65.2486 97.822 65.1906 97.8606C65.188 97.8606 65.1853 97.8632 65.1827 97.8657L65.1643 97.8786H65.1616H67.3156V97.7371H65.3594V97.7397Z" fill="#ECD4B1"/>
<path d="M71.6612 88.0886H71.6533C71.6795 88.0962 71.7057 88.1115 71.7345 88.1243C71.7109 88.1141 71.6873 88.0988 71.6638 88.0886H71.6612Z" fill="#7D5633"/>
<path d="M71.6509 88.0861C71.6797 88.0989 71.7058 88.1116 71.7346 88.1244C71.7346 88.1244 71.7346 88.1244 71.732 88.1244C71.7058 88.1116 71.6797 88.0989 71.6509 88.0861Z" fill="#7D5633"/>
<path d="M73.4349 90.1103L73.4218 90.0486L73.4033 89.9921C73.4165 90.0307 73.4244 90.0718 73.4349 90.1103Z" fill="#7D5633"/>
<path d="M69.5669 87.9626C69.6011 87.9523 69.638 87.9446 69.6722 87.9369L69.6064 87.9497L69.5669 87.9626Z" fill="#7D5633"/>
<path d="M73.3403 89.8199C73.3588 89.8661 73.3772 89.9098 73.3904 89.956L73.3746 89.9046C73.364 89.8764 73.3509 89.8481 73.3403 89.8173V89.8199Z" fill="#7D5633"/>
<path d="M71.1809 87.9342C71.2151 87.9419 71.252 87.9522 71.2862 87.9599L71.2467 87.9471L71.1809 87.9342Z" fill="#7D5633"/>
<path d="M67.4221 90.1103C67.4327 90.0718 67.4406 90.0307 67.4537 89.9921L67.4353 90.0486L67.4221 90.1103Z" fill="#7D5633"/>
<path d="M67.4634 89.9586C67.4792 89.9098 67.4976 89.8635 67.516 89.8173C67.5055 89.8481 67.4897 89.8764 67.4792 89.9072L67.4634 89.9586Z" fill="#7D5633"/>
<path d="M69.1169 88.1269C69.1457 88.1142 69.1745 88.0989 69.2033 88.0861H69.1955C69.1693 88.1014 69.1431 88.1142 69.1169 88.1269Z" fill="#7D5633"/>
<path d="M73.3403 89.8173C73.3588 89.8635 73.3772 89.9098 73.393 89.9586C73.3772 89.9123 73.3588 89.8661 73.343 89.8224C73.343 89.8224 73.343 89.8224 73.343 89.8199L73.3403 89.8173Z" fill="#483327"/>
<path d="M73.538 97.7396V90.8769C73.538 90.7483 73.5275 90.6222 73.5116 90.4962C73.5064 90.4602 73.5011 90.4242 73.4958 90.3907C73.48 90.2955 73.4589 90.2029 73.4352 90.1103C73.4246 90.0718 73.4167 90.0306 73.4035 89.992L73.393 89.9586C73.3772 89.9097 73.3587 89.8634 73.3403 89.8171C73.3192 89.7605 73.2981 89.7039 73.2717 89.6499C73.2533 89.6087 73.2322 89.5702 73.2111 89.529C73.1847 89.4776 73.1584 89.4261 73.1267 89.3747C73.103 89.3361 73.0793 89.2975 73.0555 89.2589C73.0239 89.21 72.9923 89.1637 72.958 89.1174C72.9316 89.0814 72.9026 89.0454 72.8763 89.0094C72.8393 88.9657 72.8024 88.922 72.7655 88.8782C72.7339 88.8448 72.7049 88.8113 72.6732 88.7779C72.6337 88.7368 72.5889 88.6956 72.5467 88.657C72.5124 88.6261 72.4808 88.5979 72.4465 88.567C72.4017 88.5284 72.3516 88.4924 72.3041 88.4564C72.2699 88.4307 72.2356 88.4049 72.1987 88.3792C72.146 88.3432 72.0932 88.3123 72.0379 88.2789C72.0036 88.2583 71.9693 88.2352 71.9324 88.2172C71.8691 88.1837 71.8059 88.1529 71.7399 88.1246C71.7399 88.1246 71.7373 88.1246 71.7347 88.1246C71.7057 88.1117 71.6793 88.0963 71.6503 88.086C71.5317 88.0371 71.4104 87.9959 71.2865 87.9625C71.2522 87.9522 71.2153 87.9445 71.181 87.9368C71.094 87.9162 71.0044 87.8982 70.9147 87.8853C70.8778 87.8802 70.8409 87.8725 70.804 87.8699C70.6801 87.8545 70.5535 87.8442 70.427 87.8442C70.3004 87.8442 70.1739 87.8545 70.05 87.8699C70.0131 87.875 69.9762 87.8802 69.9392 87.8853C69.8496 87.8982 69.76 87.9162 69.673 87.9368C69.6387 87.9445 69.6018 87.9548 69.5675 87.9625C69.4436 87.9985 69.3197 88.0371 69.2037 88.086C69.1747 88.0988 69.1457 88.1143 69.1167 88.1271C69.0508 88.158 68.9875 88.1863 68.9242 88.2197C68.8873 88.2403 68.853 88.2609 68.8187 88.2815C68.7634 88.3149 68.7107 88.3458 68.6579 88.3818C68.621 88.4049 68.5867 88.4332 68.5525 88.4589C68.505 88.495 68.4549 88.531 68.4101 88.5696C68.3758 88.5979 68.3442 88.6287 68.3099 88.657C68.2677 88.6956 68.2229 88.7368 68.1834 88.7779C68.1517 88.8113 68.1201 88.8422 68.0911 88.8782C68.0515 88.922 68.0146 88.9657 67.9777 89.0094C67.9487 89.0454 67.9224 89.0814 67.896 89.1174C67.8617 89.1637 67.8301 89.2126 67.7984 89.2615C67.7747 89.3001 67.751 89.3387 67.7273 89.3772C67.6983 89.4287 67.6719 89.4801 67.6429 89.5316C67.6218 89.5702 67.6033 89.6113 67.5849 89.6525C67.5612 89.7065 67.5374 89.7631 67.5163 89.8197C67.4979 89.866 67.4794 89.9123 67.4636 89.9611L67.4531 89.9946C67.4399 90.0332 67.432 90.0743 67.4214 90.1129C67.3977 90.2055 67.3766 90.2981 67.3608 90.3933C67.3555 90.4293 67.3476 90.4653 67.345 90.5013C67.3292 90.6248 67.3186 90.7534 67.3186 90.882V99.6303H73.5406V97.7448L73.538 97.7396ZM72.4861 94.9179C72.262 94.9179 72.08 94.7404 72.08 94.5218C72.08 94.3031 72.262 94.1256 72.4861 94.1256C72.7102 94.1256 72.8921 94.3031 72.8921 94.5218C72.8921 94.7404 72.7102 94.9179 72.4861 94.9179Z" fill="#483327"/>
<path d="M72.4863 94.1258C72.2622 94.1258 72.0803 94.3033 72.0803 94.5219C72.0803 94.7406 72.2622 94.918 72.4863 94.918C72.7104 94.918 72.8924 94.7406 72.8924 94.5219C72.8924 94.3033 72.7104 94.1258 72.4863 94.1258Z" fill="#F8CC8B"/>
<path d="M44.068 98.4469H43.1453V99.3472L43.8228 98.6861L44.068 98.4469Z" fill="#F7E9D3"/>
<path d="M48.6502 98.4469H44.271L43.1453 99.5453V99.7485H49.4622V99.2417L48.6502 98.4469Z" fill="#F7E9D3"/>
<path d="M42.8541 99.0429V98.4469H42.2458L42.8541 99.0429Z" fill="#F7E9D3"/>
<path d="M43.1453 99.5453L44.271 98.4469L43.1453 99.5453Z" fill="#F7E9D3"/>
<path d="M36.7885 98.4469L35.9739 99.2417V99.7485H37.4793V98.4469H36.7885Z" fill="#F6E0CA"/>
<path d="M42.0434 98.4469H37.4797V99.7485H42.8555V99.2417L42.0434 98.4469Z" fill="#F7E9D3"/>
<path d="M35.9739 98.4469V99.0403L36.5848 98.4469H35.9739Z" fill="#F6E0CA"/>
<path d="M35.6867 99.3472V98.4469H34.7639L35.6867 99.3472Z" fill="#F6E0CA"/>
<path d="M97.3343 55.8583L96.902 55.4339L96.4749 55.0172L97.3343 55.8583Z" fill="#483327"/>
<path d="M96.3307 54.8757L96.4757 55.0172L96.9028 55.4339L94.6196 53.2063L94.7251 53.3092L96.3307 54.8757Z" fill="#483327"/>
<path d="M77.6411 43.0652L77.6558 43.051L77.6411 43.0652Z" fill="#483327"/>
<path d="M77.7828 42.9247L79.3884 41.3557L79.5334 41.2168L80.9307 39.8535L77.7195 42.9865L77.7828 42.9247Z" fill="#483327"/>
<path d="M80.9311 39.8535L77.7014 43.0045L77.7199 42.9865L80.9311 39.8535Z" fill="#483327"/>
<path d="M77.7018 43.0046L77.677 43.0287L77.6853 43.0207L77.7018 43.0046Z" fill="#483327"/>
<path d="M77.6411 43.065L77.6546 43.0518L77.6871 43.0201L77.679 43.0281L77.6411 43.065Z" fill="#483327"/>
<path d="M77.6406 43.0638L76.3936 44.2779L77.6406 43.0638Z" fill="#483327"/>
<path d="M77.6406 43.0638L76.3936 44.2779L77.6406 43.0638Z" fill="#483327"/>
<path d="M91.2234 49.8956L92.5258 51.1637L91.2234 49.8956Z" fill="#483327"/>
<path d="M91.0813 49.7543L90.3457 49.0366L91.0813 49.7543Z" fill="#483327"/>
<path d="M78.529 38.1945L69.3752 47.1254L78.529 38.1945Z" fill="#483327"/>
<path d="M60.7805 59.4877H60.7383V59.4132L80.9494 39.702L101.166 59.1456V59.4877V59.5366H104.264V58.7855L83.1139 38.1509C83.1139 37.5721 82.6341 37.104 82.0409 37.104H79.5995C79.0063 37.104 78.5265 37.5721 78.5265 38.1509V38.1972L69.3727 47.1281L62.0302 54.2918L57.6985 58.518V59.5366H60.7568L60.7805 59.5135V59.4877Z" fill="#483327"/>
<path d="M60.7808 59.5147L60.8085 59.4877H60.7808V59.5147Z" fill="#483327"/>
<path d="M101.057 59.4877L101.094 59.5262L101.105 59.5365H101.168V59.4877H101.057Z" fill="#483327"/>
<path d="M101.094 59.5261L101.106 59.5376L101.094 59.5261Z" fill="#483327"/>
<path d="M101.095 59.5272L101.057 59.4877L101.095 59.5272Z" fill="#483327"/>
<path d="M101.094 59.5261L101.106 59.5376L101.094 59.5261Z" fill="#483327"/>
<path d="M101.057 59.4877L101.095 59.5272L101.057 59.4877Z" fill="#483327"/>
<path d="M97.3339 55.8576L97.4024 55.9218L96.9969 55.5262L96.9021 55.4337L97.3339 55.8576Z" fill="#483327"/>
<path d="M96.9026 55.4339L96.9976 55.5265L94.6116 53.1986L94.6195 53.2064L96.9026 55.4339Z" fill="#483327"/>
<path d="M61.8878 58.433L62.0328 58.2915L63.6384 56.725L63.7834 56.5835L65.0463 55.3514L65.389 55.017L65.5314 54.8755L67.1396 53.309L67.282 53.1701L68.8876 51.601L69.0326 51.4621L69.3753 51.1277L70.6382 49.8956L70.7832 49.7542L72.3888 48.1877L72.5338 48.0462L74.1394 46.4797L74.2844 46.3382L75.89 44.7717L76.0324 44.6302L76.3936 44.2778L77.6406 43.0637L77.6775 43.0277L77.7013 43.0046L80.9309 39.8535L82.3282 41.2168L82.4732 41.3557L82.7659 41.6413L84.0788 42.9248L84.2239 43.0637L85.8295 44.6302L85.9745 44.7717L87.5801 46.3382L87.6565 46.4128L87.7251 46.4797L87.8253 46.5774L89.3307 48.0462L89.4757 48.1877L90.3457 49.0365L91.0813 49.7542L91.2236 49.8956L92.5261 51.1638L92.8319 51.4621L92.9743 51.601L93.0375 51.6628L94.5799 53.1701L94.6115 53.1984L96.9975 55.5263L98.0811 56.5835L98.2261 56.725L99.8317 58.2915L99.9767 58.433L101.058 59.4876H101.168V59.1455L80.9494 39.7018L60.7383 59.413V59.4876H60.7805H60.8068L60.8095 59.485L61.8878 58.433Z" fill="#483327"/>
<path d="M98.0811 56.5836L96.9976 55.5264L97.4036 55.9225L98.0811 56.5836Z" fill="#483327"/>
<path d="M99.9761 58.4329L99.8313 58.2916L99.9761 58.4329Z" fill="#483327"/>
<path d="M98.2254 56.7249L98.0806 56.5836L98.2254 56.7249Z" fill="#483327"/>
<path d="M77.679 43.0278L77.6411 43.0647L77.679 43.0278Z" fill="#483327"/>
<path d="M92.5258 51.1637L91.2234 49.8956L92.5258 51.1637Z" fill="#483327"/>
<path d="M77.6406 43.0638L76.3936 44.2779L77.6406 43.0638Z" fill="#483327"/>
<path d="M91.0813 49.7543L90.3457 49.0366L91.0813 49.7543Z" fill="#483327"/>
<path d="M97.4027 55.9223L97.3342 55.8581L97.5054 56.0251L97.4027 55.9223Z" fill="#483327"/>
<path d="M97.5066 56.0253L98.0814 56.5835L97.4038 55.9225L97.5066 56.0253Z" fill="#483327"/>
<path d="M98.2254 56.7249L98.0806 56.5836L98.2254 56.7249Z" fill="#483327"/>
<path d="M99.9771 58.4329L101.058 59.4875L99.9771 58.4329Z" fill="#483327"/>
<path d="M99.9771 58.4329L101.058 59.4875L99.9771 58.4329Z" fill="#483327"/>
<path d="M94.5794 53.1703L93.0371 51.663L94.5794 53.1703Z" fill="#483327"/>
<path d="M94.5794 53.1703L93.0371 51.663L94.5794 53.1703Z" fill="#483327"/>
<path d="M98.0803 56.5835L97.5056 56.0253L97.3342 55.8581L98.0803 56.5835Z" fill="#483327"/>
<path d="M98.0804 56.5828L97.5063 56.0253L98.0804 56.5828Z" fill="#483327"/>
<path d="M94.5789 53.1703L94.6195 53.2072L94.6113 53.1993L94.5789 53.1703Z" fill="#483327"/>
<path d="M94.6122 53.2L94.5789 53.1703L94.6122 53.2Z" fill="#483327"/>
<path d="M60.8401 79.222H101.162V78.422H60.8401V78.4658V79.222Z" fill="#E0C6A6"/>
<path d="M60.8451 78.422H60.7971V78.4662H60.8451V78.422Z" fill="#E0C6A6"/>
<path d="M60.8446 78.4659H60.7971V79.2221H60.8446V78.4659Z" fill="#E0C6A6"/>
<path d="M69.0032 67.8502H68.178V72.8866H69.0032V67.8502Z" fill="#8A807B"/>
<path d="M76.5337 62.0085H72.7688V62.8136H76.5337V62.0085Z" fill="#8A807B"/>
<path d="M69.0032 62.8136H71.9428V62.0085H68.178V67.045H69.0032V62.8136Z" fill="#8A807B"/>
<path d="M76.5337 67.8502H72.7688V72.8866H76.5337V67.8502Z" fill="#C2B9AA"/>
<path d="M71.9433 67.8502H69.0037V72.8866H71.9433V67.8502Z" fill="#C2B9AA"/>
<path d="M71.9433 62.8137H69.0037V67.045H71.9433V62.8137Z" fill="#C2B9AA"/>
<path d="M76.5337 62.8137H72.7688V67.045H76.5337V62.8137Z" fill="#C2B9AA"/>
<path d="M94.0449 62.0085H90.28V62.8136H94.0449V62.0085Z" fill="#8A807B"/>
<path d="M86.5117 62.8136H89.454V62.0085H85.6865V67.045H86.5117V62.8136Z" fill="#8A807B"/>
<path d="M86.5117 67.8502H85.6865V72.8866H86.5117V67.8502Z" fill="#8A807B"/>
<path d="M89.4516 62.8137H86.512V67.045H89.4516V62.8137Z" fill="#C2B9AA"/>
<path d="M89.4516 67.8502H86.512V72.8866H89.4516V67.8502Z" fill="#C2B9AA"/>
<path d="M94.0449 62.8137H90.28V67.045H94.0449V62.8137Z" fill="#C2B9AA"/>
<path d="M94.0449 67.8502H90.28V72.8866H94.0449V67.8502Z" fill="#C2B9AA"/>
<path d="M77.8665 68.5034H77.5159V70.322H77.8665V68.5034Z" fill="#CBAE8F"/>
<path d="M77.8665 66.5461H77.5159V68.3647H77.8665V66.5461Z" fill="#CBAE8F"/>
<path d="M77.8665 64.5858H77.5159V66.4044H77.8665V64.5858Z" fill="#CBAE8F"/>
<path d="M77.8665 72.4211H77.5159V73.7123H77.8665V72.4211Z" fill="#CBAE8F"/>
<path d="M77.8665 62.6284H77.5159V64.447H77.8665V62.6284Z" fill="#CBAE8F"/>
<path d="M77.8665 70.461H77.5159V72.2796H77.8665V70.461Z" fill="#CBAE8F"/>
<path d="M77.8665 61.1828H77.5159V62.487H77.8665V61.1828Z" fill="#CBAE8F"/>
<path d="M77.8661 62.4869H77.5159V62.6282H77.8661V62.4869Z" fill="#BC9E80"/>
<path d="M77.8661 64.4445H77.5159V64.5858H77.8661V64.4445Z" fill="#BC9E80"/>
<path d="M77.8661 66.4045H77.5159V66.5458H77.8661V66.4045Z" fill="#BC9E80"/>
<path d="M77.8661 68.3621H77.5159V68.5034H77.8661V68.3621Z" fill="#BC9E80"/>
<path d="M77.8661 70.3219H77.5159V70.4632H77.8661V70.3219Z" fill="#BC9E80"/>
<path d="M77.8661 72.2795H77.5159V72.4208H77.8661V72.2795Z" fill="#BC9E80"/>
<path d="M95.3787 68.5034H95.0281V70.322H95.3787V68.5034Z" fill="#CBAE8F"/>
<path d="M95.3787 70.461H95.0281V72.2796H95.3787V70.461Z" fill="#CBAE8F"/>
<path d="M95.3787 72.4211H95.0281V73.7123H95.3787V72.4211Z" fill="#CBAE8F"/>
<path d="M95.3787 66.5461H95.0281V68.3647H95.3787V66.5461Z" fill="#CBAE8F"/>
<path d="M95.3787 61.1828H95.0281V62.487H95.3787V61.1828Z" fill="#CBAE8F"/>
<path d="M95.3787 64.5858H95.0281V66.4044H95.3787V64.5858Z" fill="#CBAE8F"/>
<path d="M95.3787 62.6284H95.0281V64.447H95.3787V62.6284Z" fill="#CBAE8F"/>
<path d="M95.3783 62.4869H95.0281V62.6282H95.3783V62.4869Z" fill="#BC9E80"/>
<path d="M95.3783 64.4445H95.0281V64.5858H95.3783V64.4445Z" fill="#BC9E80"/>
<path d="M95.3783 66.4045H95.0281V66.5458H95.3783V66.4045Z" fill="#BC9E80"/>
<path d="M95.3783 68.3621H95.0281V68.5034H95.3783V68.3621Z" fill="#BC9E80"/>
<path d="M95.3783 70.3219H95.0281V70.4632H95.3783V70.3219Z" fill="#BC9E80"/>
<path d="M95.3783 72.2795H95.0281V72.4208H95.3783V72.2795Z" fill="#BC9E80"/>
<path d="M94.0449 81.897H90.28V82.7021H94.0449V81.897Z" fill="#8A807B"/>
<path d="M86.5117 82.7021H89.454V81.897H85.6865V86.9335H86.5117V82.7021Z" fill="#8A807B"/>
<path d="M86.5117 87.7389H85.6865V91.767H86.5117V87.7389Z" fill="#8A807B"/>
<path d="M89.4516 87.7389H86.512V91.767H89.4516V87.7389Z" fill="#C2B9AA"/>
<path d="M89.4516 82.7024H86.512V86.9338H89.4516V82.7024Z" fill="#C2B9AA"/>
<path d="M94.0449 87.7389H90.28V91.767H94.0449V87.7389Z" fill="#C2B9AA"/>
<path d="M94.0449 82.7024H90.28V86.9338H94.0449V82.7024Z" fill="#C2B9AA"/>
<path d="M43.3008 91.7669H44.2842V88.0731H48.049V91.7669H48.8743V88.0731H52.6391V92.1758C52.6945 92.2041 52.7472 92.2376 52.7999 92.271C52.8105 92.2762 52.8184 92.2839 52.8289 92.289C52.8553 92.307 52.8843 92.3199 52.9107 92.3379C53.0003 92.3971 53.0873 92.4614 53.1717 92.5282L53.2139 92.5643C53.2824 92.6208 53.3483 92.6774 53.4116 92.7392C53.4406 92.7675 53.4643 92.7958 53.4907 92.824C53.5355 92.8703 53.5803 92.9141 53.6225 92.963V81.4032H43.3008V91.7617V91.7669ZM48.8743 83.0366V82.2315H52.6391V87.268H48.8743V83.0366ZM44.2815 83.0366V82.2315H48.0464V87.268H44.2815V83.0366ZM84.7037 82.072V91.7669H85.6871V87.7387H89.452V91.7669H90.2772V87.7387H94.0421V91.7669H95.0255V81.0714H84.7037V82.072ZM90.2772 82.7022V81.8971H94.0421V86.9336H90.2772V82.7022ZM85.6845 81.8971H89.4493V86.9336H85.6845V81.8971ZM101.166 75.7571H59.3594V77.7429V78.422H102.11V77.7429V75.7546H101.168L101.166 75.7571ZM77.5141 72.4209V61.1853H67.1924V73.7122H77.5141V72.4209ZM71.9406 72.8891H68.1758V67.8526H71.9406V72.8891ZM71.9406 62.8135V67.0449H68.1758V62.0059H71.9406V62.811V62.8135ZM76.5307 72.8891H72.7658V67.8526H76.5307V72.8891ZM76.5307 62.8135V67.0449H72.7658V62.0059H76.5307V62.811V62.8135ZM95.0228 72.4209V61.1853H84.7011V73.7122H95.0228V72.4209ZM89.4493 72.8891H85.6845V67.8526H89.4493V72.8891ZM89.4493 62.8135V67.0449H85.6845V62.0059H89.4493V62.811V62.8135ZM94.0421 72.8891H90.2772V67.8526H94.0421V72.8891ZM94.0421 62.8135V67.0449H90.2772V62.0059H94.0421V62.811V62.8135Z" fill="white"/>
<path d="M95.3787 84.1712H95.0281V85.9898H95.3787V84.1712Z" fill="#CBAE8F"/>
<path d="M95.3787 88.0886H95.0281V89.9071H95.3787V88.0886Z" fill="#CBAE8F"/>
<path d="M95.3787 86.131H95.0281V87.9496H95.3787V86.131Z" fill="#CBAE8F"/>
<path d="M95.3787 81.0714H95.0281V82.072H95.3787V81.0714Z" fill="#CBAE8F"/>
<path d="M95.3787 82.2136H95.0281V84.0322H95.3787V82.2136Z" fill="#CBAE8F"/>
<path d="M95.3787 90.0461H95.0281V91.7644H95.3787V90.0461Z" fill="#CBAE8F"/>
<path d="M95.3783 82.0721H95.0281V82.2134H95.3783V82.0721Z" fill="#BC9E80"/>
<path d="M95.3783 84.0323H95.0281V84.1736H95.3783V84.0323Z" fill="#BC9E80"/>
<path d="M95.3783 85.9897H95.0281V86.131H95.3783V85.9897Z" fill="#BC9E80"/>
<path d="M95.3783 87.9473H95.0281V88.0886H95.3783V87.9473Z" fill="#BC9E80"/>
<path d="M95.3783 89.9073H95.0281V90.0486H95.3783V89.9073Z" fill="#BC9E80"/>
<path d="M44.068 98.4469L43.8228 98.6861L43.1453 99.3472V99.5453L44.271 98.4469H44.068Z" fill="#724D2F"/>
<path d="M42.0427 98.4469L42.8548 99.2417V99.0437L42.2457 98.4469H42.0427Z" fill="#724D2F"/>
<path d="M43.0506 99.6379L42.9504 99.5375L43.1455 99.3472V98.4469H42.8555V99.0437L43.0321 99.2134L42.9319 99.3138L42.8555 99.2417V99.7485H43.1455V99.5453L43.0506 99.6379Z" fill="#724D2F"/>
<path d="M42.95 99.5374L43.05 99.6376L43.1448 99.5451V99.3473L42.95 99.5374Z" fill="#724D2F"/>
<path d="M42.9318 99.3137L43.0319 99.2135L42.8555 99.0439V99.2417L42.9318 99.3137Z" fill="#724D2F"/>
<path d="M35.6867 99.3472L34.7639 98.4469L35.6867 99.3472Z" fill="#724D2F"/>
<path d="M35.6866 99.3472L34.7638 98.4469H34.5608L35.2779 99.1466L35.6866 99.5453V99.3472Z" fill="#724D2F"/>
<path d="M36.5855 98.4469L35.9739 99.0411V99.2417L36.7885 98.4469H36.5855Z" fill="#724D2F"/>
<path d="M35.9741 99.2417L35.9003 99.3138L35.8001 99.2134L35.9741 99.0411V98.4469H35.6868V99.3472L35.8819 99.5375L35.779 99.6379L35.6868 99.5478V99.7485H35.9741V99.2417Z" fill="#724D2F"/>
<path d="M35.8816 99.5374L35.6868 99.3473V99.5451V99.5476L35.7789 99.6376L35.8816 99.5374Z" fill="#724D2F"/>
<path d="M35.8 99.2133L35.9001 99.3135L35.9738 99.2416V99.0412L35.8 99.2133Z" fill="#724D2F"/>
<path d="M49.4613 99.0429V98.4469H48.853L49.4613 99.0429Z" fill="#F7E9D3"/>
<path d="M48.6497 98.4469L49.4617 99.2417V99.0437L48.8527 98.4469H48.6497Z" fill="#724D2F"/>
<path d="M49.4614 98.4469V99.0437L49.6381 99.2134L49.5352 99.3138L49.4614 99.2417V99.7485H49.7514V98.4469H49.4614Z" fill="#724D2F"/>
<path d="M49.5352 99.3137L49.6378 99.2135L49.4614 99.0439V99.2417L49.5352 99.3137Z" fill="#724D2F"/>
<path d="M30.6091 95.1083C30.6091 96.9526 32.1409 98.4496 34.0339 98.4496H50.9969C52.8872 98.4496 54.4216 96.9552 54.4216 95.1083H30.6091ZM60.7808 95.1083H55.173C55.173 95.2189 55.1783 95.3295 55.1915 95.4375C55.1941 95.4735 55.202 95.5095 55.2073 95.5456C55.2178 95.6176 55.2257 95.6896 55.2416 95.7591C55.2495 95.8002 55.2626 95.8414 55.2706 95.8825C55.2864 95.9443 55.3022 96.0086 55.3207 96.0703C55.3338 96.114 55.3497 96.1552 55.3655 96.1963C55.3866 96.2529 55.405 96.3121 55.4287 96.3687C55.4472 96.4124 55.4657 96.451 55.4867 96.4947C55.5131 96.5487 55.5368 96.6028 55.5658 96.6542C55.5869 96.6954 55.6107 96.7339 55.6344 96.7751C55.6634 96.8265 55.695 96.8754 55.7267 96.9243C55.753 96.9629 55.7794 97.0015 55.8058 97.0375C55.84 97.0838 55.8743 97.1301 55.9112 97.1764C55.9402 97.2124 55.9692 97.2484 56.0009 97.2818C56.0404 97.3256 56.08 97.3667 56.1195 97.4104C56.1511 97.4439 56.1854 97.4773 56.2197 97.5082C56.2619 97.5493 56.3067 97.5879 56.3515 97.6265C56.3858 97.6574 56.4201 97.6857 56.457 97.714C56.5044 97.75 56.5545 97.786 56.602 97.8194C56.6389 97.8452 56.6758 97.8709 56.7127 97.8966C56.7654 97.93 56.8182 97.9609 56.8735 97.9918C56.9104 98.0124 56.95 98.0355 56.9869 98.0561C57.0475 98.087 57.1082 98.1152 57.1688 98.141C57.2057 98.1564 57.24 98.1744 57.2769 98.1898C57.3534 98.2207 57.4298 98.2464 57.5063 98.2722L57.5801 98.2979C57.6829 98.3287 57.7884 98.3545 57.8965 98.3776C57.9228 98.3828 57.9518 98.3853 57.9782 98.3905C58.0547 98.4033 58.1285 98.4188 58.2076 98.4265H58.2234C58.3447 98.4393 58.4686 98.4471 58.5925 98.4471H63.2485C63.3539 98.4471 63.4594 98.4419 63.5649 98.4316C63.5965 98.4291 63.6255 98.4239 63.6571 98.4213C63.7336 98.4136 63.81 98.4008 63.8839 98.3879C63.9129 98.3828 63.9419 98.3776 63.9709 98.3725C64.0711 98.3519 64.1686 98.3287 64.2662 98.2979H64.2767C64.369 98.2644 64.4613 98.2336 64.5483 98.1976C64.5746 98.1873 64.6036 98.1744 64.63 98.1615C64.6985 98.1332 64.7644 98.0998 64.8304 98.0664L64.9068 98.0278C64.9068 98.0278 64.9332 98.0149 64.9464 98.0072C65.0175 97.9686 65.0861 97.9275 65.1546 97.8837H65.1573L65.1757 97.8683C65.1784 97.8683 65.181 97.8657 65.1836 97.8632C65.2416 97.8246 65.297 97.786 65.3524 97.7423L65.3919 97.7088C65.4209 97.6857 65.4499 97.66 65.4789 97.6368C65.529 97.5956 65.5765 97.5545 65.6213 97.5108C65.6503 97.4825 65.6793 97.4567 65.7057 97.4285C65.7505 97.3822 65.7927 97.3358 65.8348 97.2895C65.8612 97.2613 65.8849 97.233 65.9113 97.2021C65.9561 97.1481 65.9957 97.0941 66.0378 97.0375C66.0563 97.0117 66.0774 96.986 66.0959 96.9603C66.1539 96.878 66.2066 96.7905 66.2567 96.7031V96.6979C66.3068 96.6105 66.3516 96.523 66.3911 96.4304C66.4043 96.3995 66.4149 96.3687 66.4281 96.3378C66.4544 96.2735 66.4781 96.2092 66.5019 96.1423C66.5151 96.1063 66.5256 96.0677 66.5361 96.0317C66.5467 95.9957 66.5599 95.9623 66.5678 95.9263C66.5783 95.88 66.5915 95.8337 66.5994 95.7848C66.6126 95.7153 66.6231 95.6433 66.6337 95.5739C66.639 95.5327 66.6495 95.4915 66.6521 95.4504C66.6627 95.3372 66.6706 95.224 66.6706 95.1083H60.7728H60.7808ZM103.8 95.1083H74.8252C74.8252 95.224 74.8304 95.3372 74.8436 95.4504C74.8489 95.4864 74.8568 95.5224 74.8621 95.5584C74.8726 95.633 74.8805 95.7076 74.8964 95.7822C74.8964 95.7874 74.8964 95.7951 74.899 95.8002C74.9069 95.8414 74.9174 95.8825 74.928 95.9237C74.9385 95.9597 74.9491 95.9957 74.9596 96.0317C74.9702 96.0677 74.9807 96.1063 74.9939 96.1423C75.015 96.2092 75.0414 96.2735 75.0677 96.3378C75.0809 96.3687 75.0914 96.3995 75.1046 96.4304C75.1442 96.5204 75.189 96.6105 75.2365 96.6954V96.7005C75.2892 96.788 75.3419 96.8754 75.3999 96.9577C75.4184 96.9835 75.4395 97.0092 75.4579 97.0349C75.4975 97.0915 75.5396 97.1455 75.5845 97.1995C75.6082 97.2278 75.6346 97.2587 75.6609 97.287C75.7031 97.3359 75.7453 97.3821 75.7901 97.4259C75.8165 97.4542 75.8455 97.4825 75.8745 97.5082C75.9219 97.5519 75.9694 97.5931 76.0168 97.6342C76.0458 97.66 76.0748 97.6831 76.1038 97.7063L76.1434 97.7371C76.1988 97.7783 76.2541 97.8194 76.3121 97.858C76.3148 97.858 76.3174 97.8606 76.32 97.8632L76.3385 97.876H76.3411C76.4229 97.93 76.5046 97.9789 76.5916 98.0252L76.6681 98.0638C76.734 98.0972 76.7999 98.1281 76.8684 98.159C76.8948 98.1718 76.9212 98.1821 76.9501 98.195C77.0398 98.231 77.1294 98.2644 77.2217 98.2927L77.2323 98.2979C77.3298 98.3262 77.4273 98.3519 77.5275 98.3725C77.5565 98.3776 77.5855 98.3828 77.6145 98.3879C77.691 98.4008 77.7648 98.4136 77.8413 98.4213C77.8729 98.4239 77.9019 98.4291 77.9336 98.4316C78.0364 98.4419 78.1418 98.4471 78.2499 98.4471H101.445C101.561 98.4471 101.677 98.4419 101.791 98.4291C101.83 98.4265 101.867 98.4188 101.904 98.4136C101.978 98.4033 102.052 98.3956 102.126 98.3802C102.171 98.3725 102.213 98.3596 102.258 98.3493C102.321 98.3339 102.387 98.321 102.45 98.3004C102.495 98.2876 102.54 98.2696 102.584 98.2541C102.642 98.2336 102.703 98.2156 102.758 98.1924C102.803 98.1744 102.848 98.1513 102.893 98.1332C102.948 98.1075 103.001 98.0844 103.054 98.0561C103.099 98.0329 103.141 98.0072 103.183 97.9841C103.233 97.9558 103.283 97.9275 103.333 97.894C103.375 97.8683 103.415 97.8374 103.454 97.8091C103.502 97.7757 103.549 97.7423 103.594 97.7063C103.634 97.6754 103.671 97.6419 103.708 97.6111C103.739 97.5828 103.773 97.5596 103.802 97.5313L103.834 97.5005C103.876 97.4593 103.916 97.4182 103.958 97.3744C103.992 97.3384 104.029 97.2998 104.063 97.2613C104.103 97.2175 104.137 97.1712 104.174 97.1224C104.206 97.0812 104.237 97.0426 104.266 97.0015C104.301 96.9526 104.332 96.9011 104.364 96.8523C104.39 96.8085 104.419 96.7674 104.443 96.7237C104.472 96.6722 104.498 96.6156 104.525 96.5616C104.549 96.5179 104.572 96.4741 104.591 96.4278C104.615 96.3713 104.636 96.3121 104.659 96.2529C104.678 96.2066 104.696 96.1629 104.709 96.1166C104.731 96.0549 104.746 95.988 104.762 95.9237C104.773 95.88 104.789 95.8362 104.796 95.7925C104.812 95.7179 104.823 95.6433 104.833 95.5687C104.839 95.5301 104.847 95.4941 104.852 95.4555C104.865 95.3424 104.87 95.224 104.87 95.1083H103.8Z" fill="#7A8A47"/>
<path d="M54.3873 94.6786C54.3768 94.6092 54.3689 94.5372 54.3557 94.4677C54.3478 94.4266 54.3373 94.388 54.3293 94.3494C54.3135 94.2877 54.2977 94.2259 54.2793 94.1642C54.2661 94.123 54.2529 94.0845 54.2397 94.0433C54.2186 93.9841 54.1975 93.9276 54.1738 93.871C54.158 93.8324 54.1422 93.7912 54.1237 93.7526C54.0973 93.696 54.071 93.642 54.042 93.5854C54.0235 93.5494 54.0051 93.5108 53.984 93.4774C53.9523 93.4208 53.9181 93.3668 53.8811 93.3128C53.8601 93.2819 53.8416 93.2485 53.8179 93.2176C53.7731 93.1559 53.7282 93.0967 53.6808 93.0375L53.6307 92.9758L53.6228 92.9681C53.5806 92.9192 53.5358 92.8755 53.491 92.8292C53.4646 92.8009 53.4382 92.77 53.4119 92.7443C53.3486 92.6826 53.28 92.626 53.2141 92.5694L53.1719 92.5334C53.0876 92.4665 53.0006 92.4022 52.9109 92.343C52.8846 92.325 52.8556 92.3096 52.8292 92.2942C52.8187 92.289 52.8107 92.2813 52.8002 92.2762C52.7475 92.2427 52.6947 92.2093 52.6394 92.181H52.6341C52.5181 92.1167 52.3995 92.0627 52.2755 92.0138C52.2413 92.0009 52.2044 91.9881 52.1701 91.9752C52.0778 91.9418 51.9829 91.9135 51.8854 91.8877L51.8168 91.8672L51.7614 91.8569C51.6771 91.8389 51.5927 91.8234 51.5057 91.8106C51.4662 91.8054 51.4266 91.7977 51.3844 91.7926C51.2579 91.7797 51.1287 91.7694 50.9969 91.7694H34.0339C32.1436 91.7694 30.6091 93.2639 30.6091 95.1108H54.419C54.419 95.0028 54.4137 94.8947 54.4032 94.7867C54.4005 94.7507 54.3926 94.7172 54.39 94.6812L54.3873 94.6786ZM66.6469 94.6812C66.639 94.6092 66.6284 94.5397 66.6152 94.4703C66.6073 94.4317 66.5968 94.3931 66.5889 94.3545C66.5731 94.2902 66.5572 94.2285 66.5388 94.1668C66.5282 94.1282 66.5151 94.0896 66.5019 94.0484C66.4913 94.0202 66.4834 93.9919 66.4729 93.9636C66.4544 93.9173 66.436 93.8684 66.4175 93.8221V93.8144C66.3832 93.7449 66.349 93.6755 66.312 93.6086C66.2962 93.5777 66.283 93.5469 66.2672 93.516C66.2145 93.4208 66.1565 93.3256 66.0932 93.2356L66.0695 93.2047C66.0141 93.125 65.9561 93.0478 65.8929 92.9732C65.8691 92.9449 65.8401 92.9192 65.8164 92.8909C65.7689 92.8369 65.7188 92.7829 65.6688 92.734C65.6371 92.7032 65.6028 92.6749 65.5712 92.6466C65.5211 92.6028 65.4737 92.5565 65.4209 92.5154C65.384 92.4871 65.3445 92.4588 65.3076 92.4331C65.2575 92.3945 65.2074 92.3585 65.152 92.3225C65.1098 92.2967 65.0676 92.2736 65.0255 92.2479C64.9727 92.217 64.92 92.1836 64.8646 92.1553C64.8198 92.1321 64.7724 92.1115 64.7275 92.091C64.6722 92.0652 64.6168 92.0395 64.5588 92.0164L64.5298 92.0035L64.4665 91.9829C64.3611 91.9443 64.2556 91.9109 64.1475 91.8826L64.0842 91.862L64.0262 91.8517C63.9419 91.8337 63.8549 91.8183 63.7679 91.8054C63.7283 91.8003 63.6888 91.7926 63.6466 91.7874C63.5174 91.772 63.3882 91.7643 63.2564 91.7643H58.6004C58.4765 91.7643 58.3526 91.772 58.2313 91.7849H58.2155C58.139 91.7951 58.0626 91.808 57.9888 91.8209C57.9624 91.826 57.9334 91.8286 57.907 91.8337C57.7989 91.8543 57.6935 91.8826 57.5906 91.9135L57.5168 91.9392C57.4404 91.9649 57.3613 91.9906 57.2875 92.0215C57.2505 92.0369 57.2163 92.0549 57.1794 92.0704C57.1187 92.0987 57.0554 92.1244 56.9974 92.1553C56.9579 92.1758 56.921 92.199 56.8841 92.2196C56.8287 92.2504 56.776 92.2813 56.7233 92.3147C56.6837 92.3405 56.6494 92.3662 56.6125 92.3919C56.5624 92.4254 56.515 92.4614 56.4675 92.4974C56.4306 92.5257 56.3963 92.5565 56.3621 92.5848C56.3172 92.6234 56.2724 92.662 56.2302 92.7032C56.196 92.734 56.1643 92.7675 56.13 92.8009C56.0905 92.8421 56.0483 92.8858 56.0114 92.9295C55.9798 92.9655 55.9508 92.999 55.9218 93.0375C55.8849 93.0838 55.8506 93.1302 55.8163 93.1765C55.7899 93.215 55.7609 93.251 55.7372 93.2896C55.7056 93.3385 55.6739 93.3874 55.6449 93.4388C55.6212 93.4774 55.5975 93.5186 55.5764 93.5597C55.5474 93.6112 55.5237 93.6652 55.4973 93.7192C55.4788 93.7604 55.4578 93.8015 55.4393 93.8452C55.4156 93.9018 55.3945 93.9584 55.376 94.0176C55.3602 94.0587 55.3444 94.1025 55.3312 94.1436C55.3127 94.2054 55.2969 94.2671 55.2811 94.3314C55.2706 94.3725 55.26 94.4137 55.2521 94.4549C55.2389 94.5243 55.2284 94.5963 55.2178 94.6684C55.2126 94.7044 55.2073 94.7404 55.202 94.7764C55.1915 94.8844 55.1836 94.995 55.1836 95.1056H66.6891C66.6891 94.9976 66.6838 94.8896 66.6732 94.7841C66.6706 94.7507 66.6627 94.7147 66.6601 94.6812H66.6469ZM108.387 91.7694C108.358 91.7694 108.329 91.7771 108.3 91.7771C108.329 91.7771 108.358 91.7746 108.387 91.772C108.448 91.7694 108.506 91.7643 108.569 91.7643C108.509 91.7643 108.448 91.7643 108.387 91.7694ZM104.833 94.6452C104.823 94.5706 104.812 94.496 104.796 94.4214C104.786 94.3777 104.773 94.334 104.762 94.2902C104.746 94.2259 104.731 94.1616 104.709 94.0973C104.694 94.051 104.675 94.0073 104.659 93.961C104.638 93.9018 104.617 93.8427 104.591 93.7861C104.57 93.7398 104.546 93.696 104.525 93.6523C104.499 93.5983 104.472 93.5443 104.443 93.4903C104.417 93.4465 104.39 93.4054 104.364 93.3617C104.332 93.3102 104.301 93.2613 104.267 93.2125C104.238 93.1713 104.203 93.1302 104.174 93.0916C104.137 93.0453 104.103 92.999 104.063 92.9552C104.029 92.9167 103.995 92.8806 103.958 92.8421C103.918 92.7983 103.876 92.7572 103.834 92.716L103.802 92.6826C103.771 92.6543 103.739 92.6286 103.708 92.6028C103.671 92.5694 103.634 92.5385 103.594 92.5077C103.549 92.4717 103.502 92.4382 103.454 92.4048C103.415 92.3765 103.375 92.3482 103.333 92.3199C103.283 92.289 103.233 92.2607 103.183 92.2299C103.141 92.2067 103.099 92.181 103.054 92.1578C103.001 92.1295 102.946 92.1064 102.893 92.0807C102.848 92.0601 102.806 92.0395 102.758 92.0215C102.7 91.9984 102.642 91.9804 102.584 91.9598C102.54 91.9443 102.495 91.9263 102.45 91.9135C102.387 91.8955 102.323 91.88 102.26 91.8646C102.215 91.8543 102.173 91.8415 102.128 91.8337C102.057 91.8183 101.983 91.8106 101.91 91.8003C101.87 91.7951 101.833 91.7874 101.796 91.7849C101.683 91.7746 101.567 91.7669 101.451 91.7669H78.2552C78.1234 91.7669 77.9942 91.7746 77.865 91.79C77.8255 91.7952 77.7859 91.8029 77.7437 91.808C77.6567 91.8209 77.5697 91.8363 77.4854 91.8543L77.4274 91.8646L77.3641 91.8852C77.256 91.9135 77.1479 91.9469 77.0451 91.9855L76.9818 92.0061L76.9528 92.0189C76.8948 92.0421 76.8394 92.0678 76.7841 92.0935C76.7392 92.1141 76.6918 92.1347 76.647 92.1578C76.5916 92.1861 76.5389 92.2196 76.4861 92.2504C76.444 92.2762 76.4018 92.2993 76.3596 92.325C76.3069 92.361 76.2568 92.3971 76.204 92.4356C76.1671 92.4639 76.1276 92.4897 76.0907 92.518C76.0379 92.5591 75.9905 92.6028 75.9404 92.6491C75.9088 92.6774 75.8745 92.7057 75.8428 92.7366C75.7901 92.788 75.7427 92.8421 75.6952 92.8935C75.6688 92.9218 75.6425 92.9475 75.6187 92.9758C75.5581 93.0478 75.5001 93.125 75.4447 93.2022L75.4184 93.2382C75.3551 93.3282 75.2971 93.4208 75.2444 93.5186C75.2285 93.5494 75.2154 93.5803 75.1995 93.6112C75.1653 93.678 75.1284 93.7475 75.0994 93.8169V93.8247C75.0756 93.871 75.0572 93.9173 75.0387 93.9661C75.0282 93.9944 75.0203 94.0227 75.0124 94.051C74.9992 94.0896 74.986 94.1282 74.9728 94.1693C74.9544 94.2311 74.9385 94.2928 74.9227 94.3571C74.9122 94.3957 74.9043 94.4343 74.8964 94.4754C74.8832 94.5449 74.8726 94.6143 74.8621 94.6864C74.8568 94.7198 74.8515 94.7558 74.8489 94.7893C74.8384 94.8947 74.8331 95.0028 74.8331 95.1108H104.876C104.876 94.9925 104.87 94.8767 104.857 94.7635C104.854 94.7249 104.844 94.6889 104.839 94.6504L104.833 94.6452Z" fill="#81944E"/>
<path d="M63.1166 99.7487V100.014H62.8793V99.7487H60.8414H60.7807H59.5732V100.014H59.3386V99.7487H58.2102H49.7524V101.22H49.4624V99.7487H43.1455V101.22H42.8554V99.7487H37.4797H35.9743V101.22H35.6869V99.7487H34.4003H33.6885V100.953H34.4003V105.089H61.714V103.324H63.8944V101.475H65.8981V99.7487H63.1166Z" fill="#483327"/>
<path d="M59.5732 99.7487H59.3389V100.013H59.5732V99.7487Z" fill="#483327"/>
<path d="M63.1133 99.7487H62.8789V100.013H63.1133V99.7487Z" fill="#483327"/>
<path d="M43.1428 99.7487H42.8555V101.22H43.1428V99.7487Z" fill="#483327"/>
<path d="M35.9741 99.7487H35.6868V101.22H35.9741V99.7487Z" fill="#483327"/>
<path d="M49.7488 99.7487H49.4614V101.22H49.7488V99.7487Z" fill="#483327"/>
<path d="M74.6196 99.6252H73.5387V99.6355H67.3166V99.6252H65.8982V99.7487H74.6196V99.6252Z" fill="#E4C9A9"/>
<path d="M73.5384 99.6252H67.3164V99.6355H73.5384V99.6252Z" fill="#E4C9A9"/>
<path d="M100.509 100.014H100.275V99.7487H96.966V100.014H96.7314V99.7487H91.9752V100.014H91.7405V99.7487H88.4318V100.014H88.1971V99.7487H83.7679V100.014H83.5332V99.7487H80.2245V100.014H79.9898V99.7487H74.6194V100.906H103.831H104.274V99.7487H101.169H100.509V100.014Z" fill="#483327"/>
<path d="M74.6194 101.475H76.6205V103.324H78.8008V105.089H103.831V101.75L74.6194 101.096V101.475Z" fill="#483327"/>
<path d="M103.831 105.089H78.8005V105.205H103.831V105.089Z" fill="#483327"/>
<path d="M80.2239 99.7487H79.9895V100.013H80.2239V99.7487Z" fill="#483327"/>
<path d="M83.7678 99.7487H83.5334V100.013H83.7678V99.7487Z" fill="#483327"/>
<path d="M88.4314 99.7487H88.197V100.013H88.4314V99.7487Z" fill="#483327"/>
<path d="M91.9743 99.7487H91.74V100.013H91.9743V99.7487Z" fill="#483327"/>
<path d="M96.9656 99.7487H96.7312V100.013H96.9656V99.7487Z" fill="#483327"/>
<path d="M100.51 99.7487H100.275V100.013H100.51V99.7487Z" fill="#483327"/>
<path d="M74.6196 101.097V100.906V99.7487H65.8982V101.475H74.6196V101.097Z" fill="#E4C9A9"/>
<path d="M74.6194 101.508H65.898V101.475H63.8943V103.324H74.6194V101.508Z" fill="#C8A888"/>
<path d="M74.6194 103.324H76.6205V101.475H74.6194V101.508V103.324Z" fill="#C8A888"/>
<path d="M74.6196 101.475H65.8982V101.506H74.6196V101.475Z" fill="#C8A888"/>
<path d="M74.6196 105.089H61.7141V105.205H74.6196V105.089Z" fill="#AA8766"/>
<path d="M78.8034 105.089H74.6194V105.205H78.8034V105.089Z" fill="#AA8766"/>
<path d="M74.6196 103.355H63.8945V103.324H61.7141V105.089H74.6196V103.355Z" fill="#AA8766"/>
<path d="M74.6194 103.355V105.089H78.8008V103.324H76.6205V103.355H74.6194Z" fill="#AA8766"/>
<path d="M74.6194 103.324H63.8943V103.355H74.6194V103.324Z" fill="#AA8766"/>
<path d="M76.6231 103.324H74.6194V103.355H76.6231V103.324Z" fill="#AA8766"/>
<path d="M74.6194 101.096L103.831 101.75V100.906H74.6194V101.096Z" fill="#3C2B21"/>
<path d="M70.3562 43.8484V42.2253H61.0732V43.8484H62.0329H69.3755H70.3562Z" fill="#483327"/>
<path d="M69.3745 47.1255V44.9391L62.032 44.3937V54.2918L69.3745 47.128V47.1255ZM66.7618 48.5299H63.54V47.784H66.7618V48.5299ZM67.8269 47.6296H64.6078V46.8837H67.8269V47.6296ZM62.9706 45.9808H66.1897V46.7268H62.9706V45.9808ZM62.1691 46.8837H64.3494V47.6296H62.1691V46.8837Z" fill="#3A291F"/>
<path d="M69.3745 43.8485H62.032V44.3938L69.3745 44.9391V43.8485Z" fill="#2A1E17"/>
<path d="M66.1879 45.9807H62.9688V46.7266H66.1879V45.9807Z" fill="#624535"/>
<path d="M66.763 47.7839H63.5413V48.5298H66.763V47.7839Z" fill="#624535"/>
<path d="M67.8243 46.8835H64.6052V47.6295H67.8243V46.8835Z" fill="#624535"/>
<path d="M64.3473 46.8835H62.167V47.6295H64.3473V46.8835Z" fill="#624535"/>
<path d="M102.11 75.7572H59.3594V78.422H102.11V75.7572Z" fill="#FFF5E6"/>
<path d="M34.3994 100.952H65.8972V101.475H63.8935L34.3994 101.295V100.952Z" fill="#3C2B21"/>
</g>
</svg>
