<svg width="163" height="166" viewBox="0 0 163 166" fill="none" xmlns="http://www.w3.org/2000/svg">
<mask id="mask0_936_7081" style="mask-type:alpha" maskUnits="userSpaceOnUse" x="0" y="0" width="158" height="157">
<rect x="0.5" y="0.5" width="157" height="156" rx="9.5" fill="white" stroke="#EFEFEF"/>
</mask>
<g mask="url(#mask0_936_7081)">
<path d="M92.8689 134.149L98.7117 137.523L99.5524 136.066L93.7096 132.693L92.8689 134.149Z" fill="#60361A"/>
<path d="M92.8708 114.009L98.7136 117.383L99.5543 115.926L93.7116 112.553L92.8708 114.009Z" fill="#60361A"/>
<path d="M161.461 100.837L130.823 118.664V176.544L161.461 158.713V100.837Z" fill="#DDD3B6"/>
<path d="M161.461 143.84L130.823 161.792V183.454L161.461 165.623V143.84Z" fill="#99592E"/>
<path d="M161.461 100.837L130.823 118.664V122.056L161.461 104.23V100.837Z" fill="#CCBE9E"/>
<path d="M96.1609 98.6959L130.777 118.635V176.544L96.1609 156.572V98.6959Z" fill="#F4EEDF"/>
<path d="M96.2112 141.853L130.823 161.792V183.454L96.2112 163.481V141.853Z" fill="#AD6B3D"/>
<path d="M96.2112 98.6959L130.823 118.635V122.056L96.2112 102.088V98.6959Z" fill="#DDD3B6"/>
<path d="M95.2114 96.7133L130.819 117.246V119.718L95.2114 99.1476V96.7133Z" fill="#AD6B3D"/>
<path d="M163 98.5244L130.819 117.246V119.718L163 100.963V98.5244Z" fill="#99592E"/>
<path d="M163 98.5244L130.819 117.25L95.2114 96.7133L127.51 78L163 98.5244Z" fill="#B87749"/>
<path d="M127.527 79.0875L97.2485 96.6464L99.7414 98.081L127.527 81.9694V79.0875Z" fill="#99592E"/>
<path d="M158.726 99.888L127.527 81.9694L99.7417 98.081L130.974 116.054L158.726 99.888Z" fill="#8E5128"/>
<path d="M127.389 79.0875V81.9652L158.588 99.888L161.08 98.4366L127.389 79.0875Z" fill="#AD6B3D"/>
<path d="M139.761 101.063L145.876 104.644L149.983 102.335L143.822 98.7252L139.761 101.063Z" fill="#7C441E"/>
<path d="M145.876 102.849H145.596V103.962L145.876 104.129V102.849Z" fill="#B87749"/>
<path d="M145.876 102.849L149.063 101.306V102.418L145.876 104.129V102.849Z" fill="#774523"/>
<path d="M140.941 100.026H140.665V101.139L140.941 101.306V100.026Z" fill="#B87749"/>
<path d="M140.94 100.026L144.128 98.4826V99.5952L140.94 101.306V100.026Z" fill="#774523"/>
<path d="M140.414 95.082V100.093L146.148 103.418V98.3947L140.414 95.082Z" fill="#F4EEDF"/>
<path d="M146.148 98.3947V103.418L149.273 101.64V96.638L146.148 98.3947Z" fill="#DDD3B6"/>
<path d="M140.414 95.0821L146.148 98.3947L149.272 96.638L143.488 93.2919L140.414 95.0821Z" fill="white"/>
<path d="M142.752 99.34C142.777 100.348 143.417 101.41 144.174 101.72C144.935 102.025 145.529 101.456 145.504 100.448C145.479 99.4404 144.839 98.378 144.082 98.0685C143.325 97.759 142.727 98.332 142.752 99.34Z" fill="#60361A"/>
<path d="M143.229 99.5324C143.245 100.189 143.664 100.888 144.157 101.088C144.655 101.289 145.044 100.917 145.027 100.26C145.01 99.6035 144.592 98.905 144.099 98.7042C143.601 98.5035 143.212 98.8757 143.229 99.5324Z" fill="#B87749"/>
<path d="M132.019 105.618L138.13 109.199L142.237 106.89L136.076 103.28L132.019 105.618Z" fill="#7C441E"/>
<path d="M138.13 107.404H137.854V108.517L138.13 108.684V107.404Z" fill="#B87749"/>
<path d="M138.13 107.404L141.317 105.865V106.973L138.13 108.684V107.404Z" fill="#774523"/>
<path d="M133.194 104.581H132.918V105.693L133.194 105.861V104.581Z" fill="#B87749"/>
<path d="M133.194 104.581L136.385 103.037V104.15L133.194 105.861V104.581Z" fill="#774523"/>
<path d="M132.667 99.637V104.648L138.406 107.973V102.95L132.667 99.637Z" fill="#F4EEDF"/>
<path d="M138.406 102.95V107.973L141.526 106.195V101.193L138.406 102.95Z" fill="#DDD3B6"/>
<path d="M132.667 99.637L138.406 102.95L141.526 101.193L135.742 97.8468L132.667 99.637Z" fill="white"/>
<path d="M135.009 103.895C135.034 104.903 135.674 105.965 136.431 106.275C137.193 106.58 137.787 106.011 137.762 105.003C137.736 103.995 137.096 102.933 136.339 102.623C135.578 102.318 134.984 102.887 135.009 103.895Z" fill="#60361A"/>
<path d="M135.486 104.087C135.503 104.744 135.921 105.443 136.415 105.643C136.912 105.844 137.301 105.472 137.285 104.815C137.268 104.158 136.85 103.46 136.356 103.259C135.858 103.058 135.469 103.431 135.486 104.087Z" fill="#B87749"/>
<path d="M135.39 120.977L140.999 117.731V129.192L135.39 132.433V120.977Z" fill="#60361A"/>
<path d="M140.326 118.585L140.623 118.413V128.937L135.859 131.681V131.325L140.326 128.748V118.585Z" fill="#4C2C16"/>
<path d="M137.883 119.99L137.415 120.262L136.599 120.73L136.29 120.91L135.859 121.157V131.358L140.326 128.786V123.725V123.24V122.876V122.027V121.399V118.585L137.883 119.99Z" fill="#4AC3FF"/>
<path d="M143.768 116.238L149.377 112.996V124.457L143.768 127.699V116.238Z" fill="#60361A"/>
<path d="M148.699 113.846L148.996 113.678V124.198L144.237 126.941V126.59L148.699 124.009V113.846Z" fill="#4C2C16"/>
<path d="M146.261 115.255L145.788 115.523L144.973 115.995L144.667 116.171L144.237 116.422V126.624L148.699 124.051V118.99V118.501V118.137V117.288V116.665V113.846L146.261 115.255Z" fill="#4AC3FF"/>
<path d="M152.146 111.553L157.755 108.312V119.772L152.146 123.014V111.553Z" fill="#60361A"/>
<path d="M157.082 109.161L157.379 108.989V119.513L152.615 122.257V121.906L157.082 119.325V109.161Z" fill="#4C2C16"/>
<path d="M154.639 110.57L154.17 110.838L153.355 111.311L153.045 111.486L152.615 111.737V121.939L157.082 119.367V114.306V113.816V113.452V112.603V111.98V109.161L154.639 110.57Z" fill="#4AC3FF"/>
<path d="M135.39 140.242L140.999 137.001V148.461L135.39 151.703V140.242Z" fill="#60361A"/>
<path d="M140.326 137.854L140.623 137.683V148.202L135.859 150.946V150.595L140.326 148.018V137.854Z" fill="#4C2C16"/>
<path d="M137.883 139.259L137.415 139.531L136.599 140L136.29 140.18L135.859 140.426V150.628L140.326 148.056V142.995V142.509V142.146V141.296V140.669V137.854L137.883 139.259Z" fill="#4AC3FF"/>
<path d="M143.768 135.508L149.377 132.266V143.722L143.768 146.968V135.508Z" fill="#60361A"/>
<path d="M148.699 133.115L148.996 132.944V143.467L144.237 146.211V145.86L148.699 143.279V133.115Z" fill="#4C2C16"/>
<path d="M146.261 134.521L145.788 134.792L144.973 135.265L144.667 135.441L144.237 135.688V145.893L148.699 143.317V138.26V137.77V137.407V136.558V135.934V133.115L146.261 134.521Z" fill="#4AC3FF"/>
<path d="M152.146 130.823L157.755 127.581V139.038L152.146 142.279V130.823Z" fill="#60361A"/>
<path d="M157.082 128.431L157.379 128.259V138.783L152.615 141.527V141.175L157.082 138.594V128.431Z" fill="#4C2C16"/>
<path d="M154.639 129.836L154.17 130.108L153.355 130.576L153.045 130.756L152.615 131.003V141.209L157.082 138.632V133.575V133.086V132.722V131.873V131.25V128.431L154.639 129.836Z" fill="#4AC3FF"/>
<path d="M116.945 117.476L111.336 114.235V121.019L116.945 124.26V117.476Z" fill="#774523"/>
<path d="M112.013 115.084L111.716 114.912V120.76L116.48 123.503V123.152L112.013 120.617V115.084Z" fill="#60361A"/>
<path d="M116.48 117.656L112.013 120.228V120.617L116.48 123.19V117.656Z" fill="#4AC3FF"/>
<path d="M115.74 117.229L112.013 119.375V119.739L116.045 117.409L115.74 117.229Z" fill="#4AC3FF"/>
<path d="M114.451 116.489L112.013 117.903V118.526L114.924 116.761L114.451 116.489Z" fill="#4AC3FF"/>
<path d="M112.013 115.084V117.903L114.452 116.489L112.013 115.084Z" fill="#6CD5FF"/>
<path d="M114.924 116.761L112.013 118.526V119.375L115.74 117.229L114.924 116.761Z" fill="#6CD5FF"/>
<path d="M116.045 117.409L112.013 119.739V120.228L116.48 117.656L116.045 117.409Z" fill="#6CD5FF"/>
<path d="M102.439 107.241V120.739L108.14 124.035V110.516L102.439 107.241Z" fill="#60361A"/>
<path d="M107.475 110.913L103.008 113.482V121.069L107.475 123.641V110.913Z" fill="#4AC3FF"/>
<path d="M106.735 110.487L103.008 112.628V112.992L107.045 110.663L106.735 110.487Z" fill="#4AC3FF"/>
<path d="M105.447 109.747L103.008 111.156V111.779L105.919 110.014L105.447 109.747Z" fill="#4AC3FF"/>
<path d="M103.008 108.337V111.156L105.447 109.747L103.008 108.337Z" fill="#6CD5FF"/>
<path d="M105.919 110.014L103.008 111.779V112.628L106.735 110.487L105.919 110.014Z" fill="#6CD5FF"/>
<path d="M107.045 110.663L103.008 112.992V113.482L107.475 110.913L107.045 110.663Z" fill="#6CD5FF"/>
<path d="M97.9888 121.722V122.349L106.245 127.121V126.486L97.9888 121.722Z" fill="#60361A"/>
<path d="M109.483 124.67L106.246 126.486V127.121L109.483 125.302V124.67Z" fill="#4C2C16"/>
<path d="M109.483 124.67L106.245 126.486L97.9888 121.722L101.23 119.906L109.483 124.67Z" fill="#774523"/>
<path d="M98.4573 121.722C98.4573 121.655 98.5577 121.604 98.679 121.604C98.8003 121.604 98.9006 121.659 98.9006 121.722C98.9006 121.784 98.8003 121.839 98.679 121.839C98.5577 121.839 98.4573 121.784 98.4573 121.722Z" fill="#462712"/>
<path d="M98.9006 114.966H98.4573V121.722H98.9006V114.966Z" fill="#462712"/>
<path d="M98.6831 115.084C98.8055 115.084 98.9048 115.031 98.9048 114.966C98.9048 114.902 98.8055 114.849 98.6831 114.849C98.5607 114.849 98.4614 114.902 98.4614 114.966C98.4614 115.031 98.5607 115.084 98.6831 115.084Z" fill="#60361A"/>
<path d="M106.308 125.804L98.491 121.299L101.072 119.856L101.193 120.074L98.9971 121.303L106.308 125.519L108.634 124.193L108.759 124.407L106.308 125.804Z" fill="#462712"/>
<path d="M106.308 123.909L98.491 119.404L101.072 117.961L101.193 118.179L98.9971 119.409L106.308 123.62L108.634 122.295L108.759 122.512L106.308 123.909Z" fill="#462712"/>
<path d="M106.308 121.868L98.491 117.359L101.072 115.916L101.193 116.133L98.9971 117.363L106.308 121.579L108.634 120.253L108.759 120.471L106.308 121.868Z" fill="#462712"/>
<path d="M106.308 119.877L98.491 115.372L101.072 113.929L101.193 114.147L98.9971 115.376L106.308 119.588L108.634 118.267L108.759 118.48L106.308 119.877Z" fill="#462712"/>
<path d="M106.245 126.197C106.368 126.197 106.467 126.145 106.467 126.08C106.467 126.015 106.368 125.963 106.245 125.963C106.123 125.963 106.023 126.015 106.023 126.08C106.023 126.145 106.123 126.197 106.245 126.197Z" fill="#462712"/>
<path d="M106.467 119.329H106.023V126.084H106.467V119.329Z" fill="#462712"/>
<path d="M106.024 119.329C106.024 119.262 106.124 119.212 106.246 119.212C106.367 119.212 106.467 119.266 106.467 119.329C106.467 119.392 106.367 119.446 106.246 119.446C106.124 119.446 106.024 119.392 106.024 119.329Z" fill="#60361A"/>
<path d="M101.13 120.467C101.252 120.467 101.351 120.414 101.351 120.35C101.351 120.285 101.252 120.233 101.13 120.233C101.007 120.233 100.908 120.285 100.908 120.35C100.908 120.414 101.007 120.467 101.13 120.467Z" fill="#462712"/>
<path d="M101.351 113.595H100.908V120.35H101.351V113.595Z" fill="#462712"/>
<path d="M100.908 113.595C100.908 113.528 101.009 113.477 101.13 113.477C101.251 113.477 101.352 113.532 101.352 113.595C101.352 113.657 101.251 113.712 101.13 113.712C101.009 113.712 100.908 113.657 100.908 113.595Z" fill="#60361A"/>
<path d="M108.697 124.825C108.819 124.825 108.918 124.773 108.918 124.708C108.918 124.643 108.819 124.591 108.697 124.591C108.574 124.591 108.475 124.643 108.475 124.708C108.475 124.773 108.574 124.825 108.697 124.825Z" fill="#462712"/>
<path d="M108.918 117.953H108.475V124.708H108.918V117.953Z" fill="#462712"/>
<path d="M108.697 118.07C108.819 118.07 108.918 118.018 108.918 117.953C108.918 117.888 108.819 117.836 108.697 117.836C108.574 117.836 108.475 117.888 108.475 117.953C108.475 118.018 108.574 118.07 108.697 118.07Z" fill="#60361A"/>
<path d="M107.253 125.356C107.253 125.289 107.354 125.239 107.475 125.239C107.596 125.239 107.697 125.294 107.697 125.356C107.697 125.419 107.596 125.473 107.475 125.473C107.354 125.473 107.253 125.419 107.253 125.356Z" fill="#462712"/>
<path d="M107.697 118.601H107.253V125.356H107.697V118.601Z" fill="#462712"/>
<path d="M107.475 118.718C107.598 118.718 107.697 118.666 107.697 118.601C107.697 118.537 107.598 118.484 107.475 118.484C107.353 118.484 107.253 118.537 107.253 118.601C107.253 118.666 107.353 118.718 107.475 118.718Z" fill="#60361A"/>
<path d="M99.6829 121.036C99.6829 120.969 99.7832 120.918 99.9045 120.918C100.026 120.918 100.126 120.973 100.126 121.036C100.126 121.098 100.026 121.153 99.9045 121.153C99.7832 121.153 99.6829 121.098 99.6829 121.036Z" fill="#462712"/>
<path d="M100.126 114.281H99.6829V121.036H100.126V114.281Z" fill="#462712"/>
<path d="M99.9045 114.398C100.027 114.398 100.126 114.345 100.126 114.281C100.126 114.216 100.027 114.163 99.9045 114.163C99.7821 114.163 99.6829 114.216 99.6829 114.281C99.6829 114.345 99.7821 114.398 99.9045 114.398Z" fill="#60361A"/>
<path d="M120.262 117.756V131.258L125.959 134.55V121.036L120.262 117.756Z" fill="#60361A"/>
<path d="M125.294 121.429L120.827 123.997V131.588L125.294 134.161V121.429Z" fill="#4AC3FF"/>
<path d="M124.553 121.002L120.827 123.148V123.512L124.863 121.182L124.553 121.002Z" fill="#4AC3FF"/>
<path d="M123.269 120.262L120.827 121.671V122.299L123.738 120.534L123.269 120.262Z" fill="#4AC3FF"/>
<path d="M120.826 118.856V121.671L123.269 120.262L120.826 118.856Z" fill="#6CD5FF"/>
<path d="M123.738 120.534L120.827 122.299V123.148L124.553 121.002L123.738 120.534Z" fill="#6CD5FF"/>
<path d="M124.863 121.182L120.827 123.512V123.997L125.294 121.429L124.863 121.182Z" fill="#6CD5FF"/>
<path d="M115.807 132.237V132.868L124.068 137.641V137.001L115.807 132.237Z" fill="#60361A"/>
<path d="M127.301 135.186L124.068 137.001V137.641L127.301 135.821V135.186Z" fill="#4C2C16"/>
<path d="M127.301 135.186L124.068 137.001L115.807 132.237L119.053 130.426L127.301 135.186Z" fill="#774523"/>
<path d="M116.28 132.241C116.28 132.174 116.38 132.124 116.501 132.124C116.623 132.124 116.723 132.178 116.723 132.241C116.723 132.304 116.623 132.358 116.501 132.358C116.38 132.358 116.28 132.304 116.28 132.241Z" fill="#462712"/>
<path d="M116.723 125.486H116.28V132.241H116.723V125.486Z" fill="#462712"/>
<path d="M116.28 125.486C116.28 125.419 116.38 125.369 116.501 125.369C116.623 125.369 116.723 125.423 116.723 125.486C116.723 125.549 116.623 125.603 116.501 125.603C116.38 125.603 116.28 125.549 116.28 125.486Z" fill="#60361A"/>
<path d="M124.13 136.323L116.309 131.818L118.89 130.371L119.011 130.589L116.815 131.818L124.13 136.035L126.456 134.709L126.577 134.926L124.13 136.323Z" fill="#462712"/>
<path d="M124.13 134.424L116.309 129.92L118.89 128.477L119.011 128.694L116.815 129.924L124.13 134.14L126.456 132.814L126.577 133.031L124.13 134.424Z" fill="#462712"/>
<path d="M124.13 132.383L116.309 127.878L118.89 126.431L119.011 126.649L116.815 127.878L124.13 132.095L126.456 130.769L126.577 130.986L124.13 132.383Z" fill="#462712"/>
<path d="M124.13 130.396L116.309 125.892L118.89 124.444L119.011 124.662L116.815 125.892L124.13 130.108L126.456 128.782L126.577 128.999L124.13 130.396Z" fill="#462712"/>
<path d="M123.846 136.599C123.846 136.532 123.946 136.482 124.068 136.482C124.189 136.482 124.289 136.537 124.289 136.599C124.289 136.662 124.189 136.716 124.068 136.716C123.946 136.716 123.846 136.662 123.846 136.599Z" fill="#462712"/>
<path d="M124.289 129.844H123.846V136.599H124.289V129.844Z" fill="#462712"/>
<path d="M123.846 129.844C123.846 129.777 123.947 129.727 124.068 129.727C124.189 129.727 124.29 129.782 124.29 129.844C124.29 129.907 124.189 129.961 124.068 129.961C123.947 129.961 123.846 129.907 123.846 129.844Z" fill="#60361A"/>
<path d="M118.952 130.982C119.075 130.982 119.174 130.93 119.174 130.865C119.174 130.8 119.075 130.748 118.952 130.748C118.83 130.748 118.73 130.8 118.73 130.865C118.73 130.93 118.83 130.982 118.952 130.982Z" fill="#462712"/>
<path d="M119.174 124.11H118.73V130.865H119.174V124.11Z" fill="#462712"/>
<path d="M118.953 124.227C119.075 124.227 119.174 124.175 119.174 124.11C119.174 124.045 119.075 123.993 118.953 123.993C118.83 123.993 118.731 124.045 118.731 124.11C118.731 124.175 118.83 124.227 118.953 124.227Z" fill="#60361A"/>
<path d="M126.515 135.34C126.637 135.34 126.736 135.288 126.736 135.223C126.736 135.158 126.637 135.106 126.515 135.106C126.392 135.106 126.293 135.158 126.293 135.223C126.293 135.288 126.392 135.34 126.515 135.34Z" fill="#462712"/>
<path d="M126.736 128.472H126.293V135.227H126.736V128.472Z" fill="#462712"/>
<path d="M126.515 128.589C126.637 128.589 126.736 128.537 126.736 128.472C126.736 128.408 126.637 128.355 126.515 128.355C126.392 128.355 126.293 128.408 126.293 128.472C126.293 128.537 126.392 128.589 126.515 128.589Z" fill="#60361A"/>
<path d="M125.072 135.876C125.072 135.809 125.172 135.759 125.293 135.759C125.415 135.759 125.515 135.813 125.515 135.876C125.515 135.938 125.415 135.993 125.293 135.993C125.172 135.993 125.072 135.938 125.072 135.876Z" fill="#462712"/>
<path d="M125.515 129.121H125.072V135.876H125.515V129.121Z" fill="#462712"/>
<path d="M125.072 129.121C125.072 129.054 125.172 129.004 125.293 129.004C125.415 129.004 125.515 129.058 125.515 129.121C125.515 129.183 125.415 129.238 125.293 129.238C125.172 129.238 125.072 129.183 125.072 129.121Z" fill="#60361A"/>
<path d="M117.727 131.668C117.849 131.668 117.949 131.615 117.949 131.551C117.949 131.486 117.849 131.434 117.727 131.434C117.605 131.434 117.505 131.486 117.505 131.551C117.505 131.615 117.605 131.668 117.727 131.668Z" fill="#462712"/>
<path d="M117.949 124.796H117.505V131.551H117.949V124.796Z" fill="#462712"/>
<path d="M117.505 124.796C117.505 124.729 117.606 124.679 117.727 124.679C117.848 124.679 117.949 124.733 117.949 124.796C117.949 124.859 117.848 124.913 117.727 124.913C117.606 124.913 117.505 124.859 117.505 124.796Z" fill="#60361A"/>
<path d="M116.945 136.892L111.336 133.646V140.435L116.945 143.676V136.892Z" fill="#774523"/>
<path d="M112.013 134.5L111.716 134.328V140.176L116.48 142.919V142.568L112.013 140.033V134.5Z" fill="#60361A"/>
<path d="M116.48 137.072L112.013 139.64V140.033L116.48 142.606V137.072Z" fill="#4AC3FF"/>
<path d="M115.74 136.645L112.013 138.791V139.155L116.045 136.825L115.74 136.645Z" fill="#4AC3FF"/>
<path d="M114.451 135.905L112.013 137.315V137.942L114.924 136.177L114.451 135.905Z" fill="#4AC3FF"/>
<path d="M112.013 134.5V137.315L114.452 135.905L112.013 134.5Z" fill="#6CD5FF"/>
<path d="M114.924 136.177L112.013 137.942V138.791L115.74 136.645L114.924 136.177Z" fill="#6CD5FF"/>
<path d="M116.045 136.825L112.013 139.155V139.64L116.48 137.072L116.045 136.825Z" fill="#6CD5FF"/>
<path d="M102.439 126.653V140.155L108.14 143.446V129.932L102.439 126.653Z" fill="#60361A"/>
<path d="M107.475 130.325L103.008 132.898V140.485L107.475 143.057V130.325Z" fill="#4AC3FF"/>
<path d="M106.735 129.899L103.008 132.044V132.408L107.045 130.079L106.735 129.899Z" fill="#4AC3FF"/>
<path d="M105.447 129.158L103.008 130.568V131.195L105.919 129.43L105.447 129.158Z" fill="#4AC3FF"/>
<path d="M103.008 127.753V130.568L105.447 129.158L103.008 127.753Z" fill="#6CD5FF"/>
<path d="M105.919 129.43L103.008 131.195V132.044L106.735 129.899L105.919 129.43Z" fill="#6CD5FF"/>
<path d="M107.045 130.079L103.008 132.408V132.898L107.475 130.325L107.045 130.079Z" fill="#6CD5FF"/>
<path d="M97.9888 141.133V141.765L106.245 146.537V145.897L97.9888 141.133Z" fill="#4C2C16"/>
<path d="M109.483 144.082L106.246 145.897V146.537L109.483 144.718V144.082Z" fill="#3D220F"/>
<path d="M109.483 144.082L106.245 145.897L97.9888 141.133L101.23 139.322L109.483 144.082Z" fill="#774523"/>
<path d="M98.6831 141.255C98.8055 141.255 98.9048 141.202 98.9048 141.138C98.9048 141.073 98.8055 141.02 98.6831 141.02C98.5607 141.02 98.4614 141.073 98.4614 141.138C98.4614 141.202 98.5607 141.255 98.6831 141.255Z" fill="#462712"/>
<path d="M98.9006 134.383H98.4573V141.138H98.9006V134.383Z" fill="#462712"/>
<path d="M98.4573 134.383C98.4573 134.316 98.5577 134.265 98.679 134.265C98.8003 134.265 98.9006 134.32 98.9006 134.383C98.9006 134.445 98.8003 134.5 98.679 134.5C98.5577 134.5 98.4573 134.445 98.4573 134.383Z" fill="#60361A"/>
<path d="M106.308 145.22L98.491 140.715L101.072 139.268L101.193 139.49L98.9971 140.715L106.308 144.931L108.634 143.605L108.759 143.823L106.308 145.22Z" fill="#462712"/>
<path d="M106.308 143.325L98.491 138.82L101.072 137.373L101.193 137.591L98.9971 138.82L106.308 143.036L108.634 141.711L108.759 141.928L106.308 143.325Z" fill="#462712"/>
<path d="M106.308 141.28L98.491 136.775L101.072 135.332L101.193 135.549L98.9971 136.779L106.308 140.991L108.634 139.665L108.759 139.883L106.308 141.28Z" fill="#462712"/>
<path d="M106.308 139.293L98.491 134.788L101.072 133.341L101.193 133.559L98.9971 134.792L106.308 139.004L108.634 137.678L108.759 137.896L106.308 139.293Z" fill="#462712"/>
<path d="M106.023 145.496C106.023 145.429 106.124 145.379 106.245 145.379C106.366 145.379 106.467 145.433 106.467 145.496C106.467 145.559 106.366 145.613 106.245 145.613C106.124 145.613 106.023 145.559 106.023 145.496Z" fill="#462712"/>
<path d="M106.467 138.741H106.023V145.496H106.467V138.741Z" fill="#462712"/>
<path d="M106.246 138.858C106.368 138.858 106.467 138.806 106.467 138.741C106.467 138.676 106.368 138.624 106.246 138.624C106.123 138.624 106.024 138.676 106.024 138.741C106.024 138.806 106.123 138.858 106.246 138.858Z" fill="#60361A"/>
<path d="M101.13 139.879C101.252 139.879 101.351 139.826 101.351 139.761C101.351 139.697 101.252 139.644 101.13 139.644C101.007 139.644 100.908 139.697 100.908 139.761C100.908 139.826 101.007 139.879 101.13 139.879Z" fill="#462712"/>
<path d="M101.351 133.006H100.908V139.761H101.351V133.006Z" fill="#462712"/>
<path d="M101.13 133.124C101.252 133.124 101.352 133.071 101.352 133.006C101.352 132.942 101.252 132.889 101.13 132.889C101.007 132.889 100.908 132.942 100.908 133.006C100.908 133.071 101.007 133.124 101.13 133.124Z" fill="#60361A"/>
<path d="M108.475 144.124C108.475 144.057 108.575 144.007 108.697 144.007C108.818 144.007 108.918 144.061 108.918 144.124C108.918 144.187 108.818 144.241 108.697 144.241C108.575 144.241 108.475 144.187 108.475 144.124Z" fill="#462712"/>
<path d="M108.918 137.369H108.475V144.124H108.918V137.369Z" fill="#462712"/>
<path d="M108.475 137.369C108.475 137.302 108.575 137.252 108.697 137.252C108.818 137.252 108.918 137.306 108.918 137.369C108.918 137.432 108.818 137.486 108.697 137.486C108.575 137.486 108.475 137.432 108.475 137.369Z" fill="#60361A"/>
<path d="M107.475 144.889C107.598 144.889 107.697 144.837 107.697 144.772C107.697 144.708 107.598 144.655 107.475 144.655C107.353 144.655 107.253 144.708 107.253 144.772C107.253 144.837 107.353 144.889 107.475 144.889Z" fill="#462712"/>
<path d="M107.697 138.017H107.253V144.772H107.697V138.017Z" fill="#462712"/>
<path d="M107.475 138.134C107.598 138.134 107.697 138.082 107.697 138.017C107.697 137.953 107.598 137.9 107.475 137.9C107.353 137.9 107.253 137.953 107.253 138.017C107.253 138.082 107.353 138.134 107.475 138.134Z" fill="#60361A"/>
<path d="M99.9045 140.569C100.027 140.569 100.126 140.516 100.126 140.452C100.126 140.387 100.027 140.334 99.9045 140.334C99.7821 140.334 99.6829 140.387 99.6829 140.452C99.6829 140.516 99.7821 140.569 99.9045 140.569Z" fill="#462712"/>
<path d="M100.126 133.697H99.6829V140.452H100.126V133.697Z" fill="#462712"/>
<path d="M99.9045 133.814C100.027 133.814 100.126 133.761 100.126 133.697C100.126 133.632 100.027 133.579 99.9045 133.579C99.7821 133.579 99.6829 133.632 99.6829 133.697C99.6829 133.761 99.7821 133.814 99.9045 133.814Z" fill="#60361A"/>
<path d="M120.262 137.172V150.674L125.959 153.966V140.447L120.262 137.172Z" fill="#60361A"/>
<path d="M125.294 140.845L120.827 143.413V151L125.294 153.573V140.845Z" fill="#4AC3FF"/>
<path d="M124.553 140.418L120.827 142.56V142.924L124.863 140.594L124.553 140.418Z" fill="#4AC3FF"/>
<path d="M123.269 139.678L120.827 141.087V141.711L123.738 139.95L123.269 139.678Z" fill="#4AC3FF"/>
<path d="M120.826 138.272V141.087L123.269 139.678L120.826 138.272Z" fill="#6CD5FF"/>
<path d="M123.738 139.95L120.827 141.711V142.56L124.553 140.418L123.738 139.95Z" fill="#6CD5FF"/>
<path d="M124.863 140.594L120.827 142.924V143.413L125.294 140.845L124.863 140.594Z" fill="#6CD5FF"/>
<path d="M115.807 151.653V152.284L124.068 157.053V156.417L115.807 151.653Z" fill="#4C2C16"/>
<path d="M127.301 154.602L124.068 156.417V157.053L127.301 155.237V154.602Z" fill="#3D220F"/>
<path d="M127.301 154.602L124.068 156.417L115.807 151.653L119.053 149.838L127.301 154.602Z" fill="#774523"/>
<path d="M116.28 151.653C116.28 151.586 116.38 151.536 116.501 151.536C116.623 151.536 116.723 151.59 116.723 151.653C116.723 151.716 116.623 151.77 116.501 151.77C116.38 151.77 116.28 151.716 116.28 151.653Z" fill="#462712"/>
<path d="M116.723 144.898H116.28V151.653H116.723V144.898Z" fill="#462712"/>
<path d="M116.28 144.898C116.28 144.831 116.38 144.781 116.501 144.781C116.623 144.781 116.723 144.835 116.723 144.898C116.723 144.961 116.623 145.015 116.501 145.015C116.38 145.015 116.28 144.961 116.28 144.898Z" fill="#60361A"/>
<path d="M124.13 155.735L116.309 151.23L118.89 149.787L119.011 150.005L116.815 151.235L124.13 155.451L126.456 154.125L126.577 154.342L124.13 155.735Z" fill="#462712"/>
<path d="M124.13 153.84L116.309 149.336L118.89 147.893L119.011 148.11L116.815 149.34L124.13 153.552L126.456 152.226L126.577 152.443L124.13 153.84Z" fill="#462712"/>
<path d="M124.13 151.799L116.309 147.29L118.89 145.847L119.011 146.065L116.815 147.294L124.13 151.511L126.456 150.185L126.577 150.402L124.13 151.799Z" fill="#462712"/>
<path d="M124.13 149.808L116.309 145.303L118.89 143.86L119.011 144.078L116.815 145.308L124.13 149.524L126.456 148.198L126.577 148.411L124.13 149.808Z" fill="#462712"/>
<path d="M123.846 156.015C123.846 155.948 123.946 155.898 124.068 155.898C124.189 155.898 124.289 155.953 124.289 156.015C124.289 156.078 124.189 156.132 124.068 156.132C123.946 156.132 123.846 156.078 123.846 156.015Z" fill="#462712"/>
<path d="M124.289 149.26H123.846V156.015H124.289V149.26Z" fill="#462712"/>
<path d="M123.846 149.26C123.846 149.193 123.947 149.143 124.068 149.143C124.189 149.143 124.29 149.198 124.29 149.26C124.29 149.323 124.189 149.377 124.068 149.377C123.947 149.377 123.846 149.323 123.846 149.26Z" fill="#60361A"/>
<path d="M118.73 150.281C118.73 150.214 118.831 150.164 118.952 150.164C119.073 150.164 119.174 150.218 119.174 150.281C119.174 150.344 119.073 150.398 118.952 150.398C118.831 150.398 118.73 150.344 118.73 150.281Z" fill="#462712"/>
<path d="M119.174 143.526H118.73V150.281H119.174V143.526Z" fill="#462712"/>
<path d="M118.953 143.643C119.075 143.643 119.174 143.591 119.174 143.526C119.174 143.461 119.075 143.409 118.953 143.409C118.83 143.409 118.731 143.461 118.731 143.526C118.731 143.591 118.83 143.643 118.953 143.643Z" fill="#60361A"/>
<path d="M126.515 154.756C126.637 154.756 126.736 154.704 126.736 154.639C126.736 154.575 126.637 154.522 126.515 154.522C126.392 154.522 126.293 154.575 126.293 154.639C126.293 154.704 126.392 154.756 126.515 154.756Z" fill="#462712"/>
<path d="M126.736 147.884H126.293V154.639H126.736V147.884Z" fill="#462712"/>
<path d="M126.515 148.001C126.637 148.001 126.736 147.949 126.736 147.884C126.736 147.819 126.637 147.767 126.515 147.767C126.392 147.767 126.293 147.819 126.293 147.884C126.293 147.949 126.392 148.001 126.515 148.001Z" fill="#60361A"/>
<path d="M125.293 155.405C125.416 155.405 125.515 155.352 125.515 155.288C125.515 155.223 125.416 155.17 125.293 155.17C125.171 155.17 125.072 155.223 125.072 155.288C125.072 155.352 125.171 155.405 125.293 155.405Z" fill="#462712"/>
<path d="M125.515 148.537H125.072V155.292H125.515V148.537Z" fill="#462712"/>
<path d="M125.072 148.537C125.072 148.47 125.172 148.42 125.293 148.42C125.415 148.42 125.515 148.474 125.515 148.537C125.515 148.599 125.415 148.654 125.293 148.654C125.172 148.654 125.072 148.599 125.072 148.537Z" fill="#60361A"/>
<path d="M117.505 150.967C117.505 150.9 117.606 150.85 117.727 150.85C117.848 150.85 117.949 150.904 117.949 150.967C117.949 151.03 117.848 151.084 117.727 151.084C117.606 151.084 117.505 151.03 117.505 150.967Z" fill="#462712"/>
<path d="M117.949 144.212H117.505V150.967H117.949V144.212Z" fill="#462712"/>
<path d="M117.727 144.329C117.849 144.329 117.949 144.276 117.949 144.212C117.949 144.147 117.849 144.095 117.727 144.095C117.605 144.095 117.505 144.147 117.505 144.212C117.505 144.276 117.605 144.329 117.727 144.329Z" fill="#60361A"/>
<path d="M100.114 165.698V149.495C100.114 147.094 101.586 145.977 103.389 147.018C105.191 148.06 106.664 150.875 106.664 153.276V169.513L100.114 165.698Z" fill="#F4EEDF"/>
<path d="M100.549 165.987V149.469C100.549 147.466 101.778 146.537 103.28 147.407C104.781 148.273 106.011 150.62 106.011 152.623V169.141L100.553 165.987H100.549Z" fill="#60361A"/>
<path d="M100.908 150.243V149.695C100.908 147.972 101.967 147.173 103.259 147.918C104.552 148.662 105.61 150.682 105.61 152.41V152.958L100.908 150.243Z" fill="#4AC3FF"/>
<path d="M100.946 150.649L105.61 153.343V168.902L100.946 166.217V150.649Z" fill="#774523"/>
<path d="M103.615 152.79L105.212 153.711V162.695L103.615 161.771V152.79Z" fill="#60361A"/>
<path d="M101.377 151.498L102.975 152.418V161.403L101.377 160.478V151.498Z" fill="#60361A"/>
<path d="M117.426 158.73L110.771 154.882V167.56L117.426 171.408V158.73Z" fill="#F4EEDF"/>
<path d="M116.903 159.035L111.294 155.794V167.254L116.903 170.496V159.035Z" fill="#60361A"/>
<path d="M111.967 156.643L111.67 156.475V166.995L116.434 169.739V169.387L111.967 166.811V156.643Z" fill="#4C2C16"/>
<path d="M114.41 158.052L114.883 158.324L115.694 158.793L116.004 158.968L116.434 159.219V169.421L111.967 166.848V161.787V161.298V160.934V160.085V159.462V156.643L114.41 158.052Z" fill="#4AC3FF"/>
<path d="M111.967 156.689V159.504L114.41 158.094L111.967 156.689Z" fill="#6CD5FF"/>
<path d="M143.287 158.734L149.946 154.886V167.564L143.287 171.412V158.734Z" fill="#DDD3B6"/>
<path d="M143.81 159.039L149.419 155.798V167.258L143.81 170.5V159.039Z" fill="#60361A"/>
<path d="M148.746 156.651L149.043 156.48V166.999L144.279 169.743V169.392L148.746 166.815V156.651Z" fill="#4C2C16"/>
<path d="M146.303 158.056L145.835 158.328L145.019 158.797L144.709 158.977L144.279 159.223V169.425L148.746 166.853V161.792V161.306V160.943V160.093V159.466V156.651L146.303 158.056Z" fill="#4AC3FF"/>
<path d="M148.746 156.693V159.508L146.303 158.098L148.746 156.693Z" fill="#6CD5FF"/>
<path d="M151.669 153.911L158.324 150.063V162.741L151.669 166.589V153.911Z" fill="#DDD3B6"/>
<path d="M152.192 154.217L157.801 150.975V162.436L152.192 165.677V154.217Z" fill="#60361A"/>
<path d="M157.124 151.824L157.421 151.657V162.176L152.656 164.92V164.569L157.124 161.992V151.824Z" fill="#4C2C16"/>
<path d="M154.685 153.234L154.212 153.502L153.397 153.974L153.091 154.15L152.656 154.401V164.602L157.124 162.03V156.969V156.48V156.116V155.267V154.643V151.824L154.685 153.234Z" fill="#4AC3FF"/>
<path d="M157.124 151.87V154.685L154.685 153.276L157.124 151.87Z" fill="#6CD5FF"/>
<path d="M154.212 153.548L157.123 155.308V156.162L153.397 154.016L154.212 153.548Z" fill="#6CD5FF"/>
<path d="M153.091 154.192L157.124 156.526V157.011L152.656 154.443L153.091 154.192Z" fill="#6CD5FF"/>
<path d="M92.1912 139.452C90.882 138.695 89.8113 136.65 89.8113 134.905V107.981C89.8113 106.237 90.882 105.426 92.1912 106.183C93.5004 106.94 94.5712 108.985 94.5712 110.729V137.653C94.5712 139.398 93.5004 140.209 92.1912 139.452Z" fill="#FF4D4D"/>
<path d="M92.9483 140.042L93.718 139.586L93.6468 139.025L92.6514 139.611L92.9483 140.042Z" fill="#FF4D4D"/>
<path d="M89.8113 106.559L90.5809 106.099L91.2543 106.601L90.1961 107.463L89.8113 106.559Z" fill="#FF4D4D"/>
<path d="M91.3799 139.937C90.0708 139.18 89 137.135 89 135.391V108.467C89 106.722 90.0708 105.911 91.3799 106.668C92.6891 107.425 93.7599 109.47 93.7599 111.215V138.139C93.7599 139.883 92.6891 140.694 91.3799 139.937Z" fill="#FF7676"/>
<path d="M91.9069 111.754L90.8821 111.165V112.139L91.0913 112.273V112.683L90.2129 112.177V111.788L90.3342 111.842C90.3969 111.867 90.4388 111.863 90.4388 111.767V109.521L90.2338 109.387V108.977L91.108 109.483V109.872L90.9867 109.818C90.9198 109.788 90.8779 109.793 90.8779 109.914V110.663L91.9027 111.252V110.366L91.6977 110.232V109.822L92.5761 110.328V110.717L92.4548 110.663C92.3921 110.637 92.3502 110.642 92.3502 110.755V112.98L92.5552 113.114V113.524L91.681 113.017V112.628L91.8023 112.683C91.8692 112.712 91.9069 112.704 91.9069 112.582V111.746V111.754Z" fill="white"/>
<path d="M91.3841 117.744C90.7399 117.372 90.3342 116.577 90.3342 115.477C90.3342 114.243 90.9156 114.143 91.4259 114.435C91.9655 114.745 92.4507 115.473 92.4507 116.698C92.4507 117.802 92.0198 118.112 91.3841 117.744ZM91.4092 117.271C91.8693 117.535 91.9989 117.033 91.9989 116.451C91.9989 115.958 91.9027 115.209 91.4008 114.921C90.9365 114.653 90.786 115.138 90.786 115.715C90.786 116.292 90.8863 116.97 91.4092 117.271Z" fill="white"/>
<path d="M91.752 121.826C91.752 121.521 91.5471 121.316 91.2919 121.077C90.9322 120.739 90.6018 120.354 90.6018 119.739C90.6018 119.124 90.9406 118.99 91.4425 119.279C91.6809 119.417 91.9068 119.609 92.1243 119.869V120.592L91.7562 120.412V120.132C91.7562 120.04 91.7437 119.994 91.6809 119.927C91.614 119.86 91.5178 119.793 91.4467 119.752C91.2334 119.626 91.0661 119.647 91.0661 119.948C91.0661 120.249 91.2752 120.45 91.5471 120.718C91.8775 121.048 92.2247 121.446 92.2247 122.069C92.2247 122.692 91.8482 122.834 91.3463 122.55C91.0577 122.382 90.8319 122.19 90.6144 121.931V121.169L90.9824 121.349V121.642C90.9824 121.734 90.995 121.78 91.0577 121.847C91.1246 121.918 91.2208 121.985 91.317 122.039C91.5555 122.177 91.752 122.19 91.752 121.826Z" fill="white"/>
<path d="M91.1788 124.49L90.8944 124.327C90.8191 124.281 90.8107 124.348 90.8107 124.428V124.654L90.4426 124.407V123.587L92.3374 124.679V125.499L91.9693 125.319V125.093C91.9693 125.001 91.9609 124.938 91.8647 124.884L91.618 124.741V127.05L91.9024 127.23V127.64L90.8818 127.05V126.657L91.0742 126.753C91.1411 126.783 91.1788 126.774 91.1788 126.678V124.486V124.49Z" fill="white"/>
<path d="M90.5181 131.676V131.287L90.6394 131.342C90.7021 131.367 90.7439 131.363 90.7439 131.266V129.02L90.539 128.886V128.477L92.1953 129.434V130.238L91.8272 130.058V129.865C91.8272 129.773 91.8189 129.71 91.7227 129.656L91.1873 129.347V130.171L92.0238 130.652V131.145L91.1873 130.664V131.568L91.7687 131.902C91.8607 131.957 91.8691 131.902 91.8691 131.806V131.563L92.2371 131.81V132.668L90.5181 131.676Z" fill="white"/>
<path d="M90.5349 136.516V136.123L90.6562 136.177C90.7189 136.202 90.7608 136.198 90.7608 136.102V133.856L90.5558 133.722V133.312L91.43 133.814V134.207L91.3087 134.152C91.246 134.127 91.2041 134.132 91.2041 134.245V136.399L91.8064 136.746C91.8817 136.788 91.8901 136.729 91.8901 136.641V136.302L92.2582 136.549V137.507L90.5391 136.516H90.5349Z" fill="white"/>
</g>
</svg>
