<svg width="165" height="166" viewBox="0 0 165 166" fill="none" xmlns="http://www.w3.org/2000/svg">
<mask id="mask0_936_6350" style="mask-type:alpha" maskUnits="userSpaceOnUse" x="0" y="0" width="158" height="157">
<rect x="0.5" y="0.5" width="157" height="156" rx="9.5" fill="white" stroke="#EFEFEF"/>
</mask>
<g mask="url(#mask0_936_6350)">
<mask id="mask1_936_6350" style="mask-type:luminance" maskUnits="userSpaceOnUse" x="66" y="75" width="149" height="110">
<path d="M215 75H66V184.321H215V75Z" fill="white"/>
</mask>
<g mask="url(#mask1_936_6350)">
<mask id="mask2_936_6350" style="mask-type:luminance" maskUnits="userSpaceOnUse" x="66" y="75" width="149" height="110">
<path d="M215 75H66V184.321H215V75Z" fill="white"/>
</mask>
<g mask="url(#mask2_936_6350)">
<path d="M119.032 90.7078C119.03 89.7351 118.95 88.7642 118.794 87.8041C118.553 86.3045 118.152 84.835 117.597 83.4207C116.357 80.2459 114.424 77.55 112.251 76.2971C111.73 75.9871 111.16 75.7693 110.566 75.6532C110.117 75.5674 109.656 75.5682 109.208 75.6557L109.114 75.6764C106.947 76.178 105.469 78.837 105.469 82.8825C105.12 90.4029 112.251 104.782 112.251 104.782C112.957 104.143 113.619 103.456 114.23 102.725C116.312 100.278 119.259 95.8675 119.031 90.7078M112.274 92.8313C110.14 91.5992 108.409 87.9232 108.409 84.6199C108.409 81.4671 109.985 79.7927 111.985 80.7175C112.084 80.7623 112.18 80.8121 112.274 80.8667C114.408 82.0976 116.139 85.7736 116.139 89.0781C116.139 90.5366 115.802 91.6797 115.242 92.3931C114.532 93.2976 113.466 93.5187 112.274 92.8313Z" fill="#F35321"/>
<path d="M114.954 92.2423C112.819 91.0118 111.089 87.3342 111.089 84.0309C111.089 82.5736 111.424 81.4321 111.984 80.7171C109.984 79.7915 108.408 81.4663 108.408 84.6195C108.408 87.924 110.139 91.6004 112.273 92.8309C113.465 93.5183 114.532 93.2972 115.241 92.3923C115.145 92.348 115.048 92.298 114.951 92.2419" fill="#BA4019"/>
<path d="M112.251 104.782C112.957 104.143 113.619 103.456 114.23 102.725C116.312 100.279 119.259 95.8675 119.031 90.7081C119.028 89.7354 118.948 88.7643 118.792 87.8041C118.676 86.2804 118.27 84.7929 117.596 83.4211C116.355 80.2459 114.423 77.5504 112.249 76.2975C111.729 75.9874 111.159 75.7694 110.564 75.6532C110.116 75.5677 109.655 75.5687 109.207 75.6561L111.579 75.1439L112.117 75.0288C113.104 74.9378 114.093 75.1769 114.929 75.7085C118.675 77.8687 121.71 84.3215 121.71 90.1187C121.926 95.0004 119.301 99.2098 117.254 101.722C115.98 103.277 114.216 104.356 112.25 104.782" fill="#BA4019"/>
<path d="M214.157 133.166C213.944 133.358 213.711 133.526 213.461 133.667L133.446 179.828C131.163 181.142 127.181 180.979 124.545 179.46L68.1793 146.939C67.6873 146.662 67.2381 146.316 66.8457 145.91C67.0588 145.719 67.2919 145.551 67.541 145.41L70.9839 143.424L147.556 99.2501C148.796 98.5346 150.54 98.2574 152.296 98.3997C153.755 98.4994 155.174 98.9156 156.455 99.6192L212.823 132.14C213.316 132.414 213.765 132.76 214.157 133.166Z" stroke="#423E47" stroke-width="0.638" stroke-miterlimit="10"/>
<path d="M215 131.375V131.515C214.98 131.833 214.895 132.144 214.749 132.428C214.604 132.712 214.403 132.963 214.157 133.166C213.944 133.358 213.711 133.526 213.461 133.667L133.446 179.828C131.163 181.142 127.181 180.979 124.544 179.46L68.1793 146.939C67.6873 146.662 67.2381 146.316 66.8458 145.91C66.335 145.416 66.0324 144.746 66 144.037C66 143.2 66.5057 142.404 67.541 141.807L147.556 95.6439C149.837 94.3293 153.821 94.4952 156.455 96.0147L212.821 128.531C214.233 129.344 214.97 130.382 214.998 131.377" fill="#423E47"/>
<path d="M129.853 177.736L71.1666 143.879C70.8818 143.716 70.8529 143.468 71.0978 143.327L150.191 97.6976C150.342 97.6292 150.508 97.5973 150.674 97.6044C150.84 97.6114 151.002 97.6573 151.147 97.7383L209.835 131.595C210.119 131.758 210.149 132.006 209.903 132.147L130.81 177.775C130.658 177.844 130.493 177.876 130.327 177.869C130.161 177.862 129.998 177.816 129.853 177.735" fill="#E8E5E1"/>
<path d="M215 131.515V135.119C214.972 135.928 214.463 136.692 213.461 137.271L133.446 183.432C131.163 184.749 127.181 184.583 124.544 183.066L68.1793 150.547C66.7392 149.716 66 148.65 66 147.642V144.039C66.0321 144.749 66.3347 145.419 66.8458 145.913C67.2382 146.319 67.6874 146.666 68.1793 146.942L124.544 179.463C127.18 180.982 131.163 181.145 133.446 179.829L213.461 133.667C213.711 133.526 213.944 133.358 214.157 133.167C214.403 132.964 214.604 132.712 214.749 132.428C214.894 132.144 214.98 131.833 215 131.515Z" fill="#2B282E"/>
<path d="M203.18 132.184L150.125 101.577C149.994 101.504 149.847 101.463 149.697 101.456C149.547 101.45 149.397 101.479 149.261 101.541L77.7595 142.79C77.708 142.819 77.6657 142.861 77.6375 142.912L203.351 132.584C203.437 132.458 203.378 132.299 203.179 132.184" fill="#1D9979"/>
<path d="M77.6352 142.912C77.5705 143.034 77.6352 143.181 77.8211 143.289L130.876 173.896C131.007 173.969 131.154 174.01 131.304 174.016C131.454 174.023 131.603 173.994 131.74 173.932L203.241 132.683C203.285 132.659 203.322 132.625 203.351 132.584L77.6352 142.912Z" fill="#25C098"/>
<path d="M105.974 159.53L167.615 123.97L161.641 120.523L100 156.084L105.974 159.53Z" fill="#E8E5E1"/>
<path d="M100.563 115.776V140.085L124.642 153.987L124.65 129.662L100.563 115.776Z" fill="#F7CA86"/>
<path d="M151.752 114.027L124.652 129.661L124.644 153.986L151.752 138.358L151.752 114.027Z" fill="#F3B069"/>
<path d="M114.124 147.922V134.025L120.144 137.487V151.392" fill="#2B282E"/>
<path d="M114.353 148.052L114.391 134.539L119.878 137.642L119.942 151.275" fill="#4E4A54"/>
<path d="M114.752 141.958V143.062" stroke="white" stroke-width="0.496" stroke-linecap="round" stroke-linejoin="round"/>
<path d="M129.578 132.127L136.967 127.874V142.061L129.59 146.317L129.578 132.127Z" fill="#B1E8E5"/>
<path d="M129.578 132.127L136.967 127.874V142.061L129.59 146.317L129.578 132.127Z" stroke="white" stroke-width="0.405" stroke-linecap="round" stroke-linejoin="round"/>
<path d="M135.744 128.577V141.525L129.589 145.075V146.316L136.966 142.06V127.873L135.744 128.577Z" fill="#6DE8E1"/>
<path d="M129.578 132.127L136.967 127.874V142.061L129.59 146.317L129.578 132.127Z" stroke="white" stroke-width="0.405" stroke-linecap="round" stroke-linejoin="round"/>
<path d="M135.744 141.525L136.967 142.06L129.59 146.316V145.075L135.744 141.525Z" fill="#5CC4BE"/>
<path d="M132.049 130.711V144.897" stroke="white" stroke-width="0.405" stroke-linecap="round" stroke-linejoin="round"/>
<path d="M134.508 129.292V143.479" stroke="white" stroke-width="0.405" stroke-linecap="round" stroke-linejoin="round"/>
<path d="M129.578 139.224L136.967 134.966" stroke="white" stroke-width="0.405" stroke-linecap="round" stroke-linejoin="round"/>
<path d="M139.427 126.439L146.816 122.185V136.373L139.439 140.629L139.427 126.439Z" fill="#B1E8E5"/>
<path d="M139.427 126.439L146.816 122.185V136.373L139.439 140.629L139.427 126.439Z" stroke="white" stroke-width="0.405" stroke-linecap="round" stroke-linejoin="round"/>
<path d="M145.592 122.89V135.836L139.437 139.387V140.627L146.815 136.372V122.185L145.592 122.89Z" fill="#6DE8E1"/>
<path d="M139.427 126.439L146.816 122.185V136.373L139.439 140.629L139.427 126.439Z" stroke="white" stroke-width="0.405" stroke-linecap="round" stroke-linejoin="round"/>
<path d="M145.592 135.836L146.816 136.372L139.438 140.627V139.387L145.592 135.836Z" fill="#5CC4BE"/>
<path d="M141.897 125.023V139.209" stroke="white" stroke-width="0.405" stroke-linecap="round" stroke-linejoin="round"/>
<path d="M144.356 123.604V137.79" stroke="white" stroke-width="0.405" stroke-linecap="round" stroke-linejoin="round"/>
<path d="M139.427 133.536L146.816 129.277" stroke="white" stroke-width="0.405" stroke-linecap="round" stroke-linejoin="round"/>
<path d="M169.818 124.461L151.751 114.027V138.358L169.818 148.781V124.461Z" fill="#F7CA86"/>
<path d="M156.064 121.427L165.506 126.875L165.496 141.379L156.064 135.938V121.427Z" fill="#B1E8E5"/>
<path d="M156.064 121.427L165.506 126.875L165.496 141.379L156.064 135.938V121.427Z" stroke="white" stroke-width="0.694" stroke-linecap="round" stroke-linejoin="round"/>
<path d="M164.256 126.154L164.247 139.395L156.064 134.675V135.939L165.496 141.381L165.507 126.876L164.256 126.154Z" fill="#6DE8E1"/>
<path d="M164.247 139.395L165.497 141.38L156.064 135.939V134.675L164.247 139.395Z" fill="#5CC4BE"/>
<path d="M156.053 129.59L165.516 135.037" stroke="white" stroke-width="0.694" stroke-linecap="round" stroke-linejoin="round"/>
<path d="M156.064 121.427L165.506 126.875L165.496 141.379L156.064 135.938V121.427Z" stroke="white" stroke-width="0.694" stroke-linecap="round" stroke-linejoin="round"/>
<path d="M102.503 119.316L111.946 124.763L111.936 139.268L102.503 133.827V119.316Z" fill="#B1E8E5"/>
<path d="M102.503 119.316L111.946 124.763L111.936 139.268L102.503 133.827V119.316Z" stroke="white" stroke-width="0.694" stroke-linecap="round" stroke-linejoin="round"/>
<path d="M110.696 124.042L110.686 137.283L102.503 132.561V133.825L111.935 139.268L111.946 124.764L110.696 124.042Z" fill="#6DE8E1"/>
<path d="M110.686 137.284L111.936 139.268L102.503 133.827V132.561L110.686 137.284Z" fill="#5CC4BE"/>
<path d="M105.69 121.118L105.625 135.653" stroke="white" stroke-width="0.694" stroke-linecap="round" stroke-linejoin="round"/>
<path d="M108.802 122.95L108.792 137.455" stroke="white" stroke-width="0.694" stroke-linecap="round" stroke-linejoin="round"/>
<path d="M102.493 127.479L111.955 132.926" stroke="white" stroke-width="0.694" stroke-linecap="round" stroke-linejoin="round"/>
<path d="M102.503 119.316L111.946 124.763L111.936 139.268L102.503 133.827V119.316Z" stroke="white" stroke-width="0.694" stroke-linecap="round" stroke-linejoin="round"/>
<path d="M112.607 108.816L100.563 115.775C106.569 119.231 118.651 126.196 124.651 129.66L112.607 108.816Z" fill="#F7CA86"/>
<path d="M157.784 82.7789L112.607 108.816L124.649 129.66L169.766 103.644L157.784 82.7789Z" fill="#4E4A54"/>
<path d="M115.587 107.048L127.641 127.897" stroke="#2B282E" stroke-width="0.221" stroke-miterlimit="10"/>
<path d="M118.625 105.34L130.678 126.189" stroke="#2B282E" stroke-width="0.221" stroke-miterlimit="10"/>
<path d="M121.663 103.631L133.685 124.426" stroke="#2B282E" stroke-width="0.221" stroke-miterlimit="10"/>
<path d="M124.701 101.923L136.696 122.672" stroke="#2B282E" stroke-width="0.221" stroke-miterlimit="10"/>
<path d="M127.738 100.215L139.732 120.961" stroke="#2B282E" stroke-width="0.221" stroke-miterlimit="10"/>
<path d="M130.776 98.5062L142.718 119.162" stroke="#2B282E" stroke-width="0.221" stroke-miterlimit="10"/>
<path d="M133.814 96.798L145.767 117.472" stroke="#2B282E" stroke-width="0.221" stroke-miterlimit="10"/>
<path d="M136.852 95.0895L148.788 115.736" stroke="#2B282E" stroke-width="0.221" stroke-miterlimit="10"/>
<path d="M139.751 93.2866L151.687 113.933" stroke="#2B282E" stroke-width="0.221" stroke-miterlimit="10"/>
<path d="M142.65 91.5415L154.587 112.188" stroke="#2B282E" stroke-width="0.221" stroke-miterlimit="10"/>
<path d="M145.719 89.8911L157.656 110.538" stroke="#2B282E" stroke-width="0.221" stroke-miterlimit="10"/>
<path d="M148.789 88.2407L160.725 108.887" stroke="#2B282E" stroke-width="0.221" stroke-miterlimit="10"/>
<path d="M151.857 86.5903L163.794 107.237" stroke="#2B282E" stroke-width="0.221" stroke-miterlimit="10"/>
<path d="M154.927 84.9398L166.863 105.587" stroke="#2B282E" stroke-width="0.221" stroke-miterlimit="10"/>
<path d="M100.563 115.776L99.5354 115.183L153.745 83.9203L157.783 82.7789L100.563 115.776Z" fill="#423E47"/>
<path d="M151.751 114.038L169.818 124.461L160.772 112.297L151.751 114.038Z" fill="#F7CA86"/>
<path d="M178.874 101.891L169.767 103.644L151.751 114.038L160.772 112.297L178.874 101.891Z" fill="#423E47"/>
<path d="M114.752 121.704V123.303L117.266 124.754V123.154L114.889 121.783L114.752 121.704Z" fill="#F3B069"/>
<path d="M104.433 115.078V116.677L106.947 118.128V116.528L104.57 115.157L104.433 115.078Z" fill="#F3B069"/>
<path d="M107.534 114.5V116.098L110.049 117.548V115.948L107.672 114.577L107.534 114.5Z" fill="#F3B069"/>
<path d="M120.76 133.356V134.955L123.275 136.406V134.806L120.898 133.435L120.76 133.356Z" fill="#F3B069"/>
<path d="M153.67 115.078V116.677L156.184 118.128V116.528L153.807 115.157L153.67 115.078Z" fill="#F3B069"/>
<path d="M157.929 115.078V116.677L160.444 118.128V116.528L158.066 115.157L157.929 115.078Z" fill="#F3B069"/>
<path d="M101.235 136.504V138.103L103.75 139.554V137.954L101.373 136.581L101.235 136.504Z" fill="#F3B069"/>
<path d="M134.985 153.081V159.866L134.171 159.397V152.612L134.578 152.845L134.985 153.081Z" fill="#E8E5E1"/>
<path d="M140.442 156.228V163.014L139.628 162.545V155.76L140.035 155.993L140.442 156.228Z" fill="#E8E5E1"/>
<path d="M134.985 153.081L134.578 152.845V152.614L135.392 153.083L135.394 159.866H134.987L134.985 153.081Z" fill="#BDBBB7"/>
<path d="M140.442 156.228L140.035 155.993V155.76L140.849 156.228L140.851 163.011L140.444 163.014L140.442 156.228Z" fill="#BDBBB7"/>
<path d="M143.324 148.671V158.878L142.731 159.288V149.079L132.477 143.165L131.884 142.823L132.477 142.412L143.324 148.671Z" fill="#BA4019"/>
<path d="M142.731 149.079V159.288L131.883 153.028V142.821L132.476 143.163L142.731 149.079Z" fill="#F35321"/>
<path d="M135.177 149.279C135.152 149.299 135.128 149.311 135.105 149.314C135.083 149.317 135.059 149.313 135.036 149.301C135.009 149.29 134.984 149.269 134.961 149.238C134.939 149.208 134.911 149.171 134.877 149.13C134.844 149.089 134.803 149.048 134.755 149.005C134.706 148.963 134.643 148.924 134.564 148.891C134.494 148.861 134.43 148.844 134.371 148.838C134.312 148.832 134.259 148.835 134.212 148.849C134.164 148.863 134.123 148.885 134.089 148.918C134.056 148.95 134.029 148.991 134.008 149.04C133.983 149.1 133.979 149.158 133.998 149.214C134.017 149.27 134.049 149.324 134.096 149.377C134.143 149.431 134.199 149.485 134.264 149.539C134.329 149.593 134.396 149.65 134.463 149.709C134.53 149.767 134.594 149.829 134.655 149.895C134.716 149.961 134.765 150.032 134.801 150.108C134.838 150.185 134.859 150.268 134.863 150.358C134.867 150.448 134.846 150.546 134.801 150.653C134.752 150.769 134.686 150.869 134.601 150.952C134.517 151.036 134.418 151.098 134.303 151.138C134.191 151.179 134.068 151.196 133.934 151.19C133.8 151.185 133.659 151.15 133.51 151.086C133.424 151.05 133.343 151.006 133.266 150.955C133.189 150.903 133.119 150.846 133.055 150.783C132.99 150.721 132.934 150.655 132.884 150.585C132.835 150.515 132.795 150.444 132.762 150.371L133.007 150.203C133.027 150.192 133.05 150.185 133.074 150.182C133.098 150.179 133.122 150.183 133.145 150.193C133.176 150.206 133.205 150.233 133.231 150.274C133.257 150.315 133.288 150.36 133.325 150.41C133.362 150.46 133.409 150.512 133.465 150.564C133.521 150.617 133.596 150.663 133.69 150.703C133.833 150.763 133.958 150.778 134.064 150.747C134.17 150.716 134.248 150.64 134.299 150.519C134.326 150.451 134.332 150.388 134.315 150.33C134.299 150.272 134.267 150.216 134.219 150.163C134.173 150.109 134.116 150.056 134.05 150.004C133.984 149.952 133.917 149.898 133.849 149.841C133.782 149.785 133.718 149.724 133.657 149.659C133.596 149.594 133.547 149.521 133.511 149.442C133.475 149.363 133.456 149.277 133.454 149.181C133.452 149.086 133.475 148.979 133.525 148.862C133.564 148.768 133.622 148.684 133.699 148.612C133.776 148.539 133.867 148.485 133.972 148.449C134.076 148.412 134.192 148.396 134.32 148.401C134.447 148.406 134.582 148.439 134.723 148.498C134.883 148.566 135.02 148.652 135.135 148.757C135.25 148.862 135.337 148.977 135.396 149.103L135.177 149.279ZM137.222 152.629L136.833 152.464C136.789 152.446 136.758 152.42 136.739 152.387C136.719 152.354 136.71 152.32 136.711 152.284L136.731 151.675L135.611 151.198L135.187 151.637C135.166 151.66 135.136 151.676 135.097 151.686C135.058 151.696 135.017 151.692 134.975 151.675L134.584 151.509L136.735 149.385L137.251 149.603L137.222 152.629ZM135.883 150.914L136.746 151.28L136.779 150.284C136.779 150.24 136.781 150.188 136.786 150.129C136.791 150.069 136.797 150.006 136.804 149.938C136.761 149.992 136.72 150.041 136.682 150.085C136.644 150.129 136.608 150.168 136.574 150.201L135.883 150.914ZM138.172 152.564L139.254 153.024L139.086 153.417L137.499 152.745L138.595 150.173L139.099 150.387L138.172 152.564ZM142.243 151.721L142.081 152.102L140.879 151.592L140.573 152.306L141.519 152.707L141.361 153.073L140.416 152.672L140.105 153.397L141.301 153.908L141.138 154.288L139.433 153.565L140.532 150.996L142.243 151.721Z" fill="white"/>
<path d="M158.782 149.638C158.46 150.533 157.449 151.362 155.87 151.881C152.961 152.837 149.22 152.381 147.518 150.861C147.219 150.606 146.982 150.287 146.825 149.928C146.98 149.529 147.228 149.172 147.55 148.889C148.185 148.338 148.93 147.929 149.736 147.688C152.6 146.746 156.269 147.173 158.006 148.637C158.033 148.659 158.061 148.682 158.088 148.707C158.386 148.961 158.624 149.279 158.782 149.638Z" fill="#C9B148"/>
<path d="M158.781 149.638C158.46 150.533 157.449 151.362 155.87 151.881C152.961 152.837 149.22 152.381 147.518 150.861C147.219 150.606 146.982 150.287 146.825 149.928C146.771 149.804 146.732 149.673 146.709 149.54C146.673 149.343 146.673 149.142 146.709 148.945C146.878 147.929 147.933 146.958 149.704 146.375C152.614 145.419 156.354 145.875 158.056 147.395C158.454 147.722 158.735 148.169 158.856 148.669C158.898 148.87 158.904 149.076 158.873 149.279C158.855 149.402 158.824 149.522 158.782 149.639" fill="#EBCC44"/>
<path d="M155.45 151.504C152.936 152.331 149.707 151.937 148.236 150.624C146.766 149.312 147.611 147.575 150.124 146.75C152.637 145.925 155.867 146.317 157.337 147.63C158.808 148.943 157.963 150.679 155.45 151.504Z" fill="#FADC5A"/>
<path d="M155.45 151.504C152.936 152.331 149.707 151.937 148.236 150.624C146.766 149.312 147.611 147.575 150.124 146.75C152.637 145.925 155.867 146.317 157.337 147.63C158.808 148.943 157.963 150.679 155.45 151.504Z" fill="#FADC5A"/>
<path d="M155.45 151.504C152.936 152.331 149.707 151.937 148.236 150.624C146.766 149.312 147.611 147.575 150.124 146.75C152.637 145.925 155.867 146.317 157.337 147.63C158.808 148.943 157.963 150.678 155.45 151.504Z" stroke="#C9B148" stroke-width="0.325" stroke-miterlimit="10"/>
<path d="M145.673 155.559L144.839 156.213L144.525 155.814L145.328 155.184C144.9 154.639 144.662 154.109 144.615 153.596L145.283 153.072C145.269 153.323 145.318 153.611 145.43 153.938C145.546 154.265 145.691 154.539 145.866 154.762L147.833 153.219C147.662 152.443 147.625 151.882 147.722 151.537C147.822 151.19 148.028 150.894 148.341 150.648C148.712 150.357 149.132 150.233 149.6 150.275C150.07 150.316 150.485 150.509 150.845 150.856L151.536 150.314L151.85 150.713L151.174 151.243C151.553 151.757 151.754 152.16 151.776 152.453L151.123 152.965C151.123 152.543 150.961 152.11 150.636 151.665L148.608 153.257C148.773 153.988 148.812 154.544 148.727 154.926C148.646 155.308 148.455 155.617 148.152 155.854C147.789 156.139 147.386 156.257 146.945 156.206C146.508 156.156 146.084 155.94 145.673 155.559ZM148.509 152.688L150.299 151.284C150.087 151.103 149.857 151.008 149.61 150.999C149.365 150.988 149.138 151.065 148.928 151.23C148.708 151.403 148.568 151.596 148.507 151.809C148.447 152.022 148.447 152.315 148.509 152.688ZM147.947 153.775L146.211 155.137C146.706 155.547 147.167 155.585 147.592 155.251C147.945 154.974 148.064 154.482 147.947 153.775Z" fill="#C9B148"/>
<path d="M145.582 155.478L144.748 156.132L144.434 155.732L145.237 155.103C144.809 154.557 144.571 154.028 144.524 153.515L145.192 152.991C145.178 153.241 145.227 153.53 145.339 153.856C145.455 154.183 145.6 154.458 145.775 154.681L147.742 153.138C147.571 152.361 147.534 151.801 147.632 151.456C147.731 151.108 147.937 150.812 148.25 150.567C148.621 150.276 149.041 150.151 149.509 150.194C149.98 150.234 150.395 150.428 150.754 150.775L151.446 150.232L151.759 150.632L151.083 151.162C151.462 151.676 151.663 152.079 151.686 152.371L151.032 152.884C151.032 152.462 150.87 152.029 150.545 151.584L148.517 153.175C148.682 153.907 148.721 154.463 148.636 154.844C148.555 155.226 148.364 155.536 148.062 155.773C147.698 156.058 147.295 156.175 146.854 156.125C146.417 156.074 145.993 155.859 145.582 155.478ZM148.418 152.607L150.209 151.203C149.996 151.022 149.766 150.927 149.519 150.918C149.275 150.907 149.047 150.984 148.837 151.149C148.617 151.322 148.477 151.515 148.416 151.727C148.356 151.94 148.357 152.234 148.418 152.607ZM147.856 153.694L146.12 155.056C146.615 155.465 147.076 155.504 147.501 155.17C147.854 154.893 147.973 154.401 147.856 153.694Z" fill="#EBCC44"/>
<path d="M155.902 153.193C152.993 154.151 149.253 153.694 147.55 152.176C147.304 151.983 147.103 151.74 146.958 151.463C146.814 151.186 146.731 150.881 146.713 150.569L146.709 149.541C146.733 149.675 146.771 149.805 146.825 149.929C146.983 150.288 147.22 150.607 147.519 150.862C149.221 152.382 152.961 152.838 155.871 151.882C157.45 151.362 158.46 150.533 158.782 149.64C158.824 149.523 158.855 149.402 158.873 149.279L158.893 150.006L158.908 150.571C158.765 151.605 157.704 152.6 155.903 153.194" fill="#C9B148"/>
<path d="M158.787 145.878C158.465 146.773 157.455 147.601 155.876 148.121C152.966 149.077 149.226 148.621 147.524 147.101C147.225 146.846 146.988 146.527 146.83 146.168C146.985 145.768 147.234 145.412 147.555 145.129C148.19 144.578 148.935 144.169 149.74 143.928C152.605 142.986 156.274 143.412 158.012 144.877C158.039 144.899 158.066 144.922 158.093 144.947C158.392 145.201 158.629 145.519 158.787 145.878Z" fill="#C9B148"/>
<path d="M158.787 145.878C158.465 146.773 157.454 147.601 155.876 148.121C152.966 149.077 149.226 148.621 147.524 147.101C147.225 146.846 146.987 146.527 146.83 146.168C146.776 146.043 146.737 145.913 146.714 145.78C146.678 145.583 146.678 145.382 146.714 145.185C146.884 144.168 147.938 143.197 149.709 142.615C152.619 141.658 156.359 142.114 158.062 143.635C158.459 143.962 158.74 144.409 158.862 144.909C158.904 145.109 158.909 145.316 158.879 145.518C158.86 145.641 158.83 145.762 158.788 145.879" fill="#EBCC44"/>
<path d="M155.455 147.744C152.941 148.571 149.712 148.177 148.241 146.864C146.771 145.552 147.616 143.816 150.129 142.99C152.642 142.165 155.872 142.557 157.342 143.871C158.813 145.184 157.968 146.919 155.455 147.744Z" fill="#FADC5A"/>
<path d="M155.455 147.744C152.941 148.571 149.712 148.177 148.241 146.864C146.771 145.552 147.616 143.816 150.129 142.99C152.642 142.165 155.872 142.557 157.342 143.871C158.813 145.184 157.968 146.919 155.455 147.744Z" fill="#FADC5A"/>
<path d="M155.455 147.744C152.941 148.571 149.712 148.177 148.241 146.864C146.771 145.552 147.616 143.816 150.129 142.99C152.642 142.165 155.872 142.557 157.342 143.871C158.813 145.184 157.968 146.918 155.455 147.744Z" stroke="#C9B148" stroke-width="0.325" stroke-miterlimit="10"/>
<path d="M145.678 151.799L144.844 152.453L144.53 152.054L145.333 151.424C144.905 150.878 144.667 150.349 144.62 149.836L145.288 149.312C145.274 149.563 145.323 149.851 145.435 150.177C145.551 150.504 145.696 150.779 145.871 151.002L147.838 149.459C147.667 148.683 147.63 148.122 147.727 147.777C147.827 147.43 148.033 147.133 148.346 146.888C148.717 146.597 149.137 146.472 149.605 146.515C150.076 146.555 150.491 146.749 150.85 147.096L151.542 146.553L151.855 146.953L151.179 147.483C151.558 147.997 151.759 148.4 151.782 148.692L151.128 149.205C151.128 148.783 150.966 148.35 150.641 147.905L148.613 149.496C148.778 150.228 148.817 150.784 148.732 151.165C148.651 151.547 148.46 151.857 148.158 152.094C147.794 152.379 147.391 152.496 146.95 152.446C146.513 152.395 146.089 152.18 145.678 151.799ZM148.514 148.928L150.305 147.524C150.092 147.343 149.862 147.248 149.615 147.239C149.371 147.228 149.143 147.305 148.933 147.47C148.713 147.643 148.573 147.836 148.512 148.049C148.452 148.261 148.453 148.555 148.514 148.928ZM147.952 150.015L146.216 151.377C146.711 151.787 147.172 151.825 147.597 151.491C147.95 151.214 148.069 150.722 147.952 150.015Z" fill="#C9B148"/>
<path d="M145.588 151.718L144.754 152.372L144.44 151.972L145.243 151.342C144.815 150.797 144.577 150.268 144.53 149.755L145.198 149.23C145.184 149.481 145.233 149.77 145.345 150.096C145.461 150.423 145.606 150.698 145.781 150.92L147.748 149.377C147.577 148.601 147.54 148.041 147.637 147.695C147.737 147.348 147.943 147.052 148.256 146.807C148.627 146.516 149.047 146.391 149.515 146.434C149.985 146.474 150.4 146.668 150.76 147.015L151.451 146.472L151.765 146.871L151.089 147.402C151.468 147.916 151.669 148.319 151.691 148.611L151.038 149.123C151.038 148.702 150.876 148.268 150.551 147.824L148.523 149.415C148.688 150.146 148.727 150.703 148.642 151.084C148.561 151.466 148.37 151.776 148.067 152.013C147.704 152.298 147.301 152.415 146.86 152.364C146.423 152.314 145.999 152.098 145.588 151.718ZM148.424 148.847L150.214 147.442C150.002 147.262 149.772 147.167 149.525 147.158C149.281 147.147 149.053 147.224 148.843 147.389C148.623 147.561 148.483 147.754 148.422 147.967C148.362 148.18 148.362 148.473 148.424 148.847ZM147.862 149.933L146.126 151.296C146.621 151.705 147.082 151.743 147.507 151.41C147.86 151.133 147.979 150.64 147.862 149.933Z" fill="#EBCC44"/>
<path d="M155.907 149.431C152.998 150.389 149.257 149.933 147.555 148.415C147.309 148.222 147.108 147.979 146.963 147.702C146.819 147.425 146.735 147.12 146.718 146.809L146.714 145.781C146.737 145.914 146.776 146.044 146.829 146.168C146.987 146.528 147.224 146.847 147.523 147.101C149.226 148.622 152.965 149.078 155.875 148.121C157.454 147.602 158.464 146.772 158.786 145.879C158.828 145.762 158.859 145.641 158.878 145.518L158.898 146.246L158.912 146.81C158.77 147.844 157.709 148.839 155.907 149.433" fill="#C9B148"/>
<path d="M160.596 143.513C160.274 144.407 159.263 145.236 157.685 145.755C154.775 146.712 151.035 146.256 149.333 144.735C149.034 144.481 148.797 144.162 148.639 143.802C148.794 143.403 149.043 143.047 149.364 142.763C149.999 142.212 150.744 141.803 151.549 141.563C154.414 140.62 158.083 141.047 159.82 142.512C159.847 142.534 159.875 142.557 159.902 142.581C160.2 142.836 160.436 143.154 160.593 143.513" fill="#C9B148"/>
<path d="M160.596 143.513C160.274 144.407 159.264 145.236 157.685 145.755C154.775 146.712 151.035 146.255 149.333 144.735C149.034 144.481 148.797 144.162 148.639 143.802C148.585 143.678 148.547 143.548 148.523 143.414C148.487 143.217 148.487 143.016 148.523 142.819C148.693 141.803 149.747 140.832 151.518 140.249C154.428 139.293 158.168 139.749 159.871 141.269C160.268 141.596 160.549 142.043 160.671 142.543C160.713 142.744 160.719 142.95 160.688 143.153C160.669 143.276 160.639 143.397 160.597 143.514" fill="#EBCC44"/>
<path d="M157.264 145.379C154.751 146.206 151.521 145.812 150.051 144.499C148.58 143.187 149.426 141.451 151.938 140.625C154.451 139.8 157.681 140.192 159.152 141.505C160.622 142.818 159.777 144.554 157.264 145.379Z" fill="#FADC5A"/>
<path d="M157.264 145.379C154.751 146.206 151.521 145.812 150.051 144.499C148.58 143.187 149.426 141.451 151.938 140.625C154.451 139.8 157.681 140.192 159.152 141.505C160.622 142.818 159.777 144.554 157.264 145.379Z" fill="#FADC5A"/>
<path d="M157.264 145.379C154.751 146.206 151.521 145.812 150.051 144.499C148.58 143.187 149.426 141.451 151.938 140.625C154.451 139.8 157.681 140.192 159.152 141.505C160.622 142.818 159.777 144.553 157.264 145.379Z" stroke="#C9B148" stroke-width="0.325" stroke-miterlimit="10"/>
<path d="M147.488 149.434L146.654 150.088L146.341 149.689L147.144 149.059C146.715 148.513 146.477 147.984 146.43 147.471L147.099 146.947C147.085 147.198 147.133 147.486 147.245 147.812C147.361 148.139 147.507 148.414 147.681 148.637L149.648 147.094C149.477 146.318 149.441 145.757 149.538 145.412C149.638 145.064 149.844 144.768 150.156 144.523C150.528 144.232 150.947 144.107 151.415 144.15C151.886 144.19 152.301 144.384 152.66 144.731L153.352 144.188L153.666 144.588L152.989 145.118C153.368 145.632 153.569 146.035 153.592 146.327L152.939 146.84C152.938 146.418 152.776 145.985 152.452 145.54L150.423 147.131C150.588 147.863 150.628 148.419 150.542 148.8C150.462 149.182 150.27 149.492 149.968 149.729C149.604 150.014 149.202 150.131 148.76 150.081C148.323 150.03 147.899 149.815 147.488 149.434ZM150.325 146.563L152.115 145.159C151.902 144.978 151.673 144.883 151.425 144.874C151.181 144.863 150.954 144.94 150.744 145.105C150.523 145.278 150.383 145.471 150.323 145.683C150.262 145.896 150.263 146.19 150.325 146.563ZM149.762 147.65L148.026 149.012C148.522 149.422 148.982 149.46 149.407 149.126C149.761 148.849 149.879 148.357 149.762 147.65Z" fill="#C9B148"/>
<path d="M147.397 149.352L146.563 150.006L146.249 149.607L147.052 148.977C146.624 148.432 146.386 147.903 146.339 147.389L147.007 146.865C146.993 147.116 147.042 147.404 147.154 147.731C147.27 148.058 147.415 148.332 147.59 148.555L149.557 147.012C149.386 146.236 149.349 145.675 149.446 145.33C149.546 144.983 149.752 144.687 150.065 144.442C150.436 144.15 150.856 144.026 151.324 144.068C151.795 144.109 152.21 144.302 152.569 144.649L153.261 144.107L153.574 144.506L152.898 145.036C153.277 145.55 153.478 145.953 153.501 146.246L152.847 146.758C152.847 146.336 152.685 145.903 152.36 145.458L150.332 147.05C150.497 147.781 150.536 148.337 150.451 148.719C150.37 149.101 150.179 149.41 149.877 149.647C149.513 149.933 149.11 150.05 148.669 149.999C148.232 149.949 147.808 149.733 147.397 149.352ZM150.233 146.482L152.024 145.077C151.811 144.896 151.581 144.801 151.334 144.792C151.09 144.782 150.862 144.859 150.652 145.023C150.432 145.196 150.292 145.389 150.231 145.602C150.171 145.815 150.172 146.108 150.233 146.482ZM149.671 147.568L147.935 148.93C148.43 149.34 148.891 149.378 149.316 149.044C149.669 148.767 149.788 148.275 149.671 147.568Z" fill="#EBCC44"/>
<path d="M157.717 147.067C154.807 148.025 151.067 147.569 149.364 146.049C149.119 145.856 148.917 145.613 148.773 145.336C148.628 145.059 148.545 144.755 148.527 144.443L148.523 143.415C148.547 143.548 148.585 143.678 148.639 143.803C148.797 144.162 149.034 144.481 149.333 144.736C151.035 146.256 154.775 146.712 157.685 145.755C159.264 145.236 160.274 144.406 160.596 143.513C160.638 143.396 160.669 143.275 160.687 143.152L160.707 143.879L160.722 144.444C160.579 145.478 159.518 146.473 157.717 147.067Z" fill="#C9B148"/>
<path d="M99.7445 142.099C99.4227 142.993 98.4121 143.822 96.8332 144.341C93.9237 145.297 90.1834 144.841 88.4812 143.321C88.1822 143.066 87.9451 142.746 87.7876 142.386C87.9426 141.987 88.1912 141.631 88.5126 141.347C89.1475 140.797 89.8927 140.387 90.6984 140.147C93.5624 139.204 97.2315 139.631 98.9691 141.096C98.9962 141.118 99.0233 141.141 99.0504 141.165C99.3491 141.419 99.5863 141.738 99.744 142.097" fill="#C9B148"/>
<path d="M99.8706 143.029L99.856 142.465C99.8921 142.651 99.8971 142.842 99.8706 143.029Z" fill="#C9B148"/>
<path d="M99.7445 142.099C99.4227 142.993 98.4122 143.822 96.8333 144.341C93.9237 145.297 90.1834 144.841 88.4813 143.321C88.1823 143.066 87.9451 142.746 87.7877 142.386C87.734 142.262 87.6953 142.132 87.6721 141.999C87.6363 141.802 87.6363 141.6 87.6721 141.403C87.8418 140.387 88.8962 139.416 90.6675 138.834C93.5771 137.877 97.3174 138.334 99.02 139.853C99.4175 140.18 99.6981 140.628 99.8198 141.127C99.8618 141.328 99.8676 141.535 99.8369 141.737C99.8183 141.86 99.7878 141.981 99.7457 142.098" fill="#EBCC44"/>
<path d="M96.4128 143.965C93.8995 144.792 90.6701 144.397 89.1995 143.085C87.7288 141.772 88.5742 140.036 91.0871 139.211C93.6 138.386 96.8298 138.778 98.3005 140.091C99.7711 141.404 98.9261 143.14 96.4128 143.965Z" fill="#FADC5A"/>
<path d="M96.4128 143.965C93.8995 144.792 90.6701 144.397 89.1995 143.085C87.7288 141.772 88.5742 140.036 91.0871 139.211C93.6 138.386 96.8298 138.778 98.3005 140.091C99.7711 141.404 98.9261 143.14 96.4128 143.965Z" fill="#FADC5A"/>
<path d="M96.4128 143.965C93.8995 144.792 90.6701 144.397 89.1995 143.085C87.7288 141.772 88.5742 140.036 91.0871 139.211C93.6 138.386 96.8298 138.778 98.3005 140.091C99.7711 141.404 98.9261 143.138 96.4128 143.965Z" stroke="#C9B148" stroke-width="0.325" stroke-miterlimit="10"/>
<path d="M86.6361 148.019L85.8024 148.673L85.4887 148.273L86.2916 147.644C85.8632 147.098 85.6254 146.569 85.5782 146.056L86.2467 145.532C86.2327 145.782 86.2814 146.071 86.3929 146.397C86.509 146.724 86.6545 146.999 86.8294 147.222L88.7964 145.679C88.6254 144.902 88.5885 144.342 88.6858 143.997C88.7855 143.649 88.9916 143.353 89.3041 143.108C89.6755 142.817 90.0952 142.692 90.5632 142.735C91.0338 142.775 91.4488 142.969 91.8083 143.316L92.4998 142.773L92.8135 143.173L92.1374 143.703C92.5162 144.217 92.717 144.62 92.7398 144.912L92.0867 145.425C92.0864 145.003 91.9241 144.57 91.5995 144.125L89.5711 145.716C89.7359 146.448 89.7756 147.004 89.6903 147.385C89.6095 147.767 89.418 148.077 89.1158 148.314C88.7521 148.599 88.3495 148.716 87.908 148.666C87.4711 148.615 87.0471 148.4 86.6361 148.019ZM89.4725 145.148L91.2628 143.744C91.0503 143.563 90.8205 143.468 90.5734 143.459C90.3289 143.448 90.1016 143.525 89.8916 143.69C89.6713 143.863 89.531 144.056 89.4706 144.268C89.4102 144.481 89.4108 144.775 89.4725 145.148ZM88.9104 146.235L87.1739 147.597C87.6696 148.006 88.1301 148.045 88.5552 147.711C88.9087 147.434 89.027 146.942 88.9104 146.235Z" fill="#C9B148"/>
<path d="M86.5453 147.937L85.7116 148.592L85.3979 148.192L86.2008 147.562C85.7724 147.017 85.5346 146.488 85.4874 145.975L86.1558 145.45C86.1419 145.701 86.1906 145.99 86.3021 146.316C86.4181 146.643 86.5636 146.918 86.7386 147.14L88.7056 145.597C88.5346 144.821 88.4977 144.261 88.5949 143.915C88.6947 143.568 88.9008 143.272 89.2133 143.027C89.5846 142.736 90.0043 142.611 90.4724 142.653C90.9429 142.694 91.358 142.888 91.7175 143.234L92.409 142.692L92.7227 143.091L92.0466 143.622C92.4254 144.135 92.6262 144.539 92.649 144.831L91.9959 145.343C91.9956 144.921 91.8332 144.488 91.5087 144.044L89.4803 145.635C89.6451 146.366 89.6848 146.923 89.5995 147.304C89.5187 147.686 89.3272 147.995 89.025 148.233C88.6613 148.518 88.2587 148.635 87.8172 148.584C87.3803 148.534 86.9563 148.318 86.5453 147.937ZM89.3817 145.067L91.1719 143.662C90.9595 143.482 90.7297 143.387 90.4826 143.378C90.2381 143.367 90.0108 143.444 89.8008 143.609C89.5805 143.781 89.4402 143.974 89.3798 144.187C89.3193 144.4 89.32 144.693 89.3817 145.067ZM88.8195 146.153L87.0831 147.516C87.5788 147.925 88.0392 147.963 88.4644 147.63C88.8178 147.352 88.9362 146.86 88.8195 146.153Z" fill="#EBCC44"/>
<path d="M96.8654 145.651C93.9559 146.608 90.2156 146.152 88.513 144.634C88.2675 144.441 88.0658 144.198 87.9215 143.921C87.7771 143.644 87.6934 143.34 87.6758 143.028L87.6721 142C87.6953 142.134 87.7341 142.264 87.7877 142.388C87.9454 142.747 88.1825 143.066 88.4813 143.321C90.1838 144.841 93.9241 145.297 96.8333 144.341C98.4126 143.821 99.4227 142.992 99.7445 142.099C99.7865 141.981 99.8172 141.861 99.836 141.738L99.856 142.465L99.8706 143.03C99.7278 144.064 98.6668 145.059 96.8654 145.653" fill="#C9B148"/>
<path d="M101.553 139.733C101.232 140.627 100.221 141.456 98.6422 141.975C95.7326 142.932 91.9923 142.476 90.2897 140.956C89.9916 140.7 89.7551 140.381 89.5981 140.021C89.7532 139.622 90.0018 139.265 90.3231 138.982C90.9579 138.431 91.703 138.022 92.5085 137.782C95.373 136.839 99.0421 137.266 100.78 138.73C100.807 138.752 100.834 138.775 100.861 138.8C101.16 139.054 101.397 139.372 101.555 139.732" fill="#C9B148"/>
<path d="M101.678 140.664L101.663 140.1C101.699 140.286 101.704 140.477 101.678 140.664Z" fill="#C9B148"/>
<path d="M101.554 139.733C101.232 140.627 100.221 141.456 98.6425 141.975C95.7329 142.932 91.9926 142.476 90.29 140.956C89.9919 140.7 89.7555 140.381 89.5985 140.021C89.5449 139.897 89.506 139.766 89.4825 139.633C89.4469 139.436 89.4469 139.235 89.4825 139.038C89.6522 138.022 90.7066 137.051 92.4779 136.468C95.3875 135.512 99.1278 135.968 100.83 137.488C101.228 137.815 101.509 138.262 101.63 138.762C101.672 138.963 101.678 139.169 101.647 139.372C101.629 139.495 101.598 139.615 101.556 139.732" fill="#EBCC44"/>
<path d="M98.2202 141.6C95.7068 142.427 92.4775 142.032 91.0068 140.72C89.5362 139.407 90.3816 137.671 92.8945 136.846C95.4074 136.02 98.6372 136.413 100.108 137.726C101.578 139.039 100.734 140.775 98.2202 141.6Z" fill="#FADC5A"/>
<path d="M98.2202 141.6C95.7068 142.427 92.4775 142.032 91.0068 140.72C89.5362 139.407 90.3816 137.671 92.8945 136.846C95.4074 136.02 98.6372 136.413 100.108 137.726C101.578 139.039 100.734 140.775 98.2202 141.6Z" fill="#FADC5A"/>
<path d="M98.2202 141.6C95.7068 142.427 92.4775 142.032 91.0068 140.72C89.5362 139.407 90.3816 137.671 92.8945 136.846C95.4074 136.02 98.6372 136.413 100.108 137.726C101.578 139.039 100.735 140.773 98.2202 141.6Z" stroke="#C9B148" stroke-width="0.325" stroke-miterlimit="10"/>
<path d="M88.4452 145.654L87.6115 146.308L87.2978 145.908L88.1007 145.279C87.6723 144.733 87.4345 144.204 87.3873 143.691L88.0557 143.167C88.0418 143.417 88.0905 143.706 88.202 144.032C88.318 144.359 88.4636 144.634 88.6385 144.857L90.6055 143.314C90.4345 142.537 90.3976 141.977 90.4948 141.632C90.5946 141.284 90.8007 140.988 91.1132 140.743C91.4845 140.452 91.9042 140.327 92.3723 140.37C92.8429 140.41 93.2579 140.604 93.6174 140.951L94.3089 140.408L94.6226 140.807L93.9465 141.338C94.3253 141.852 94.5261 142.255 94.5489 142.547L93.8958 143.06C93.8955 142.638 93.7331 142.204 93.4086 141.76L91.3802 143.351C91.545 144.082 91.5847 144.639 91.4994 145.02C91.4186 145.402 91.2271 145.712 90.9249 145.949C90.5612 146.234 90.1586 146.351 89.7171 146.3C89.2802 146.25 88.8562 146.035 88.4452 145.654ZM91.2816 142.783L93.0718 141.379C92.8594 141.198 92.6296 141.103 92.3825 141.094C92.138 141.083 91.9107 141.16 91.7007 141.325C91.4804 141.498 91.3401 141.69 91.2797 141.903C91.2192 142.116 91.2199 142.409 91.2816 142.783ZM90.7194 143.87L88.983 145.232C89.4787 145.641 89.9391 145.679 90.3643 145.346C90.7177 145.069 90.8361 144.577 90.7194 143.87Z" fill="#C9B148"/>
<path d="M88.3543 145.572L87.5207 146.226L87.2069 145.827L88.0099 145.197C87.5815 144.652 87.3437 144.122 87.2965 143.609L87.9649 143.085C87.9509 143.336 87.9997 143.624 88.1112 143.951C88.2272 144.278 88.3727 144.552 88.5477 144.775L90.5147 143.232C90.3437 142.456 90.3068 141.895 90.404 141.55C90.5038 141.203 90.7099 140.907 91.0224 140.661C91.3937 140.37 91.8134 140.246 92.2814 140.288C92.752 140.329 93.1671 140.522 93.5265 140.869L94.218 140.327L94.5318 140.726L93.8556 141.256C94.2345 141.77 94.4353 142.173 94.458 142.466L93.805 142.978C93.8047 142.556 93.6423 142.123 93.3178 141.678L91.2894 143.27C91.4542 144.001 91.4939 144.557 91.4085 144.939C91.3278 145.321 91.1363 145.63 90.8341 145.867C90.4704 146.152 90.0678 146.27 89.6263 146.219C89.1894 146.169 88.7654 145.953 88.3543 145.572ZM91.1908 142.701L92.981 141.297C92.7685 141.116 92.5388 141.021 92.2917 141.012C92.0471 141.001 91.8199 141.078 91.6099 141.243C91.3896 141.416 91.2493 141.609 91.1888 141.822C91.1284 142.035 91.1291 142.328 91.1908 142.701ZM90.6286 143.788L88.8922 145.15C89.3879 145.56 89.8483 145.598 90.2735 145.264C90.6269 144.987 90.7453 144.495 90.6286 143.788Z" fill="#EBCC44"/>
<path d="M98.6748 143.287C95.7652 144.245 92.0249 143.789 90.3223 142.271C90.0768 142.078 89.8751 141.835 89.7308 141.558C89.5864 141.281 89.5027 140.977 89.4851 140.665L89.4814 139.634C89.5047 139.768 89.5434 139.898 89.597 140.022C89.7546 140.382 89.9917 140.701 90.2906 140.955C91.9932 142.475 95.7335 142.931 98.6426 141.975C100.222 141.455 101.232 140.626 101.554 139.733C101.596 139.616 101.627 139.495 101.645 139.372L101.665 140.099L101.68 140.664C101.537 141.698 100.476 142.693 98.6748 143.287Z" fill="#C9B148"/>
</g>
</g>
</g>
</svg>
