<svg width="18" height="19" viewBox="0 0 18 19" fill="none" xmlns="http://www.w3.org/2000/svg">
<path d="M3.19615 14.5784C4.04615 13.9668 4.94808 13.4832 5.90193 13.1274C6.85577 12.7716 7.88847 12.5938 9 12.5938C10.1115 12.5938 11.1442 12.7716 12.0981 13.1274C13.0519 13.4832 13.9538 13.9668 14.8039 14.5784C15.4641 13.895 15.9952 13.088 16.3971 12.1572C16.799 11.2264 17 10.2053 17 9.09375C17 6.87708 16.2208 4.98958 14.6625 3.43125C13.1042 1.87292 11.2167 1.09375 9 1.09375C6.78333 1.09375 4.89583 1.87292 3.3375 3.43125C1.77917 4.98958 1 6.87708 1 9.09375C1 10.2053 1.20096 11.2264 1.60288 12.1572C2.00481 13.088 2.5359 13.895 3.19615 14.5784ZM9.00058 9.59375C8.15788 9.59375 7.44711 9.30453 6.86827 8.72608C6.28942 8.14761 6 7.43703 6 6.59433C6 5.75163 6.28923 5.04086 6.86768 4.46203C7.44614 3.88318 8.15672 3.59375 8.99942 3.59375C9.84212 3.59375 10.5529 3.88298 11.1317 4.46145C11.7106 5.0399 12 5.75047 12 6.59317C12 7.43587 11.7108 8.14664 11.1323 8.72548C10.5539 9.30433 9.84328 9.59375 9.00058 9.59375ZM9 18.0938C7.74487 18.0938 6.56987 17.8601 5.475 17.3928C4.38013 16.9255 3.42757 16.2867 2.6173 15.4764C1.80705 14.6662 1.16827 13.7136 0.70095 12.6188C0.23365 11.5239 0 10.3489 0 9.09375C0 7.83862 0.23365 6.66362 0.70095 5.56875C1.16827 4.47388 1.80705 3.52132 2.6173 2.71105C3.42757 1.9008 4.38013 1.26202 5.475 0.794701C6.56987 0.327401 7.74487 0.09375 9 0.09375C10.2551 0.09375 11.4301 0.327401 12.525 0.794701C13.6199 1.26202 14.5724 1.9008 15.3827 2.71105C16.1929 3.52132 16.8317 4.47388 17.299 5.56875C17.7663 6.66362 18 7.83862 18 9.09375C18 10.3489 17.7663 11.5239 17.299 12.6188C16.8317 13.7136 16.1929 14.6662 15.3827 15.4764C14.5724 16.2867 13.6199 16.9255 12.525 17.3928C11.4301 17.8601 10.2551 18.0938 9 18.0938ZM9 17.0938C9.9218 17.0938 10.8289 16.9325 11.7212 16.6101C12.6135 16.2877 13.3846 15.8463 14.0346 15.2861C13.3846 14.7643 12.6327 14.3518 11.7788 14.0486C10.925 13.7454 9.99872 13.5938 9 13.5938C8.00128 13.5938 7.0718 13.7422 6.21155 14.0389C5.35128 14.3357 4.60256 14.7514 3.96537 15.2861C4.61537 15.8463 5.38653 16.2877 6.27885 16.6101C7.17115 16.9325 8.0782 17.0938 9 17.0938ZM9 8.59375C9.56153 8.59375 10.0353 8.4008 10.4212 8.0149C10.807 7.629 11 7.15528 11 6.59375C11 6.03222 10.807 5.5585 10.4212 5.1726C10.0353 4.7867 9.56153 4.59375 9 4.59375C8.43847 4.59375 7.96475 4.7867 7.57885 5.1726C7.19295 5.5585 7 6.03222 7 6.59375C7 7.15528 7.19295 7.629 7.57885 8.0149C7.96475 8.4008 8.43847 8.59375 9 8.59375Z" fill="black"/>
</svg>
